<svg xmlns="http://www.w3.org/2000/svg" xmlns:xlink="http://www.w3.org/1999/xlink" width="173" height="171" viewBox="0 0 173 171">
  <defs>
    <clipPath id="clip-path">
      <path id="Trazado_740041" data-name="Trazado 740041" d="M85.5,0A85.5,85.5,0,1,1,0,85.5,85.5,85.5,0,0,1,85.5,0Z" transform="translate(493.182 7296)" fill="#15d3ec"/>
    </clipPath>
  </defs>
  <g id="Grupo_1034630" data-name="Grupo 1034630" transform="translate(-407.182 -7267)">
    <path id="Trazado_740040" data-name="Trazado 740040" d="M85.5,0A85.5,85.5,0,1,1,0,85.5,85.5,85.5,0,0,1,85.5,0Z" transform="translate(409.182 7267)" fill="#15d3ec"/>
    <g id="Enmascarar_grupo_173152" data-name="Enmascarar grupo 173152" transform="translate(-86 -29)" clip-path="url(#clip-path)">
      <g id="vendedor" transform="translate(521.245 7322.922)">
        <g id="Grupo_1034786" data-name="Grupo 1034786" transform="translate(2.505 5.877)">
          <g id="Grupo_1034771" data-name="Grupo 1034771" transform="translate(0 7.752)">
            <line id="Línea_2560" data-name="Línea 2560" x1="16.792" transform="translate(22.437 0)" fill="none" stroke="#12263f" stroke-linecap="round" stroke-linejoin="round" stroke-miterlimit="10" stroke-width="3"/>
            <path id="Trazado_740042" data-name="Trazado 740042" d="M17.205,17.589H3.61A1.105,1.105,0,0,0,2.5,18.695v93.7A1.105,1.105,0,0,0,3.61,113.5H28.258" transform="translate(-2.505 -17.589)" fill="none" stroke="#12263f" stroke-linecap="round" stroke-linejoin="round" stroke-miterlimit="10" stroke-width="3"/>
          </g>
          <path id="Trazado_740043" data-name="Trazado 740043" d="M33.041,119.263H17.756a1.105,1.105,0,0,0-1.105,1.105v5.083a1.105,1.105,0,0,0,1.105,1.105H33.041Z" transform="translate(-7.288 -44.215)" fill="none" stroke="#12263f" stroke-linecap="round" stroke-linejoin="round" stroke-miterlimit="10" stroke-width="3"/>
          <path id="Trazado_740044" data-name="Trazado 740044" d="M33.041,138.605H17.756a1.105,1.105,0,0,0-1.105,1.105v5.083a1.105,1.105,0,0,0,1.105,1.105H33.041Z" transform="translate(-7.288 -50.755)" fill="none" stroke="#12263f" stroke-linecap="round" stroke-linejoin="round" stroke-miterlimit="10" stroke-width="3"/>
          <path id="Trazado_740045" data-name="Trazado 740045" d="M96.721,23.987a17.145,17.145,0,0,1,6.028-13.067A16.586,16.586,0,0,0,90.821,5.877h-16.3A16.639,16.639,0,0,0,57.885,22.516V35.34a6.686,6.686,0,0,1,3.067-.742h2.32a6.259,6.259,0,0,1,6.258-6.187H80.986a10.572,10.572,0,0,0,7.632-3.256h0a3,3,0,0,1,2.163-.923h5.034a6.321,6.321,0,0,1,.914.067C96.727,24.2,96.721,24.092,96.721,23.987Z" transform="translate(-21.23 -5.877)" fill="none" stroke="#12263f" stroke-linecap="round" stroke-linejoin="round" stroke-miterlimit="10" stroke-width="3"/>
          <g id="Grupo_1034772" data-name="Grupo 1034772" transform="translate(25.753 58.354)">
            <path id="Trazado_740046" data-name="Trazado 740046" d="M133.565,100.18l-18.181-6.139v7.831h20.69A6.57,6.57,0,0,0,133.565,100.18Z" transform="translate(-66.425 -94.041)" fill="none" stroke="#12263f" stroke-linecap="round" stroke-linejoin="round" stroke-miterlimit="10" stroke-width="3"/>
            <path id="Trazado_740047" data-name="Trazado 740047" d="M79.69,102.128,77.1,105.293l-2.587-3.166-9.552,5.619a.751.751,0,0,1-1.132-.647V94.041L45.675,100.18a6.587,6.587,0,0,0-4.261,6.162v33H88.97V107.587Z" transform="translate(-41.414 -94.041)" fill="none" stroke="#12263f" stroke-linecap="round" stroke-linejoin="round" stroke-miterlimit="10" stroke-width="3"/>
          </g>
          <g id="Grupo_1034773" data-name="Grupo 1034773" transform="translate(48.172 54.227)">
            <path id="Trazado_740048" data-name="Trazado 740048" d="M79.558,87.806l-3.908,2.346a.751.751,0,0,0-.365.644v14.2a.751.751,0,0,0,1.132.647l9.552-5.619" transform="translate(-75.286 -87.806)" fill="none" stroke="#12263f" stroke-linecap="round" stroke-linejoin="round" stroke-miterlimit="10" stroke-width="3"/>
            <path id="Trazado_740049" data-name="Trazado 740049" d="M99.244,100.02l9.28,5.459v-4.61a1.105,1.105,0,0,1,1.105-1.105h.3V90.8a.751.751,0,0,0-.365-.644l-3.908-2.346" transform="translate(-83.387 -87.806)" fill="none" stroke="#12263f" stroke-linecap="round" stroke-linejoin="round" stroke-miterlimit="10" stroke-width="3"/>
          </g>
          <path id="Trazado_740050" data-name="Trazado 740050" d="M96.106,88.927H87.914a15.408,15.408,0,0,1-2.414-.191v6.8l6.51,7.967,6.51-7.967v-6.8A15.406,15.406,0,0,1,96.106,88.927Z" transform="translate(-30.567 -33.893)" fill="none" stroke="#12263f" stroke-linecap="round" stroke-linejoin="round" stroke-miterlimit="10" stroke-width="3"/>
          <g id="Grupo_1034778" data-name="Grupo 1034778" transform="translate(33.004 18.356)">
            <g id="Grupo_1034774" data-name="Grupo 1034774" transform="translate(0 10.365)">
              <path id="Trazado_740051" data-name="Trazado 740051" d="M61.405,60.276V49.343c0-.025,0-.048,0-.073h-2.32a6.718,6.718,0,0,0-6.718,6.718V56.9a6.718,6.718,0,0,0,6.718,6.718h2.69A15.352,15.352,0,0,1,61.405,60.276Z" transform="translate(-52.368 -49.27)" fill="none" stroke="#12263f" stroke-linecap="round" stroke-linejoin="round" stroke-miterlimit="10" stroke-width="3"/>
              <path id="Trazado_740052" data-name="Trazado 740052" d="M124.46,52.061V61.22a15.343,15.343,0,0,1-.371,3.346h2.69a6.718,6.718,0,0,0,6.718-6.718v-.916c0-.125,0-.25-.011-.374A17.13,17.13,0,0,1,124.46,52.061Z" transform="translate(-76.619 -50.214)" fill="none" stroke="#12263f" stroke-linecap="round" stroke-linejoin="round" stroke-miterlimit="10" stroke-width="3"/>
            </g>
            <path id="Trazado_740053" data-name="Trazado 740053" d="M99.48,33.676a6.318,6.318,0,0,0-.914-.067H93.532a3,3,0,0,0-2.163.923h0a10.572,10.572,0,0,1-7.632,3.256H72.281a6.26,6.26,0,0,0-6.26,6.26V54.981A15.307,15.307,0,0,0,81.328,70.288h8.191a15.307,15.307,0,0,0,15.307-15.307V45.822A17.13,17.13,0,0,1,99.48,33.676Z" transform="translate(-56.985 -33.61)" fill="none" stroke="#12263f" stroke-linecap="round" stroke-linejoin="round" stroke-miterlimit="10" stroke-width="3"/>
            <g id="Grupo_1034777" data-name="Grupo 1034777" transform="translate(19.888 11.189)">
              <g id="Grupo_1034776" data-name="Grupo 1034776">
                <path id="Trazado_740054" data-name="Trazado 740054" d="M93.872,52.68l-2.865,3.406,2.865,2.6" transform="translate(-85.321 -51.247)" fill="none" stroke="#12263f" stroke-linecap="round" stroke-linejoin="round" stroke-miterlimit="10" stroke-width="3"/>
                <g id="Grupo_1034775" data-name="Grupo 1034775">
                  <line id="Línea_2561" data-name="Línea 2561" y2="3.821" fill="none" stroke="#12263f" stroke-linecap="round" stroke-linejoin="round" stroke-miterlimit="10" stroke-width="3"/>
                  <line id="Línea_2562" data-name="Línea 2562" y2="3.821" transform="translate(17.101)" fill="none" stroke="#12263f" stroke-linecap="round" stroke-linejoin="round" stroke-miterlimit="10" stroke-width="3"/>
                </g>
              </g>
              <path id="Trazado_740055" data-name="Trazado 740055" d="M86.819,69.642a1.505,1.505,0,0,0-1.326,2.211,7.29,7.29,0,0,0,12.911,0,1.505,1.505,0,0,0-1.326-2.211Z" transform="translate(-83.397 -56.982)" fill="none" stroke="#12263f" stroke-linecap="round" stroke-linejoin="round" stroke-miterlimit="10" stroke-width="3"/>
            </g>
          </g>
          <g id="Grupo_1034779" data-name="Grupo 1034779" transform="translate(35.152 76.367)">
            <circle id="Elipse_5651" data-name="Elipse 5651" cx="8.638" cy="8.638" r="8.638" fill="none" stroke="#12263f" stroke-linecap="round" stroke-linejoin="round" stroke-miterlimit="10" stroke-width="3"/>
            <circle id="Elipse_5652" data-name="Elipse 5652" cx="8.638" cy="8.638" r="8.638" fill="none" stroke="#12263f" stroke-linecap="round" stroke-linejoin="round" stroke-miterlimit="10" stroke-width="3"/>
            <line id="Línea_2563" data-name="Línea 2563" x2="3.005" transform="translate(7.136 5.759)" fill="none" stroke="#12263f" stroke-linecap="round" stroke-linejoin="round" stroke-miterlimit="10" stroke-width="3"/>
          </g>
          <path id="Trazado_740056" data-name="Trazado 740056" d="M143.462,113.831v-6.853a1.105,1.105,0,0,0-1.105-1.105H114.37a1.105,1.105,0,0,0-1.105,1.105v36.368H136.55a2.33,2.33,0,0,1-.1-.592,2.408,2.408,0,0,1,1.257-2.19,2.409,2.409,0,0,1,0-4.233,2.409,2.409,0,0,1,0-4.233,2.408,2.408,0,0,1-1.257-2.19,2.45,2.45,0,0,1,2.47-2.335h3.862a4.029,4.029,0,0,1,.678.061v-6.066" transform="translate(-39.955 -39.688)" fill="none" stroke="#12263f" stroke-linecap="round" stroke-linejoin="round" stroke-miterlimit="10" stroke-width="3"/>
          <g id="Grupo_1034781" data-name="Grupo 1034781" transform="translate(96.496 87.884)">
            <g id="Grupo_1034780" data-name="Grupo 1034780">
              <path id="Trazado_740057" data-name="Trazado 740057" d="M148.3,145.3a2.408,2.408,0,0,1,1.258-2.117,2.408,2.408,0,0,1-1.257-2.19,2.449,2.449,0,0,1,2.47-2.335h3.862a4.031,4.031,0,0,1,4.031,4.031v9.454a4.031,4.031,0,0,1-4.031,4.031h-3.862a2.449,2.449,0,0,1-2.47-2.335,2.408,2.408,0,0,1,1.257-2.19,2.409,2.409,0,0,1,0-4.233A2.408,2.408,0,0,1,148.3,145.3Z" transform="translate(-148.296 -138.657)" fill="none" stroke="#12263f" stroke-linecap="round" stroke-linejoin="round" stroke-miterlimit="10" stroke-width="3"/>
            </g>
          </g>
          <line id="Línea_2564" data-name="Línea 2564" y2="34.052" transform="translate(61.442 69.606)" fill="none" stroke="#12263f" stroke-linecap="round" stroke-linejoin="round" stroke-miterlimit="10" stroke-width="3"/>
          <g id="Grupo_1034785" data-name="Grupo 1034785" transform="translate(75.491 0.923)">
            <path id="Trazado_740058" data-name="Trazado 740058" d="M148.433,33.393a17.216,17.216,0,1,0-5.409,5.532" transform="translate(-116.561 -7.272)" fill="none" stroke="#12263f" stroke-linecap="round" stroke-linejoin="round" stroke-miterlimit="10" stroke-width="3"/>
            <g id="Grupo_1034784" data-name="Grupo 1034784" transform="translate(11.638 6.371)">
              <g id="Grupo_1034783" data-name="Grupo 1034783">
                <path id="Trazado_740059" data-name="Trazado 740059" d="M144.678,22.439h-6.96a3.574,3.574,0,0,0-3.574,3.574h0a3.574,3.574,0,0,0,3.574,3.574h3.95a3.574,3.574,0,0,1,3.574,3.574h0a3.574,3.574,0,0,1-3.574,3.574h-6.96" transform="translate(-134.144 -18.771)" fill="none" stroke="#12263f" stroke-linecap="round" stroke-linejoin="round" stroke-miterlimit="10" stroke-width="3"/>
                <g id="Grupo_1034782" data-name="Grupo 1034782" transform="translate(5.549)">
                  <line id="Línea_2565" data-name="Línea 2565" y2="3.386" fill="none" stroke="#12263f" stroke-linecap="round" stroke-linejoin="round" stroke-miterlimit="10" stroke-width="3"/>
                  <line id="Línea_2566" data-name="Línea 2566" y2="3.386" transform="translate(0 18.246)" fill="none" stroke="#12263f" stroke-linecap="round" stroke-linejoin="round" stroke-miterlimit="10" stroke-width="3"/>
                </g>
              </g>
            </g>
          </g>
        </g>
        <line id="Línea_2567" data-name="Línea 2567" x2="16.358" transform="translate(11.868 47.525)" fill="none" stroke="#12263f" stroke-linecap="round" stroke-linejoin="round" stroke-miterlimit="10" stroke-width="3"/>
        <line id="Línea_2568" data-name="Línea 2568" x2="21.696" transform="translate(11.868 54.156)" fill="none" stroke="#12263f" stroke-linecap="round" stroke-linejoin="round" stroke-miterlimit="10" stroke-width="3"/>
        <line id="Línea_2569" data-name="Línea 2569" x2="21.696" transform="translate(11.868 60.788)" fill="none" stroke="#12263f" stroke-linecap="round" stroke-linejoin="round" stroke-miterlimit="10" stroke-width="3"/>
        <line id="Línea_2570" data-name="Línea 2570" x2="12.632" transform="translate(11.868 67.42)" fill="none" stroke="#12263f" stroke-linecap="round" stroke-linejoin="round" stroke-miterlimit="10" stroke-width="3"/>
        <circle id="Elipse_5653" data-name="Elipse 5653" cx="8.179" cy="8.179" r="8.179" transform="translate(11.868 22.545)" fill="none" stroke="#12263f" stroke-linecap="round" stroke-linejoin="round" stroke-miterlimit="10" stroke-width="3"/>
      </g>
    </g>
  </g>
</svg>
