<svg xmlns="http://www.w3.org/2000/svg" width="561.187" height="421.877" viewBox="0 0 561.187 421.877">
  <g id="Grupo_1035916" data-name="Grupo 1035916" transform="translate(-1088.526 9919.378)">
    <g id="Grupo_160943" data-name="Grupo 160943" transform="translate(1088.526 -9919.378)" opacity="0.13">
      <g id="Grupo_154652" data-name="Grupo 154652" transform="translate(0 0)">
        <g id="Grupo_154160" data-name="Grupo 154160">
          <g id="Grupo_66834" data-name="Grupo 66834">
            <path id="Trazado_132887" data-name="Trazado 132887" d="M735,523.341c-52.274,73.567-55.9,285.935,17.528,341.518s196.109-66.675,248.369-140.24S1036.01,546.379,962.588,490.8,787.262,449.783,735,523.341Z" transform="translate(-520.526 -457.039)" fill="#15d3ec"/>
            <path id="Trazado_132888" data-name="Trazado 132888" d="M652.737,598.276c0,102.732,208.154,214.938,322.984,214.938s238.2-112.205,238.2-214.938-48.448-172.3-218.017-94.4C893.754,550.794,652.737,495.546,652.737,598.276Z" transform="translate(-652.737 -439.46)" fill="#7e5ee3"/>
          </g>
        </g>
      </g>
    </g>
    <g id="Grupo_1035386" data-name="Grupo 1035386" transform="translate(808.2 -17569.809)">
      <g id="Grupo_150912" data-name="Grupo 150912" transform="translate(313 7778)">
        <rect id="Rectángulo_44621" data-name="Rectángulo 44621" width="508.429" height="29.585" fill="#15d3ec"/>
        <rect id="Rectángulo_44627" data-name="Rectángulo 44627" width="252.023" height="24.107" transform="translate(256.406 32.873)" fill="#f6f6f6"/>
        <rect id="Rectángulo_351523" data-name="Rectángulo 351523" width="252.023" height="24.107" transform="translate(256.406 92.043)" fill="#f6f6f6"/>
        <rect id="Rectángulo_351520" data-name="Rectángulo 351520" width="252.023" height="24.107" transform="translate(0 32.873)" fill="#f6f6f6"/>
        <rect id="Rectángulo_351522" data-name="Rectángulo 351522" width="252.023" height="24.107" transform="translate(0 92.043)" fill="#f6f6f6"/>
        <rect id="Rectángulo_351517" data-name="Rectángulo 351517" width="252.023" height="24.107" transform="translate(0 62.458)" fill="#fff"/>
        <rect id="Rectángulo_351525" data-name="Rectángulo 351525" width="252.023" height="24.107" transform="translate(0 121.628)" fill="#fff"/>
        <rect id="Rectángulo_351521" data-name="Rectángulo 351521" width="252.023" height="24.107" transform="translate(256.406 62.458)" fill="#fff"/>
        <rect id="Rectángulo_351524" data-name="Rectángulo 351524" width="252.023" height="24.107" transform="translate(256.406 121.628)" fill="#fff"/>
        <text id="INFORMACIÓN_COMERCIAL" data-name="INFORMACIÓN COMERCIAL" transform="translate(48.213 19.479)" fill="#12263f" font-size="15" font-family="Roboto-Bold, Roboto" font-weight="700"><tspan x="0" y="0">Información comercial</tspan></text>
        <text id="Percepción" transform="translate(87.66 52.351)" fill="#12263f" font-size="15" font-family="Roboto-Regular, Roboto"><tspan x="0" y="0">Percepción</tspan></text>
        <text id="La_cultura" data-name="La cultura" transform="translate(337.492 52.351)" fill="#12263f" font-size="15" font-family="Roboto-Regular, Roboto"><tspan x="0" y="0">La cultura</tspan></text>
        <text id="Los_grupos" data-name="Los grupos" transform="translate(332.561 79.745)" fill="#12263f" font-size="15" font-family="Roboto-Regular, Roboto"><tspan x="0" y="0">Los grupos</tspan></text>
        <text id="La_familia" data-name="La familia" transform="translate(337.492 107.139)" fill="#12263f" font-size="15" font-family="Roboto-Regular, Roboto"><tspan x="0" y="0">La familia</tspan></text>
        <text id="Aprendizaje_y_experiencia" data-name="Aprendizaje y experiencia" transform="translate(39.447 79.745)" fill="#12263f" font-size="15" font-family="Roboto-Regular, Roboto"><tspan x="0" y="0">Aprendizaje y experiencia</tspan></text>
        <text id="La_personalidad" data-name="La personalidad" transform="translate(71.772 107.139)" fill="#12263f" font-size="15" font-family="Roboto-Regular, Roboto"><tspan x="0" y="0">La personalidad</tspan></text>
        <text id="Estilo_de_vida" data-name="Estilo de vida" transform="translate(81.086 138.368)" fill="#12263f" font-size="15" font-family="Roboto-Regular, Roboto"><tspan x="0" y="0">Estilo de vida</tspan></text>
        <text id="INFORMACIÓN_COMERCIAL-2" data-name="INFORMACIÓN COMERCIAL" transform="translate(298.045 19.479)" fill="#12263f" font-size="15" font-family="Roboto-Bold, Roboto" font-weight="700"><tspan x="0" y="0">Información comercial</tspan></text>
      </g>
    </g>
  </g>
</svg>
