<svg xmlns="http://www.w3.org/2000/svg" xmlns:xlink="http://www.w3.org/1999/xlink" width="592" height="441.415" viewBox="0 0 592 441.415">
  <defs>
    <clipPath id="clip-path">
      <rect id="Rectángulo_351516" data-name="Rectángulo 351516" width="549.702" height="427.751" fill="none"/>
    </clipPath>
  </defs>
  <g id="Grupo_1035915" data-name="Grupo 1035915" transform="translate(-1057.713 10818.378)">
    <g id="Grupo_160943" data-name="Grupo 160943" transform="translate(1088.526 -10818.378)" opacity="0.13">
      <g id="Grupo_154652" data-name="Grupo 154652" transform="translate(0 0)">
        <g id="Grupo_154160" data-name="Grupo 154160">
          <g id="Grupo_66834" data-name="Grupo 66834">
            <path id="Trazado_132887" data-name="Trazado 132887" d="M735,523.341c-52.274,73.567-55.9,285.935,17.528,341.518s196.109-66.675,248.369-140.24S1036.01,546.379,962.588,490.8,787.262,449.783,735,523.341Z" transform="translate(-520.526 -457.039)" fill="#15d3ec"/>
            <path id="Trazado_132888" data-name="Trazado 132888" d="M652.737,598.276c0,102.732,208.154,214.938,322.984,214.938s238.2-112.205,238.2-214.938-48.448-172.3-218.017-94.4C893.754,550.794,652.737,495.546,652.737,598.276Z" transform="translate(-652.737 -439.46)" fill="#7e5ee3"/>
          </g>
        </g>
      </g>
    </g>
    <g id="Grupo_1035384" data-name="Grupo 1035384" transform="translate(8 137.364)">
      <g id="Grupo_1035377" data-name="Grupo 1035377" transform="translate(1049.713 -10942.078)">
        <rect id="Rectángulo_351515" data-name="Rectángulo 351515" width="249.306" height="78.554" transform="translate(56.004 0.067)" fill="#4825b6"/>
        <path id="Trazado_741387" data-name="Trazado 741387" d="M556.722,0,511.831,78.554h89.782Z" transform="translate(-251.412 0.067)" fill="#15d3ec"/>
        <path id="Trazado_741388" data-name="Trazado 741388" d="M753.7,249.983H600V171.428H753.7Z" transform="translate(-294.689 -84.079)" fill="#4825b6"/>
        <path id="Trazado_741401" data-name="Trazado 741401" d="M785.169,249.983H600V171.428H785.169Z" transform="translate(-294.689 3.203)" fill="#4825b6"/>
        <path id="Trazado_741402" data-name="Trazado 741402" d="M813.006,249.983H600V171.428H813.006Z" transform="translate(-294.689 90.486)" fill="#4825b6"/>
        <path id="Trazado_741403" data-name="Trazado 741403" d="M844.391,249.983H600V171.428H844.391Z" transform="translate(-294.689 177.768)" fill="#4825b6"/>
        <path id="Trazado_741392" data-name="Trazado 741392" d="M164.891,685.714,120,764.268H364.391V685.714Z" transform="translate(-59.081 -336.517)" fill="#15d3ec"/>
        <path id="Trazado_741393" data-name="Trazado 741393" d="M458.767,171.429l-44.885,78.554h94.762V171.429Z" transform="translate(-203.333 -84.079)" fill="#15d3ec"/>
        <path id="Trazado_741394" data-name="Trazado 741394" d="M360.807,342.857l-44.885,78.554H460.56V342.857Z" transform="translate(-155.249 -168.225)" fill="#15d3ec"/>
        <path id="Trazado_741395" data-name="Trazado 741395" d="M262.846,514.286,217.961,592.84H412.475V514.286Z" transform="translate(-107.165 -252.371)" fill="#15d3ec"/>
        <g id="Grupo_1035376" data-name="Grupo 1035376" transform="translate(0 0)">
          <g id="Grupo_1035375" data-name="Grupo 1035375" transform="translate(0 0)" clip-path="url(#clip-path)">
            <path id="Trazado_741396" data-name="Trazado 741396" d="M540.612,747.095v4.539c0,3.491,1.536,4.749,3.981,4.749s3.98-1.258,3.98-4.749V740.88c0-3.492-1.536-4.818-3.98-4.818s-3.981,1.326-3.981,4.818v1.466h-7.262l1.4-28.35H555v6.982H541.659l-.628,11.661a7.329,7.329,0,0,1,6.7-3.561c5.656,0,8.519,3.981,8.519,11.172v10.894c0,7.821-3.91,12.29-11.452,12.29s-11.452-4.469-11.452-12.29v-4.05Z" transform="translate(-261.974 -350.4)" fill="#12263f"/>
            <path id="Trazado_741397" data-name="Trazado 741397" d="M530.469,575.6l13.965-33.029h8.38V575.6h3.631v6.982h-3.631v8.868h-7.681v-8.868H530.469Zm14.664,0V557.51L537.522,575.6Z" transform="translate(-260.56 -266.253)" fill="#12263f"/>
            <path id="Trazado_741398" data-name="Trazado 741398" d="M548.434,382.61c0-4.4-1.536-5.587-3.981-5.587s-3.98,1.327-3.98,4.819v3.142h-7.262V382.33c0-7.821,3.91-12.29,11.452-12.29s11.452,4.47,11.452,12.29v1.257c0,5.237-1.676,8.52-5.377,10.055,3.841,1.676,5.377,5.307,5.377,10.265v3.841c0,7.821-3.911,12.289-11.452,12.289s-11.452-4.468-11.452-12.289V403.7h7.262v4.539c0,3.492,1.537,4.819,3.98,4.819s3.981-1.187,3.981-5.517V403.7c0-4.539-1.536-6.215-5.028-6.215h-2.583V390.5h3c2.863,0,4.609-1.257,4.609-5.167Z" transform="translate(-261.906 -181.568)" fill="#12263f"/>
            <path id="Trazado_741399" data-name="Trazado 741399" d="M269.076,34.426c5.936,0,7.262-2.863,8.449-6.144h5.167v48.88h-7.681V39.873h-5.936Z" transform="translate(-185.48 -13.816)" fill="#fff"/>
            <path id="Trazado_741400" data-name="Trazado 741400" d="M545.278,205.595c-2.444,0-3.981,1.327-3.981,4.819v5.237h-7.262V210.9c0-7.821,3.911-12.29,11.452-12.29s11.452,4.469,11.452,12.29c0,15.363-15.293,21.089-15.293,29.119a5.286,5.286,0,0,0,.07,1.047h14.525v6.983H534.035v-6c0-14.385,15.223-16.76,15.223-30.865,0-4.4-1.537-5.587-3.98-5.587" transform="translate(-262.31 -97.422)" fill="#12263f"/>
          </g>
        </g>
      </g>
      <text id="Autorrealización" transform="translate(1173.611 -10916.374)" fill="#fff" font-size="18" font-family="Roboto-Black, Roboto" font-weight="800"><tspan x="0" y="17">Autorrealización</tspan></text>
      <text id="Reconocimiento" transform="translate(1363.843 -10826.68)" fill="#fff" font-size="18" font-family="Roboto-Black, Roboto" font-weight="800"><tspan x="0" y="17">Reconocimiento</tspan></text>
      <text id="Afiliación" transform="translate(1363.843 -10736.984)" fill="#fff" font-size="18" font-family="Roboto-Black, Roboto" font-weight="800"><tspan x="0" y="17">Afiliación</tspan></text>
      <text id="Seguridad" transform="translate(1363.843 -10653.204)" fill="#fff" font-size="18" font-family="Roboto-Black, Roboto" font-weight="800"><tspan x="0" y="17">Seguridad</tspan></text>
      <text id="Fisiología" transform="translate(1363.843 -10563.51)" fill="#fff" font-size="18" font-family="Roboto-Black, Roboto" font-weight="800"><tspan x="0" y="17">Fisiología</tspan></text>
    </g>
  </g>
</svg>
