<svg xmlns="http://www.w3.org/2000/svg" width="81.351" height="87.163" viewBox="0 0 81.351 87.163">
  <path id="Trazado_741760" data-name="Trazado 741760" d="M40,58.129a1.446,1.446,0,0,0,.013.192l5.475,41.06a4.372,4.372,0,0,0,4.32,3.782h61.376a4.363,4.363,0,0,0,4.358-4.358V93.09l5.8-43.486a.074.074,0,0,1,0-.018c0-.029.005-.059.007-.089s0-.043,0-.065V43.6a1.453,1.453,0,0,0-1.453-1.453H90.845A1.453,1.453,0,0,0,89.392,43.6v5.829c0,.022,0,.043,0,.065s0,.06.007.089a.076.076,0,0,0,0,.018L92.082,69.69c-2.921-.222-3.824-1.012-4.088-1.383a1.086,1.086,0,0,1-.156-.929,1.388,1.388,0,0,0-.109-1.347,1.447,1.447,0,0,0-1.242-.638,16.366,16.366,0,0,0-6.953,1.4l1.129-8.471a1.447,1.447,0,0,0,.013-.192A18.905,18.905,0,0,0,70.37,41.307a1.45,1.45,0,0,0,.117-.85l-1.453-8.716A1.453,1.453,0,0,0,67.6,30.527H66.149V24.717H76.318a1.453,1.453,0,0,0,1.453-1.453V17.453A1.453,1.453,0,0,0,76.221,16L54.431,17.456a1.453,1.453,0,0,0-1.281.99L51.7,22.8a1.453,1.453,0,0,0,1.378,1.912h1.453v5.811H53.074a1.453,1.453,0,0,0-1.433,1.214l-1.453,8.716a1.45,1.45,0,0,0,.117.85A18.905,18.905,0,0,0,40,58.129Zm59.561,42.129H64.509a1.266,1.266,0,0,1-1.265-1.265V84.09a1.266,1.266,0,0,1,1.265-1.265h35.24a1.266,1.266,0,0,1,1.265,1.265v14.9a1.266,1.266,0,0,1-1.265,1.265ZM67.6,77.014H96.656V79.92H67.6ZM112.636,98.8a1.454,1.454,0,0,1-1.453,1.453h-7.46a4.158,4.158,0,0,0,.2-1.265V94.447h8.716Zm.182-7.264h-8.9V84.09a4.175,4.175,0,0,0-4.171-4.171h-.188V75.562c0-.041,0-.081-.006-.121h0c0-.006,0-.016,0-.025v0A7.622,7.622,0,0,0,98.7,72.69a5.371,5.371,0,0,0-3.665-2.8L92.5,50.865H118.24ZM92.3,45.055h26.149V47.96H92.3ZM85.564,69.9c1.228,1.829,3.983,2.756,8.186,2.756a2.488,2.488,0,0,1,2.364,1.354c.018.033.036.066.053.1H74.324c.62-.475,1.21-.974,1.8-1.469,2.365-2,4.613-3.9,8.826-4.276A3.9,3.9,0,0,0,85.564,69.9ZM55.6,20.29l19.268-1.285v2.805H55.09Zm1.836,4.426h5.811v5.811H57.433Zm-4.1,14.527.968-5.811H66.371l.968,5.811Zm5.549,2.905h2.905a16,16,0,0,1,15.98,15.885L76.346,68.716c-.748.559-1.436,1.141-2.1,1.706-2.338,1.979-4.357,3.687-8.094,3.687A1.453,1.453,0,0,0,64.7,75.562V79.92h-.188a4.175,4.175,0,0,0-4.171,4.171v14.9a4.158,4.158,0,0,0,.2,1.265H49.807A1.457,1.457,0,0,1,48.367,99L42.905,58.035a16,16,0,0,1,15.98-15.885Z" transform="translate(-40 -16)" fill="#12263f"/>
</svg>
