<svg id="Grupo_1035676" data-name="Grupo 1035676" xmlns="http://www.w3.org/2000/svg" xmlns:xlink="http://www.w3.org/1999/xlink" width="392.818" height="429.856" viewBox="0 0 392.818 429.856">
  <defs>
    <clipPath id="clip-path">
      <rect id="Rectángulo_351668" data-name="Rectángulo 351668" width="392.818" height="429.856" fill="none"/>
    </clipPath>
    <clipPath id="clip-path-6">
      <rect id="Rectángulo_351656" data-name="Rectángulo 351656" width="91.016" height="42.622" fill="none"/>
    </clipPath>
    <clipPath id="clip-path-7">
      <rect id="Rectángulo_351657" data-name="Rectángulo 351657" width="70.673" height="33.096" fill="none"/>
    </clipPath>
    <clipPath id="clip-path-9">
      <rect id="Rectángulo_351660" data-name="Rectángulo 351660" width="7.948" height="3.53" fill="none"/>
    </clipPath>
    <clipPath id="clip-path-10">
      <rect id="Rectángulo_351661" data-name="Rectángulo 351661" width="7.868" height="3.446" fill="none"/>
    </clipPath>
    <clipPath id="clip-path-11">
      <rect id="Rectángulo_351662" data-name="Rectángulo 351662" width="15.735" height="9.805" fill="none"/>
    </clipPath>
    <clipPath id="clip-path-13">
      <rect id="Rectángulo_351664" data-name="Rectángulo 351664" width="75.619" height="35.108" fill="none"/>
    </clipPath>
    <clipPath id="clip-path-14">
      <rect id="Rectángulo_351665" data-name="Rectángulo 351665" width="12.63" height="68.207" fill="none"/>
    </clipPath>
    <clipPath id="clip-path-15">
      <rect id="Rectángulo_351666" data-name="Rectángulo 351666" width="61.447" height="32.757" fill="none"/>
    </clipPath>
  </defs>
  <g id="Grupo_1035673" data-name="Grupo 1035673" clip-path="url(#clip-path)">
    <g id="Grupo_1035638" data-name="Grupo 1035638">
      <g id="Grupo_1035637" data-name="Grupo 1035637" clip-path="url(#clip-path)">
        <path id="Trazado_741789" data-name="Trazado 741789" d="M87.028,343.3h81.739a.887.887,0,0,0,.887-.887v-2.972a.887.887,0,0,0-.887-.887H87.028a.886.886,0,0,0-.887.887v2.972a.886.886,0,0,0,.887.887" transform="translate(147.925 -42.845)" fill="#fff"/>
        <path id="Trazado_741790" data-name="Trazado 741790" d="M31.027,71.022v69.062h89.2l3.213-68.579Z" transform="translate(242.277 -8.988)" fill="#e0e0e0"/>
        <rect id="Rectángulo_351647" data-name="Rectángulo 351647" width="89.201" height="68.661" transform="translate(276.518 62.436)" fill="#f5f5f5"/>
        <path id="Trazado_741791" data-name="Trazado 741791" d="M30.636,140.433h89.882V71.091H30.636Zm89.2-.68H31.316V71.772h88.52Z" transform="translate(245.541 -8.997)" fill="#e0e0e0"/>
        <path id="Trazado_741792" data-name="Trazado 741792" d="M40.687,71.3a8.706,8.706,0,0,0-1.509.927c-.9.611-2.143,1.473-3.482,2.463s-2.526,1.927-3.365,2.627a8.411,8.411,0,0,0-1.3,1.2,9.226,9.226,0,0,0,1.46-1l3.42-2.54,3.419-2.544a8.718,8.718,0,0,0,1.363-1.13" transform="translate(325.031 -9.023)" fill="#e0e0e0"/>
        <path id="Trazado_741793" data-name="Trazado 741793" d="M122.09,71.481a50.551,50.551,0,0,0,4.725,3.671,50.792,50.792,0,0,0,4.936,3.385,50.623,50.623,0,0,0-4.726-3.672,50.8,50.8,0,0,0-4.935-3.385" transform="translate(154.428 -9.046)" fill="#e0e0e0"/>
        <path id="Trazado_741794" data-name="Trazado 741794" d="M40.588,148.839a58.936,58.936,0,0,0-4.662-4.446,58.2,58.2,0,0,0-4.9-4.184,58.847,58.847,0,0,0,4.662,4.447,58.49,58.49,0,0,0,4.9,4.183" transform="translate(325.13 -17.744)" fill="#e0e0e0"/>
        <path id="Trazado_741795" data-name="Trazado 741795" d="M131.7,139.743a64.5,64.5,0,0,0-5.127,4.387,63.991,63.991,0,0,0-4.889,4.65,64.371,64.371,0,0,0,5.126-4.387,64.308,64.308,0,0,0,4.89-4.65" transform="translate(154.834 -17.685)" fill="#e0e0e0"/>
        <rect id="Rectángulo_351648" data-name="Rectángulo 351648" width="69.878" height="52.567" transform="translate(286.179 69.491)" fill="#fff"/>
        <path id="Trazado_741796" data-name="Trazado 741796" d="M42.03,79.537s.118.006.339.01l.984.009,3.806.019,14.332.043,50.417.079-.16-.16c0,15.767-.011,33.664-.017,52.561v.005l.176-.177-69.877.032.146.145c-.031-15.885-.058-29.008-.076-38.17-.017-4.583-.029-8.174-.038-10.629-.007-1.22-.012-2.157-.017-2.8s-.016-.969-.016-.969-.01.314-.016.938S42,82.037,42,83.246c-.009,2.447-.021,6.027-.038,10.6-.018,9.184-.044,22.338-.076,38.261v.146h.146l69.877.031h.178V132.1c-.007-18.9-.011-36.794-.017-52.561v-.161h-.161l-50.521.079-14.3.043-3.775.019-.965.009c-.216,0-.321.01-.321.01" transform="translate(244.149 -10.045)" fill="#e0e0e0"/>
        <line id="Línea_2579" data-name="Línea 2579" y1="9.038" x2="10.016" transform="translate(276.517 122.059)" fill="#fff"/>
        <path id="Trazado_741797" data-name="Trazado 741797" d="M65.258,90.629c0,.1,6.912.183,15.438.183s15.44-.082,15.44-.183-6.912-.183-15.44-.183-15.438.082-15.438.183" transform="translate(239.682 -11.446)" fill="#e0e0e0"/>
        <path id="Trazado_741798" data-name="Trazado 741798" d="M55.6,110.529c0,.1,10.357.183,23.131.183s23.134-.082,23.134-.183-10.356-.183-23.134-.183-23.131.082-23.131.183" transform="translate(242.381 -13.965)" fill="#e0e0e0"/>
        <path id="Trazado_741799" data-name="Trazado 741799" d="M55.6,115.445c0,.1,10.357.183,23.131.183s23.134-.082,23.134-.183-10.356-.183-23.134-.183-23.131.082-23.131.183" transform="translate(242.381 -14.587)" fill="#e0e0e0"/>
        <path id="Trazado_741800" data-name="Trazado 741800" d="M76.709,126.915a5.383,5.383,0,1,0,5.383-5.383,5.383,5.383,0,0,0-5.383,5.383" transform="translate(238.342 -15.38)" fill="#e0e0e0"/>
        <path id="Trazado_741801" data-name="Trazado 741801" d="M82.09,132.313a5.4,5.4,0,1,0-5.4-5.4,5.406,5.406,0,0,0,5.4,5.4m0-10.766a5.365,5.365,0,1,1-5.366,5.366,5.372,5.372,0,0,1,5.366-5.366" transform="translate(238.344 -15.378)" fill="#e0e0e0"/>
        <path id="Trazado_741802" data-name="Trazado 741802" d="M55.484,127.668a57.49,57.49,0,0,0,6.485.183,57.478,57.478,0,0,0,6.485-.183,57.479,57.479,0,0,0-6.485-.183,57.492,57.492,0,0,0-6.485.183" transform="translate(275.901 -16.134)" fill="#e0e0e0"/>
        <path id="Trazado_741803" data-name="Trazado 741803" d="M94.441,127.668a71.92,71.92,0,0,0,7.256.183,71.906,71.906,0,0,0,7.256-.183,71.907,71.907,0,0,0-7.256-.183,71.921,71.921,0,0,0-7.256.183" transform="translate(201.376 -16.134)" fill="#e0e0e0"/>
        <path id="Trazado_741804" data-name="Trazado 741804" d="M59.3,125.8a1.529,1.529,0,0,0,.078-.445,4.738,4.738,0,0,0-.073-1.294,4.637,4.637,0,0,0-.819-1.893,1.09,1.09,0,0,0-.554-.377.846.846,0,0,0-.713.153,1.294,1.294,0,0,0-.451,1.4,4.171,4.171,0,0,0,.792,1.4,7.043,7.043,0,0,0,1.191,1.257,3.562,3.562,0,0,0,1.708.787,2.759,2.759,0,0,0,1.957-.438,2.116,2.116,0,0,0,.859-1.918,6.279,6.279,0,0,0-.58-2.094,2.433,2.433,0,0,0-.707-.924,1.538,1.538,0,0,0-1.185-.3,1.157,1.157,0,0,0-.889.885,2.414,2.414,0,0,0,.072,1.215,7.441,7.441,0,0,0,1.063,2.054,4.644,4.644,0,0,0,1.715,1.468,3.477,3.477,0,0,0,2.174.276,2.589,2.589,0,0,0,1.72-1.214,3.394,3.394,0,0,0,.457-1.946,5.118,5.118,0,0,0-.474-1.805c-.241-.518-.541-1.137-1.2-1.307a.79.79,0,0,0-.823.382,1.709,1.709,0,0,0-.216.8,5.281,5.281,0,0,0,.64,2.65,5.452,5.452,0,0,0,1.289,1.6,4.962,4.962,0,0,0,1.087.7,1.775,1.775,0,0,0,.424.154,7.391,7.391,0,0,1-1.418-.965,5.507,5.507,0,0,1-1.2-1.589,5.136,5.136,0,0,1-.564-2.54,1.484,1.484,0,0,1,.187-.666.513.513,0,0,1,.54-.249,1.067,1.067,0,0,1,.574.427,3.487,3.487,0,0,1,.4.726,3.718,3.718,0,0,1,.007,3.451,2.246,2.246,0,0,1-1.5,1.047,3.135,3.135,0,0,1-1.95-.258,5.631,5.631,0,0,1-2.578-3.3,2.073,2.073,0,0,1-.069-1.025.787.787,0,0,1,.606-.615,1.181,1.181,0,0,1,.9.23,2.088,2.088,0,0,1,.6.787,6.034,6.034,0,0,1,.555,1.957,1.77,1.77,0,0,1-.707,1.625,2.44,2.44,0,0,1-1.717.394,3.276,3.276,0,0,1-1.563-.707,6.841,6.841,0,0,1-1.155-1.191,3.989,3.989,0,0,1-.765-1.294,1.048,1.048,0,0,1,.338-1.151.679.679,0,0,1,.973.17,4.629,4.629,0,0,1,.834,1.789A6.962,6.962,0,0,1,59.3,125.8" transform="translate(275.435 -15.279)" fill="#ebebeb"/>
        <path id="Trazado_741805" data-name="Trazado 741805" d="M95.7,124.383a.575.575,0,0,0,.141.078c.1.044.238.115.431.192a14.478,14.478,0,0,0,1.718.592,16.215,16.215,0,0,0,2.841.521,16.417,16.417,0,0,0,1.812.068c.641.012,1.334-.128,2-.052a1.375,1.375,0,0,1,.871.445.827.827,0,0,1,.107.928,4.894,4.894,0,0,1-.661.942q-.38.469-.8.936t-.873.928a2.912,2.912,0,0,1-.984.758.877.877,0,0,1-1.021-.36,1.894,1.894,0,0,1-.3-1.233A29.4,29.4,0,0,0,99.627,116.8l-.157-.462-.185.451a10.18,10.18,0,0,0-.726,3.214,10.534,10.534,0,0,0,.735,4.482,10.3,10.3,0,0,0,1.048,1.957,3.166,3.166,0,0,0,1.693,1.427,1.037,1.037,0,0,0,1.11-.4,2.067,2.067,0,0,0,.293-1.075,11.256,11.256,0,0,0-1.187-5.738l-.117-.233-.154.207a2.479,2.479,0,1,0,3.791-.118,1.379,1.379,0,0,0-.62-.428.665.665,0,0,0-.725.2.994.994,0,0,0-.173.68,2.119,2.119,0,0,0,.135.622,7.925,7.925,0,0,0,1.991,3.109,7.373,7.373,0,0,0,.75.627,1.7,1.7,0,0,0,.284.18,1.653,1.653,0,0,0-.252-.22c-.167-.143-.416-.353-.711-.658a8.074,8.074,0,0,1-1.881-3.1,1.268,1.268,0,0,1,.021-1.109c.245-.307.742-.1,1.011.249a2.318,2.318,0,0,1,.167,2.732,2.185,2.185,0,1,1-3.531-2.571l-.271-.026a10.965,10.965,0,0,1,1.071,3.592,10.82,10.82,0,0,1,.054,1.98,1.751,1.751,0,0,1-.231.893.678.678,0,0,1-.743.254,2,2,0,0,1-.825-.486,5.592,5.592,0,0,1-.652-.8,9.976,9.976,0,0,1-1.006-1.887,10.2,10.2,0,0,1-.707-4.325,9.83,9.83,0,0,1,.7-3.1l-.342-.011a29.327,29.327,0,0,1,1.37,12.2,2.212,2.212,0,0,0,.377,1.434,1.379,1.379,0,0,0,.61.466,1.125,1.125,0,0,0,.77-.006,3.126,3.126,0,0,0,1.1-.84q.457-.47.875-.946c.28-.316.545-.635.8-.953a5.159,5.159,0,0,0,.69-1.011,1.1,1.1,0,0,0-.159-1.206,1.633,1.633,0,0,0-1.033-.521,4.831,4.831,0,0,0-1.064.016c-.335.028-.66.05-.977.059a16.757,16.757,0,0,1-1.79-.04,16.94,16.94,0,0,1-2.823-.459,18.036,18.036,0,0,1-1.728-.527,5.173,5.173,0,0,0-.6-.2" transform="translate(201.818 -14.723)" fill="#ebebeb"/>
        <rect id="Rectángulo_351649" data-name="Rectángulo 351649" width="48.433" height="4.321" transform="translate(295.817 84.981)" fill="#f5f5f5"/>
        <path id="Trazado_741806" data-name="Trazado 741806" d="M157.418,130.178v56.066h72.415l2.609-55.674Z" transform="translate(22.88 -16.474)" fill="#e0e0e0"/>
        <rect id="Rectángulo_351650" data-name="Rectángulo 351650" width="72.415" height="55.74" transform="translate(182.907 114.029)" fill="#f5f5f5"/>
        <path id="Trazado_741807" data-name="Trazado 741807" d="M157.1,186.527H230.07V130.234H157.1Zm72.415-.553H157.655V130.787h71.862Z" transform="translate(25.528 -16.482)" fill="#e0e0e0"/>
        <path id="Trazado_741808" data-name="Trazado 741808" d="M165.261,130.4a7.081,7.081,0,0,0-1.224.752c-.735.5-1.741,1.2-2.829,2s-2.05,1.564-2.731,2.133a6.753,6.753,0,0,0-1.058.973,7.6,7.6,0,0,0,1.184-.813l2.777-2.061c1.04-.776,1.984-1.477,2.776-2.066a7.1,7.1,0,0,0,1.1-.918" transform="translate(90.06 -16.502)" fill="#e0e0e0"/>
        <path id="Trazado_741809" data-name="Trazado 741809" d="M231.346,130.55a41.326,41.326,0,0,0,3.836,2.98,40.922,40.922,0,0,0,4.007,2.748,81.93,81.93,0,0,0-7.843-5.728" transform="translate(-48.439 -16.521)" fill="#e0e0e0"/>
        <path id="Trazado_741810" data-name="Trazado 741810" d="M165.181,193.352a47.589,47.589,0,0,0-3.784-3.61,47.458,47.458,0,0,0-3.979-3.4,47.538,47.538,0,0,0,3.786,3.611,47.708,47.708,0,0,0,3.977,3.4" transform="translate(90.14 -23.582)" fill="#e0e0e0"/>
        <path id="Trazado_741811" data-name="Trazado 741811" d="M239.147,185.967a103.89,103.89,0,0,0-8.131,7.337,52.127,52.127,0,0,0,4.162-3.562,52.131,52.131,0,0,0,3.969-3.775" transform="translate(-48.109 -23.534)" fill="#e0e0e0"/>
        <rect id="Rectángulo_351651" data-name="Rectángulo 351651" width="56.729" height="42.675" transform="translate(190.749 119.757)" fill="#fff"/>
        <path id="Trazado_741812" data-name="Trazado 741812" d="M166.352,137.09s.1.005.275.008l.8.007,3.089.016,11.635.035,40.931.065-.13-.13c0,12.8-.009,27.329-.014,42.67v.005l.144-.144-56.729.026.118.118c-.025-12.9-.046-23.55-.061-30.987-.013-3.721-.024-6.636-.031-8.629-.006-.99-.01-1.751-.013-2.272s-.013-.787-.013-.787-.009.254-.013.762-.008,1.268-.013,2.25c-.007,1.987-.017,4.892-.031,8.6-.015,7.456-.036,18.135-.061,31.062v.118h.119l56.729.025h.144v-.148c-.005-15.34-.01-29.869-.014-42.67v-.13h-.13l-41.015.065-11.605.035-3.064.015-.783.008c-.175,0-.26.008-.26.008" transform="translate(24.398 -17.333)" fill="#e0e0e0"/>
        <line id="Línea_2580" data-name="Línea 2580" y1="7.337" x2="8.131" transform="translate(182.907 162.432)" fill="#fff"/>
        <path id="Trazado_741813" data-name="Trazado 741813" d="M185.208,146.1c0,.082,5.613.149,12.534.149s12.534-.067,12.534-.149-5.611-.149-12.534-.149-12.534.067-12.534.149" transform="translate(20.773 -18.47)" fill="#e0e0e0"/>
        <path id="Trazado_741814" data-name="Trazado 741814" d="M177.371,162.25c0,.082,8.409.149,18.779.149s18.78-.067,18.78-.149-8.407-.148-18.78-.148-18.779.066-18.779.148" transform="translate(22.964 -20.515)" fill="#e0e0e0"/>
        <path id="Trazado_741815" data-name="Trazado 741815" d="M177.371,166.241c0,.082,8.409.149,18.779.149s18.78-.067,18.78-.149-8.407-.149-18.78-.149-18.779.067-18.779.149" transform="translate(22.964 -21.019)" fill="#e0e0e0"/>
        <path id="Trazado_741816" data-name="Trazado 741816" d="M194.505,175.553a4.37,4.37,0,1,0,4.37-4.37,4.37,4.37,0,0,0-4.37,4.37" transform="translate(19.683 -21.664)" fill="#e0e0e0"/>
        <path id="Trazado_741817" data-name="Trazado 741817" d="M198.873,179.935a4.384,4.384,0,1,0-4.385-4.384,4.389,4.389,0,0,0,4.385,4.384m0-8.74a4.355,4.355,0,1,1-4.355,4.356,4.361,4.361,0,0,1,4.355-4.356" transform="translate(19.686 -21.662)" fill="#e0e0e0"/>
        <path id="Trazado_741818" data-name="Trazado 741818" d="M177.274,176.164a46.649,46.649,0,0,0,5.265.149,46.627,46.627,0,0,0,5.264-.149,46.611,46.611,0,0,0-5.264-.149,46.633,46.633,0,0,0-5.265.149" transform="translate(50.175 -22.275)" fill="#e0e0e0"/>
        <path id="Trazado_741819" data-name="Trazado 741819" d="M208.9,176.164a58.362,58.362,0,0,0,5.891.149,58.348,58.348,0,0,0,5.891-.149,58.329,58.329,0,0,0-5.891-.149,58.342,58.342,0,0,0-5.891.149" transform="translate(-10.324 -22.275)" fill="#e0e0e0"/>
        <path id="Trazado_741820" data-name="Trazado 741820" d="M180.371,174.647a1.244,1.244,0,0,0,.063-.361,3.84,3.84,0,0,0-.059-1.052,3.774,3.774,0,0,0-.665-1.536.886.886,0,0,0-.45-.306.683.683,0,0,0-.579.124,1.052,1.052,0,0,0-.366,1.14,3.413,3.413,0,0,0,.643,1.139,5.75,5.75,0,0,0,.967,1.019,2.9,2.9,0,0,0,1.387.639,2.241,2.241,0,0,0,1.589-.356,1.718,1.718,0,0,0,.7-1.556,5.142,5.142,0,0,0-.471-1.7,1.978,1.978,0,0,0-.574-.749,1.245,1.245,0,0,0-.963-.24.939.939,0,0,0-.722.717,1.967,1.967,0,0,0,.059.987,6.028,6.028,0,0,0,.863,1.667,3.778,3.778,0,0,0,1.392,1.193,2.831,2.831,0,0,0,1.765.224,2.1,2.1,0,0,0,1.4-.986,2.751,2.751,0,0,0,.37-1.579,4.17,4.17,0,0,0-.384-1.466c-.2-.421-.438-.923-.971-1.061a.643.643,0,0,0-.668.31,1.4,1.4,0,0,0-.175.646,4.28,4.28,0,0,0,.52,2.151,4.453,4.453,0,0,0,1.046,1.3,3.994,3.994,0,0,0,.883.571,1.5,1.5,0,0,0,.344.126,6.094,6.094,0,0,1-1.15-.784,4.439,4.439,0,0,1-.975-1.289,4.161,4.161,0,0,1-.458-2.062,1.179,1.179,0,0,1,.151-.541.415.415,0,0,1,.438-.2.861.861,0,0,1,.466.347,2.8,2.8,0,0,1,.322.589,3.016,3.016,0,0,1,.006,2.8,1.824,1.824,0,0,1-1.22.851,2.55,2.55,0,0,1-1.583-.21,4.57,4.57,0,0,1-2.093-2.678,1.676,1.676,0,0,1-.056-.832.637.637,0,0,1,.493-.5.951.951,0,0,1,.728.186,1.7,1.7,0,0,1,.486.639,4.883,4.883,0,0,1,.451,1.589,1.438,1.438,0,0,1-.574,1.319,1.976,1.976,0,0,1-1.394.319,2.659,2.659,0,0,1-1.269-.573,5.586,5.586,0,0,1-.937-.966,3.229,3.229,0,0,1-.621-1.051.849.849,0,0,1,.274-.935.55.55,0,0,1,.79.138,3.77,3.77,0,0,1,.678,1.452,5.68,5.68,0,0,1,.11,1.388" transform="translate(49.798 -21.582)" fill="#ebebeb"/>
        <path id="Trazado_741821" data-name="Trazado 741821" d="M209.92,173.5a.47.47,0,0,0,.114.063c.078.036.193.093.349.156a11.763,11.763,0,0,0,1.395.48,13.162,13.162,0,0,0,2.307.424,13.373,13.373,0,0,0,1.47.055c.521.01,1.083-.1,1.625-.042a1.117,1.117,0,0,1,.707.361.671.671,0,0,1,.087.755,4.009,4.009,0,0,1-.536.764c-.205.253-.421.507-.646.76s-.462.5-.708.754a2.348,2.348,0,0,1-.8.615.711.711,0,0,1-.829-.292,1.536,1.536,0,0,1-.248-1,23.861,23.861,0,0,0-1.1-10.005l-.127-.376-.151.366a8.282,8.282,0,0,0-.589,2.61,8.548,8.548,0,0,0,.6,3.639,8.389,8.389,0,0,0,.851,1.588,2.569,2.569,0,0,0,1.374,1.158.842.842,0,0,0,.9-.321,1.673,1.673,0,0,0,.238-.873,9.024,9.024,0,0,0-.052-1.659,9.118,9.118,0,0,0-.912-3l-.1-.189-.124.168a2.012,2.012,0,1,0,3.077-.1,1.129,1.129,0,0,0-.5-.348.542.542,0,0,0-.589.162.809.809,0,0,0-.141.553,1.738,1.738,0,0,0,.11.5,6.419,6.419,0,0,0,1.616,2.523,6.018,6.018,0,0,0,.609.51,1.358,1.358,0,0,0,.231.145,1.4,1.4,0,0,0-.205-.178c-.135-.116-.337-.286-.576-.535a6.543,6.543,0,0,1-1.528-2.516,1.029,1.029,0,0,1,.017-.9c.2-.25.6-.08.822.2a1.883,1.883,0,0,1,.135,2.219,1.774,1.774,0,1,1-2.868-2.087l-.219-.021a8.908,8.908,0,0,1,.914,4.523,1.43,1.43,0,0,1-.188.725.551.551,0,0,1-.6.206,1.616,1.616,0,0,1-.67-.395,4.423,4.423,0,0,1-.528-.65,8.083,8.083,0,0,1-.818-1.531,8.291,8.291,0,0,1-.574-3.512,7.988,7.988,0,0,1,.566-2.512l-.278-.01a23.809,23.809,0,0,1,1.113,9.9,1.788,1.788,0,0,0,.307,1.163,1.117,1.117,0,0,0,.494.379.921.921,0,0,0,.625,0,2.54,2.54,0,0,0,.89-.683q.372-.381.711-.768t.648-.774a4.091,4.091,0,0,0,.559-.82.891.891,0,0,0-.128-.979,1.327,1.327,0,0,0-.839-.423,3.935,3.935,0,0,0-.864.013c-.272.023-.536.04-.794.048a13.508,13.508,0,0,1-1.453-.033,13.8,13.8,0,0,1-2.292-.371c-.618-.157-1.087-.314-1.4-.428a4.04,4.04,0,0,0-.484-.166" transform="translate(-9.966 -21.13)" fill="#ebebeb"/>
        <rect id="Rectángulo_351652" data-name="Rectángulo 351652" width="39.319" height="3.508" transform="translate(198.575 132.332)" fill="#f5f5f5"/>
        <path id="Trazado_741822" data-name="Trazado 741822" d="M312.9,356.667a35.9,35.9,0,0,1,15.362-5.288c2.51-.258,5.253-.184,7.266,1.336a1.492,1.492,0,0,1,.749,1.327,1.615,1.615,0,0,1-.71.908c-6.251,4.768-15.705,5.371-22.667,1.717" transform="translate(-216.767 -44.454)" fill="#e0e0e0"/>
        <path id="Trazado_741823" data-name="Trazado 741823" d="M320.531,353.463a74.819,74.819,0,0,0,9.922-8.729,25.1,25.1,0,0,0,6.221-11.505,4.642,4.642,0,0,0-.492-3.849c-7.909,6.177-14.122,14.166-15.651,24.084" transform="translate(-224.007 -41.684)" fill="#e0e0e0"/>
        <path id="Trazado_741824" data-name="Trazado 741824" d="M346.933,353.937a35.892,35.892,0,0,0-.183-13.027,17.618,17.618,0,0,0-6.94-10.75c-1.367,3.2-.779,6.875.183,10.213a49.641,49.641,0,0,0,6.881,14.487" transform="translate(-250.722 -41.783)" fill="#e0e0e0"/>
        <path id="Trazado_741825" data-name="Trazado 741825" d="M326.286,373.287c4.706.572,8.806,3.053,12.32,6.236a23.309,23.309,0,0,1,7.047,12.1c-4.616-.286-8.533-3.541-11.374-7.191s-4.808-7.656-7.928-11.07" transform="translate(-237.829 -47.241)" fill="#e0e0e0"/>
        <path id="Trazado_741826" data-name="Trazado 741826" d="M352.914,371.667a30.382,30.382,0,0,0-3.509-28.741c-2.681,9.538-1.7,20.31,3.509,28.741" transform="translate(-266.14 -43.398)" fill="#e0e0e0"/>
        <path id="Trazado_741827" data-name="Trazado 741827" d="M337.79,389.791A21.97,21.97,0,0,1,358.8,401.884c.26.521.49,1.182.141,1.648a1.564,1.564,0,0,1-1.393.41c-4.14-.268-7.81-2.76-10.838-5.6s-5.666-6.114-9.012-8.567" transform="translate(-261.26 -49.324)" fill="#e0e0e0"/>
        <path id="Trazado_741828" data-name="Trazado 741828" d="M366.284,384.818a39.127,39.127,0,0,0,.39-21.857c-.77-2.812-2.063-5.775-4.664-7.093a.913.913,0,0,0-.714-.127.948.948,0,0,0-.452.523,13.177,13.177,0,0,0-1.1,6.271,39.33,39.33,0,0,0,.983,6.346c.819,3.88,1.255,8.05,3.384,11.395a23.184,23.184,0,0,1,1.352,2.5c.4.851.406,1.149.776,1.826" transform="translate(-289.427 -45.016)" fill="#e0e0e0"/>
        <path id="Trazado_741829" data-name="Trazado 741829" d="M399.349,390.173c2.009-7.642-.123-16.906-4.939-23.172-.355-.461-.825-.956-1.4-.9-.887.081-1.117,1.263-1.077,2.153a41.866,41.866,0,0,0,7.42,21.92" transform="translate(-349.61 -46.331)" fill="#e0e0e0"/>
        <path id="Trazado_741830" data-name="Trazado 741830" d="M423.244,394.414c-9.285,2.416-19.936.067-27.658-5.625a22.387,22.387,0,0,1,14.973-1.838c5,1.144,9.571,3.385,12.685,7.463" transform="translate(-375.949 -48.9)" fill="#e0e0e0"/>
        <path id="Trazado_741831" data-name="Trazado 741831" d="M423.049,387.647c-5.2-8.478-15.169-14.011-25.1-14.515,1.144,4.041,4.464,7.181,8.21,9.078s7.927,2.723,12.049,3.523c1.6.312,3.8.654,4.842,1.914" transform="translate(-377.817 -47.221)" fill="#e0e0e0"/>
        <path id="Trazado_741832" data-name="Trazado 741832" d="M392.558,357.244c-1.408-4.824-2.824-9.69-3.21-14.7s.327-10.241,2.928-14.54c4.856,9.4,5.348,20.379.428,29.746" transform="translate(-343.336 -41.51)" fill="#e0e0e0"/>
        <path id="Trazado_741833" data-name="Trazado 741833" d="M441.1,349.161c-5.681-10.323-17.269-18.57-28.995-19.726C416.625,340.7,428.96,349.4,441.1,349.161" transform="translate(-408.226 -41.691)" fill="#e0e0e0"/>
        <path id="Trazado_741834" data-name="Trazado 741834" d="M441.056,354.09c-8.471,1.29-15.689,6.7-23.6,9.981a10.576,10.576,0,0,1-5.337,1.022,4.178,4.178,0,0,1-2.615-7.39,11.418,11.418,0,0,1,3.876-2.351c8.622-3.589,17.869-3.679,26.951-1.5" transform="translate(-404.614 -44.597)" fill="#e0e0e0"/>
        <path id="Trazado_741835" data-name="Trazado 741835" d="M426.415,361.078c-1.917.549-2.573,1.542-4.092,2.835a44.145,44.145,0,0,1-17.9,9.2c-.684.169-1.581.238-1.92-.381-.3-.539.079-1.192.463-1.674a24.65,24.65,0,0,1,10.808-7.337c4.131-1.538,7.71-3.392,12.641-2.994" transform="translate(-385.07 -45.644)" fill="#e0e0e0"/>
        <path id="Trazado_741836" data-name="Trazado 741836" d="M423.462,319.92a33.875,33.875,0,0,1-25.971,8.836,1.78,1.78,0,0,1-1.183-.424c-.654-.712.13-1.809.892-2.4,7.636-5.953,16.885-8.422,26.262-6.009" transform="translate(-376.585 -40.371)" fill="#e0e0e0"/>
        <path id="Trazado_741837" data-name="Trazado 741837" d="M435.98,316.283a36.2,36.2,0,0,0-32.407-5.347,25.728,25.728,0,0,0,15.443,6.78,48.856,48.856,0,0,0,16.965-1.432" transform="translate(-395.662 -39.134)" fill="#e0e0e0"/>
        <path id="Trazado_741838" data-name="Trazado 741838" d="M395.576,295.1c.751-7.622.264-13.638.793-21.295.043-.612.174-1.348.746-1.569.8-.307,1.461.673,1.722,1.486a24.41,24.41,0,0,1-3.25,21.21" transform="translate(-352.652 -34.446)" fill="#e0e0e0"/>
        <path id="Trazado_741839" data-name="Trazado 741839" d="M416.708,295.919a44.812,44.812,0,0,1-12.625-12.27c-2.494-3.412-4.6-7.5-4.029-11.688a12.082,12.082,0,0,1,9.107,4.523,25.393,25.393,0,0,1,4.642,9.341c1.011,3.353,1.719,6.8,2.905,10.094" transform="translate(-373.235 -34.417)" fill="#e0e0e0"/>
        <path id="Trazado_741840" data-name="Trazado 741840" d="M445.045,292.679a101.792,101.792,0,0,1-31.069-18.321c3.711-1.494,7.961-.6,11.671.9,8.477,3.422,15.4,9.2,19.561,17.34" transform="translate(-413.976 -34.624)" fill="#e0e0e0"/>
        <path id="Trazado_741841" data-name="Trazado 741841" d="M438.485,302.862c-5.735.627-11.562,1.035-17.252.084-5.593-.935-10.879-3.151-16.105-5.352a1.888,1.888,0,0,1-1.094-.831,1.26,1.26,0,0,1,.392-1.378,3.334,3.334,0,0,1,1.374-.644c5.682-1.589,11.814-.845,17.405,1.04a80.787,80.787,0,0,1,15.281,7.08" transform="translate(-398.5 -37.191)" fill="#e0e0e0"/>
        <path id="Trazado_741842" data-name="Trazado 741842" d="M365.294,316.691c3.913-7.9,3.659-17.116.279-25.257-2.379,3.626-2.67,8.244-2.235,12.558s1.749,8.755,1.834,13.091" transform="translate(-292.558 -36.882)" fill="#e0e0e0"/>
        <path id="Trazado_741843" data-name="Trazado 741843" d="M319.032,311.324a35.225,35.225,0,0,1,26.176,11.151c-4.876.766-9.9-.492-14.333-2.658a72.857,72.857,0,0,1-12.283-8.221" transform="translate(-230.664 -39.398)" fill="#e0e0e0"/>
        <path id="Trazado_741844" data-name="Trazado 741844" d="M308.337,307.234c4.78-.388,9.378-.979,13.973.429s8.778,4.6,10.651,9.031a25.244,25.244,0,0,1-13.1-2.474,75.348,75.348,0,0,1-11.524-6.986" transform="translate(-209.459 -38.823)" fill="#e0e0e0"/>
        <path id="Trazado_741845" data-name="Trazado 741845" d="M322.8,306.422c4.3-2.818,8.716-5.686,13.722-6.853s10.807-.3,14.3,3.468c-4.054,2.378-8.97,2.66-13.669,2.655s-10.459-.057-14.889,1.511" transform="translate(-239.485 -37.85)" fill="#e0e0e0"/>
        <path id="Trazado_741846" data-name="Trazado 741846" d="M345.1,303.391c7.351-7.218,10.137-20.184,7.18-30.053a45.794,45.794,0,0,0-7.18,30.053" transform="translate(-261.813 -34.592)" fill="#e0e0e0"/>
        <path id="Trazado_741847" data-name="Trazado 741847" d="M395.364,280.894c-1.386-3.223-2.361-6.6-3.6-9.886a28.413,28.413,0,0,0-5.14-9.114,13.534,13.534,0,0,0-9.1-4.717,36.666,36.666,0,0,0,17.669,23.769" transform="translate(-332.285 -32.546)" fill="#e0e0e0"/>
        <path id="Trazado_741848" data-name="Trazado 741848" d="M351.558,287.332c2.294-3.158,4.945-7.444,8.056-9.8s7.161-3.783,10.958-2.878a25.523,25.523,0,0,1-19.014,12.679" transform="translate(-284.821 -34.723)" fill="#e0e0e0"/>
        <path id="Trazado_741849" data-name="Trazado 741849" d="M371.82,281.2a54.547,54.547,0,0,0,3.627-11.743,18.323,18.323,0,0,0-1.839-11.941c-4.035,7.628-5.334,15.815-1.994,23.771" transform="translate(-305.816 -32.589)" fill="#e0e0e0"/>
        <path id="Trazado_741850" data-name="Trazado 741850" d="M399.365,255.173c-2.286-7.561-9.209-13.128-16.684-15.683a6.226,6.226,0,0,0-2.925-.439,2.538,2.538,0,0,0-2.156,1.8c-.272,1.286.79,2.439,1.789,3.293a56.8,56.8,0,0,0,19.976,11.029" transform="translate(-336.323 -30.247)" fill="#e0e0e0"/>
        <path id="Trazado_741851" data-name="Trazado 741851" d="M388.935,246.754c-.291-4.876-.595-9.821-2.18-14.44s-4.642-8.953-9.088-10.974c-.756,4.924,1.417,9.822,4.036,14.059s5.778,8.237,7.352,12.963" transform="translate(-325.977 -28.011)" fill="#e0e0e0"/>
        <path id="Trazado_741852" data-name="Trazado 741852" d="M361.283,250.438c1.889-5.511,2.084-12.51,5.384-17.31,2.307-3.356,6-5.642,7.988-9.2a13.987,13.987,0,0,1-.465,10.439,30.2,30.2,0,0,1-6.1,8.739c-2.441,2.608-4.532,4.57-6.8,7.328" transform="translate(-298.204 -28.339)" fill="#e0e0e0"/>
        <path id="Trazado_741853" data-name="Trazado 741853" d="M377.479,416.278c.147,0,.274-36.76.284-82.1.01-45.351-.1-82.1-.247-82.1s-.273,36.752-.284,82.1c-.01,45.335.1,82.1.247,82.1" transform="translate(-314.437 -31.901)" fill="#e0e0e0"/>
        <path id="Trazado_741854" data-name="Trazado 741854" d="M377.5,314a7.844,7.844,0,0,0,1.382.519l3.8,1.283c3.207,1.093,7.613,2.674,12.4,4.634,4.734,2.031,9.2,3.68,11.743,5.884a8.628,8.628,0,0,1,2.359,3.122c.365.863.43,1.391.479,1.382a1.063,1.063,0,0,0-.016-.386,5.81,5.81,0,0,0-.27-1.071,8.294,8.294,0,0,0-2.3-3.328,20.621,20.621,0,0,0-5.095-3.164c-2.038-.952-4.3-1.944-6.7-2.93-4.8-1.965-9.236-3.5-12.48-4.5-1.62-.5-2.943-.878-3.86-1.124A7.852,7.852,0,0,0,377.5,314" transform="translate(-346.584 -39.737)" fill="#e0e0e0"/>
        <path id="Trazado_741855" data-name="Trazado 741855" d="M380.4,284.389a2.253,2.253,0,0,0,.388.413l1.179,1.108,4.4,4,14.656,13.05c5.722,5.093,10.666,9.959,14.092,13.623,1.716,1.829,3.067,3.345,3.989,4.4l1.065,1.217a.285.285,0,1,0,.083-.067c-.223-.3-.546-.736-.99-1.281-.874-1.1-2.185-2.659-3.871-4.526a185.745,185.745,0,0,0-14.014-13.765c-5.741-5.081-10.965-9.645-14.762-12.935l-4.515-3.875-1.246-1.032a2.263,2.263,0,0,0-.459-.334" transform="translate(-360.01 -35.99)" fill="#e0e0e0"/>
        <path id="Trazado_741856" data-name="Trazado 741856" d="M399.873,309.737c.15-.067-1.046-2.826-2.236-6.317s-1.768-6.435-1.92-6.409a21.516,21.516,0,0,0,1.417,6.58,42.859,42.859,0,0,0,1.779,4.418,6.927,6.927,0,0,0,.96,1.729" transform="translate(-352.681 -37.588)" fill="#e0e0e0"/>
        <path id="Trazado_741857" data-name="Trazado 741857" d="M353.2,333.166a6.578,6.578,0,0,0,.882-1.024l2.258-2.9c1.9-2.452,4.52-5.837,7.46-9.541s5.643-7.028,7.6-9.432l2.309-2.857a6.519,6.519,0,0,0,.8-1.091,6.677,6.677,0,0,0-.953.957c-.589.638-1.423,1.577-2.439,2.749-2.033,2.345-4.784,5.635-7.73,9.344s-5.522,7.134-7.344,9.646c-.911,1.256-1.637,2.281-2.124,3a6.6,6.6,0,0,0-.715,1.146" transform="translate(-290.196 -38.766)" fill="#e0e0e0"/>
        <path id="Trazado_741858" data-name="Trazado 741858" d="M365.355,325.092a12.95,12.95,0,0,0,2.95-5.525,15.753,15.753,0,0,0,.669-5.569l-.234.019c.1.425.182.65.224.643s.044-.244.01-.681l-.235.019a25.343,25.343,0,0,1-.942,5.418,41.214,41.214,0,0,1-2.441,5.676" transform="translate(-295.303 -39.735)" fill="#e0e0e0"/>
        <path id="Trazado_741859" data-name="Trazado 741859" d="M340.907,313.279a9.506,9.506,0,0,1,2.06-1.2,13.774,13.774,0,0,1,5.721-.455,35.3,35.3,0,0,1,5.759.929,17.255,17.255,0,0,0,2.37.569,8.294,8.294,0,0,0-2.269-.93,26.328,26.328,0,0,0-5.822-1.1,12.48,12.48,0,0,0-5.9.637,3.662,3.662,0,0,0-1.921,1.545" transform="translate(-261.762 -39.361)" fill="#e0e0e0"/>
        <path id="Trazado_741860" data-name="Trazado 741860" d="M331.057,309.943c.041.083,1.2-.481,3.157-1.149a31.758,31.758,0,0,1,15.906-1.212c2.035.364,3.266.745,3.294.658a3.012,3.012,0,0,0-.837-.357,19.783,19.783,0,0,0-2.384-.669,28.077,28.077,0,0,0-16.108,1.228,19.813,19.813,0,0,0-2.255,1.023,3.03,3.03,0,0,0-.773.48" transform="translate(-249.757 -38.797)" fill="#e0e0e0"/>
        <path id="Trazado_741861" data-name="Trazado 741861" d="M372.832,294.675a65.252,65.252,0,0,0,2.3-8,65.251,65.251,0,0,0,1.787-8.127,65.559,65.559,0,0,0-2.3,8,65.253,65.253,0,0,0-1.787,8.127" transform="translate(-309.753 -35.252)" fill="#e0e0e0"/>
        <path id="Trazado_741862" data-name="Trazado 741862" d="M370.48,295.755a38.556,38.556,0,0,1,2.551-4.787,21.043,21.043,0,0,1,3.755-3.875,3.483,3.483,0,0,0-1.449.747,11.692,11.692,0,0,0-2.741,2.823,10.62,10.62,0,0,0-2.116,5.092" transform="translate(-307.547 -36.331)" fill="#e0e0e0"/>
        <path id="Trazado_741863" data-name="Trazado 741863" d="M339.008,409.86c.058.009.165-.884.58-2.445a34.794,34.794,0,0,1,2.456-6.364c2.54-5.19,7.161-11.771,13.034-18.362,2.909-3.324,5.732-6.461,8.129-9.463a66.517,66.517,0,0,0,5.813-8.384,40.152,40.152,0,0,0,2.934-6.222c.27-.767.468-1.365.576-1.779a3.011,3.011,0,0,0,.151-.635c-.047-.015-.314.841-.921,2.34a45.518,45.518,0,0,1-3.066,6.106,70.261,70.261,0,0,1-5.87,8.266c-2.405,2.971-5.233,6.091-8.148,9.421-5.888,6.608-10.5,13.273-12.972,18.548a31.7,31.7,0,0,0-2.319,6.477,18.114,18.114,0,0,0-.326,1.844,3.006,3.006,0,0,0-.053.651" transform="translate(-275.966 -45.079)" fill="#e0e0e0"/>
        <path id="Trazado_741864" data-name="Trazado 741864" d="M377.554,380.1a13.289,13.289,0,0,0,1.522.854,33.15,33.15,0,0,1,3.946,2.608,45.336,45.336,0,0,1,5.182,4.727c1.819,1.922,3.692,4.153,5.6,6.544,3.823,4.8,7.4,9.042,9.541,12.431,1.087,1.68,1.877,3.1,2.4,4.092a13.134,13.134,0,0,0,.838,1.531,1.488,1.488,0,0,0-.141-.431c-.114-.273-.267-.684-.511-1.191a38.8,38.8,0,0,0-2.264-4.2c-2.079-3.47-5.627-7.773-9.444-12.563-1.915-2.4-3.813-4.631-5.665-6.55a42.036,42.036,0,0,0-5.311-4.689,27.678,27.678,0,0,0-4.075-2.491c-.5-.253-.916-.408-1.188-.526a1.464,1.464,0,0,0-.43-.145" transform="translate(-343.54 -48.102)" fill="#e0e0e0"/>
        <path id="Trazado_741865" data-name="Trazado 741865" d="M388.473,392.268a22.171,22.171,0,0,0,3.216.467,42.457,42.457,0,0,1,7.626,1.5,22.939,22.939,0,0,1,6.829,3.584c1.574,1.216,2.316,2.223,2.389,2.163a2.462,2.462,0,0,0-.476-.74,12.127,12.127,0,0,0-1.675-1.715,20.681,20.681,0,0,0-6.9-3.8,34.411,34.411,0,0,0-7.752-1.37,17.681,17.681,0,0,0-3.253-.093" transform="translate(-355.028 -49.638)" fill="#e0e0e0"/>
        <path id="Trazado_741866" data-name="Trazado 741866" d="M393.476,398.191c.168-.1-1.281-2.309-2.405-5.286-1.055-3-1.3-5.639-1.491-5.608a5.129,5.129,0,0,0,.053,1.726,18.554,18.554,0,0,0,.938,4.064,19.688,19.688,0,0,0,1.865,3.728,5.2,5.2,0,0,0,1.04,1.377" transform="translate(-340.91 -49.014)" fill="#e0e0e0"/>
        <path id="Trazado_741867" data-name="Trazado 741867" d="M377.568,347.4a2.419,2.419,0,0,0,.514.273l1.511.687c.662.284,1.466.644,2.37,1.121s1.969.951,3.073,1.614l1.755,1c.608.35,1.21.766,1.85,1.166,1.294.784,2.589,1.751,3.972,2.737a68.133,68.133,0,0,1,15.3,15.828c.938,1.416,1.86,2.743,2.6,4.063.379.653.774,1.269,1.1,1.889l.937,1.787c.625,1.126,1.071,2.2,1.508,3.126s.778,1.736,1.039,2.407c.258.621.467,1.129.635,1.534a2.424,2.424,0,0,0,.256.523,2.381,2.381,0,0,0-.155-.559c-.144-.416-.323-.935-.543-1.573-.232-.685-.537-1.515-.96-2.451s-.838-2.033-1.445-3.176l-.912-1.814c-.321-.629-.71-1.254-1.083-1.916-.728-1.338-1.642-2.685-2.577-4.118A65.614,65.614,0,0,0,392.9,355.605c-1.4-.983-2.716-1.943-4.027-2.716-.65-.4-1.261-.8-1.879-1.147l-1.782-.974c-1.121-.645-2.2-1.108-3.124-1.553s-1.741-.787-2.418-1.043l-1.553-.6a2.443,2.443,0,0,0-.554-.174" transform="translate(-352.956 -43.964)" fill="#e0e0e0"/>
        <path id="Trazado_741868" data-name="Trazado 741868" d="M408.981,364.469a3.693,3.693,0,0,0-1.263-1.881,7.973,7.973,0,0,0-5.09-1.953,13.926,13.926,0,0,0-5.356,1.046,7.619,7.619,0,0,0-2.025.984,12.578,12.578,0,0,0,2.149-.629,16.176,16.176,0,0,1,5.215-.871,8.3,8.3,0,0,1,4.862,1.707,14.988,14.988,0,0,1,1.508,1.6" transform="translate(-361.394 -45.639)" fill="#e0e0e0"/>
        <path id="Trazado_741869" data-name="Trazado 741869" d="M393.346,367.688a13.595,13.595,0,0,1-1.121-9.611,3.124,3.124,0,0,0-.6,1.37,9.717,9.717,0,0,0,.822,7.046c.449.812.845,1.232.9,1.195" transform="translate(-342.326 -45.316)" fill="#e0e0e0"/>
        <path id="Trazado_741870" data-name="Trazado 741870" d="M399.194,423.664c-.792,14.049-5.026,28.336-11.536,42.781H359.341c-6.209-14.3-10.15-28.567-10.851-42.781Z" transform="translate(-310.763 -53.616)" fill="#e0e0e0"/>
        <path id="Trazado_741871" data-name="Trazado 741871" d="M353.609,449.652c0,.147,9.323.266,20.82.266s20.823-.119,20.823-.266-9.321-.266-20.823-.266-20.82.119-20.82.266" transform="translate(-311.293 -56.871)" fill="#fafafa"/>
        <path id="Trazado_741872" data-name="Trazado 741872" d="M355.865,455.479c0,.147,8.74.266,19.519.266s19.521-.119,19.521-.266-8.738-.266-19.521-.266-19.519.119-19.519.266" transform="translate(-312.916 -57.609)" fill="#fafafa"/>
        <path id="Trazado_741873" data-name="Trazado 741873" d="M362.182,434.224a80.248,80.248,0,0,0,0,13.044,80.221,80.221,0,0,0,0-13.044" transform="translate(-285.745 -54.952)" fill="#fafafa"/>
        <path id="Trazado_741874" data-name="Trazado 741874" d="M379.552,434.224a86.049,86.049,0,0,0,0,13.509,85.754,85.754,0,0,0,0-13.509" transform="translate(-318.286 -54.952)" fill="#fafafa"/>
        <path id="Trazado_741875" data-name="Trazado 741875" d="M395.858,434.093a89.5,89.5,0,0,0,0,13.778,89.208,89.208,0,0,0,0-13.778" transform="translate(-348.835 -54.936)" fill="#fafafa"/>
        <path id="Trazado_741876" data-name="Trazado 741876" d="M349.591,434.185c0,.147,10.935.266,24.42.266s24.422-.119,24.422-.266-10.932-.265-24.422-.265-24.42.119-24.42.265" transform="translate(-310.965 -54.914)" fill="#fafafa"/>
      </g>
    </g>
    <g id="Grupo_1035640" data-name="Grupo 1035640">
      <g id="Grupo_1035639" data-name="Grupo 1035639" clip-path="url(#clip-path)">
        <path id="Trazado_741877" data-name="Trazado 741877" d="M297.491.522s-26.814-2.15-29.812,62.335h86.407l-4.276-48.323Z" transform="translate(-195.069 -0.065)" fill="#e0e0e0"/>
        <path id="Trazado_741878" data-name="Trazado 741878" d="M3.03,229.484c4.419-38.575,12.361-76.42,15.457-115.217S32.785,18.913,4.913.489c0,0,208.6-.24,218.173-.24,42.857,0,58.227,57.238,50.756,114.018-5.065,38.493-11.039,76.642-15.457,115.217s-5.132,79.127,5.779,115.411c5.482,18.229,16.466,36.9,31.138,37.494H33.693S14.477,363.744,8.809,344.9C-2.1,308.612-1.389,268.059,3.03,229.484" transform="translate(97.509 -0.032)" fill="#fff"/>
        <path id="Trazado_741879" data-name="Trazado 741879" d="M3.087,229.453s-.115.938-.321,2.779-.524,4.582-.853,8.2C1.231,247.648.322,258.349.042,272.243c-.1,6.946-.049,14.688.422,23.167a243.546,243.546,0,0,0,3.134,27.5c.407,2.456.958,4.931,1.444,7.464.543,2.52,1.186,5.063,1.79,7.66q.536,1.927,1.081,3.884.273.98.547,1.966l.276.988.334.977c.456,1.3.862,2.633,1.447,3.906l.823,1.941c.285.645.619,1.269.928,1.909a96.1,96.1,0,0,0,9.289,14.848,133.418,133.418,0,0,0,12.09,14.009l.042.042h.062l261.608.064.009-.426a18.852,18.852,0,0,1-6.325-1.438,23.986,23.986,0,0,1-5.621-3.374,42.223,42.223,0,0,1-8.793-9.926,76.2,76.2,0,0,1-6.319-11.9,97.7,97.7,0,0,1-4.486-12.88c-5.058-17.61-7.453-36.286-8.03-55.269a402.459,402.459,0,0,1,2.867-57.8c2.228-19.472,4.9-39.158,7.682-59.042,2.739-19.646,5.562-39.07,8.027-58.3.619-4.811.985-9.635,1.275-14.444.24-4.812.338-9.616.251-14.4A164.392,164.392,0,0,0,273,55.035,105.43,105.43,0,0,0,264.314,28.4c-4.17-8.27-9.851-15.9-17.413-21.142a40.193,40.193,0,0,0-12.323-5.778L231.261.742c-1.11-.212-2.239-.31-3.356-.47l-.839-.106L226.222.13,224.534.059C223.408-.007,222.29,0,221.173,0L194.626.036,4.97.283H4.392L4.874.6a32.661,32.661,0,0,1,9.264,9.475,46.784,46.784,0,0,1,5.383,11.834A78.62,78.62,0,0,1,22.17,34.357c.539,4.158.824,8.292.965,12.371a236.569,236.569,0,0,1-.614,23.787c-.548,7.684-1.286,15.115-2.029,22.3s-1.48,14.119-2.026,20.819c-.565,6.694-1.158,13.129-1.89,19.283-1.405,12.315-3.037,23.536-4.546,33.628-1.536,10.09-2.9,19.06-4.088,26.843-1.167,7.784-2.118,14.383-2.836,19.728-1.435,10.688-2.018,16.34-2.018,16.34s.187-1.408.525-4.155.863-6.829,1.594-12.171,1.7-11.938,2.883-19.72c1.2-7.78,2.579-16.748,4.132-26.835,1.525-10.092,3.171-21.312,4.591-33.63.739-6.155,1.339-12.593,1.911-19.289.553-6.694,1.3-13.628,2.046-20.812s1.494-14.615,2.048-22.305a236.736,236.736,0,0,0,.633-23.819c-.281-8.16-1.083-16.618-3.613-24.9A47.1,47.1,0,0,0,14.424,9.893,33.029,33.029,0,0,0,5.067.312l-.1.321L194.626.463,221.173.437c1.118-.006,2.237-.01,3.348.056l1.672.071L227.03.6l.831.106c1.1.159,2.222.256,3.321.466l3.282.735a39.763,39.763,0,0,1,12.188,5.718c7.482,5.183,13.121,12.756,17.266,20.979a105.032,105.032,0,0,1,8.645,26.52,164.032,164.032,0,0,1,2.881,28.252c.087,4.774-.011,9.567-.252,14.369-.289,4.8-.655,9.611-1.274,14.413-2.465,19.217-5.289,38.645-8.028,58.29-2.783,19.885-5.454,39.575-7.681,59.054a402.631,402.631,0,0,0-2.864,57.869c.581,19.011,2.982,37.724,8.056,55.376a98.079,98.079,0,0,0,4.508,12.931,76.653,76.653,0,0,0,6.357,11.971,42.664,42.664,0,0,0,8.889,10.024,24.385,24.385,0,0,0,5.721,3.432,19.268,19.268,0,0,0,6.473,1.468l.008-.425-261.608.063.1.043a133.307,133.307,0,0,1-12.071-13.965,95.832,95.832,0,0,1-9.276-14.8c-.308-.637-.642-1.259-.926-1.9s-.549-1.289-.821-1.931c-.584-1.267-.989-2.592-1.444-3.885l-.334-.971-.275-.987q-.276-.984-.549-1.962l-1.084-3.878c-.605-2.592-1.251-5.132-1.8-7.649-.487-2.529-1.041-5-1.45-7.453A244.026,244.026,0,0,1,.663,295.4C.181,286.926.12,279.188.2,272.246.459,258.358,1.341,247.657,2,240.436c.315-3.613.621-6.356.811-8.2s.279-2.785.279-2.785" transform="translate(97.451 0)" fill="#263238"/>
        <path id="Trazado_741880" data-name="Trazado 741880" d="M23.962,219.858s-.133,1.009-.369,2.982-.584,4.914-1.043,8.767c-.883,7.713-2.306,19.092-3.46,33.836-.573,7.372-1.01,15.592-1.084,24.6a192.141,192.141,0,0,0,1.813,29.265c.428,2.6.776,5.263,1.425,7.915l.88,4.03q.575,2,1.158,4.031a136.509,136.509,0,0,0,6.036,16.343q.952,2.033,1.921,4.1c.679,1.358,1.433,2.691,2.154,4.052a77.2,77.2,0,0,0,5.048,7.891c.437.661.976,1.25,1.466,1.879.512.611.983,1.26,1.534,1.846l1.646,1.77c.553.59,1.175,1.115,1.762,1.678a23.033,23.033,0,0,0,8.38,5.18l.01,0h.021l235.35.057.009-.427a11.447,11.447,0,0,1-5.637-1.915,20.07,20.07,0,0,1-4.483-4.117,49.34,49.34,0,0,1-6.353-10.612,137.324,137.324,0,0,1-7.906-23.978,291.355,291.355,0,0,1-7.4-51.508,328.4,328.4,0,0,1,1.63-53.774q1.483-13.581,3.719-27.245c1.478-9.1,3.145-18.236,4.711-27.435,3.254-18.913,6.045-37.694,8.563-56.264C278.239,104.277,279,85.617,276.9,67.5c-.535-4.526-1.278-9.009-2.194-13.437a119.722,119.722,0,0,0-3.588-13.022,79.176,79.176,0,0,0-5.358-12.275A55.241,55.241,0,0,0,258.14,17.9a38.28,38.28,0,0,0-10.331-8.125A34.882,34.882,0,0,0,235.38,5.933c-4.324-.467-8.62-.252-12.886-.3l-12.74.016-182.416.24h-.455l.341.3a32.658,32.658,0,0,1,7.394,9.823,51.24,51.24,0,0,1,4,11.382,106.161,106.161,0,0,1,2.364,23.138c.065,15.14-1.53,29.375-2.889,42.669-.7,6.65-1.375,13.074-1.882,19.274s-1.021,12.158-1.6,17.865c-1.127,11.416-2.35,21.834-3.5,31.2-2.343,18.733-4.166,33.3-5.4,43.2-.583,4.947-1.028,8.723-1.328,11.266s-.424,3.845-.424,3.845c.042-.342.643-5.244,1.852-15.1,1.258-9.889,3.112-24.457,5.5-43.185,1.16-9.369,2.4-19.787,3.538-31.2.585-5.706,1.1-11.668,1.621-17.866s1.2-12.617,1.9-19.266c1.371-13.294,2.98-27.533,2.927-42.7A106.416,106.416,0,0,0,38.94,27.326a51.55,51.55,0,0,0-4.021-11.459,32.982,32.982,0,0,0-7.467-9.93l-.114.3,182.416-.161,12.74-.012c4.264.044,8.579-.168,12.834.3A34.461,34.461,0,0,1,247.6,10.156a37.87,37.87,0,0,1,10.212,8.037,54.832,54.832,0,0,1,7.558,10.781A78.68,78.68,0,0,1,270.7,41.181a119.328,119.328,0,0,1,3.572,12.97c.913,4.414,1.653,8.883,2.186,13.4,2.088,18.076,1.331,36.687-1.44,55.2-2.518,18.566-5.311,37.342-8.563,56.248-1.565,9.2-3.233,18.328-4.71,27.439s-2.732,18.205-3.722,27.267a328.8,328.8,0,0,0-1.626,53.848,291.818,291.818,0,0,0,7.418,51.588,137.754,137.754,0,0,0,7.939,24.055,49.726,49.726,0,0,0,6.415,10.706,20.517,20.517,0,0,0,4.582,4.2,11.88,11.88,0,0,0,5.853,1.982l.008-.427-235.35.056.031,0a22.847,22.847,0,0,1-8.237-5.1c-.583-.558-1.2-1.078-1.749-1.664l-1.638-1.757c-.548-.58-1.017-1.227-1.527-1.834-.488-.624-1.025-1.209-1.46-1.867a76.864,76.864,0,0,1-5.034-7.855c-.72-1.356-1.474-2.683-2.151-4.037q-.967-2.057-1.92-4.083a136.4,136.4,0,0,1-6.038-16.3l-1.159-4.019q-.445-2.027-.883-4.02c-.65-2.646-1-5.3-1.431-7.9a192.4,192.4,0,0,1-1.847-29.228c.062-9.005.486-17.222,1.045-24.592,1.128-14.742,2.523-26.123,3.377-33.839.439-3.855.775-6.794,1-8.772s.324-2.987.324-2.987" transform="translate(88.475 -0.712)" fill="#263238"/>
        <path id="Trazado_741881" data-name="Trazado 741881" d="M68.152,23.027c0,.126,44.44.227,99.247.227,54.826,0,99.258-.1,99.258-.227S222.225,22.8,167.4,22.8c-54.807,0-99.247.1-99.247.227" transform="translate(66.634 -2.885)" fill="#263238"/>
        <path id="Trazado_741882" data-name="Trazado 741882" d="M72.864,163.242c0,.126,40.138.227,89.64.227,49.519,0,89.649-.1,89.649-.227s-40.13-.227-89.649-.227c-49.5,0-89.64.1-89.64.227" transform="translate(77.022 -20.63)" fill="#263238"/>
        <path id="Trazado_741883" data-name="Trazado 741883" d="M72.864,175.963c0,.126,40.138.227,89.64.227,49.519,0,89.649-.1,89.649-.227s-40.13-.227-89.649-.227c-49.5,0-89.64.1-89.64.227" transform="translate(77.022 -22.24)" fill="#263238"/>
        <path id="Trazado_741884" data-name="Trazado 741884" d="M75.523,188.683c0,.127,40.138.228,89.64.228,49.519,0,89.649-.1,89.649-.228s-40.13-.226-89.649-.226c-49.5,0-89.64.1-89.64.226" transform="translate(72.041 -23.85)" fill="#263238"/>
        <path id="Trazado_741885" data-name="Trazado 741885" d="M78.9,202.527c0,.126,40.138.227,89.64.227,49.519,0,89.649-.1,89.649-.227s-40.13-.227-89.649-.227c-49.5,0-89.64.1-89.64.227" transform="translate(65.72 -25.602)" fill="#263238"/>
        <path id="Trazado_741886" data-name="Trazado 741886" d="M80.123,216.371c0,.126,40.138.227,89.64.227,49.519,0,89.649-.1,89.649-.227s-40.13-.227-89.649-.227c-49.5,0-89.64.1-89.64.227" transform="translate(63.423 -27.354)" fill="#263238"/>
        <path id="Trazado_741887" data-name="Trazado 741887" d="M82.27,230.214c0,.126,40.138.227,89.64.227,49.519,0,89.649-.1,89.649-.227s-40.13-.227-89.649-.227c-49.5,0-89.64.1-89.64.227" transform="translate(59.4 -29.106)" fill="#263238"/>
        <path id="Trazado_741888" data-name="Trazado 741888" d="M82.27,244.058c0,.126,40.138.227,89.64.227,49.519,0,89.649-.1,89.649-.227s-40.13-.227-89.649-.227c-49.5,0-89.64.1-89.64.227" transform="translate(59.4 -30.858)" fill="#263238"/>
        <path id="Trazado_741889" data-name="Trazado 741889" d="M85.643,257.9c0,.127,40.138.228,89.64.228,49.519,0,89.649-.1,89.649-.228s-40.13-.227-89.649-.227c-49.5,0-89.64.1-89.64.227" transform="translate(53.081 -32.609)" fill="#263238"/>
        <path id="Trazado_741890" data-name="Trazado 741890" d="M85.643,271.745c0,.126,40.138.227,89.64.227,49.519,0,89.649-.1,89.649-.227s-40.13-.227-89.649-.227c-49.5,0-89.64.1-89.64.227" transform="translate(53.081 -34.361)" fill="#263238"/>
        <path id="Trazado_741891" data-name="Trazado 741891" d="M66.415,43.982c0,.126,40.138.227,89.64.227,49.519,0,89.649-.1,89.649-.227s-40.13-.227-89.649-.227c-49.5,0-89.64.1-89.64.227" transform="translate(89.104 -5.537)" fill="#263238"/>
        <path id="Trazado_741892" data-name="Trazado 741892" d="M60.9,56.182c0,.126,40.138.227,89.64.227,49.519,0,89.649-.1,89.649-.227s-40.13-.227-89.649-.227c-49.5,0-89.64.1-89.64.227" transform="translate(99.445 -7.081)" fill="#263238"/>
        <path id="Trazado_741893" data-name="Trazado 741893" d="M60.415,69.163c0,.126,40.138.227,89.64.227,49.519,0,89.649-.1,89.649-.227s-40.13-.227-89.649-.227c-49.5,0-89.64.1-89.64.227" transform="translate(100.345 -8.724)" fill="#263238"/>
        <path id="Trazado_741894" data-name="Trazado 741894" d="M63.788,83.006c0,.126,40.139.227,89.641.227,49.519,0,89.649-.1,89.649-.227s-40.13-.227-89.649-.227c-49.5,0-89.641.1-89.641.227" transform="translate(94.025 -10.476)" fill="#263238"/>
        <path id="Trazado_741895" data-name="Trazado 741895" d="M65.015,96.85c0,.126,40.138.227,89.64.227,49.519,0,89.649-.1,89.649-.227s-40.13-.227-89.649-.227c-49.5,0-89.64.1-89.64.227" transform="translate(91.727 -12.228)" fill="#263238"/>
        <path id="Trazado_741896" data-name="Trazado 741896" d="M67.162,110.694c0,.126,40.138.227,89.64.227,49.519,0,89.649-.1,89.649-.227s-40.13-.227-89.649-.227c-49.5,0-89.64.1-89.64.227" transform="translate(87.704 -13.98)" fill="#263238"/>
        <path id="Trazado_741897" data-name="Trazado 741897" d="M67.162,124.537c0,.126,40.138.227,89.64.227,49.519,0,89.649-.1,89.649-.227s-40.13-.227-89.649-.227c-49.5,0-89.64.1-89.64.227" transform="translate(87.704 -15.732)" fill="#263238"/>
        <path id="Trazado_741898" data-name="Trazado 741898" d="M70.535,138.381c0,.126,40.138.227,89.64.227,49.519,0,89.649-.1,89.649-.227s-40.13-.227-89.649-.227c-49.5,0-89.64.1-89.64.227" transform="translate(81.385 -17.484)" fill="#263238"/>
        <path id="Trazado_741899" data-name="Trazado 741899" d="M70.535,152.224c0,.126,40.138.227,89.64.227,49.519,0,89.649-.1,89.649-.227S209.694,152,160.175,152c-49.5,0-89.64.1-89.64.227" transform="translate(81.385 -19.236)" fill="#263238"/>
        <path id="Trazado_741900" data-name="Trazado 741900" d="M79.858,408.765c0,.126,38.648.227,86.312.227,47.681,0,86.321-.1,86.321-.227s-38.64-.227-86.321-.227c-47.664,0-86.312.1-86.312.227" transform="translate(70.575 -51.702)" fill="#263238"/>
      </g>
    </g>
    <g id="Grupo_1035642" data-name="Grupo 1035642">
      <g id="Grupo_1035641" data-name="Grupo 1035641" clip-path="url(#clip-path)">
        <path id="Trazado_741901" data-name="Trazado 741901" d="M3.9,472.61c0,.126,86.426.227,193.013.227,106.624,0,193.033-.1,193.033-.227s-86.408-.227-193.033-.227c-106.588,0-193.013.1-193.013.227" transform="translate(-0.529 -59.782)" fill="#263238"/>
      </g>
    </g>
    <path id="Trazado_741902" data-name="Trazado 741902" d="M87.672,391.22l.447-31.252h-21.6l-.745,31.252Z" transform="translate(247.246 -45.555)" fill="#ebebeb"/>
    <g id="Grupo_1035650" data-name="Grupo 1035650">
      <g id="Grupo_1035649" data-name="Grupo 1035649" clip-path="url(#clip-path)">
        <path id="Trazado_741903" data-name="Trazado 741903" d="M51.715,421.853c0,.109,12.139.2,27.11.2s27.112-.089,27.112-.2-12.136-.2-27.112-.2-27.11.089-27.11.2" transform="translate(241.711 -53.362)" fill="#263238"/>
        <path id="Trazado_741904" data-name="Trazado 741904" d="M16.581,466.467H97.007c12.812,0,23.2-9.542,23.2-21.311s-10.385-21.311-23.2-21.311H16.581a2.97,2.97,0,0,0-3.088,2.837v36.949a2.97,2.97,0,0,0,3.088,2.837" transform="translate(260.829 -53.639)" fill="#7e5ee3"/>
        <path id="Trazado_741905" data-name="Trazado 741905" d="M113.053,430.921H298.715v-7.076H113.053a3.551,3.551,0,1,0,0,7.076" transform="translate(-1.279 -53.639)" fill="#7e5ee3"/>
        <path id="Trazado_741906" data-name="Trazado 741906" d="M113.053,471.618H298.715v-7.076H113.053a3.551,3.551,0,1,0,0,7.076" transform="translate(-1.279 -58.789)" fill="#7e5ee3"/>
        <path id="Trazado_741907" data-name="Trazado 741907" d="M115.674,460.417H278.386c8.558,0,15.5-6.374,15.5-14.235s-6.938-14.235-15.5-14.235H115.674a32.6,32.6,0,0,1,0,28.471" transform="translate(-2.099 -54.664)" fill="#f5f5f5"/>
        <g id="Grupo_1035645" data-name="Grupo 1035645" transform="translate(290.017 370.206)" opacity="0.3">
          <g id="Grupo_1035644" data-name="Grupo 1035644" transform="translate(0)">
            <g id="Grupo_1035643" data-name="Grupo 1035643" clip-path="url(#clip-path-6)">
              <path id="Trazado_741908" data-name="Trazado 741908" d="M15.259,466.467h66.3c12.674,0,22.948-9.439,22.948-21.082h0c0-11.9-10.5-21.539-23.445-21.539H13.493c16.8,9.349,15.544,31.737,1.766,42.622" transform="translate(-13.493 -423.845)"/>
            </g>
          </g>
        </g>
        <path id="Trazado_741909" data-name="Trazado 741909" d="M126.275,449.728c0,.109,33.4.2,74.586.2s74.592-.089,74.592-.2-33.39-.2-74.592-.2-74.586.088-74.586.2" transform="translate(7.07 -56.89)" fill="#263238"/>
        <path id="Trazado_741910" data-name="Trazado 741910" d="M143.85,456.973c0,.109,33.4.2,74.586.2s74.593-.088,74.593-.2-33.391-.2-74.593-.2-74.586.088-74.586.2" transform="translate(-25.857 -57.806)" fill="#263238"/>
        <path id="Trazado_741911" data-name="Trazado 741911" d="M138.667,443.005c0,.109,33.4.2,74.586.2s74.593-.088,74.593-.2-33.391-.2-74.593-.2-74.586.088-74.586.2" transform="translate(-16.147 -56.039)" fill="#263238"/>
        <path id="Trazado_741912" data-name="Trazado 741912" d="M26.374,469.194c0,.109,15.633.2,34.913.2s34.917-.089,34.917-.2-15.63-.2-34.917-.2-34.913.088-34.913.2" transform="translate(273.578 -59.353)" fill="#263238"/>
        <path id="Trazado_741913" data-name="Trazado 741913" d="M26.374,427.867c0,.109,15.633.2,34.913.2s34.917-.088,34.917-.2-15.63-.2-34.917-.2-34.913.089-34.913.2" transform="translate(273.578 -54.123)" fill="#263238"/>
        <path id="Trazado_741914" data-name="Trazado 741914" d="M41.712,419.742h64.847c9.949,0,18.013-7.409,18.013-16.548s-8.065-16.547-18.013-16.547H41.712Z" transform="translate(231.812 -48.931)" fill="#455a64"/>
        <path id="Trazado_741915" data-name="Trazado 741915" d="M119.021,392.14H263.186v-5.494H119.021a2.757,2.757,0,1,0,0,5.494" transform="translate(28.286 -48.931)" fill="#455a64"/>
        <path id="Trazado_741916" data-name="Trazado 741916" d="M119.021,423.741H263.186v-5.494H119.021a2.757,2.757,0,1,0,0,5.494" transform="translate(28.286 -52.93)" fill="#455a64"/>
        <path id="Trazado_741917" data-name="Trazado 741917" d="M121.055,415.044H247.4c6.645,0,12.032-4.949,12.032-11.053s-5.387-11.054-12.032-11.054H121.055a25.313,25.313,0,0,1,0,22.108" transform="translate(27.651 -49.727)" fill="#f5f5f5"/>
        <g id="Grupo_1035648" data-name="Grupo 1035648" transform="translate(285.711 337.715)" opacity="0.3">
          <g id="Grupo_1035647" data-name="Grupo 1035647">
            <g id="Grupo_1035646" data-name="Grupo 1035646" clip-path="url(#clip-path-7)">
              <path id="Trazado_741918" data-name="Trazado 741918" d="M43.083,419.742H94.317c9.978,0,18.068-7.432,18.068-16.6,0-9.111-8.04-16.5-17.957-16.5H41.712c13.044,7.259,12.069,24.643,1.371,33.1" transform="translate(-41.712 -386.646)"/>
            </g>
          </g>
        </g>
        <path id="Trazado_741919" data-name="Trazado 741919" d="M129.287,406.737c0,.109,25.933.2,57.916.2s57.921-.089,57.921-.2-25.927-.2-57.921-.2-57.916.088-57.916.2" transform="translate(34.769 -51.449)" fill="#263238"/>
        <path id="Trazado_741920" data-name="Trazado 741920" d="M142.934,412.363c0,.109,25.933.2,57.916.2s57.921-.088,57.921-.2-25.927-.2-57.921-.2-57.916.089-57.916.2" transform="translate(9.202 -52.161)" fill="#263238"/>
        <path id="Trazado_741921" data-name="Trazado 741921" d="M138.91,398.76c0,.109,25.933.2,57.915.2s57.921-.088,57.921-.2-25.927-.2-57.921-.2-57.915.089-57.915.2" transform="translate(16.742 -50.439)" fill="#263238"/>
        <path id="Trazado_741922" data-name="Trazado 741922" d="M51.715,389.762c0,.109,12.139.2,27.11.2s27.112-.089,27.112-.2-12.136-.2-27.112-.2-27.11.089-27.11.2" transform="translate(241.711 -49.301)" fill="#263238"/>
        <path id="Trazado_741923" data-name="Trazado 741923" d="M192.955,398.952v13.255l-5-2.946-5.578,2.946V398.952Z" transform="translate(40.567 -50.489)" fill="#7e5ee3"/>
        <path id="Trazado_741924" data-name="Trazado 741924" d="M63.362,376.484c0,.169,5.171.306,11.547.306s11.548-.137,11.548-.306-5.169-.306-11.548-.306-11.547.137-11.547.306" transform="translate(251.018 -47.606)" fill="#e0e0e0"/>
        <path id="Trazado_741925" data-name="Trazado 741925" d="M63.362,351.273c0,.169,5.171.306,11.547.306s11.548-.137,11.548-.306-5.169-.306-11.548-.306-11.547.137-11.547.306" transform="translate(251.018 -44.416)" fill="#e0e0e0"/>
        <path id="Trazado_741926" data-name="Trazado 741926" d="M63.362,357.576c0,.169,5.171.306,11.547.306s11.548-.137,11.548-.306-5.169-.306-11.548-.306-11.547.137-11.547.306" transform="translate(251.018 -45.214)" fill="#e0e0e0"/>
        <path id="Trazado_741927" data-name="Trazado 741927" d="M63.362,363.879c0,.169,5.171.306,11.547.306s11.548-.137,11.548-.306-5.169-.306-11.548-.306-11.547.137-11.547.306" transform="translate(251.018 -46.011)" fill="#e0e0e0"/>
        <path id="Trazado_741928" data-name="Trazado 741928" d="M63.362,370.181c0,.169,5.171.306,11.547.306s11.548-.137,11.548-.306-5.169-.306-11.548-.306-11.547.137-11.547.306" transform="translate(251.018 -46.809)" fill="#e0e0e0"/>
        <path id="Trazado_741929" data-name="Trazado 741929" d="M272.856,342.7H63.042c-2.59,11.812-2.226,24.809,0,38.552h208.92V378.63H253.931a6.107,6.107,0,0,1-6.029-6.183V351.114a6.107,6.107,0,0,1,6.029-6.183h18.926Z" transform="translate(66.477 -43.37)" fill="#ff9d00"/>
        <path id="Trazado_741930" data-name="Trazado 741930" d="M293.11,381.951c.164,0,.3-8.855.3-19.777s-.134-19.778-.3-19.778-.3,8.853-.3,19.778.134,19.777.3,19.777" transform="translate(-156.346 -43.331)" fill="#263238"/>
        <path id="Trazado_741931" data-name="Trazado 741931" d="M105.937,381.951c.164,0,.3-8.855.3-19.777s-.134-19.778-.3-19.778-.3,8.853-.3,19.778.133,19.777.3,19.777" transform="translate(194.313 -43.331)" fill="#263238"/>
        <path id="Trazado_741932" data-name="Trazado 741932" d="M297.324,381.951c.164,0,.3-8.855.3-19.777s-.134-19.778-.3-19.778-.3,8.853-.3,19.778.133,19.777.3,19.777" transform="translate(-164.24 -43.331)" fill="#263238"/>
        <path id="Trazado_741933" data-name="Trazado 741933" d="M102,381.951c.164,0,.3-8.855.3-19.777s-.134-19.778-.3-19.778-.3,8.853-.3,19.778.134,19.777.3,19.777" transform="translate(201.693 -43.331)" fill="#263238"/>
      </g>
    </g>
    <path id="Trazado_741937" data-name="Trazado 741937" d="M71.652,287.918l19.708-64.411,22.555,64.138.263-.093L91.341,222.613,71.385,287.835Z" transform="translate(216.29 -28.172)" fill="#263238"/>
    <g id="Grupo_1035661" data-name="Grupo 1035661">
      <g id="Grupo_1035660" data-name="Grupo 1035660" clip-path="url(#clip-path)">
        <path id="Trazado_741938" data-name="Trazado 741938" d="M114.063,297.015a19.945,19.945,0,0,1-13.991,5.825c-8.772,0-16.322,0-16.322,0s-8.383-.5-12.214-5.547Z" transform="translate(216.272 -37.588)" fill="#455a64"/>
        <path id="Trazado_741939" data-name="Trazado 741939" d="M157.425,286.646l19.708-64.411,22.555,64.138.263-.093-22.836-64.939-19.956,65.222Z" transform="translate(55.597 -28.011)" fill="#263238"/>
        <path id="Trazado_741940" data-name="Trazado 741940" d="M199.836,295.743a19.945,19.945,0,0,1-13.991,5.825c-8.772,0-16.323,0-16.323,0s-8.383-.5-12.213-5.547Z" transform="translate(55.581 -37.427)" fill="#455a64"/>
        <rect id="Rectángulo_351659" data-name="Rectángulo 351659" width="93.25" height="2.343" transform="translate(222.794 194.1)" fill="#455a64"/>
        <path id="Trazado_741941" data-name="Trazado 741941" d="M136.24,339.815v-2.348s-6.46-.783-8.728-6.758c-.145.341-10.074-4.515-10.516-10.813h-3.78v19.919Z" transform="translate(157.691 -40.484)" fill="#455a64"/>
        <path id="Trazado_741942" data-name="Trazado 741942" d="M138.773,339.815v-2.348s6.461-.783,8.729-6.758c.145.341,10.074-4.515,10.517-10.813H161.8v19.919Z" transform="translate(109.808 -40.484)" fill="#455a64"/>
        <g id="Grupo_1035653" data-name="Grupo 1035653" transform="translate(267.238 280.597)" opacity="0.3">
          <g id="Grupo_1035652" data-name="Grupo 1035652" transform="translate(0)">
            <g id="Grupo_1035651" data-name="Grupo 1035651" clip-path="url(#clip-path-9)">
              <path id="Trazado_741943" data-name="Trazado 741943" d="M134.692,321.252l7.921.88a1.935,1.935,0,0,1-.688,1.62,3.9,3.9,0,0,1-1.6.774,5.446,5.446,0,0,1-3.735-.15,3.236,3.236,0,0,1-1.9-3.124" transform="translate(-134.676 -321.252)"/>
            </g>
          </g>
        </g>
        <path id="Trazado_741944" data-name="Trazado 741944" d="M133.209,317.4a5.1,5.1,0,1,0,5.092-5.271,5.184,5.184,0,0,0-5.092,5.271" transform="translate(133.073 -39.501)" fill="#455a64"/>
        <path id="Trazado_741945" data-name="Trazado 741945" d="M135.834,279.77l-1.868-3.544,2.944-68.766h2.052l2.872,68.766-1.868,3.544,5.8,9.764L137.9,302.12l-7.867-12.586Z" transform="translate(133.474 -26.255)" fill="#455a64"/>
        <path id="Trazado_741946" data-name="Trazado 741946" d="M134.293,223.306a4.149,4.149,0,1,0,4.146-4.291,4.22,4.22,0,0,0-4.146,4.291" transform="translate(132.935 -27.717)" fill="#455a64"/>
        <path id="Trazado_741947" data-name="Trazado 741947" d="M134.205,223.3a8.317,8.317,0,0,1,.156-1.024,4.3,4.3,0,0,1,1.489-2.322,4.042,4.042,0,0,1,1.736-.8,3.974,3.974,0,0,1,2.172.195,3.727,3.727,0,0,1,1.034.588,3.955,3.955,0,0,1,.852.9,4.274,4.274,0,0,1,.569,1.153,4.334,4.334,0,0,1,0,2.619,4.255,4.255,0,0,1-.569,1.154,3.97,3.97,0,0,1-.852.9,3.744,3.744,0,0,1-1.035.588,3.974,3.974,0,0,1-2.172.195,4.039,4.039,0,0,1-1.736-.8,4.294,4.294,0,0,1-1.489-2.321,8.316,8.316,0,0,1-.156-1.024,1.669,1.669,0,0,0,0,.27,2.171,2.171,0,0,0,.024.327,3.075,3.075,0,0,0,.075.442,4.129,4.129,0,0,0,.435,1.148,4.223,4.223,0,0,0,1.044,1.248,4.067,4.067,0,0,0,4.034.658,3.875,3.875,0,0,0,1.076-.605,4.1,4.1,0,0,0,.887-.933,4.406,4.406,0,0,0,.592-1.2,4.478,4.478,0,0,0,0-2.716,4.378,4.378,0,0,0-.591-1.2,4.127,4.127,0,0,0-.887-.934,3.893,3.893,0,0,0-1.076-.6,4.067,4.067,0,0,0-4.034.658,4.237,4.237,0,0,0-1.044,1.248,4.129,4.129,0,0,0-.435,1.148,3.075,3.075,0,0,0-.075.442,2.172,2.172,0,0,0-.024.327,1.669,1.669,0,0,0,0,.27" transform="translate(133.022 -27.708)" fill="#263238"/>
        <g id="Grupo_1035656" data-name="Grupo 1035656" transform="translate(267.44 249.988)" opacity="0.3">
          <g id="Grupo_1035655" data-name="Grupo 1035655" transform="translate(0)">
            <g id="Grupo_1035654" data-name="Grupo 1035654" clip-path="url(#clip-path-10)">
              <path id="Trazado_741948" data-name="Trazado 741948" d="M142.4,286.208h-7.867l1.867,3.446h4.131Z" transform="translate(-134.536 -286.209)"/>
            </g>
          </g>
        </g>
        <path id="Trazado_741949" data-name="Trazado 741949" d="M134.861,286.206c0-.01-.065-.019-.2-.029v.058c.493.038,2,.066,3.779.066,1.1,0,2.1-.01,2.817-.028.36-.008.652-.018.853-.03a.158.158,0,1,0,0-.073c-.2-.011-.494-.022-.853-.03-.721-.017-1.716-.028-2.817-.028-1.779,0-3.287.028-3.779.066v.058c.139-.01.2-.019.2-.029" transform="translate(132.783 -36.208)" fill="#263238"/>
        <path id="Trazado_741950" data-name="Trazado 741950" d="M136.738,290.055c0-.01-.035-.019-.109-.029v.058c.265.038,1.075.066,2.032.066a12.205,12.205,0,0,0,2.142-.094,12.205,12.205,0,0,0-2.142-.094c-.956,0-1.767.028-2.032.066v.058c.074-.01.109-.019.109-.029" transform="translate(132.677 -36.695)" fill="#263238"/>
        <g id="Grupo_1035659" data-name="Grupo 1035659" transform="translate(263.506 263.279)" opacity="0.3">
          <g id="Grupo_1035658" data-name="Grupo 1035658" transform="translate(0)">
            <g id="Grupo_1035657" data-name="Grupo 1035657" clip-path="url(#clip-path-11)">
              <path id="Trazado_741951" data-name="Trazado 741951" d="M145.768,301.425l-6.129,9.805c-1.417-.586-2.169-.763-3.51-.18l-6.1-9.625Z" transform="translate(-130.033 -301.425)"/>
            </g>
          </g>
        </g>
        <path id="Trazado_741952" data-name="Trazado 741952" d="M129.9,301.413c0,.045,3.519.081,7.86.081s7.86-.037,7.86-.081-3.518-.081-7.86-.081-7.86.037-7.86.081" transform="translate(133.737 -38.134)" fill="#263238"/>
        <path id="Trazado_741953" data-name="Trazado 741953" d="M136.661,312.41a14.661,14.661,0,0,1,1.736-.08c1.2.031,2.147.321,2.16.266a2.141,2.141,0,0,0-.611-.211,6.936,6.936,0,0,0-1.546-.217,5.279,5.279,0,0,0-1.552.184c-.386.111-.195.041-.188.059" transform="translate(132.94 -39.505)" fill="#263238"/>
        <path id="Trazado_741954" data-name="Trazado 741954" d="M134.367,320.9a1.632,1.632,0,0,0,.169.376,4.84,4.84,0,0,0,.65.917,5.216,5.216,0,0,0,1.294,1.055,4.882,4.882,0,0,0,3.974.462,5.148,5.148,0,0,0,1.5-.74,4.776,4.776,0,0,0,.835-.753,1.628,1.628,0,0,0,.245-.331,8.13,8.13,0,0,1-1.145.99,5.21,5.21,0,0,1-3.45.867,5.294,5.294,0,0,1-3.165-1.628,8.5,8.5,0,0,1-.9-1.215" transform="translate(132.424 -40.61)" fill="#263238"/>
        <path id="Trazado_741955" data-name="Trazado 741955" d="M123.262,332.212c0,.045,6.234.081,13.922.081s13.923-.037,13.923-.081-6.232-.081-13.923-.081-13.922.037-13.922.081" transform="translate(134.048 -42.032)" fill="#263238"/>
        <path id="Trazado_741956" data-name="Trazado 741956" d="M113.08,340.008c0,.045,10.153.081,22.674.081s22.676-.036,22.676-.081-10.15-.08-22.676-.08-22.674.036-22.674.08" transform="translate(135.619 -43.019)" fill="#263238"/>
        <path id="Trazado_741957" data-name="Trazado 741957" d="M94.212,221.708a3,3,0,1,0,3.535-2.349,3,3,0,0,0-3.535,2.349" transform="translate(210.425 -27.753)" fill="#455a64"/>
        <path id="Trazado_741958" data-name="Trazado 741958" d="M94.147,221.7a7.286,7.286,0,0,1,.266-.686,2.993,2.993,0,0,1,1.393-1.365,2.921,2.921,0,0,1,1.322-.286,2.951,2.951,0,0,1,1.48.435,2.937,2.937,0,0,1,1.127,1.268,2.91,2.91,0,0,1-.681,3.383,2.932,2.932,0,0,1-1.53.733,2.937,2.937,0,0,1-2.641-.948,2.99,2.99,0,0,1-.755-1.8c-.027-.472.041-.733.02-.735a2.26,2.26,0,0,0-.085.738,2.986,2.986,0,0,0,.731,1.874,3.035,3.035,0,0,0,1.144.825,3.073,3.073,0,0,0,1.608.2,3.086,3.086,0,0,0,1.617-.764,3.061,3.061,0,0,0,.72-3.572,2.887,2.887,0,0,0-.512-.769,2.853,2.853,0,0,0-.683-.562,3.041,3.041,0,0,0-2.933-.124,2.988,2.988,0,0,0-1.4,1.444,2.283,2.283,0,0,0-.208.714" transform="translate(210.49 -27.743)" fill="#263238"/>
        <path id="Trazado_741959" data-name="Trazado 741959" d="M180.039,223.573a3,3,0,1,0,3.535-2.349,3,3,0,0,0-3.535,2.349" transform="translate(49.633 -27.989)" fill="#455a64"/>
        <path id="Trazado_741960" data-name="Trazado 741960" d="M179.974,223.563a7.3,7.3,0,0,1,.266-.686,2.993,2.993,0,0,1,1.393-1.365,2.93,2.93,0,0,1,2.8.148,2.936,2.936,0,0,1,1.127,1.268,2.911,2.911,0,0,1-.681,3.383,2.932,2.932,0,0,1-1.53.733,2.937,2.937,0,0,1-2.641-.948,2.991,2.991,0,0,1-.755-1.8c-.027-.472.041-.733.02-.735a2.261,2.261,0,0,0-.085.738,2.984,2.984,0,0,0,.731,1.873,3.027,3.027,0,0,0,1.144.826,3.073,3.073,0,0,0,1.608.2,3.086,3.086,0,0,0,1.617-.764,3.057,3.057,0,0,0,.72-3.572,2.886,2.886,0,0,0-.512-.769,2.853,2.853,0,0,0-.683-.562,3.041,3.041,0,0,0-2.933-.124,2.989,2.989,0,0,0-1.4,1.444,2.283,2.283,0,0,0-.208.714" transform="translate(49.698 -27.979)" fill="#263238"/>
        <path id="Trazado_741961" data-name="Trazado 741961" d="M137.379,207.254a1.413,1.413,0,1,0,1.412-1.412,1.412,1.412,0,0,0-1.412,1.412" transform="translate(132.62 -26.05)" fill="#455a64"/>
      </g>
    </g>
    <g id="Grupo_1035672" data-name="Grupo 1035672">
      <g id="Grupo_1035671" data-name="Grupo 1035671" clip-path="url(#clip-path)">
        <path id="Trazado_741962" data-name="Trazado 741962" d="M261.171,450.328c.257-.036,5.215,8.639,5.215,8.639-.406.648-3.27,2.908-2.905,4.042s16.491,15.663,18.535,16.159a10.937,10.937,0,0,0,4.156.073s-4.239-10.476-5.927-14.6l-6.8-16.615Z" transform="translate(-121.474 -56.699)" fill="#ffc09d"/>
        <path id="Trazado_741963" data-name="Trazado 741963" d="M256.616,461.216c-.247.257-3.638,3.1-4.5,6.728s.632,19.117.632,19.117l1.592.036s-.144-11.59.3-12.468,2.195-2.118,6.79,1.878,4,8.269,8.207,9.447,15.436-.3,15.356-1.27-8.526-4.708-8.526-4.708a6.136,6.136,0,0,1-5.558-1.26c-2.747-2.224-14.293-17.5-14.293-17.5" transform="translate(-112.148 -58.368)" fill="#263238"/>
        <path id="Trazado_741964" data-name="Trazado 741964" d="M341.377,465.665l.276-3.616-.186-2.123,10.657.1c.086,1.782.2,4.1.321,6.606.134,2.722-1.3,16.079-1.3,16.079H339.4l-1.432-3.254Z" transform="translate(-254.83 -58.205)" fill="#ffc09d"/>
        <path id="Trazado_741965" data-name="Trazado 741965" d="M340.175,466.074s-2.578,8.661-3.413,13.787a13.245,13.245,0,0,0-.241,2.905c.3,3.4,1.827,6.083,8.222,5.658s7.613-1.98,7.766-5.941a129.983,129.983,0,0,0-.914-14.429c-.307-2.587-.533-4.109-.533-4.109l-.007-.789a36.516,36.516,0,0,0-.33,4.975,61.2,61.2,0,0,1-1.014,12.243c-.761,1.415-10.391,2.455-11.515.128s1.979-14.429,1.979-14.429" transform="translate(-253.628 -58.614)" fill="#263238"/>
        <path id="Trazado_741966" data-name="Trazado 741966" d="M269.714,248.995c-1.106,0-9.641,23.943-11.483,41.26S274.473,438.53,274.473,438.53h20.253s-.44-57.571.043-73.842c.53-17.87,1.472-54.493,1.472-54.493l41.311,125.068,24.624-5.591s-14.352-63.88-20.246-91.144-15.494-59-17.2-70.366c-1.481-9.844-3.061-19.167-3.061-19.167Z" transform="translate(-194.794 -31.511)" fill="#263238"/>
        <g id="Grupo_1035664" data-name="Grupo 1035664" transform="translate(63.773 242.718)" opacity="0.3">
          <g id="Grupo_1035663" data-name="Grupo 1035663">
            <g id="Grupo_1035662" data-name="Grupo 1035662" clip-path="url(#clip-path-13)">
              <path id="Trazado_741967" data-name="Trazado 741967" d="M364.686,304.325l1.078,4.036s-25.89,6.068-30.673,4.313-6.556-17.5-6.556-17.5-7.05,17.819-15.039,17.5-23.242-7.2-23.242-7.2l-.109-5.425,25.246-22.163,24.4,1.594Z" transform="translate(-290.145 -277.885)"/>
            </g>
          </g>
        </g>
        <path id="Trazado_741968" data-name="Trazado 741968" d="M352.853,447.226a1.809,1.809,0,0,0,0-.335c-.011-.244-.026-.569-.045-.982-.052-.888-.125-2.153-.218-3.771-.205-3.3-.5-8.03-.861-13.863-.709-11.706-1.684-27.88-2.173-45.765s-.3-34.1-.038-45.819c.16-5.842.289-10.579.379-13.883.044-1.619.078-2.887.1-3.776.006-.413.011-.738.015-.982a1.807,1.807,0,0,0-.01-.335,1.916,1.916,0,0,0-.036.334c-.015.243-.035.568-.06.98-.044.888-.107,2.155-.187,3.772-.162,3.275-.337,8.019-.523,13.881-.342,11.725-.583,27.939-.1,45.84s1.516,34.071,2.308,45.774c.423,5.83.766,10.557,1.005,13.855.13,1.615.232,2.878.3,3.765.038.412.068.736.091.979a1.79,1.79,0,0,0,.046.332" transform="translate(-264.721 -40.208)" fill="#455a64"/>
        <path id="Trazado_741969" data-name="Trazado 741969" d="M270.279,322.751c-.121.034,7.288,26.422,16.547,58.93s16.865,58.846,16.985,58.812-7.286-26.416-16.548-58.936-16.863-58.84-16.983-58.806" transform="translate(-147.067 -40.845)" fill="#455a64"/>
        <path id="Trazado_741970" data-name="Trazado 741970" d="M287.52,178.816c-.833-3.559,6.421-7.515,6.651-11.161s.184-7.451-1.558-10.713c-1.29-2.414-3.527-4.669-3.235-7.36.334-3.073,3.848-5.154,4.606-8.167.547-2.172-.437-4.368-1.017-6.52-2.042-7.583,2.058-21.94,8.039-30.526l8.662,12.221L333.9,98.508c15.386,11.332,5.27,31.118,8.772,41.8,1.643,5.013,10.056,11.28,9.482,16.522-.509,4.64-3.118,6.878-2.913,11.541.166,3.764,3.064,6.783,4.466,10.281,1.673,4.173,1.152,8.859,1.724,13.317s2.955,9.369,7.37,10.231a46.909,46.909,0,0,1-10.286,4.3c-3.006.853-6.277,1.393-9.21.316a7.33,7.33,0,0,1-4.373-4.443q.1,3.349.2,6.7c-10.262.662-23.273-3.95-31.975-9.431.034-5.045.3-9.955.7-14.8L284.075,198.4c-3.785-1.068,4.278-16.023,3.445-19.582" transform="translate(-217.223 -12.466)" fill="#263238"/>
        <path id="Trazado_741971" data-name="Trazado 741971" d="M311.046,103.72a23.613,23.613,0,0,1,17.659-10.263c4.142-.337,5.913.412,8.952,1.025a13.117,13.117,0,0,1,7.782,4.446,21.978,21.978,0,0,1,4.946,9.729,61.6,61.6,0,0,1,1.275,11.245,20.621,20.621,0,0,1-2.829,10.826l-9.464,2.284c-5.276.523-10.625,1.044-15.854.174s-10.415-3.314-13.468-7.646c-4.241-6.017-3.284-15.832,1-21.819" transform="translate(-227.263 -11.817)" fill="#263238"/>
        <path id="Trazado_741972" data-name="Trazado 741972" d="M342.35,111.471c-.445-6.068-6.159-14-13.662-13.538l-3.359-.17-12.432,5.9a3.56,3.56,0,0,0-3.15,3.642l3.634,42,16.155,26.386,2.521-22.948.39-9.709s8.484-1.386,9.988-11.523c.749-5.042.411-13.291-.085-20.033" transform="translate(-220.599 -12.372)" fill="#ffc09d"/>
        <path id="Trazado_741973" data-name="Trazado 741973" d="M322.366,134.542a2.132,2.132,0,0,1,.651-1.361,2.182,2.182,0,0,1,2.631-.321,2.92,2.92,0,0,1,1.286,2.662,2.655,2.655,0,0,1-1.825,1.223,3.241,3.241,0,0,1-.355.034,2.383,2.383,0,0,1-1.646-.53,2.124,2.124,0,0,1-.742-1.707" transform="translate(-215.691 -16.776)" fill="#ff9b6c"/>
        <path id="Trazado_741974" data-name="Trazado 741974" d="M317.438,123.167a1.3,1.3,0,0,1-1.239,1.322,1.243,1.243,0,0,1-1.351-1.156,1.3,1.3,0,0,1,1.238-1.323,1.244,1.244,0,0,1,1.353,1.157" transform="translate(-199.624 -15.44)" fill="#263238"/>
        <path id="Trazado_741975" data-name="Trazado 741975" d="M317.82,117.294c-.159.171-1.151-.547-2.549-.529-1.4,0-2.415.727-2.569.557-.075-.075.086-.382.529-.712a3.569,3.569,0,0,1,2.053-.655,3.429,3.429,0,0,1,2.031.632c.433.326.583.631.5.707" transform="translate(-198.136 -14.674)" fill="#263238"/>
        <path id="Trazado_741976" data-name="Trazado 741976" d="M318.848,128.965a9.3,9.3,0,0,1,2.267-.432c.356-.04.693-.114.752-.358a1.817,1.817,0,0,0-.25-1.055l-1.083-2.705c-1.506-3.852-2.6-7.021-2.445-7.079s1.5,3.014,3.009,6.866c.363.95.709,1.855,1.039,2.722a2.058,2.058,0,0,1,.2,1.4.9.9,0,0,1-.582.528,2.428,2.428,0,0,1-.6.09,9.129,9.129,0,0,1-2.3.026" transform="translate(-207.403 -14.849)" fill="#263238"/>
        <path id="Trazado_741977" data-name="Trazado 741977" d="M335.265,149.067a25.792,25.792,0,0,1-13.6-3.479s3.358,7.063,13.486,6.014Z" transform="translate(-223.403 -18.425)" fill="#ff9b6c"/>
        <path id="Trazado_741978" data-name="Trazado 741978" d="M321.914,131.8c.227-.016.245,1.5,1.556,2.564s2.923.88,2.937,1.092c.023.1-.357.3-1.039.323a3.784,3.784,0,0,1-2.451-.825,3.288,3.288,0,0,1-1.207-2.15c-.064-.633.1-1.011.205-1" transform="translate(-214.573 -16.68)" fill="#263238"/>
        <path id="Trazado_741979" data-name="Trazado 741979" d="M318.151,110.965c-.231.343-1.3.126-2.554.243-1.253.076-2.282.456-2.56.151-.124-.148.009-.482.439-.83a3.977,3.977,0,0,1,4.12-.318c.476.278.655.588.555.754" transform="translate(-198.742 -13.893)" fill="#263238"/>
        <path id="Trazado_741980" data-name="Trazado 741980" d="M329.449,123.242a1.3,1.3,0,0,0,1.314,1.249,1.243,1.243,0,0,0,1.282-1.232,1.3,1.3,0,0,0-1.313-1.25,1.243,1.243,0,0,0-1.283,1.233" transform="translate(-226.983 -15.441)" fill="#263238"/>
        <path id="Trazado_741981" data-name="Trazado 741981" d="M328.485,118.058c.169.162,1.117-.612,2.514-.675,1.394-.082,2.454.587,2.6.409.071-.079-.108-.376-.57-.68a3.56,3.56,0,0,0-2.088-.536,3.426,3.426,0,0,0-1.991.748c-.413.35-.544.662-.461.735" transform="translate(-227.685 -14.752)" fill="#263238"/>
        <path id="Trazado_741982" data-name="Trazado 741982" d="M328.755,112.927c.29.3,1.352-.076,2.647-.154,1.292-.117,2.4.1,2.639-.244.1-.166-.085-.475-.578-.753a4.006,4.006,0,0,0-2.177-.417,3.955,3.955,0,0,0-2.081.737c-.442.348-.576.68-.448.83" transform="translate(-228.359 -14.091)" fill="#263238"/>
        <path id="Trazado_741983" data-name="Trazado 741983" d="M351.108,127.565c-.01-.754-.9-2.522-1.646-2.631-1.992-.289-5.577-.093-5.558,4.954.025,6.9,7.651,5.549,7.651,5.549.009-.155-.415-5.27-.448-7.872" transform="translate(-259.121 -15.8)" fill="#ffc09d"/>
        <path id="Trazado_741984" data-name="Trazado 741984" d="M349.969,132.966c-.031-.022-.12.085-.323.178a1.2,1.2,0,0,1-.9.022,2.973,2.973,0,0,1-1.386-2.664,3.976,3.976,0,0,1,.329-1.722,1.389,1.389,0,0,1,.9-.926.613.613,0,0,1,.711.327c.093.193.05.331.086.342.019.017.148-.116.091-.4a.762.762,0,0,0-.273-.431.908.908,0,0,0-.666-.173,1.687,1.687,0,0,0-1.253,1.074,4.078,4.078,0,0,0-.411,1.925,3.122,3.122,0,0,0,1.766,2.973,1.29,1.29,0,0,0,1.1-.186c.214-.171.249-.326.225-.338" transform="translate(-260.135 -16.137)" fill="#ff9b6c"/>
        <path id="Trazado_741985" data-name="Trazado 741985" d="M326.217,121.387l1.866,1.7c7.077-7.708,20.647-26.74,19.894-25.609a22.038,22.038,0,0,0-10.859-.469c-5.55,1.319-16.011,4.817-15.416,11.42s4.516,12.96,4.516,12.96" transform="translate(-236.156 -12.215)" fill="#263238"/>
        <path id="Trazado_741986" data-name="Trazado 741986" d="M343.938,154.331c-.354.238-11.638,10.408-11.638,10.408l-7.877-10.767L318.2,171.08l7.021,34.483s6.77,11.76,7.006,11.075,13.79-18.635,12.612-18.167,1.567-31.159,1.567-31.159V156.579Z" transform="translate(-231.513 -19.486)" fill="#e0e0e0"/>
        <path id="Trazado_741987" data-name="Trazado 741987" d="M334.669,213.471a1.863,1.863,0,0,0,.045-.473c.01-.362.022-.81.036-1.356.005-1.243.013-2.93.022-4.987.01-4.209-.084-10.028.08-16.44.316-6.387.6-12.164.813-16.429.083-2.053.151-3.739.2-4.981.013-.546.024-.994.031-1.355a1.922,1.922,0,0,0-.019-.474,1.879,1.879,0,0,0-.072.47c-.031.36-.069.807-.116,1.352-.086,1.24-.2,2.923-.346,4.975-.262,4.2-.638,10-.947,16.428-.163,6.432-.019,12.247.054,16.457.051,2.055.092,3.742.122,4.984.02.547.037.995.05,1.356a1.873,1.873,0,0,0,.047.473" transform="translate(-235.09 -21.131)" fill="#263238"/>
        <path id="Trazado_741988" data-name="Trazado 741988" d="M322.507,166.837a10.009,10.009,0,0,0,.85,1.463c.637.989,1.461,2.272,2.439,3.793l.138.214.162-.2,4.586-5.719-.361-.008.673.93c1.179,1.645,2.319,3.209,3.281,4.662l.291.471.006,0s0,0,0,0a.234.234,0,0,0,.018.083.21.21,0,0,0,.106.11.234.234,0,0,0,.126.02l.034-.008a.287.287,0,0,0,.052-.019.662.662,0,0,0,.1-.057l.139-.1.248-.206c.319-.277.615-.552.9-.819l1.567-1.508c.949-.931,1.7-1.7,2.218-2.234a5.556,5.556,0,0,0,.764-.868,5.733,5.733,0,0,0-.887.742l-2.316,2.128-1.6,1.463-.9.793-.238.191-.117.085-.04.024a.526.526,0,0,1,.054.179c-.009.013,0,0,0,0l.007,0c.356,0,.1-.005.176-.008l-.008-.033a1.38,1.38,0,0,0-.17-.375l-.175-.286c-.959-1.488-2.084-3.053-3.267-4.7l-.674-.93-.176-.244-.185.236-4.521,5.771.3.012-2.571-3.7a10.069,10.069,0,0,0-1.026-1.345" transform="translate(-229.716 -20.991)" fill="#263238"/>
        <path id="Trazado_741989" data-name="Trazado 741989" d="M365.064,152.282l-4.416,5.548-17.595,3.5s5.276,60.843,5.63,63.25-11.262,27.535-15.168,60.957c0,0,23.367,8.341,26.82,6.277s13.378-23.794,13.378-23.794l-1.362-54.119s-6.946-23.755-7.683-35.7a232.871,232.871,0,0,1,.4-25.923" transform="translate(-272.202 -19.272)" fill="#81d4fa"/>
        <g id="Grupo_1035667" data-name="Grupo 1035667" transform="translate(89.119 188.733)" opacity="0.3">
          <g id="Grupo_1035666" data-name="Grupo 1035666" transform="translate(0)">
            <g id="Grupo_1035665" data-name="Grupo 1035665" clip-path="url(#clip-path-14)">
              <path id="Trazado_741990" data-name="Trazado 741990" d="M342.321,216.077s-10.3,24.334-8.959,29.727c1.3,5.247,6.591,30.031,8.356,38.481l4.154-8.6-1.6-53.706Z" transform="translate(-333.242 -216.078)"/>
            </g>
          </g>
        </g>
        <path id="Trazado_741991" data-name="Trazado 741991" d="M356.416,219.01a4.41,4.41,0,0,0-.38-.624l-1.161-1.736c-.506-.751-1.154-1.651-1.795-2.768q-.5-.827-1.066-1.762c-.383-.621-.782-1.28-1.152-2-.754-1.432-1.65-2.964-2.439-4.7-.407-.86-.85-1.74-1.267-2.663l-1.232-2.874a113.729,113.729,0,0,1-4.5-13.162,99.067,99.067,0,0,1-2.8-13.62c-.026-.263-.068-.534-.081-.783-.029-.313-.031-.362.163-.466a3.318,3.318,0,0,1,1.416-.135,9.776,9.776,0,0,1,1.453.21,3.5,3.5,0,0,1,.654.2c.033.012.024.017.031.017s.009,0,.01,0a.08.08,0,0,1-.016-.042c-.108-.054.219-.322.188-.229a.1.1,0,0,1,.031,0c.032.012-.063-.041-.1-.067l-.284-.208-2.188-1.681-.535-.391-.138-.093-.072-.046c-.005-.012.028.006.021.019a.751.751,0,0,1,.031-.206,7.005,7.005,0,0,1,.5-1.1c1.575-2.813,3.1-4.966,4.089-6.48l1.163-1.735a4.449,4.449,0,0,0,.384-.619,4.221,4.221,0,0,0-.459.567l-1.232,1.687c-1.039,1.488-2.6,3.6-4.227,6.429a7.242,7.242,0,0,0-.536,1.16.774.774,0,0,0-.024.421.454.454,0,0,0,.115.148l.064.042.129.09.521.39q1.047.819,2.172,1.7l.293.218a.915.915,0,0,0,.211.123.278.278,0,0,0,.052.01c-.024.1.308-.185.2-.244a.329.329,0,0,0-.038-.081.543.543,0,0,0-.061-.059.49.49,0,0,0-.121-.081,3.746,3.746,0,0,0-.742-.238,10.2,10.2,0,0,0-1.513-.23,3.572,3.572,0,0,0-1.628.168.674.674,0,0,0-.369.383,1.09,1.09,0,0,0-.024.471c.014.28.052.536.079.807a95.661,95.661,0,0,0,2.782,13.694,109.617,109.617,0,0,0,4.552,13.2l1.254,2.877c.425.925.876,1.8,1.292,2.664.807,1.733,1.722,3.262,2.5,4.69.381.718.79,1.374,1.184,1.991s.755,1.2,1.1,1.75c.664,1.108,1.336,1.995,1.864,2.733l1.232,1.688a4.369,4.369,0,0,0,.454.569" transform="translate(-258.918 -20.156)" fill="#263238"/>
        <path id="Trazado_741992" data-name="Trazado 741992" d="M357.968,254.276c.928.3,12.787,4.055,12.787,4.055s-1.022,10.888-2.555,11.012-13.412-3.464-14.305-4.331,4.073-10.736,4.073-10.736" transform="translate(-286.951 -32.179)" fill="#15d3ec"/>
        <path id="Trazado_741993" data-name="Trazado 741993" d="M357.907,254.276a2.222,2.222,0,0,0-.274.449c-.165.3-.4.749-.694,1.333-.583,1.167-1.419,2.861-2.319,5.02-.222.542-.446,1.113-.653,1.72-.1.3-.2.617-.286.946a3.021,3.021,0,0,0-.127,1.071,1.6,1.6,0,0,0,.039.164.9.9,0,0,0,.115.176l.246.169a5.319,5.319,0,0,0,.491.252c.328.15.664.286,1.007.42q1.027.4,2.127.766a84.273,84.273,0,0,0,9.682,2.72,4.829,4.829,0,0,0,.89.09c.472-.1.605-.437.762-.675a8.114,8.114,0,0,0,.582-1.591c.286-1.063.485-2.115.657-3.141.339-2.053.569-4.006.741-5.813l.015-.162-.154-.047-9.346-2.861-2.6-.77a6.49,6.49,0,0,0-.9-.234,8.726,8.726,0,0,0,.943.351l2.606.881,9.176,3.012-.138-.208c-.188,1.792-.431,3.74-.777,5.776-.176,1.017-.376,2.06-.658,3.095a7.724,7.724,0,0,1-.546,1.494c-.113.22-.3.433-.4.439a4.78,4.78,0,0,1-.781-.085,89.853,89.853,0,0,1-9.623-2.669c-.73-.24-1.438-.487-2.117-.742-.339-.128-.672-.26-.988-.4a4.9,4.9,0,0,1-.45-.223l-.187-.118c-.012-.019-.011-.03-.026-.04l-.019-.086a5.639,5.639,0,0,1,.373-1.845c.195-.6.409-1.17.619-1.711.855-2.161,1.646-3.875,2.18-5.063.251-.557.456-1.011.617-1.369a2.356,2.356,0,0,0,.192-.489" transform="translate(-286.891 -32.179)" fill="#263238"/>
        <path id="Trazado_741994" data-name="Trazado 741994" d="M304.373,154.383c1.475.953,7.154,5.787,7.154,5.787l15.294,5.221s-8.575,62.588-7.923,66.07c1.38,7.383,15.915,36.529,17.164,56.543,0,0-31.511,6.986-33.725,4.365s-17.6-48.323-17.6-55.707,12.3-39.3,14.508-47.4,5.126-34.878,5.126-34.878" transform="translate(-191.948 -19.538)" fill="#81d4fa"/>
        <path id="Trazado_741995" data-name="Trazado 741995" d="M317.41,271.358a.652.652,0,0,0-.038-.162c-.038-.124-.085-.277-.143-.47q-.211-.654-.585-1.819l-2.239-6.87c-.955-2.954-2.111-6.533-3.365-10.644-.628-2.054-1.279-4.243-1.889-6.562-.153-.58-.3-1.167-.428-1.765a10.862,10.862,0,0,1-.281-1.806,14.748,14.748,0,0,1,.49-3.761l-.024.055c2.249-3.579,4.662-7.42,7.2-11.454,1.28-2.01,2.532-4.1,3.912-6.171.685-1.039,1.4-2.074,2.077-3.142l1.947-3.3a112.726,112.726,0,0,0,5.65-11.566c.847-1.9,1.534-3.826,2.271-5.684.659-1.888,1.357-3.719,1.921-5.545,1.207-3.626,2.173-7.127,3.013-10.418s1.507-6.386,1.965-9.245c.031-.176.051-.364.071-.549a.644.644,0,0,0-.18-.612,1.823,1.823,0,0,0-1.092-.289,8.36,8.36,0,0,0-2.024.243,4.511,4.511,0,0,0-.479.139,1.69,1.69,0,0,0-.241.1.568.568,0,0,0-.142.108.193.193,0,0,0-.038.066c-.057-.085.038.24.144.193a.273.273,0,0,0,.058-.013.5.5,0,0,0,.079-.045c.273-.195.5-.391.743-.587l1.37-1.133.655-.528.324-.241a.341.341,0,0,0,.1-.1.268.268,0,0,0,.052-.143.84.84,0,0,0-.007-.237,6.912,6.912,0,0,0-.548-1.465c-.424-.891-.857-1.679-1.251-2.384-.793-1.408-1.446-2.477-1.894-3.2l-.518-.816a1.7,1.7,0,0,0-.192-.269,1.909,1.909,0,0,0,.152.293c.12.208.278.486.48.838.421.737,1.05,1.821,1.817,3.239.381.709.8,1.5,1.209,2.389a6.841,6.841,0,0,1,.512,1.41.61.61,0,0,1,0,.162c0,.017,0,.052-.011.044s0,0,0,.012a.147.147,0,0,0-.045.026l-.338.246-.666.524-1.381,1.12c-.237.189-.483.394-.725.562-.01.01-.037.017-.023.019a.182.182,0,0,1,.033.112c.008.012,0,.017.057.028s.089.043.07.039-.067-.045-.005,0c.036,0,.013-.01.057-.024a1.5,1.5,0,0,1,.2-.081,4.158,4.158,0,0,1,.451-.127,8.1,8.1,0,0,1,1.948-.218,1.609,1.609,0,0,1,.893.218c.165.121.034.545,0,.879-.475,2.834-1.171,5.92-2.013,9.2s-1.83,6.768-3.044,10.38c-.569,1.819-1.269,3.642-1.93,5.524-.74,1.852-1.427,3.771-2.274,5.663a113.614,113.614,0,0,1-5.635,11.516l-15.08,24.075-.017.028-.007.027a15.118,15.118,0,0,0-.489,3.876,11.143,11.143,0,0,0,.3,1.878c.128.608.284,1.2.439,1.779.625,2.327,1.288,4.514,1.93,6.567,1.283,4.106,2.469,7.677,3.458,10.62l2.347,6.836.645,1.8c.072.188.128.338.174.459a.651.651,0,0,0,.07.152" transform="translate(-215.188 -20.156)" fill="#263238"/>
        <path id="Trazado_741996" data-name="Trazado 741996" d="M306.115,255.821l-12.138,3.937s1.022,10.888,2.555,11.012,13.411-3.465,14.305-4.33-4.722-10.619-4.722-10.619" transform="translate(-174.888 -32.375)" fill="#15d3ec"/>
        <path id="Trazado_741997" data-name="Trazado 741997" d="M306.113,255.821a2.269,2.269,0,0,0,.217.473l.686,1.318c.595,1.146,1.472,2.8,2.444,4.883a15.613,15.613,0,0,1,1.274,3.476c.012.137,0,.324-.035.334a2.991,2.991,0,0,1-.4.23c-.3.152-.633.28-.965.414-.67.258-1.37.5-2.091.746a96.818,96.818,0,0,1-9.521,2.693c-.283.064-.563.1-.839.14a2.234,2.234,0,0,1-.354.005c-.052,0-.139-.087-.211-.175a5.17,5.17,0,0,1-.632-1.483,30.465,30.465,0,0,1-.706-3.192c-.362-2.1-.613-4.107-.807-5.944l-.135.206,8.717-2.929,2.468-.854a7.941,7.941,0,0,0,.892-.342,5.986,5.986,0,0,0-.853.225l-2.464.744-8.881,2.781-.151.046.016.159c.176,1.851.411,3.861.766,5.98a30.2,30.2,0,0,0,.706,3.245,5.489,5.489,0,0,0,.707,1.636.867.867,0,0,0,.46.335,1.986,1.986,0,0,0,.507.005c.3-.044.594-.08.881-.145a90.291,90.291,0,0,0,9.569-2.743c.723-.25,1.425-.5,2.1-.771.337-.14.671-.272.994-.438a2.8,2.8,0,0,0,.493-.3.8.8,0,0,0,.144-.647,8.394,8.394,0,0,0-.605-1.918c-.245-.586-.5-1.136-.753-1.658-1.015-2.08-1.936-3.708-2.579-4.829-.323-.56-.582-.989-.762-1.279a2.161,2.161,0,0,0-.3-.428" transform="translate(-174.887 -32.375)" fill="#263238"/>
        <path id="Trazado_741998" data-name="Trazado 741998" d="M335.334,251.566a2.328,2.328,0,1,0,2.327-2.254,2.292,2.292,0,0,0-2.327,2.254" transform="translate(-240.066 -31.551)" fill="#263238"/>
        <path id="Trazado_741999" data-name="Trazado 741999" d="M322.436,250.868a2.328,2.328,0,1,0,2.327-2.254,2.292,2.292,0,0,0-2.327,2.254" transform="translate(-215.903 -31.463)" fill="#263238"/>
        <path id="Trazado_742000" data-name="Trazado 742000" d="M320.686,231.634a2.328,2.328,0,1,0,2.327-2.254,2.292,2.292,0,0,0-2.327,2.254" transform="translate(-212.624 -29.029)" fill="#263238"/>
        <path id="Trazado_742001" data-name="Trazado 742001" d="M222.473,209.532s6.914-4.491,8.932-5.387,6.132-.342,9.072-.516,7.063-1.122,8.054-.459c1.175.787-.278,2.172-4.877,3.505l1.3,0,3.131.546s1.326-1.611,2.321-1.506c1.421.15,1.271,1.317,1.271,1.317s2.391-2.341,2.85.473c0,0,2.626-.723,2.62,1.211,0,0,.42,1.591-5.047,1.508,0,0-5.016,3.905-6.189,4.241s-5.041-.634-5.041-.634-1.3,1.542-2.51,1.5c-2.305-.082-8.147-1.025-8.147-1.025l-2.575,2.548Z" transform="translate(-58.657 -25.682)" fill="#ffc09d"/>
        <path id="Trazado_742002" data-name="Trazado 742002" d="M248.114,214.008a6.953,6.953,0,0,1,.642-.86,6.658,6.658,0,0,0,1.327-2.517,5.233,5.233,0,0,0-1.024-3.961c-.22-.336-.464-.671-.721-1.009a7.017,7.017,0,0,0-.811-.967.746.746,0,0,0-.991-.1,1.356,1.356,0,0,0-.482,1.069,4.053,4.053,0,0,0,1.3,3.123l.184.166-.2.141a8.515,8.515,0,0,0-1.659,1.527l-.117.141-.141-.114a14,14,0,0,0-4.8-2.56c-1.28-.385-2.06-.465-2.053-.517a1.975,1.975,0,0,1,.561.019,11.2,11.2,0,0,1,1.55.287,13.31,13.31,0,0,1,4.973,2.486l-.258.026a8.653,8.653,0,0,1,1.717-1.616l-.019.307a4.416,4.416,0,0,1-1.446-3.44,1.75,1.75,0,0,1,.654-1.375,1.112,1.112,0,0,1,.785-.215,1.348,1.348,0,0,1,.7.338,7.088,7.088,0,0,1,.864,1.036c.256.345.5.69.725,1.039a5.455,5.455,0,0,1,.989,4.231,6.325,6.325,0,0,1-1.486,2.552,4.474,4.474,0,0,1-.764.76" transform="translate(-66.042 -25.822)" fill="#ff9b6c"/>
        <path id="Trazado_742003" data-name="Trazado 742003" d="M238.009,207.445a16.072,16.072,0,0,1-2.425,2.68c-.361.347-.678.687-1.042.972a2.027,2.027,0,0,1-1.149.43,1.85,1.85,0,0,1-.8-.171c-.17-.075-.258-.133-.249-.159s.113-.021.293.006a2.474,2.474,0,0,0,.728.037,1.906,1.906,0,0,0,.939-.437c.3-.262.632-.625.99-.968a16.074,16.074,0,0,1,2.711-2.39" transform="translate(-48.139 -26.252)" fill="#ff9b6c"/>
        <path id="Trazado_742004" data-name="Trazado 742004" d="M228.544,214.407c-.079-.093,1.488-1.492,3.171-3.447s2.852-3.7,2.955-3.634a20.137,20.137,0,0,1-6.125,7.081" transform="translate(-41.477 -26.237)" fill="#ff9b6c"/>
        <path id="Trazado_742005" data-name="Trazado 742005" d="M225.249,212.085a22.259,22.259,0,0,1,2.056-2.117,14.357,14.357,0,0,1,2.175-2,8.775,8.775,0,0,1-1.887,2.294,7.243,7.243,0,0,1-2.344,1.828" transform="translate(-33.409 -26.318)" fill="#ff9b6c"/>
        <path id="Trazado_742006" data-name="Trazado 742006" d="M236.015,207.282c0-.113.666-.187,1.5-.165s1.5.131,1.493.244-.678.185-1.5.165-1.487-.13-1.492-.244" transform="translate(-52.333 -26.211)" fill="#ff9b6c"/>
        <path id="Trazado_742007" data-name="Trazado 742007" d="M260.244,166.874s6.068.585,7.394,16.433c1.052,12.574,1.212,31.125,1.212,31.125l20.9-10.207,8.66,11.059s-25.679,23.459-36.987,19.281-9.331-24.732-9.331-24.732l4.553-33.345Z" transform="translate(-125.659 -21.118)" fill="#81d4fa"/>
        <path id="Trazado_742008" data-name="Trazado 742008" d="M302.445,179.02a2.009,2.009,0,0,0-.137.473c-.08.362-.182.816-.3,1.37-.265,1.255-.625,2.966-1.064,5.052-.886,4.269-2.1,10.169-3.36,16.7s-2.3,12.471-2.923,16.79c-.316,2.158-.528,3.912-.652,5.126-.047.566-.086,1.029-.118,1.4a2.06,2.06,0,0,0-.01.491,1.985,1.985,0,0,0,.1-.481c.053-.368.121-.827.2-1.389.177-1.205.438-2.949.794-5.1.7-4.3,1.8-10.221,3.053-16.755,1.255-6.5,2.392-12.387,3.229-16.724.4-2.143.717-3.879.922-5.082.089-.561.162-1.02.221-1.387a1.956,1.956,0,0,0,.047-.489" transform="translate(-166.309 -22.656)" fill="#263238"/>
        <path id="Trazado_742009" data-name="Trazado 742009" d="M285.863,229.43c.124.058,1.1-1.961,2.709-4.186s3.2-3.8,3.105-3.9a18.1,18.1,0,0,0-5.815,8.086" transform="translate(-148.541 -28.011)" fill="#263238"/>
        <path id="Trazado_742010" data-name="Trazado 742010" d="M387.721,162.43s-8.446,1.523-10.9,9.681c-1.292,4.288-11.2,41.794-11.645,42.95s-8.21,17.932,3.732,20.536,23.519-13.854,23.519-13.854-3.515-43.414-3.664-43.992-1.039-15.321-1.039-15.321" transform="translate(-316.041 -20.556)" fill="#81d4fa"/>
        <path id="Trazado_742011" data-name="Trazado 742011" d="M363.643,179.02a5.325,5.325,0,0,0-.052,1.122c-.005.721.017,1.765.06,3.055.087,2.578.286,6.137.6,10.06s.7,7.471,1.066,10.027c.195,1.277.369,2.309.549,3.013a4.626,4.626,0,0,0,.241.8c.071.178.114.268.128.262.045-.02-.1-.387-.2-1.1-.125-.706-.251-1.74-.4-3.017-.286-2.558-.615-6.1-.932-10.023s-.563-7.469-.734-10.04c-.081-1.214-.149-2.234-.2-3.045a5.35,5.35,0,0,0-.126-1.116" transform="translate(-291.005 -22.656)" fill="#263238"/>
        <path id="Trazado_742012" data-name="Trazado 742012" d="M410.871,195.037l-24.014,5.528-2.5,5.527,25.146-.939Z" transform="translate(-353.767 -24.682)" fill="#455a64"/>
        <path id="Trazado_742013" data-name="Trazado 742013" d="M381.9,224.509c.7.909-2.661,7.735-3.481,7.285l-38.15-30.1,3.218-6.659Z" transform="translate(-286.383 -24.683)" fill="#455a64"/>
        <path id="Trazado_742014" data-name="Trazado 742014" d="M344.362,207.057l23.3-4.4,38.15,30.1-24.733,2.66Z" transform="translate(-313.774 -25.647)" fill="#455a64"/>
        <g id="Grupo_1035670" data-name="Grupo 1035670" transform="translate(30.589 177.013)" opacity="0.3">
          <g id="Grupo_1035669" data-name="Grupo 1035669">
            <g id="Grupo_1035668" data-name="Grupo 1035668" clip-path="url(#clip-path-15)">
              <path id="Trazado_742015" data-name="Trazado 742015" d="M344.362,207.057l23.3-4.4,38.15,30.1-24.733,2.66Z" transform="translate(-344.363 -202.66)"/>
            </g>
          </g>
        </g>
        <path id="Trazado_742016" data-name="Trazado 742016" d="M389.544,234.22s2.438-4.723-2.29-9.088-7.9-3.936-9.16-3.434-6.649,4.007-6.649,4.007l-5.079-1.728.419,6.646,4.658,10.487a20.349,20.349,0,0,0,18.1-6.89" transform="translate(-317.357 -28.018)" fill="#15d3ec"/>
        <path id="Trazado_742017" data-name="Trazado 742017" d="M367.132,210.833s4.35-4.793,5.363-4.793,1.809.588,2.026,2.4c0,0,1.881.267,1.809,2.72a3.11,3.11,0,0,1,.984,2.733s1.909,1.963,1.4,3.084-1.808,5.537-2.894,5.958-10.057,3.924-10.057,3.924l-7.38,5.607s-4.36-6.991-3.214-9.811,3.07-3.5,3.143-4.486-.724-5.747-.145-6.868,4.558-4.52,5.137-4.854.868-2.015,2.315-1.384,1.3,2.243.506,3.434-2.6,4-2.6,4Z" transform="translate(-296.041 -25.933)" fill="#ffc09d"/>
        <path id="Trazado_742018" data-name="Trazado 742018" d="M386.779,201.3c.012-.028,23.953-5.442,23.93-5.394s-2.85,5.38-2.85,5.38l-23.083,4.441,2-4.427" transform="translate(-353.972 -24.792)" fill="#fff"/>
        <path id="Trazado_742019" data-name="Trazado 742019" d="M348.627,226.733s-2.8,6.069-4.213,6.66l-1.609-1.268s3.772-5.849,4.174-6.656Z" transform="translate(-255.231 -28.534)" fill="#fff"/>
        <path id="Trazado_742020" data-name="Trazado 742020" d="M381.8,201.139s-2.8,5.566-3.869,6.308l-1.731-1.4s3.55-5.363,3.952-6.17Z" transform="translate(-317.582 -25.295)" fill="#fff"/>
      </g>
    </g>
  </g>
</svg>
