<svg xmlns="http://www.w3.org/2000/svg" width="74.073" height="74.083" viewBox="0 0 74.073 74.083">
  <g id="moler" transform="translate(-0.031)">
    <path id="Trazado_741755" data-name="Trazado 741755" d="M213.909,14.881h-3.7V12.412a1.235,1.235,0,0,0,1.235-1.234V3.77a3.7,3.7,0,0,0-3.7-3.7h-7.407a3.7,3.7,0,0,0-3.7,3.7v7.408a1.235,1.235,0,0,0,1.235,1.234v2.469h-3.7a6.181,6.181,0,0,0-6.172,6.173v26.77l-.678.391H174.4a3.7,3.7,0,0,0-3.7,3.7v4.938a3.7,3.7,0,0,0,2.716,3.555l1.511,5.541A11.137,11.137,0,0,0,185.65,74.14h28.259a6.18,6.18,0,0,0,6.172-6.173V21.054a6.181,6.181,0,0,0-6.172-6.173ZM199.094,3.77a1.235,1.235,0,0,1,1.235-1.234h7.407A1.235,1.235,0,0,1,208.97,3.77V9.943h-9.877Zm1.235,8.642h7.407v2.469h-7.407Zm-6.173,4.938h19.753a3.7,3.7,0,0,1,3.7,3.7v7.407h-27.16V21.054a3.7,3.7,0,0,1,3.7-3.7Zm.4,29.268.272-.188c.321-.219.64-.441.96-.668l.3-.216c.4-.29.8-.583,1.2-.882a9.221,9.221,0,0,0,3.507-5.926,4.765,4.765,0,0,1,.943-2.18,4.938,4.938,0,0,1,8.35,5.185,4.868,4.868,0,0,1-2.393,2.312,9.672,9.672,0,0,0-1.277.694c-.058.037-.124.072-.177.11a9.46,9.46,0,0,0-1.058.827c-.068.062-.136.123-.2.186a9.284,9.284,0,0,0-.883.966c-.054.071-.1.144-.157.215a9.07,9.07,0,0,0-.728,1.137l-.016.023H192.111l.077-.05c.757-.476,1.557-1,2.371-1.547Zm-21.391,5.3a1.235,1.235,0,0,1,1.235-1.234H211.44a1.234,1.234,0,0,1,1.234,1.234v4.938a1.235,1.235,0,0,1-1.234,1.235H174.4a1.235,1.235,0,0,1-1.235-1.235ZM177.313,65.3l-1.294-4.743h33.8l-.226.828L208.53,65.3a8.642,8.642,0,0,1-8.337,6.368H185.65a8.66,8.66,0,0,1-8.337-6.368Zm36.6,6.368h-6.742c.034-.028.063-.064.1-.093a11.073,11.073,0,0,0,1.094-1.03c.046-.048.086-.1.131-.149a11.082,11.082,0,0,0,.948-1.217c.029-.045.055-.09.083-.134a11.085,11.085,0,0,0,.776-1.4c.015-.031.025-.063.04-.094a11.087,11.087,0,0,0,.572-1.59v-.008l1.506-5.524c.106-.029.205-.074.306-.112.068-.025.137-.045.2-.074a3.746,3.746,0,0,0,.579-.315l.025-.02a3.758,3.758,0,0,0,.484-.4c.052-.051.1-.107.146-.16a3.563,3.563,0,0,0,.283-.342c.048-.068.092-.137.136-.207a3.928,3.928,0,0,0,.2-.37c.036-.076.07-.151.1-.229a3.685,3.685,0,0,0,.136-.437c.019-.072.041-.141.054-.214a3.622,3.622,0,0,0,.074-.694V51.918a3.7,3.7,0,0,0-3.7-3.7H206.2c.094-.111.175-.231.276-.336.046-.049.089-.1.137-.146a6.663,6.663,0,0,1,.864-.715c.066-.047.133-.09.2-.133a7.138,7.138,0,0,1,1.03-.574,7.291,7.291,0,0,0,3.6-3.468,7.407,7.407,0,0,0-.988-8.051,7.518,7.518,0,0,0-5.858-2.626,7.38,7.38,0,0,0-5.672,2.883,7.3,7.3,0,0,0-1.425,3.3A6.774,6.774,0,0,1,195.8,42.7q-.643.489-1.306.961c-.18.123-.362.246-.543.379-.259.18-.518.363-.778.539-.219.149-.435.29-.652.433s-.441.294-.658.435-.443.284-.663.424c-.2.123-.4.247-.587.37l-.158.1V30.93h27.16V67.967a3.7,3.7,0,0,1-3.7,3.7Zm0,0" transform="translate(-145.976 -0.057)" fill="#12263f"/>
    <path id="Trazado_741756" data-name="Trazado 741756" d="M88.34,463.337H87.106V462.1a1.235,1.235,0,0,0-2.469,0v1.235H83.4a1.235,1.235,0,0,0,0,2.469h1.235v1.234a1.235,1.235,0,1,0,2.469,0v-1.234H88.34a1.235,1.235,0,1,0,0-2.469Zm0,0" transform="translate(-70.254 -394.192)" fill="#12263f"/>
    <path id="Trazado_741757" data-name="Trazado 741757" d="M6.2,292.669H4.97v-1.234a1.235,1.235,0,1,0-2.469,0v1.234H1.266a1.235,1.235,0,1,0,0,2.469H2.5v1.235a1.235,1.235,0,0,0,2.469,0v-1.235H6.2a1.235,1.235,0,1,0,0-2.469Zm0,0" transform="translate(0 -248.215)" fill="#12263f"/>
    <path id="Trazado_741758" data-name="Trazado 741758" d="M242.668,33.072a1.235,1.235,0,0,0,1.235-1.235V30.6h1.234a1.235,1.235,0,1,0,0-2.469H243.9V26.9a1.235,1.235,0,1,0-2.47,0v1.235H240.2a1.235,1.235,0,1,0,0,2.469h1.234v1.234A1.235,1.235,0,0,0,242.668,33.072Zm0,0" transform="translate(-204.366 -21.951)" fill="#12263f"/>
    <path id="Trazado_741759" data-name="Trazado 741759" d="M.155,21.766A13.5,13.5,0,0,0,6.839,31.933c2.975,1.776,5.938,1.938,9.074,2.11,3.374.185,6.862.37,10.809,2.667a2.48,2.48,0,0,0,2.367.07,2.4,2.4,0,0,0,1.3-1.889c.424-3.936,2.186-23.961-4.808-31.749A9,9,0,0,0,18.652.01,11.573,11.573,0,0,0,9.034,4.486a5.142,5.142,0,0,0-.948-1.712,4.743,4.743,0,0,0-3.543-1.53h-.06a4.661,4.661,0,0,0-3.5,1.579A3.809,3.809,0,0,0,.061,5.8,4.157,4.157,0,0,0,1.837,8.652a29.277,29.277,0,0,1,2.541,2.016c-.017.01-.031.022-.049.032-2.693,1.509-4.3,4.9-4.3,9.063a16.036,16.036,0,0,0,.124,1.976Zm2.5-.051c1.918-5.741,8.376-6.064,10.092-6.039,1.111.987,2.316,2.1,3.532,3.333-4.3.718-9.727,3.034-11.021,8.422a11.084,11.084,0,0,1-2.6-5.716Zm4.831,7.677c.43-6.865,8.669-7.978,10.921-8.148A52,52,0,0,1,21.9,25.536a8.282,8.282,0,0,0-4.275,2.122,6.389,6.389,0,0,0-1.8,3.91c-2.848-.158-5.326-.327-7.715-1.751-.22-.135-.415-.287-.622-.424ZM26.847,11a46.437,46.437,0,0,1,1.481,10.155,4.431,4.431,0,0,0-2.619.556,5.35,5.35,0,0,0-1.966,2.14,55.01,55.01,0,0,0-3.571-4.364c.03-1.866.53-5.838,2.7-7.625A4.827,4.827,0,0,1,26.847,11Zm-.52,22.716a22.524,22.524,0,0,0-8.052-1.993A3.923,3.923,0,0,1,19.362,29.4a6.63,6.63,0,0,1,4.074-1.593,29.143,29.143,0,0,1,2.891,5.9Zm-.9-7.408a4.167,4.167,0,0,1,1.532-2.469,2.087,2.087,0,0,1,1.457-.192c.051,3.125-.078,5.965-.218,8.006a33.447,33.447,0,0,0-2.771-5.344ZM25.945,8.42A6.841,6.841,0,0,0,21.3,9.949c-2.214,1.823-3.066,4.875-3.4,7.144-1.159-1.16-2.3-2.222-3.37-3.169.224-2.057,1.511-8.841,8.492-9.831a8.034,8.034,0,0,1,.721.7A12.919,12.919,0,0,1,25.945,8.42ZM18.652,2.479a7.5,7.5,0,0,1,.812.046A13,13,0,0,0,12.33,12.04c-1.4-1.148-2.546-2.017-3.286-2.556a7.039,7.039,0,0,0,.412-.833l.008-.016c.031-.073.066-.148.1-.222l.053-.123a9.284,9.284,0,0,1,9.037-5.811ZM2.51,5.494a1.348,1.348,0,0,1,.344-1.062A2.2,2.2,0,0,1,4.51,3.713h.032a2.282,2.282,0,0,1,1.707.713A6.241,6.241,0,0,1,7.22,7.6l-.038.089a5.149,5.149,0,0,1-.406.764q-.152.231-.325.446l-.123.158a31.983,31.983,0,0,0-3.073-2.43A1.662,1.662,0,0,1,2.51,5.494Zm3.027,7.355a10.229,10.229,0,0,0,1.591-1.125l.011-.007c.047-.04.085-.083.131-.124.07-.063.141-.123.209-.191.575.422,1.474,1.1,2.583,1.994a13.229,13.229,0,0,0-7.18,3.391,6.172,6.172,0,0,1,2.655-3.938Zm0,0" transform="translate(0 0)" fill="#12263f"/>
  </g>
</svg>
