<svg xmlns="http://www.w3.org/2000/svg" xmlns:xlink="http://www.w3.org/1999/xlink" width="73.806" height="90.833" viewBox="0 0 73.806 90.833">
  <defs>
    <clipPath id="clip-path">
      <rect id="Rectángulo_351621" data-name="Rectángulo 351621" width="73.806" height="90.833" fill="none"/>
    </clipPath>
  </defs>
  <g id="Grupo_1035621" data-name="Grupo 1035621" transform="translate(0 0)">
    <path id="Trazado_741732" data-name="Trazado 741732" d="M1.588,22.521l0,61.072L38.531,62.266Z" transform="translate(-0.095 -1.353)" fill="#dd1e33"/>
    <g id="Grupo_1035620" data-name="Grupo 1035620" transform="translate(0 0)">
      <g id="Grupo_1035619" data-name="Grupo 1035619" clip-path="url(#clip-path)">
        <path id="Trazado_741733" data-name="Trazado 741733" d="M1.651,21.569,38.438.422s.277,1.056,3,3.171,7.846,2.894,7.846,2.894L11.5,28.137s-4.341.055-6.455-1.837a16.173,16.173,0,0,1-3.395-4.731" transform="translate(-0.099 -0.025)" fill="#fff"/>
        <path id="Trazado_741734" data-name="Trazado 741734" d="M12.767,28.5,49.888,6.522H48.232L11.444,27.68Z" transform="translate(-0.688 -0.391)" fill="#6bcfc6"/>
        <path id="Trazado_741735" data-name="Trazado 741735" d="M2.111,22.344,38.6.742,38.207,0,.788,21.521Z" transform="translate(-0.047 0)" fill="#6bcfc6"/>
        <path id="Trazado_741736" data-name="Trazado 741736" d="M12.261,87.556A1.525,1.525,0,0,1,10.756,89.1L.59,83.6C-.1,83.394.007,82,.007,81.152V23.767c.008-.164,1.17-1.13,1.17-1.13l9.775,5.221c1.323.393,1.128.762,1.128,1.613Z" transform="translate(0 -1.36)" fill="#6bcfc6"/>
        <path id="Trazado_741737" data-name="Trazado 741737" d="M12.157,87.962,49.935,67.594l0-61.072L12.81,28.5Z" transform="translate(-0.73 -0.391)" fill="#15d3ec"/>
        <path id="Trazado_741738" data-name="Trazado 741738" d="M27.763,25.813l0,61.072L64.705,65.558Z" transform="translate(-1.668 -1.55)" fill="#dd1e33"/>
        <path id="Trazado_741739" data-name="Trazado 741739" d="M27.826,24.862,64.613,3.714s.277,1.056,3,3.171,7.846,2.894,7.846,2.894L37.676,31.429s-4.341.055-6.455-1.838a16.162,16.162,0,0,1-3.395-4.73" transform="translate(-1.672 -0.223)" fill="#f6f6f6"/>
        <path id="Trazado_741740" data-name="Trazado 741740" d="M38.942,31.8,76.063,9.815H74.407L37.618,30.973Z" transform="translate(-2.26 -0.589)" fill="#d59837"/>
        <path id="Trazado_741741" data-name="Trazado 741741" d="M28.286,25.636l36.485-21.6-.389-.742L26.963,24.814Z" transform="translate(-1.62 -0.197)" fill="#d59837"/>
        <path id="Trazado_741742" data-name="Trazado 741742" d="M38.436,90.848a1.525,1.525,0,0,1-1.506,1.543l-10.166-5.5c-.689-.206-.583-1.6-.583-2.448V27.059c.008-.164,1.17-1.13,1.17-1.13l9.774,5.221c1.324.394,1.129.762,1.129,1.614Z" transform="translate(-1.573 -1.557)" fill="#d48301"/>
        <path id="Trazado_741743" data-name="Trazado 741743" d="M2.756,22.079,38.715.789a10.776,10.776,0,0,0,2.794,2.825L6.3,23.97Z" transform="translate(-0.166 -0.047)" fill="#cececd"/>
        <path id="Trazado_741744" data-name="Trazado 741744" d="M28.8,25.454,64.762,4.164a15.746,15.746,0,0,0,3.168,2.929L32.344,27.345Z" transform="translate(-1.73 -0.25)" fill="#cececd"/>
        <path id="Trazado_741745" data-name="Trazado 741745" d="M26.182,26.647l12.073,5.705L49.8,25.518l-1.135-.735-10.84,6.234-9.051-4.74,10.814-6.408-1.056-.785-11.615,6.68Z" transform="translate(-1.573 -1.146)" fill="#ff9d00"/>
        <path id="Trazado_741746" data-name="Trazado 741746" d="M.006,23.354l12.073,5.7,11.542-6.834L22.5,21.389l-10.72,6.152-8.95-4.678L13.519,16.54l-1.044-.775L0,22.938Z" transform="translate(0 -0.947)" fill="#15d3ec"/>
        <path id="Trazado_741747" data-name="Trazado 741747" d="M26.181,27.131l-.007,59.833L29.049,88.2l.508-59.474Z" transform="translate(-1.573 -1.63)" fill="#ff9d00"/>
        <path id="Trazado_741748" data-name="Trazado 741748" d="M26.182,43.379l12.254,6.047.094-2.143L26.175,41.505Z" transform="translate(-1.573 -2.493)" fill="#fff"/>
        <path id="Trazado_741749" data-name="Trazado 741749" d="M26.182,47.938l12.254,6.048.094-2.144L26.175,46.064Z" transform="translate(-1.573 -2.767)" fill="#81d4fa"/>
        <path id="Trazado_741750" data-name="Trazado 741750" d="M38.331,91.254,76.109,70.886l0-61.071L38.984,31.8Z" transform="translate(-2.303 -0.589)" fill="#ff9d00"/>
        <path id="Trazado_741751" data-name="Trazado 741751" d="M.006,23.839,0,83.671l3.074,1.344L2.683,25.1Z" transform="translate(0 -1.432)" fill="#15d3ec"/>
        <path id="Trazado_741752" data-name="Trazado 741752" d="M.007,35.529l11.948,5.9.023-2.167L0,33.653Z" transform="translate(0 -2.021)" fill="#f6f6f6"/>
        <path id="Trazado_741753" data-name="Trazado 741753" d="M.007,40.087l11.9,5.873.07-2.144L0,38.212Z" transform="translate(0 -2.295)" fill="#f6f6f6"/>
        <path id="Trazado_741754" data-name="Trazado 741754" d="M.007,44.646,11.862,50.5l.024-2.166L0,42.772Z" transform="translate(0 -2.569)" fill="#f6f6f6"/>
      </g>
    </g>
  </g>
</svg>
