<svg xmlns="http://www.w3.org/2000/svg" xmlns:xlink="http://www.w3.org/1999/xlink" width="428.692" height="268.549" viewBox="0 0 428.692 268.549">
  <defs>
    <clipPath id="clip-path">
      <rect id="Rectángulo_351620" data-name="Rectángulo 351620" width="428.692" height="268.549" fill="none"/>
    </clipPath>
    <clipPath id="clip-path-7">
      <rect id="Rectángulo_351603" data-name="Rectángulo 351603" width="32.712" height="30.71" fill="none"/>
    </clipPath>
    <clipPath id="clip-path-9">
      <rect id="Rectángulo_351606" data-name="Rectángulo 351606" width="75.958" height="27.215" fill="none"/>
    </clipPath>
    <clipPath id="clip-path-10">
      <rect id="Rectángulo_351607" data-name="Rectángulo 351607" width="23.337" height="23.337" fill="none"/>
    </clipPath>
    <clipPath id="clip-path-11">
      <rect id="Rectángulo_351614" data-name="Rectángulo 351614" width="61.244" height="45.775" fill="none"/>
    </clipPath>
    <clipPath id="clip-path-12">
      <rect id="Rectángulo_351615" data-name="Rectángulo 351615" width="14.06" height="14.06" fill="none"/>
    </clipPath>
    <clipPath id="clip-path-15">
      <rect id="Rectángulo_351618" data-name="Rectángulo 351618" width="36.414" height="37.154" fill="none"/>
    </clipPath>
  </defs>
  <g id="Grupo_1035617" data-name="Grupo 1035617" transform="translate(0 9.518)">
    <g id="Grupo_1035616" data-name="Grupo 1035616" transform="translate(0 -9.518)" clip-path="url(#clip-path)">
      <g id="Grupo_1035582" data-name="Grupo 1035582">
        <g id="Grupo_1035581" data-name="Grupo 1035581" clip-path="url(#clip-path)">
          <path id="Trazado_741547" data-name="Trazado 741547" d="M584.12,116.738a17.676,17.676,0,0,1,4.306-1.872l.887-4.262,7.2-.126,1.037,4.228a17.664,17.664,0,0,1,4.369,1.719l3.639-2.385,5.182,5-2.256,3.72a17.636,17.636,0,0,1,1.871,4.308l4.262.887.127,7.2-4.228,1.037a17.663,17.663,0,0,1-1.719,4.369l2.385,3.64-5,5.182-3.72-2.256A17.645,17.645,0,0,1,598.154,149l-.887,4.263-7.2.126-1.037-4.228a17.672,17.672,0,0,1-4.369-1.719l-3.639,2.386-5.182-5,2.256-3.721a17.639,17.639,0,0,1-1.872-4.307l-4.263-.887-.126-7.2,4.228-1.037a17.658,17.658,0,0,1,1.719-4.369l-2.385-3.64,5-5.182Zm3.839,9.594a7.727,7.727,0,1,0,10.925-.192,7.727,7.727,0,0,0-10.925.192" transform="translate(-214.745 -41.489)" fill="#e0e0e0"/>
          <path id="Trazado_741548" data-name="Trazado 741548" d="M344.594,74.887a15.431,15.431,0,0,1,3.754-1.632l.774-3.716,6.279-.11.9,3.686a15.42,15.42,0,0,1,3.81,1.5l3.173-2.08,4.518,4.362-1.967,3.243A15.4,15.4,0,0,1,367.47,83.9l3.716.774.11,6.278-3.686.9a15.425,15.425,0,0,1-1.5,3.809l2.079,3.174-4.361,4.518-3.245-1.967a15.351,15.351,0,0,1-3.755,1.631l-.774,3.717-6.278.11-.9-3.687a15.393,15.393,0,0,1-3.81-1.5l-3.173,2.08-4.518-4.362,1.967-3.244a15.363,15.363,0,0,1-1.632-3.755l-3.716-.774-.111-6.278,3.687-.9a15.38,15.38,0,0,1,1.5-3.809l-2.08-3.174,4.362-4.518Zm3.347,8.365a6.737,6.737,0,1,0,9.526-.167,6.736,6.736,0,0,0-9.526.167" transform="translate(-125.385 -26.073)" fill="#ebebeb"/>
          <path id="Trazado_741549" data-name="Trazado 741549" d="M134.508,221.832a19.307,19.307,0,0,1,4.71-2.047l.97-4.663,7.878-.138,1.133,4.625a19.287,19.287,0,0,1,4.78,1.88l3.982-2.61,5.668,5.473-2.468,4.07a19.3,19.3,0,0,1,2.047,4.712l4.662.97.138,7.878-4.625,1.134A19.3,19.3,0,0,1,161.5,247.9l2.61,3.982-5.472,5.668-4.07-2.468a19.325,19.325,0,0,1-4.712,2.047l-.97,4.662-7.878.139-1.134-4.626a19.315,19.315,0,0,1-4.78-1.88l-3.982,2.61-5.668-5.473,2.468-4.07a19.287,19.287,0,0,1-2.047-4.711l-4.663-.97-.138-7.878,4.625-1.134a19.341,19.341,0,0,1,1.88-4.78l-2.609-3.982,5.472-5.668Zm4.2,10.495a8.452,8.452,0,1,0,11.951-.21,8.452,8.452,0,0,0-11.951.21" transform="translate(-45.466 -80.735)" fill="#e0e0e0"/>
          <path id="Trazado_741550" data-name="Trazado 741550" d="M595.389,341.241a19.313,19.313,0,0,1,4.711-2.047l.97-4.663,7.878-.138,1.133,4.625a19.289,19.289,0,0,1,4.78,1.88l3.982-2.61,5.668,5.473-2.468,4.07a19.281,19.281,0,0,1,2.047,4.712l4.662.97.138,7.878-4.625,1.134a19.325,19.325,0,0,1-1.88,4.779l2.609,3.982-5.472,5.668-4.07-2.468a19.322,19.322,0,0,1-4.712,2.047l-.97,4.662-7.878.139-1.134-4.626a19.293,19.293,0,0,1-4.78-1.88L592,377.438l-5.668-5.473,2.468-4.07a19.289,19.289,0,0,1-2.047-4.712l-4.663-.97-.138-7.878,4.625-1.134a19.343,19.343,0,0,1,1.881-4.78l-2.61-3.982,5.472-5.668Zm4.2,10.495a8.452,8.452,0,1,0,11.951-.21,8.453,8.453,0,0,0-11.951.21" transform="translate(-218.544 -125.577)" fill="#e0e0e0"/>
          <path id="Trazado_741551" data-name="Trazado 741551" d="M631.29,283.763a10.761,10.761,0,0,1,2.628-1.142l.541-2.6,4.4-.077.632,2.58a10.772,10.772,0,0,1,2.666,1.048l2.221-1.456,3.162,3.053-1.376,2.271a10.748,10.748,0,0,1,1.142,2.628l2.6.541.077,4.394-2.58.633a10.751,10.751,0,0,1-1.049,2.666l1.456,2.221-3.052,3.162-2.271-1.376a10.774,10.774,0,0,1-2.628,1.142l-.541,2.6-4.394.077-.633-2.58a10.78,10.78,0,0,1-2.666-1.049l-2.221,1.456-3.162-3.053,1.376-2.27A10.78,10.78,0,0,1,626.471,296l-2.6-.541-.077-4.394,2.58-.633a10.756,10.756,0,0,1,1.049-2.666l-1.456-2.221,3.052-3.162Zm2.342,5.854a4.715,4.715,0,1,0,6.667-.117,4.714,4.714,0,0,0-6.667.117" transform="translate(-234.258 -105.129)" fill="#f5f5f5"/>
          <path id="Trazado_741552" data-name="Trazado 741552" d="M524.908,272.752a10.739,10.739,0,0,1,2.628-1.142l.541-2.6,4.395-.077.632,2.58a10.752,10.752,0,0,1,2.666,1.049l2.221-1.456,3.162,3.053-1.376,2.271a10.749,10.749,0,0,1,1.141,2.628l2.6.541.077,4.394-2.58.633a10.751,10.751,0,0,1-1.049,2.666l1.456,2.221-3.052,3.162L536.1,291.3a10.776,10.776,0,0,1-2.628,1.142l-.541,2.6-4.394.077-.632-2.58a10.778,10.778,0,0,1-2.666-1.049l-2.221,1.456-3.162-3.052,1.376-2.271a10.766,10.766,0,0,1-1.142-2.628l-2.6-.541-.077-4.394,2.58-.633a10.756,10.756,0,0,1,1.049-2.666l-1.456-2.221,3.052-3.162Zm2.342,5.854a4.715,4.715,0,1,0,6.667-.117,4.714,4.714,0,0,0-6.667.117" transform="translate(-194.307 -100.994)" fill="#f5f5f5"/>
          <path id="Trazado_741553" data-name="Trazado 741553" d="M503.491,83.093a8.886,8.886,0,0,1,2.169-.943L506.107,80l3.627-.064.522,2.13a8.887,8.887,0,0,1,2.2.866l1.833-1.2,2.61,2.52-1.136,1.874a8.9,8.9,0,0,1,.943,2.17l2.146.446.064,3.628-2.129.522a8.881,8.881,0,0,1-.866,2.2l1.2,1.833-2.519,2.61L512.729,98.4a8.864,8.864,0,0,1-2.169.942l-.447,2.147-3.627.064-.522-2.129a8.883,8.883,0,0,1-2.2-.866l-1.833,1.2-2.61-2.52,1.137-1.874a8.9,8.9,0,0,1-.943-2.169l-2.147-.447-.063-3.627,2.129-.523a8.883,8.883,0,0,1,.866-2.2l-1.2-1.833,2.52-2.61Zm1.933,4.832a3.892,3.892,0,1,0,5.5-.1,3.891,3.891,0,0,0-5.5.1" transform="translate(-186.756 -30.02)" fill="#ebebeb"/>
          <path id="Trazado_741554" data-name="Trazado 741554" d="M322.764,33.489a8.886,8.886,0,0,1,2.169-.943l.447-2.147,3.628-.064.522,2.13a8.91,8.91,0,0,1,2.2.866l1.833-1.2,2.61,2.52-1.136,1.874a8.866,8.866,0,0,1,.943,2.169l2.147.446.064,3.628-2.13.522a8.9,8.9,0,0,1-.866,2.2l1.2,1.833-2.519,2.61L332,48.8a8.864,8.864,0,0,1-2.169.942l-.447,2.148-3.628.063-.522-2.129a8.884,8.884,0,0,1-2.2-.866l-1.833,1.2-2.61-2.52,1.137-1.874a8.9,8.9,0,0,1-.943-2.169l-2.147-.446-.063-3.628L318.705,39a8.893,8.893,0,0,1,.866-2.2l-1.2-1.833,2.52-2.61Zm1.933,4.832a3.892,3.892,0,1,0,5.5-.1,3.892,3.892,0,0,0-5.5.1" transform="translate(-118.886 -11.392)" fill="#f5f5f5"/>
          <path id="Trazado_741555" data-name="Trazado 741555" d="M342.961,162.438a8.887,8.887,0,0,1,2.169-.943l.446-2.147,3.628-.064.522,2.13a8.91,8.91,0,0,1,2.2.866l1.833-1.2,2.61,2.52-1.137,1.874a8.868,8.868,0,0,1,.943,2.169l2.147.447.064,3.628-2.13.522a8.9,8.9,0,0,1-.866,2.2l1.2,1.833-2.519,2.61-1.875-1.137a8.865,8.865,0,0,1-2.169.942l-.447,2.147-3.628.064-.522-2.129a8.883,8.883,0,0,1-2.2-.866l-1.833,1.2-2.61-2.52,1.137-1.874a8.9,8.9,0,0,1-.943-2.169l-2.147-.447-.063-3.627,2.129-.522a8.885,8.885,0,0,1,.866-2.2l-1.2-1.833,2.52-2.61Zm1.933,4.832a3.892,3.892,0,1,0,5.5-.1,3.892,3.892,0,0,0-5.5.1" transform="translate(-126.471 -59.817)" fill="#f5f5f5"/>
          <path id="Trazado_741556" data-name="Trazado 741556" d="M6.188,286.757a8.884,8.884,0,0,1,2.169-.943l.446-2.147,3.628-.064.522,2.13a8.888,8.888,0,0,1,2.2.865l1.833-1.2,2.61,2.52-1.137,1.874a8.881,8.881,0,0,1,.943,2.17l2.147.446.064,3.628-2.13.522a8.906,8.906,0,0,1-.866,2.2l1.2,1.833L17.3,303.2l-1.875-1.137a8.864,8.864,0,0,1-2.169.942l-.446,2.147-3.628.064-.522-2.129a8.883,8.883,0,0,1-2.2-.866l-1.833,1.2-2.61-2.52,1.137-1.874a8.9,8.9,0,0,1-.943-2.169l-2.146-.447L0,292.786l2.129-.523a8.883,8.883,0,0,1,.866-2.2l-1.2-1.833,2.52-2.61Zm1.933,4.832a3.892,3.892,0,1,0,5.5-.1,3.892,3.892,0,0,0-5.5.1" transform="translate(0 -106.504)" fill="#f5f5f5"/>
          <path id="Trazado_741557" data-name="Trazado 741557" d="M110.764,108a7.725,7.725,0,0,1,1.884-.819l.388-1.865,3.15-.055.453,1.85a7.721,7.721,0,0,1,1.912.752l1.592-1.043,2.267,2.189-.987,1.628a7.747,7.747,0,0,1,.819,1.884l1.865.388.055,3.15-1.85.454a7.75,7.75,0,0,1-.752,1.911l1.043,1.592-2.189,2.267-1.628-.987a7.747,7.747,0,0,1-1.884.819l-.388,1.865-3.15.055-.453-1.85a7.722,7.722,0,0,1-1.912-.752l-1.592,1.044-2.267-2.189.987-1.628a7.725,7.725,0,0,1-.819-1.884l-1.865-.388-.055-3.15,1.85-.454a7.727,7.727,0,0,1,.752-1.911l-1.044-1.592,2.189-2.267Zm1.68,4.2a3.38,3.38,0,1,0,4.78-.084,3.38,3.38,0,0,0-4.78.084" transform="translate(-39.578 -39.529)" fill="#ebebeb"/>
          <path id="Trazado_741558" data-name="Trazado 741558" d="M51.864,112.308a15.923,15.923,0,0,1,3.884-1.688l.8-3.844,6.5-.114.935,3.814a15.928,15.928,0,0,1,3.941,1.55l3.282-2.151,4.673,4.512-2.034,3.355a15.894,15.894,0,0,1,1.688,3.885l3.844.8.114,6.5-3.814.935a15.9,15.9,0,0,1-1.551,3.94l2.151,3.283-4.511,4.673-3.356-2.035a15.916,15.916,0,0,1-3.885,1.687l-.8,3.844-6.5.114-.935-3.814A15.951,15.951,0,0,1,52.351,140l-3.283,2.152-4.673-4.512,2.035-3.356a15.915,15.915,0,0,1-1.689-3.884l-3.844-.8-.114-6.5,3.814-.935a15.931,15.931,0,0,1,1.551-3.941L44,114.947l4.512-4.673Zm3.462,8.653a6.968,6.968,0,1,0,9.853-.173,6.968,6.968,0,0,0-9.853.173" transform="translate(-15.316 -40.056)" fill="#e0e0e0"/>
        </g>
      </g>
      <g id="Grupo_1035584" data-name="Grupo 1035584">
        <g id="Grupo_1035583" data-name="Grupo 1035583" clip-path="url(#clip-path)">
          <path id="Trazado_741559" data-name="Trazado 741559" d="M429.068,429.3c0,.09-95.834.162-214.024.162C96.813,429.46,1,429.387,1,429.3s95.813-.162,214.044-.162c118.19,0,214.024.072,214.024.162" transform="translate(-0.376 -161.156)" fill="#263238"/>
        </g>
      </g>
      <g id="Grupo_1035586" data-name="Grupo 1035586">
        <g id="Grupo_1035585" data-name="Grupo 1035585" clip-path="url(#clip-path)">
          <path id="Trazado_741560" data-name="Trazado 741560" d="M507.921,41.813l7.374-.969a23.75,23.75,0,1,0-4.889-6.965l-.008-.011Z" transform="translate(-190.743 -0.086)" fill="#fff"/>
          <path id="Trazado_741561" data-name="Trazado 741561" d="M507.921,41.727s.064-.181.175-.525.278-.859.492-1.523l1.88-5.874-.127.025.008.01a.074.074,0,0,0,.1.011.076.076,0,0,0,.02-.089,23.709,23.709,0,0,1-2.086-11.494,23.146,23.146,0,0,1,.537-3.617,26.724,26.724,0,0,1,1.207-3.719,23.549,23.549,0,0,1,45.085,5.533,23.982,23.982,0,0,1-.933,10.8,23.2,23.2,0,0,1-5.237,8.762,23.647,23.647,0,0,1-16.1,7.382l-1.012.027a6.355,6.355,0,0,1-.994-.017L529,47.274a32.943,32.943,0,0,1-3.6-.736,23.642,23.642,0,0,1-10.051-5.83.07.07,0,0,0-.059-.02l-5.456.761-1.418.2c-.32.046-.491.076-.491.076s.151-.013.464-.05l1.4-.169,5.518-.681-.059-.02a23.621,23.621,0,0,0,10.089,5.941,32.7,32.7,0,0,0,3.636.76l1.956.152a6.489,6.489,0,0,0,1,.021l1.022-.024a23.869,23.869,0,0,0,16.312-7.425,23.481,23.481,0,0,0,5.32-8.87,24.281,24.281,0,0,0,.957-10.946,23.72,23.72,0,0,0-4.356-10.646,10.61,10.61,0,0,0-.892-1.136l-.933-1.1-1.026-1a9.8,9.8,0,0,0-1.06-.952L546.169,4.7c-.361-.306-.78-.528-1.166-.795-.4-.25-.777-.526-1.186-.751l-1.24-.643A23.518,23.518,0,0,0,532.1,0a23.935,23.935,0,0,0-17.6,7.6,23.7,23.7,0,0,0-4.61,7.234,26.857,26.857,0,0,0-1.2,3.762,23.438,23.438,0,0,0-.526,3.655,23.712,23.712,0,0,0,2.175,11.571l.124-.078-.009-.01a.074.074,0,0,0-.1-.011.081.081,0,0,0-.024.036c-.788,2.6-1.394,4.594-1.807,5.953l-.454,1.512c-.1.337-.144.5-.144.5" transform="translate(-190.743 0)" fill="#263238"/>
          <path id="Trazado_741562" data-name="Trazado 741562" d="M531.654,24.862h18.5l.03,6.2H549.3q-.436-3.325-2.491-4.5a7.673,7.673,0,0,0-3.451-.707V42.04a3.126,3.126,0,0,0,.592,2.252,3.8,3.8,0,0,0,2.468.556v.78H535.465v-.78a3.613,3.613,0,0,0,2.393-.563,3.132,3.132,0,0,0,.593-2.245V25.852a7.868,7.868,0,0,0-3.451.707q-2.206,1.2-2.491,4.5h-.885Z" transform="translate(-199.645 -9.337)" fill="#263238"/>
        </g>
      </g>
      <g id="Grupo_1035588" data-name="Grupo 1035588">
        <g id="Grupo_1035587" data-name="Grupo 1035587" clip-path="url(#clip-path)">
          <path id="Trazado_741563" data-name="Trazado 741563" d="M157.279,57.074l-7.788.393a24.907,24.907,0,1,1,3.726-8.106l.008-.012Z" transform="translate(-39.159 -6.879)" fill="#fff"/>
          <path id="Trazado_741564" data-name="Trazado 741564" d="M157.183,56.991s-.1-.175-.28-.508l-.794-1.477-3.048-5.7.136,0-.007.012a.077.077,0,0,1-.106.031.079.079,0,0,1-.037-.087,24.857,24.857,0,0,0-.019-12.248,24.259,24.259,0,0,0-1.238-3.628,27.924,27.924,0,0,0-1.946-3.608A24.69,24.69,0,0,0,104.394,44a25.139,25.139,0,0,0,3,10.96A24.323,24.323,0,0,0,114.451,63a24.788,24.788,0,0,0,18,4.572l1.048-.163a6.631,6.631,0,0,0,1.022-.205l1.971-.513a34.286,34.286,0,0,0,3.578-1.441,24.776,24.776,0,0,0,9.265-7.91.074.074,0,0,1,.057-.031l5.77-.245,1.5-.059c.339-.013.52-.015.52-.015s-.159.015-.488.036l-1.478.091-5.818.34.056-.031a24.762,24.762,0,0,1-9.283,8.031,34.432,34.432,0,0,1-3.606,1.471l-1.988.526a6.766,6.766,0,0,1-1.032.212l-1.058.169a25.021,25.021,0,0,1-18.224-4.577,24.608,24.608,0,0,1-7.162-8.142,25.442,25.442,0,0,1-3.054-11.108,24.867,24.867,0,0,1,2.481-11.8,11.127,11.127,0,0,1,.706-1.339l.754-1.307.87-1.225a10.364,10.364,0,0,1,.913-1.182l.975-1.123c.314-.384.705-.692,1.052-1.04.363-.332.7-.689,1.081-1l1.158-.9a24.663,24.663,0,0,1,10.326-4.566,25.1,25.1,0,0,1,19.585,4.515,24.858,24.858,0,0,1,6.12,6.589,28.084,28.084,0,0,1,1.953,3.652,24.531,24.531,0,0,1,1.233,3.67A24.868,24.868,0,0,1,153.2,49.3l-.143-.057.007-.012a.077.077,0,0,1,.1-.031.08.08,0,0,1,.032.032l2.988,5.8.754,1.473c.167.329.244.49.244.49" transform="translate(-39.064 -6.796)" fill="#263238"/>
          <path id="Trazado_741565" data-name="Trazado 741565" d="M149.151,49.924a7.146,7.146,0,0,0-1.865-3.864,6.86,6.86,0,0,0-3.6-2.172,5.541,5.541,0,0,0-6.074,2.9,5.533,5.533,0,0,0-6-2.585,6.858,6.858,0,0,0-3.559,2.231,7.14,7.14,0,0,0-1.8,3.894,8.691,8.691,0,0,0,1.124,5.338,12.309,12.309,0,0,0,4.269,3.935c2.781,1.645,6.443,3.7,6.443,3.7s3.062-2.329,5.816-4.018a12.3,12.3,0,0,0,4.2-4,8.693,8.693,0,0,0,1.037-5.357" transform="translate(-47.396 -16.439)" fill="#7e5ee3"/>
        </g>
      </g>
      <g id="Grupo_1035593" data-name="Grupo 1035593">
        <g id="Grupo_1035592" data-name="Grupo 1035592" clip-path="url(#clip-path)">
          <path id="Trazado_741566" data-name="Trazado 741566" d="M410.2,30.221a5.43,5.43,0,0,1-5.827-3.937A5.43,5.43,0,0,1,407.7,20.09a5.6,5.6,0,0,1-1.113-6.286,5.6,5.6,0,0,1,5.616-3.036A6.528,6.528,0,0,1,421.9,5.153a7.339,7.339,0,0,1,9.029-.427A5.368,5.368,0,0,1,436.579,7.3a5.368,5.368,0,0,1-.8,6.157" transform="translate(-151.805 -1.268)" fill="#263238"/>
          <path id="Trazado_741567" data-name="Trazado 741567" d="M434.811,13.772l-1.151.032a22.245,22.245,0,0,0-21.588,21.076c-.563,10.768-1.046,22.672-.812,28.434.485,11.93,12.474,13.448,12.474,13.448l-.6,14.366,26.5-.231,3.533-53.559c.718-12.422-5.912-23.193-18.349-23.567" transform="translate(-154.421 -5.172)" fill="#ae7461"/>
          <path id="Trazado_741568" data-name="Trazado 741568" d="M431.1,111.6a28.958,28.958,0,0,0,15.508-5.019s-3.591,8.669-15.53,7.932Z" transform="translate(-161.886 -40.026)" fill="#6f4439"/>
          <path id="Trazado_741569" data-name="Trazado 741569" d="M420.167,66.8a1.7,1.7,0,0,0,1.692,1.673,1.63,1.63,0,0,0,1.714-1.586,1.705,1.705,0,0,0-1.69-1.674,1.632,1.632,0,0,0-1.715,1.587" transform="translate(-157.788 -24.491)" fill="#263238"/>
          <path id="Trazado_741570" data-name="Trazado 741570" d="M416.951,55.674c.217.217,1.481-.776,3.315-.823,1.832-.073,3.2.832,3.4.6.1-.1-.131-.5-.729-.908a4.681,4.681,0,0,0-2.727-.757,4.493,4.493,0,0,0-2.632.933c-.551.448-.731.856-.624.952" transform="translate(-156.57 -20.199)" fill="#263238"/>
          <path id="Trazado_741571" data-name="Trazado 741571" d="M445.911,66.088A1.7,1.7,0,0,0,447.6,67.76a1.63,1.63,0,0,0,1.714-1.586,1.705,1.705,0,0,0-1.69-1.674,1.631,1.631,0,0,0-1.715,1.587" transform="translate(-167.456 -24.222)" fill="#263238"/>
          <path id="Trazado_741572" data-name="Trazado 741572" d="M445.835,55.405c.218.216,1.484-.776,3.317-.822,1.831-.073,3.2.832,3.4.6.095-.1-.13-.5-.73-.907a4.671,4.671,0,0,0-2.727-.757,4.487,4.487,0,0,0-2.631.932c-.55.448-.731.856-.624.952" transform="translate(-167.417 -20.098)" fill="#263238"/>
          <path id="Trazado_741573" data-name="Trazado 741573" d="M432.977,69.418a12.087,12.087,0,0,0-2.994-.453c-.47-.035-.915-.116-1-.433a2.391,2.391,0,0,1,.273-1.4q.613-1.718,1.284-3.605c1.78-5.132,3.054-9.346,2.847-9.416s-1.818,4.033-3.6,9.165q-.642,1.9-1.225,3.625a2.716,2.716,0,0,0-.191,1.845,1.177,1.177,0,0,0,.789.663,3.161,3.161,0,0,0,.8.087,12,12,0,0,0,3.019-.081" transform="translate(-160.83 -20.321)" fill="#263238"/>
          <path id="Trazado_741574" data-name="Trazado 741574" d="M442.971,44.064c.255.458,1.812-.091,3.746-.207,1.931-.162,3.571.157,3.734-.331.07-.232-.285-.64-.993-.993a5.809,5.809,0,0,0-2.92-.528,5.607,5.607,0,0,0-2.779.939c-.63.449-.9.9-.787,1.121" transform="translate(-166.342 -15.769)" fill="#263238"/>
          <path id="Trazado_741575" data-name="Trazado 741575" d="M416.447,43.494c.4.406,1.9-.07,3.719-.142,1.817-.125,3.37.185,3.712-.261.149-.215-.1-.626-.79-1a5.92,5.92,0,0,0-3.044-.6,5.82,5.82,0,0,0-2.944.921c-.631.446-.831.881-.654,1.08" transform="translate(-156.368 -15.579)" fill="#263238"/>
          <path id="Trazado_741576" data-name="Trazado 741576" d="M414.162,28.525s2.936-7.563,6.491-9.409c4.3-2.235,6.316,2.5,10.442,1.221s8.232-3.423,12.572-.33c4.75,3.386,2.642,5.916,3.079,11.2,1.772,21.436,5.864,27.4,6.694,17.252.091-1.112,3.14-2.079,3.464-6.773.419-6.087.444-13.463-1.033-17.732-1.245-3.6-3.385-6.048-7.176-8.708-5.983-4.2-14.034-4.066-19.484-3.361s-15.81,7.292-15.048,16.636" transform="translate(-155.518 -4.323)" fill="#263238"/>
          <path id="Trazado_741577" data-name="Trazado 741577" d="M475.79,68.259a3.241,3.241,0,0,1,3.41-3.221c2.231.149,4.744,1.343,4.727,5.946-.03,8.166-8.222,6.452-8.235,6.218-.009-.159.056-5.526.1-8.943" transform="translate(-178.64 -24.422)" fill="#ae7461"/>
          <path id="Trazado_741578" data-name="Trazado 741578" d="M478.55,75.729c.036-.026.142.1.382.211a1.419,1.419,0,0,0,1.063.026c.864-.313,1.595-1.68,1.641-3.152a4.7,4.7,0,0,0-.392-2.038,1.641,1.641,0,0,0-1.065-1.1.724.724,0,0,0-.841.387c-.111.229-.059.392-.1.405-.023.021-.175-.138-.108-.475a.911.911,0,0,1,.323-.51,1.075,1.075,0,0,1,.787-.205,2,2,0,0,1,1.482,1.271,4.828,4.828,0,0,1,.485,2.278c-.058,1.645-.906,3.182-2.088,3.519a1.525,1.525,0,0,1-1.3-.22c-.252-.2-.294-.385-.266-.4" transform="translate(-179.711 -26.015)" fill="#6f4439"/>
          <path id="Trazado_741579" data-name="Trazado 741579" d="M455.217,30.714a7.751,7.751,0,0,1-3.411,1.694,2.662,2.662,0,0,1-3-1.788c-.113-.565.007-1.228-.378-1.656-.46-.511-1.278-.324-1.96-.232-2.365.318-5.211-2.222-5.881-4.514a2.129,2.129,0,0,1-2.829.67,7.638,7.638,0,0,1-2.015-1.692,3.359,3.359,0,0,0-2.841-1.322,8.069,8.069,0,0,1-1.764.441c-1.074-.064-1.632-1.3-1.825-2.364s-.353-2.3-1.278-2.848c-.856-.512-1.937-.171-2.919,0s-2.262-.022-2.542-.98a1.939,1.939,0,0,1,.324-1.49,5.286,5.286,0,0,1,6.181-2.177,7.165,7.165,0,0,1,13.12-1.76,7.271,7.271,0,0,1,11.694,2.321,5.271,5.271,0,0,1,6.157,7.5,5.007,5.007,0,0,1,2.865,3.907c.079,1.688-1.519,3.417-3.162,3.019a2.919,2.919,0,0,1-4.964,3.053" transform="translate(-158.672 -2.68)" fill="#263238"/>
          <path id="Trazado_741580" data-name="Trazado 741580" d="M432.152,19.529a.414.414,0,0,0,.006.149c.014.1.024.246.064.435a5.151,5.151,0,0,0,.637,1.555,5.838,5.838,0,0,0,1.864,1.878,5.437,5.437,0,0,0,3.369.858l-.143-.177a2.954,2.954,0,0,0,.227,2.248,8.442,8.442,0,0,0,1.453,1.967,6.08,6.08,0,0,0,.94.91,2.852,2.852,0,0,0,1.306.443,2.98,2.98,0,0,0,2.6-1.015l-.308-.079a6.124,6.124,0,0,0,2.716,4.161,4.465,4.465,0,0,0,2.7.8,8.072,8.072,0,0,0,2.624-.654l-.22-.09a6.428,6.428,0,0,0,2,2.464,3.423,3.423,0,0,0,2.864.694,4.5,4.5,0,0,0,3.361-3.615l-.182.091a4.207,4.207,0,0,0,2.816.333,4.567,4.567,0,0,0,1.93-.927,3.948,3.948,0,0,0,.884-1.023,1.9,1.9,0,0,0,.195-.428,4.9,4.9,0,0,1-1.163,1.343,4.529,4.529,0,0,1-1.885.841,4.025,4.025,0,0,1-2.658-.359L460,32.252l-.027.174a4.24,4.24,0,0,1-3.182,3.351,3.109,3.109,0,0,1-2.6-.659,6.138,6.138,0,0,1-1.882-2.339l-.069-.149-.152.059a7.784,7.784,0,0,1-2.51.623,4.112,4.112,0,0,1-2.5-.747,5.794,5.794,0,0,1-2.568-3.92l-.062-.385-.245.307a2.649,2.649,0,0,1-2.3.9,2.535,2.535,0,0,1-1.158-.383,5.943,5.943,0,0,1-.885-.854,8.253,8.253,0,0,1-1.42-1.882,2.68,2.68,0,0,1-.235-2.034l.061-.2-.2.02a5.25,5.25,0,0,1-3.227-.773,5.8,5.8,0,0,1-1.85-1.775,6.3,6.3,0,0,1-.836-2.057" transform="translate(-162.288 -7.334)" fill="#455a64"/>
          <path id="Trazado_741581" data-name="Trazado 741581" d="M436.735,85.627c.037-.305,2.056.057,3.8-1.411s1.915-3.656,2.2-3.62c.132-.006.305.55.166,1.463A5.113,5.113,0,0,1,441.18,85.1a4.451,4.451,0,0,1-3.165,1.053c-.858-.076-1.317-.392-1.28-.528" transform="translate(-164.01 -30.267)" fill="#263238"/>
          <path id="Trazado_741582" data-name="Trazado 741582" d="M503.868,126.142a31.929,31.929,0,0,1,13.365,5.768c6.1,4.717,21.616,35.016,21.616,35.016l-33.4,6.748Z" transform="translate(-189.221 -47.371)" fill="#7e5ee3"/>
          <path id="Trazado_741583" data-name="Trazado 741583" d="M455.416,237.317,515.265,98.732l32.712,12.639L486.047,250.737a16.721,16.721,0,0,1-30.63-13.42" transform="translate(-170.51 -37.078)" fill="#455a64"/>
          <path id="Trazado_741584" data-name="Trazado 741584" d="M563.642,172.647a6.824,6.824,0,0,1,2.879.709,33.741,33.741,0,0,0,3.591,1.4l5.778,2.671a2.847,2.847,0,0,1-2.131,4.8c.634.715,1.146.882,1.3,1.825a3.042,3.042,0,0,1-.767,2.65,2.179,2.179,0,0,1-2.629.345,3.584,3.584,0,0,1-4.2,5.071,1.437,1.437,0,0,1-.471-.172.6.6,0,0,1-.149-.175c-.188-.305-.319-.636-.529-.932-.079-.111-.163-.219-.25-.325a6.67,6.67,0,0,0-1.386-1.237,5.93,5.93,0,0,1-.737-.478,3.158,3.158,0,0,1-.324-.47,8.815,8.815,0,0,0-2.969-2.1,6.942,6.942,0,0,1-3.016-2.537c-.631-1.174-.4-2.913.811-3.477a1.745,1.745,0,0,1-.987-2.087,2.521,2.521,0,0,1,1.8-1.644,4.682,4.682,0,0,1,2.51.116,1.926,1.926,0,0,1-.641-2.6,2.97,2.97,0,0,1,2.52-1.352" transform="translate(-209.284 -64.835)" fill="#ae7461"/>
          <path id="Trazado_741585" data-name="Trazado 741585" d="M568.462,204.438a2.859,2.859,0,0,1-1.792,1.576,4.678,4.678,0,0,1-3.069-.972c.389-1.092.649-1.622,1.037-2.715.082-.23.236-.373.214-.616-.057-.642-1.185-1.2-1.6-1.692a2.192,2.192,0,0,1,.373-2.987,2.94,2.94,0,0,1,3.157-.213,4.544,4.544,0,0,1,2.063,2.545,6.349,6.349,0,0,1-.379,5.074" transform="translate(-211.359 -73.779)" fill="#ae7461"/>
          <path id="Trazado_741586" data-name="Trazado 741586" d="M572.651,191.739c.1-.19-2.846-1.908-6.576-3.837s-6.834-3.34-6.932-3.15,2.846,1.907,6.577,3.837,6.833,3.34,6.932,3.15" transform="translate(-209.978 -69.375)" fill="#6f4439"/>
          <path id="Trazado_741587" data-name="Trazado 741587" d="M576.533,184.572c.111-.172-2.429-1.976-5.893-3.612s-6.466-2.469-6.528-2.274c-.072.21,2.783,1.349,6.2,2.973s6.107,3.1,6.225,2.913" transform="translate(-211.845 -67.093)" fill="#6f4439"/>
          <path id="Trazado_741588" data-name="Trazado 741588" d="M580.938,177.654c.109-.188-2.073-1.567-4.976-2.8s-5.292-2.071-5.377-1.887c-.094.2,2.187,1.373,5.07,2.6s5.179,2.271,5.284,2.088" transform="translate(-214.275 -64.947)" fill="#6f4439"/>
          <path id="Trazado_741589" data-name="Trazado 741589" d="M569.85,202.649c.076.052.46-.363.547-1.226a4.284,4.284,0,0,0-1.06-3.044,8.6,8.6,0,0,0-2.446-2.031c-.862-.395-1.444.058-1.347.134.044.095.512-.061,1.085.347a15.359,15.359,0,0,1,2.106,2.036,4.649,4.649,0,0,1,1.114,2.552c.062.723-.107,1.181,0,1.231" transform="translate(-212.379 -73.676)" fill="#6f4439"/>
          <path id="Trazado_741590" data-name="Trazado 741590" d="M584.8,100.5l-4.291-27.783a3.451,3.451,0,0,0-5.493-2.224L552.084,87.865Z" transform="translate(-207.328 -26.21)" fill="#ff9d00"/>
          <path id="Trazado_741591" data-name="Trazado 741591" d="M464.337,343.6h0a16.721,16.721,0,0,0,20.986-7.207L454.873,323c-.01.03-.024.059-.034.089l-.04.126a16.721,16.721,0,0,0,9.538,20.384" transform="translate(-170.511 -121.3)" fill="#263238"/>
          <g id="Grupo_1035591" data-name="Grupo 1035591" transform="translate(345.131 43.259)" opacity="0.5">
            <g id="Grupo_1035590" data-name="Grupo 1035590">
              <g id="Grupo_1035589" data-name="Grupo 1035589" clip-path="url(#clip-path-7)">
                <path id="Trazado_741592" data-name="Trazado 741592" d="M584.8,100.5l-4.291-27.783a3.451,3.451,0,0,0-5.493-2.224L552.084,87.865Z" transform="translate(-552.084 -69.793)" fill="#fff"/>
              </g>
            </g>
          </g>
          <path id="Trazado_741593" data-name="Trazado 741593" d="M593.4,75.4l-.556-3.52a3.131,3.131,0,0,0-5.049-1.957l-2.572,2.059Z" transform="translate(-219.771 -26)" fill="#ff9d00"/>
          <path id="Trazado_741594" data-name="Trazado 741594" d="M462.505,165l-1.069-40.948-19.269-3.761c-4.16,8.232-16.893,12.071-26.828,2.076l-20.306,2.875s-3.095,37.05-2,65.208l-3.562,39.1c18.551,12.146,42.43,17.236,61.739,13.761,8.9-1.7-.268-.275,7.753-4.423Z" transform="translate(-146.261 -45.174)" fill="#7e5ee3"/>
          <path id="Trazado_741595" data-name="Trazado 741595" d="M379.758,128.219s-9.994,2.1-17.795,14.908a151.324,151.324,0,0,1-13.932,19.778l28.827,13.545Z" transform="translate(-130.699 -48.151)" fill="#7e5ee3"/>
          <path id="Trazado_741596" data-name="Trazado 741596" d="M395.16,158.26c.09,0,.162,3.346.162,7.472s-.072,7.473-.162,7.473-.162-3.345-.162-7.473.073-7.472.162-7.472" transform="translate(-148.337 -59.433)" fill="#263238"/>
          <path id="Trazado_741597" data-name="Trazado 741597" d="M506.328,164.88c.09,0,.162,5.18.162,11.568s-.072,11.569-.162,11.569-.162-5.179-.162-11.569.072-11.568.162-11.568" transform="translate(-190.084 -61.919)" fill="#263238"/>
        </g>
      </g>
      <g id="Grupo_1035610" data-name="Grupo 1035610">
        <g id="Grupo_1035609" data-name="Grupo 1035609" clip-path="url(#clip-path)">
          <path id="Trazado_741598" data-name="Trazado 741598" d="M31.916,219.378A7.034,7.034,0,0,1,34.5,206.2a7.729,7.729,0,0,1,5.428-13.388,6.814,6.814,0,0,1-1.7-7.3,10.35,10.35,0,0,1,5.344-5.63A14.542,14.542,0,0,1,62.2,186.013l-1.558,60.559A10.4,10.4,0,0,1,43.5,242.715a20.559,20.559,0,0,1-6.35-1.27,6.952,6.952,0,0,1-4.218-4.625c-.451-2.121.818-4.627,2.946-5.044-2.377-1.409-4.88-2.949-6.11-5.425s-.482-6.132,2.151-6.973" transform="translate(-10.608 -67.063)" fill="#263238"/>
          <path id="Trazado_741599" data-name="Trazado 741599" d="M146.587,335.677s7.557,32.095,20.682,35.453,45.077,2.967,45.077,2.967l.8-12.515-36.755-7.261-14.478-32.15Z" transform="translate(-55.049 -120.987)" fill="#ffc09d"/>
          <path id="Trazado_741600" data-name="Trazado 741600" d="M128.013,314.423s-7.947-15.251-9.915-18.583c-3.354-5.68-9.612-8.9-9.612-8.9l-16.024-3.707-23.494.955c-.073.03-15.07,4.361-18.164,5.666l1.314,42.789,7.563,27.227-5.318,14.636h66.2c-.919-6.795-5.927-19.394-5.5-32.164a43.32,43.32,0,0,0,3.258-14.044c.178-3.179.091-5.585.091-5.585s7.168-2.464,9.607-8.291" transform="translate(-19.079 -106.365)" fill="#81d4fa"/>
          <path id="Trazado_741601" data-name="Trazado 741601" d="M146.592,296.033c-.081.045.679,1.467,1.745,3.834a66.289,66.289,0,0,1,5.424,19.446c.313,2.577.4,4.186.492,4.183a4.412,4.412,0,0,0,.056-1.135c0-.731-.044-1.787-.15-3.089A55.169,55.169,0,0,0,148.7,299.7c-.582-1.17-1.088-2.1-1.47-2.721a4.408,4.408,0,0,0-.635-.943" transform="translate(-55.049 -111.171)" fill="#263238"/>
          <path id="Trazado_741602" data-name="Trazado 741602" d="M104.381,358.193a3.4,3.4,0,0,0,.937-.344,7.678,7.678,0,0,0,1.047-.524,12.8,12.8,0,0,0,1.324-.812,19.043,19.043,0,0,0,3.084-2.618,20.42,20.42,0,0,0,4.866-8.558,18.967,18.967,0,0,0,.672-3.989,12.679,12.679,0,0,0,.022-1.553,7.593,7.593,0,0,0-.085-1.168,3.378,3.378,0,0,0-.183-.98c-.112.01.071,1.42-.151,3.669a21.1,21.1,0,0,1-.774,3.877,21.485,21.485,0,0,1-4.747,8.348,21.015,21.015,0,0,1-2.936,2.647c-1.818,1.341-3.124,1.905-3.075,2.006" transform="translate(-39.199 -126.799)" fill="#263238"/>
          <path id="Trazado_741603" data-name="Trazado 741603" d="M291.182,184.6l4.971,15.661V189.172l11.829-1.353s5.5,35.676-.678,42.926c-3.619,4.248-8.714,3.077-11.988,1.087-9.662-5.873-19.609-21.583-19.609-21.583l-.982-16.959Z" transform="translate(-103.17 -69.324)" fill="#ffc09d"/>
          <path id="Trazado_741604" data-name="Trazado 741604" d="M213.705,58.815c-8.022,15.768-8.33,34.98-1.87,51.449a6.745,6.745,0,0,0,2.286,3.4c1.556,1,3.6.644,5.38.139,5.237-1.487,10.158-3.92,15.33-5.623s10.824-2.657,16.041-1.1Z" transform="translate(-77.852 -22.087)" fill="#263238"/>
          <path id="Trazado_741605" data-name="Trazado 741605" d="M288.883,100.771c-1.33-3.663-5.754-4.891-8.99-7.063-4.913-3.3-7.355-9.258-8.451-15.073s-1.488-13.113-2.936-18.85-4.5-15.7-9.93-18.049L218.624,46.15c-5.921,8.777-10.163,17.671-7.788,27.989,1.487,6.458,6.659,19.93,6.354,27.039-.39,9.07-8.127,12.616-2.01,19.324,3.721,4.08,32.355-1.325,37.714,0s12.185-1.889,12.446-7.4a8.948,8.948,0,0,0,16-2.483c4.633-.854,9.151-5.418,7.543-9.845" transform="translate(-78.925 -15.673)" fill="#263238"/>
          <path id="Trazado_741606" data-name="Trazado 741606" d="M223.427,39.285a28.255,28.255,0,0,1,23.432-6.97c4.911.774,6.76,2.145,10.121,3.712a15.688,15.688,0,0,1,7.8,7.367c1.88,3.983,3.287,8.321,3.007,12.716a37.782,37.782,0,0,1-2.848,12.215,49.785,49.785,0,0,1-9.16,13.422l-7.676-.4c-6.282-.877-12.65-1.777-18.485-4.263s-11.176-6.79-13.5-12.691c-3.234-8.2.648-19.35,7.318-25.11" transform="translate(-80.722 -12)" fill="#263238"/>
          <path id="Trazado_741607" data-name="Trazado 741607" d="M237.038,44.363,253.159,41l3.858,1.145c8.856,1.577,13.262,12.416,12.068,19.6-1.326,7.985-3.261,17.68-5.553,23.337-4.609,11.373-14.867,10.6-14.867,10.6s-.892,6.333-1.509,10.315L224.368,100.3l7.979-52.589a4.263,4.263,0,0,1,4.691-3.352" transform="translate(-84.259 -15.397)" fill="#ffc09d"/>
          <path id="Trazado_741608" data-name="Trazado 741608" d="M259.408,101.153a2.552,2.552,0,0,1,1.14-1.4,2.611,2.611,0,0,1,3.15.366,3.5,3.5,0,0,1,.744,3.461,3.178,3.178,0,0,1-2.467.909,3.857,3.857,0,0,1-.423-.06,2.851,2.851,0,0,1-1.763-1.081,2.542,2.542,0,0,1-.381-2.195" transform="translate(-97.379 -37.323)" fill="#ff9b6c"/>
          <path id="Trazado_741609" data-name="Trazado 741609" d="M282.542,87.511a1.554,1.554,0,0,1-1.814,1.19,1.486,1.486,0,0,1-1.245-1.726,1.555,1.555,0,0,1,1.812-1.191,1.488,1.488,0,0,1,1.246,1.728" transform="translate(-104.946 -32.206)" fill="#263238"/>
          <path id="Trazado_741610" data-name="Trazado 741610" d="M286.949,78.419c-.234.154-1.184-.96-2.815-1.334-1.623-.4-3.013.165-3.144-.075-.067-.109.208-.42.816-.679a4.274,4.274,0,0,1,2.573-.184,4.1,4.1,0,0,1,2.184,1.308c.411.5.5.9.386.964" transform="translate(-105.519 -28.552)" fill="#263238"/>
          <path id="Trazado_741611" data-name="Trazado 741611" d="M270,89.3a11.065,11.065,0,0,1,2.757.135c.426.053.839.062.975-.206a2.173,2.173,0,0,0,.007-1.3q-.237-1.647-.5-3.454c-.664-4.906-1.042-8.9-.844-8.927s.9,3.932,1.561,8.839c.154,1.208.3,2.359.441,3.46a2.473,2.473,0,0,1-.162,1.683,1.074,1.074,0,0,1-.826.45,2.929,2.929,0,0,1-.729-.066A10.862,10.862,0,0,1,270,89.3" transform="translate(-101.395 -28.371)" fill="#263238"/>
          <path id="Trazado_741612" data-name="Trazado 741612" d="M254.389,123.813a30.831,30.831,0,0,1-14.836-7.879s2.317,9.16,14.391,10.791Z" transform="translate(-89.961 -43.538)" fill="#ff9b6c"/>
          <path id="Trazado_741613" data-name="Trazado 741613" d="M261.572,97.589c.269.046-.138,1.815,1.086,3.421s3.15,1.848,3.107,2.1c0,.117-.5.247-1.3.084a4.523,4.523,0,0,1-2.617-1.652,3.938,3.938,0,0,1-.8-2.843c.1-.755.4-1.147.521-1.109" transform="translate(-98.023 -36.648)" fill="#263238"/>
          <path id="Trazado_741614" data-name="Trazado 741614" d="M287.593,69.163c-.366.334-1.552-.22-3.038-.437-1.479-.264-2.783-.112-3.021-.545-.1-.208.147-.559.745-.842a4.753,4.753,0,0,1,4.881.791c.475.457.6.867.432,1.033" transform="translate(-105.719 -25.156)" fill="#263238"/>
          <path id="Trazado_741615" data-name="Trazado 741615" d="M255.643,82.286a1.554,1.554,0,0,0,1.175,1.823,1.486,1.486,0,0,0,1.838-1.073,1.555,1.555,0,0,0-1.173-1.823,1.487,1.487,0,0,0-1.84,1.073" transform="translate(-95.99 -30.48)" fill="#263238"/>
          <path id="Trazado_741616" data-name="Trazado 741616" d="M255.052,71.949c.151.235,1.472-.4,3.114-.077,1.645.3,2.687,1.374,2.9,1.206.1-.072-.019-.468-.47-.952a4.271,4.271,0,0,0-2.277-1.212,4.1,4.1,0,0,0-2.527.31c-.579.291-.82.618-.744.725" transform="translate(-95.776 -26.603)" fill="#263238"/>
          <path id="Trazado_741617" data-name="Trazado 741617" d="M258.1,63.74c.252.435,1.594.292,3.12.567,1.536.227,2.766.792,3.138.459.167-.164.036-.577-.46-1.038a4.784,4.784,0,0,0-2.414-1.1,4.728,4.728,0,0,0-2.628.272c-.613.279-.863.629-.756.839" transform="translate(-96.918 -23.493)" fill="#263238"/>
          <path id="Trazado_741618" data-name="Trazado 741618" d="M229.226,81.914c.2-.88-.335-3.188-1.172-3.525-2.235-.9-6.458-1.68-7.861,4.2-1.917,8.038,6.549,8.305,6.618,8.078.054-.178,1.719-5.715,2.415-8.753" transform="translate(-82.585 -29.205)" fill="#ffc09d"/>
          <path id="Trazado_741619" data-name="Trazado 741619" d="M226.721,88.809c-.029-.034-.164.064-.426.117a1.441,1.441,0,0,1-1.052-.229c-.775-.514-1.168-2.033-.861-3.491a4.749,4.749,0,0,1,.87-1.912,1.663,1.663,0,0,1,1.309-.823.733.733,0,0,1,.735.581c.054.25-.035.4,0,.423.018.026.2-.093.219-.44a.922.922,0,0,0-.2-.58,1.088,1.088,0,0,0-.726-.389,2.023,2.023,0,0,0-1.76.9,4.893,4.893,0,0,0-1.02,2.125c-.335,1.632.132,3.345,1.215,3.958a1.543,1.543,0,0,0,1.331.092c.3-.139.382-.308.357-.33" transform="translate(-84.012 -30.813)" fill="#ff9b6c"/>
          <path id="Trazado_741620" data-name="Trazado 741620" d="M231.281,63.49l1.691,2.5c10.4-6.978,31.553-25.3,30.359-24.2a26.341,26.341,0,0,0-12.495-3.6c-6.826-.027-19.978,1.1-21.149,8.949s1.594,16.355,1.594,16.355" transform="translate(-86.148 -14.34)" fill="#263238"/>
          <path id="Trazado_741621" data-name="Trazado 741621" d="M245.239,134.969,221.887,126.5h-6.267l15.553,17.186,6.594,5.765,8.017-.436,3.455-3.867Z" transform="translate(-80.973 -47.504)" fill="#ffc09d"/>
          <path id="Trazado_741622" data-name="Trazado 741622" d="M172.63,200.726l.78,17.9c10.6,7.81,30.05,13.156,47.653,12.778,1.063-.023,2.605-15.7,7.791-26.881l6.947-9.5a42.178,42.178,0,0,0,6.341-12.531c.907-2.966,1.382-5.262,1.382-5.262s11.017-.88,14.676-5.827c0,0-4.647-15.908-5.736-19.517-1.855-6.152-10.025-10.8-10.025-10.8L228.9,134.239s-1.005,5.129-9.747,3.493a18.583,18.583,0,0,1-14.139-11.862s-20.655-.132-24.467.473Z" transform="translate(-64.829 -47.265)" fill="#455a64"/>
          <path id="Trazado_741623" data-name="Trazado 741623" d="M284.093,167.753c-.086.024.3,1.546.761,4.032a64.541,64.541,0,0,1,.621,19.657c-.3,2.511-.593,4.053-.505,4.072a4.336,4.336,0,0,0,.316-1.062c.174-.69.373-1.7.574-2.957a53.73,53.73,0,0,0-.624-19.787c-.279-1.241-.542-2.237-.759-2.916a4.285,4.285,0,0,0-.382-1.039" transform="translate(-106.683 -62.997)" fill="#263238"/>
          <path id="Trazado_741624" data-name="Trazado 741624" d="M225.748,218.125a3.276,3.276,0,0,0,.966-.109,7.342,7.342,0,0,0,1.112-.253,12.207,12.207,0,0,0,1.441-.461,18.545,18.545,0,0,0,3.526-1.76,19.9,19.9,0,0,0,6.589-6.968,18.5,18.5,0,0,0,1.562-3.618,12.374,12.374,0,0,0,.38-1.464,7.316,7.316,0,0,0,.19-1.125,3.264,3.264,0,0,0,.054-.97c-.107-.017-.262,1.36-.994,3.436a20.545,20.545,0,0,1-1.631,3.488,20.938,20.938,0,0,1-6.428,6.8,20.526,20.526,0,0,1-3.391,1.823c-2.031.847-3.4,1.077-3.375,1.184" transform="translate(-84.777 -75.632)" fill="#263238"/>
          <path id="Trazado_741625" data-name="Trazado 741625" d="M179.857,127.012l-8.362-.377-22.958,6.234,5.006,16.631,19.957,3.939Z" transform="translate(-55.781 -47.556)" fill="#455a64"/>
          <path id="Trazado_741626" data-name="Trazado 741626" d="M182.466,144.837c.09,0,.292,3.707.452,8.285s.217,8.295.127,8.3-.292-3.706-.452-8.287-.217-8.293-.127-8.3" transform="translate(-68.507 -54.392)" fill="#263238"/>
          <rect id="Rectángulo_351605" data-name="Rectángulo 351605" width="224.755" height="136.045" transform="translate(100.743 115.283)" fill="#fff"/>
          <path id="Trazado_741627" data-name="Trazado 741627" d="M385.985,320.558c0-1.025-.049-52.719-.127-136.045l.127.127-224.738.036h-.017l.162-.162c0,48.2-.008,94.194-.012,136.045l-.15-.151,224.755.151-224.755.151h-.15v-.151c0-41.851-.008-87.842-.012-136.045v-.163h.18l224.738.036h.127v.127c-.077,83.326-.125,135.02-.127,136.045" transform="translate(-60.487 -69.23)" fill="#263238"/>
          <path id="Trazado_741628" data-name="Trazado 741628" d="M251.461,215.649h-46.3a1.31,1.31,0,0,1-1.31-1.31v-1.014a1.31,1.31,0,0,1,1.31-1.31h46.3a1.31,1.31,0,0,1,1.31,1.31v1.014a1.31,1.31,0,0,1-1.31,1.31" transform="translate(-76.554 -79.62)" fill="#e0e0e0"/>
          <path id="Trazado_741629" data-name="Trazado 741629" d="M251.461,237.945h-46.3a1.31,1.31,0,0,1-1.31-1.31v-1.014a1.31,1.31,0,0,1,1.31-1.31h46.3a1.31,1.31,0,0,1,1.31,1.31v1.014a1.31,1.31,0,0,1-1.31,1.31" transform="translate(-76.554 -87.993)" fill="#e0e0e0"/>
          <path id="Trazado_741630" data-name="Trazado 741630" d="M222.413,226.4H205.162a1.31,1.31,0,0,1-1.31-1.31v-1.013a1.31,1.31,0,0,1,1.31-1.31h17.251a1.31,1.31,0,0,1,1.31,1.31v1.013a1.31,1.31,0,0,1-1.31,1.31" transform="translate(-76.554 -83.657)" fill="#e0e0e0"/>
          <path id="Trazado_741631" data-name="Trazado 741631" d="M265.214,226.4h-23.43a1.31,1.31,0,0,1-1.309-1.31v-1.013a1.31,1.31,0,0,1,1.309-1.31h23.43a1.31,1.31,0,0,1,1.31,1.31v1.013a1.31,1.31,0,0,1-1.31,1.31" transform="translate(-90.307 -83.657)" fill="#e0e0e0"/>
          <g id="Grupo_1035596" data-name="Grupo 1035596" transform="translate(155.738 132.014)" opacity="0.3">
            <g id="Grupo_1035595" data-name="Grupo 1035595">
              <g id="Grupo_1035594" data-name="Grupo 1035594" clip-path="url(#clip-path-9)">
                <path id="Trazado_741632" data-name="Trazado 741632" d="M321.574,238.621h-68.4a3.778,3.778,0,0,1-3.778-3.778V215.184a3.778,3.778,0,0,1,3.778-3.778h68.4a3.778,3.778,0,0,1,3.778,3.778v19.659a3.778,3.778,0,0,1-3.778,3.778" transform="translate(-249.395 -211.405)"/>
              </g>
            </g>
          </g>
          <path id="Trazado_741633" data-name="Trazado 741633" d="M317.544,234.59h-68.4a3.778,3.778,0,0,1-3.778-3.778V211.153a3.778,3.778,0,0,1,3.778-3.778h68.4a3.778,3.778,0,0,1,3.778,3.778v19.659a3.778,3.778,0,0,1-3.778,3.778" transform="translate(-92.143 -77.877)" fill="#ebebeb"/>
          <path id="Trazado_741634" data-name="Trazado 741634" d="M317.409,234.455c0-.014.176-.011.511-.062a3.628,3.628,0,0,0,1.4-.513,3.747,3.747,0,0,0,1.534-1.823,9.44,9.44,0,0,0,.247-3.3c-.011-2.534-.023-5.626-.038-9.214q-.008-2.695-.017-5.753c-.011-1.011.012-2.08-.026-3.125a3.608,3.608,0,0,0-3.093-3.22,16.533,16.533,0,0,0-1.73-.037l-3.626.007-7.693.013-16.973.021-38.891.018a3.557,3.557,0,0,0-3.479,2.811,17.755,17.755,0,0,0-.079,2.494V215.3q0,5.04,0,9.923,0,2.44,0,4.835a4.269,4.269,0,0,0,.383,2.221,3.56,3.56,0,0,0,1.536,1.558,4.122,4.122,0,0,0,2.166.4l2.309,0,4.539,0,31.764.049,21.414.071,5.822.042,1.514.022c.341.007.516.023.516.023s-.175.016-.516.023l-1.514.022-5.822.042-21.414.071-31.764.049-4.539,0-2.309,0a4.562,4.562,0,0,1-2.365-.45,4,4,0,0,1-1.724-1.745,4.722,4.722,0,0,1-.432-2.417q0-2.394,0-4.835,0-4.879,0-9.923,0-1.26,0-2.528V211.5a6.151,6.151,0,0,1,.089-1.316,4,4,0,0,1,3.919-3.168l38.891.017,16.973.021,7.693.013,3.626.007a16.645,16.645,0,0,1,1.776.047,3.922,3.922,0,0,1,3.349,3.514c.036,1.1,0,2.131.011,3.155q-.008,3.055-.017,5.753c-.015,3.588-.028,6.68-.039,9.214a9.442,9.442,0,0,1-.3,3.35,3.82,3.82,0,0,1-1.611,1.851,3.536,3.536,0,0,1-1.439.481,2.716,2.716,0,0,1-.517.016" transform="translate(-92.008 -77.742)" fill="#263238"/>
          <path id="Trazado_741635" data-name="Trazado 741635" d="M268.471,234.293H251.638a3.252,3.252,0,0,1-3.252-3.252V214.209a3.252,3.252,0,0,1,3.252-3.253h16.832a3.253,3.253,0,0,1,3.252,3.253v16.832a3.252,3.252,0,0,1-3.252,3.252" transform="translate(-93.278 -79.222)" fill="#15d3ec"/>
          <path id="Trazado_741636" data-name="Trazado 741636" d="M307.645,234.293h-17.3a3.021,3.021,0,0,1-3.021-3.021v-17.3a3.021,3.021,0,0,1,3.021-3.021h17.3a3.021,3.021,0,0,1,3.021,3.021v17.3a3.021,3.021,0,0,1-3.021,3.021" transform="translate(-107.903 -79.222)" fill="#15d3ec"/>
          <g id="Grupo_1035599" data-name="Grupo 1035599" transform="translate(179.426 131.769)" opacity="0.5">
            <g id="Grupo_1035598" data-name="Grupo 1035598">
              <g id="Grupo_1035597" data-name="Grupo 1035597" clip-path="url(#clip-path-10)">
                <path id="Trazado_741637" data-name="Trazado 741637" d="M307.645,234.293h-17.3a3.021,3.021,0,0,1-3.021-3.021v-17.3a3.021,3.021,0,0,1,3.021-3.021h17.3a3.021,3.021,0,0,1,3.021,3.021v17.3a3.021,3.021,0,0,1-3.021,3.021" transform="translate(-287.329 -210.957)" fill="#fff"/>
              </g>
            </g>
          </g>
          <path id="Trazado_741638" data-name="Trazado 741638" d="M346.839,234.293h-17.4a2.967,2.967,0,0,1-2.967-2.967v-17.4a2.967,2.967,0,0,1,2.967-2.967h17.4a2.967,2.967,0,0,1,2.967,2.967v17.4a2.967,2.967,0,0,1-2.967,2.967" transform="translate(-122.601 -79.222)" fill="#455a64"/>
          <path id="Trazado_741639" data-name="Trazado 741639" d="M233.784,293.183a8.463,8.463,0,0,1,1.643,5.291,7.818,7.818,0,0,1-3.455,6.838Q228.517,307.7,221.9,307.7H204.4V273.877H220.93q6.186,0,9.5,2.368a7.5,7.5,0,0,1,3.31,6.427,8.128,8.128,0,0,1-4.494,7.442,8.925,8.925,0,0,1,4.542,3.069m-21.6-13.41v7.973h7.78a7.858,7.858,0,0,0,4.4-1.015,3.387,3.387,0,0,0,1.5-3,3.328,3.328,0,0,0-1.5-2.972,8.011,8.011,0,0,0-4.4-.99Zm13.8,21.021a3.477,3.477,0,0,0,1.571-3.141q0-4.2-6.234-4.2h-9.133v8.36h9.133a8.679,8.679,0,0,0,4.663-1.015" transform="translate(-76.761 -102.851)" fill="#ff9d00"/>
          <path id="Trazado_741640" data-name="Trazado 741640" d="M285.155,307.7l-6.524-9.423h-7.2V307.7H263.6V273.878h14.642a18.8,18.8,0,0,1,7.8,1.5,11.193,11.193,0,0,1,6.885,10.776,11.016,11.016,0,0,1-6.958,10.679l7.587,10.873Zm-1.981-25.926a8.222,8.222,0,0,0-5.363-1.522h-6.379v11.791h6.379a8.127,8.127,0,0,0,5.363-1.546,6.1,6.1,0,0,0,0-8.722" transform="translate(-98.993 -102.851)" fill="#ff9d00"/>
          <path id="Trazado_741641" data-name="Trazado 741641" d="M340.082,300.455H324.376l-3,7.248h-8.022l15.077-33.827h7.731L351.293,307.7h-8.215Zm-2.464-5.944-5.364-12.95-5.364,12.95Z" transform="translate(-117.678 -102.851)" fill="#ff9d00"/>
          <path id="Trazado_741642" data-name="Trazado 741642" d="M410.778,273.877V307.7h-6.427l-16.865-20.537V307.7h-7.732V273.877h6.475l16.817,20.538V273.877Z" transform="translate(-142.612 -102.851)" fill="#ff9d00"/>
          <path id="Trazado_741643" data-name="Trazado 741643" d="M442.28,273.877h15.367a21.6,21.6,0,0,1,9.737,2.1,15.751,15.751,0,0,1,6.571,5.92,18.038,18.038,0,0,1,0,17.783,15.742,15.742,0,0,1-6.571,5.92,21.6,21.6,0,0,1-9.737,2.1H442.28Zm14.98,27.4a11.368,11.368,0,0,0,8.094-2.827,11.221,11.221,0,0,0,0-15.319,11.37,11.37,0,0,0-8.094-2.827h-7.152v20.973Z" transform="translate(-166.093 -102.851)" fill="#ff9d00"/>
          <path id="Trazado_741644" data-name="Trazado 741644" d="M386.143,315.439c0-.762-.038-19.423-.1-52.623l.1.1-187.4.062h-.011l.162-.162c0,18.134,0,35.8,0,52.623l-.159-.159,133.906.072,53.506.086-53.4.086-134.016.072h-.159v-.159c0-16.826,0-34.489,0-52.623v-.163h.174l187.4.062h.1v.1c-.064,33.2-.1,51.862-.1,52.623" transform="translate(-74.57 -98.636)" fill="#263238"/>
          <rect id="Rectángulo_351608" data-name="Rectángulo 351608" width="3.16" height="3.16" transform="translate(122.262 162.508)" fill="#263238"/>
          <rect id="Rectángulo_351609" data-name="Rectángulo 351609" width="3.16" height="3.16" transform="translate(310.397 190.057)" fill="#263238"/>
          <rect id="Rectángulo_351610" data-name="Rectángulo 351610" width="3.16" height="3.16" transform="translate(122.262 190.057)" fill="#263238"/>
          <rect id="Rectángulo_351611" data-name="Rectángulo 351611" width="3.16" height="3.16" transform="translate(309.993 162.508)" fill="#263238"/>
          <rect id="Rectángulo_351612" data-name="Rectángulo 351612" width="3.16" height="3.16" transform="translate(122.262 214.801)" fill="#263238"/>
          <rect id="Rectángulo_351613" data-name="Rectángulo 351613" width="3.16" height="3.16" transform="translate(309.993 214.801)" fill="#263238"/>
          <path id="Trazado_741645" data-name="Trazado 741645" d="M386.661,328.52c0,.09-41.795.162-93.338.162-51.562,0-93.348-.072-93.348-.162s41.786-.162,93.348-.162c51.544,0,93.338.072,93.338.162" transform="translate(-75.098 -123.311)" fill="#263238"/>
          <path id="Trazado_741646" data-name="Trazado 741646" d="M388.167,361.954h-155.3a1.31,1.31,0,0,1-1.31-1.31V359.63a1.31,1.31,0,0,1,1.31-1.31h155.3a1.31,1.31,0,0,1,1.31,1.31v1.013a1.31,1.31,0,0,1-1.31,1.31" transform="translate(-86.96 -134.563)" fill="#e0e0e0"/>
          <path id="Trazado_741647" data-name="Trazado 741647" d="M250.122,372.7H232.871a1.31,1.31,0,0,1-1.31-1.31v-1.014a1.31,1.31,0,0,1,1.31-1.31h17.251a1.31,1.31,0,0,1,1.31,1.31v1.014a1.31,1.31,0,0,1-1.31,1.31" transform="translate(-86.96 -138.599)" fill="#e0e0e0"/>
          <path id="Trazado_741648" data-name="Trazado 741648" d="M387.048,372.7H269.492a1.31,1.31,0,0,1-1.31-1.31v-1.014a1.31,1.31,0,0,1,1.31-1.31H387.048a1.31,1.31,0,0,1,1.31,1.31v1.014a1.31,1.31,0,0,1-1.31,1.31" transform="translate(-100.712 -138.599)" fill="#e0e0e0"/>
          <path id="Trazado_741649" data-name="Trazado 741649" d="M446.279,215.649H394.292a1.31,1.31,0,0,1-1.31-1.31v-1.014a1.31,1.31,0,0,1,1.31-1.31h51.988a1.309,1.309,0,0,1,1.309,1.31v1.014a1.309,1.309,0,0,1-1.309,1.31" transform="translate(-147.579 -79.62)" fill="#e0e0e0"/>
          <path id="Trazado_741650" data-name="Trazado 741650" d="M446.279,237.945H394.292a1.31,1.31,0,0,1-1.31-1.31v-1.014a1.31,1.31,0,0,1,1.31-1.31h51.988a1.309,1.309,0,0,1,1.309,1.31v1.014a1.309,1.309,0,0,1-1.309,1.31" transform="translate(-147.579 -87.993)" fill="#e0e0e0"/>
          <path id="Trazado_741651" data-name="Trazado 741651" d="M413.853,226.4H394.292a1.31,1.31,0,0,1-1.31-1.31v-1.013a1.31,1.31,0,0,1,1.31-1.31h19.561a1.31,1.31,0,0,1,1.31,1.31v1.013a1.31,1.31,0,0,1-1.31,1.31" transform="translate(-147.579 -83.657)" fill="#e0e0e0"/>
          <path id="Trazado_741652" data-name="Trazado 741652" d="M461.631,226.4h-26.46a1.31,1.31,0,0,1-1.31-1.31v-1.013a1.31,1.31,0,0,1,1.31-1.31h26.46a1.309,1.309,0,0,1,1.31,1.31v1.013a1.309,1.309,0,0,1-1.31,1.31" transform="translate(-162.931 -83.657)" fill="#e0e0e0"/>
          <path id="Trazado_741653" data-name="Trazado 741653" d="M439.25,252.342a49.195,49.195,0,0,1,0-7.987,49.195,49.195,0,0,1,0,7.987" transform="translate(-164.894 -91.764)" fill="#e0e0e0"/>
          <path id="Trazado_741654" data-name="Trazado 741654" d="M439.793,256.21a1.119,1.119,0,1,1-1.116-1.038,1.078,1.078,0,0,1,1.116,1.038" transform="translate(-164.321 -95.827)" fill="#e0e0e0"/>
          <path id="Trazado_741655" data-name="Trazado 741655" d="M210.307,357.532l1.01,2.046a1.173,1.173,0,0,0,.882.641l2.259.328a1.171,1.171,0,0,1,.649,2l-1.634,1.593a1.169,1.169,0,0,0-.337,1.036l.386,2.25a1.171,1.171,0,0,1-1.7,1.234L209.8,367.6a1.168,1.168,0,0,0-1.09,0l-2.02,1.062a1.171,1.171,0,0,1-1.7-1.234l.385-2.25a1.169,1.169,0,0,0-.337-1.036l-1.634-1.593a1.171,1.171,0,0,1,.649-2l2.259-.328a1.17,1.17,0,0,0,.882-.641l1.01-2.046a1.171,1.171,0,0,1,2.1,0" transform="translate(-76.254 -134.022)" fill="#e0e0e0"/>
          <g id="Grupo_1035602" data-name="Grupo 1035602" transform="translate(34.874 207.968)" opacity="0.3">
            <g id="Grupo_1035601" data-name="Grupo 1035601">
              <g id="Grupo_1035600" data-name="Grupo 1035600" clip-path="url(#clip-path-11)">
                <path id="Trazado_741656" data-name="Trazado 741656" d="M55.846,352.562s7.178,18.656,18.573,24.826c2.156,1.167,8.753,1.612,10.683,1.352,14.617-1.968,31.988-45.7,31.988-45.7s-32.011,26.646-38.875,20.783c-3.062-2.615-2.125-11.581-2.226-11.53L55.846,352.562" transform="translate(-55.846 -333.036)"/>
              </g>
            </g>
          </g>
          <path id="Trazado_741657" data-name="Trazado 741657" d="M76.365,347.909l33.906-27.524,6.935,10.076S93.711,360.271,88.4,366.1s-13.575,8.627-20.834,3.016c-5.85-4.523-19.6-30.416-19.6-30.416S68.8,326.444,67.664,326.445c-.175,0,8.7,21.464,8.7,21.464" transform="translate(-18.015 -120.317)" fill="#ffc09d"/>
          <path id="Trazado_741658" data-name="Trazado 741658" d="M92.1,370.789c.017,0,.03.058.038.177l-.1-.006a18.937,18.937,0,0,1,.185-3.145,12.832,12.832,0,0,1,.684-3.255,25.517,25.517,0,0,1-.362,3.3c-.186,1.459-.317,2.7-.408,3.11l-.1-.007c.024-.117.044-.172.062-.17" transform="translate(-34.559 -136.906)" fill="#ff9b6c"/>
          <path id="Trazado_741659" data-name="Trazado 741659" d="M164.439,284.057c-1.233.721-6.025,4.63-6.367,4.65s2.88-4.416,3.588-6.295c.566-1.5-.03-2.112-1.446-1.887-1.219.194-5.47,5.959-5.47,5.959L153.424,288l-2.942,3.368s-1.684,6.738-2.385,9.1-2.321,12.012-2.321,12.012l8.681,2.783c1.8-2.662,4.641-2.373,5.559-8.411.474-3.117,1.564-9.976,1.564-9.976,3.011-5.58,5.174-6,6.135-7.592,1.243-2.056-1.3-2.093-1.3-2.093a5.646,5.646,0,0,0,.888-2.026c.3-1.763-1.627-1.83-2.86-1.11" transform="translate(-54.744 -105.331)" fill="#ffc09d"/>
          <path id="Trazado_741660" data-name="Trazado 741660" d="M153.818,299.031a6.417,6.417,0,0,1,.177-1.444c.087-.481.18-1,.28-1.551a6.358,6.358,0,0,1,.7-1.832,27.475,27.475,0,0,1,1.868-2.979,5.717,5.717,0,0,1,.916-1.132c.087.059-1.195,1.878-2.5,4.262a6.626,6.626,0,0,0-.7,1.744q-.185.819-.348,1.533a6.47,6.47,0,0,1-.4,1.4" transform="translate(-57.76 -108.941)" fill="#ff9b6c"/>
          <path id="Trazado_741661" data-name="Trazado 741661" d="M166.46,298.192a4.371,4.371,0,0,1,.687-1.4,13.124,13.124,0,0,1,2.513-2.8,17.961,17.961,0,0,1,3.1-2.13,5.788,5.788,0,0,1,1.421-.634,43.532,43.532,0,0,0-4.307,3.011,16.1,16.1,0,0,0-2.535,2.684c-.561.764-.828,1.293-.877,1.27" transform="translate(-62.511 -109.365)" fill="#ff9b6c"/>
          <path id="Trazado_741662" data-name="Trazado 741662" d="M163.9,293.652c.061.059-.766,1.044-1.451,2.474-.714,1.413-1.045,2.659-1.133,2.64a6.407,6.407,0,0,1,.842-2.784,5.79,5.79,0,0,1,1.742-2.329" transform="translate(-60.573 -110.276)" fill="#ff9b6c"/>
          <path id="Trazado_741663" data-name="Trazado 741663" d="M44.974,293.913C38.1,297.2,34.8,304.018,37.02,314.682c1.635,7.847,6.86,25.831,6.86,25.831L70.34,329.5a123.774,123.774,0,0,0-8.63-18.344c-5.929-10.046-13.5-18.79-16.736-17.243" transform="translate(-13.644 -110.308)" fill="#81d4fa"/>
          <path id="Trazado_741664" data-name="Trazado 741664" d="M48.419,349.715a3.12,3.12,0,0,1,.469-.23l1.369-.6,5.06-2.162,16.74-7.019,2.759-1.147-.079.228c-1.559-2.8-2.829-5.55-3.915-8.051s-2.025-4.749-2.866-6.6-1.557-3.322-2.066-4.328l-.591-1.153a2.531,2.531,0,0,1-.189-.41,2.514,2.514,0,0,1,.242.38c.148.256.372.632.641,1.127.542.99,1.3,2.445,2.159,4.292,1.767,3.672,3.756,9.007,6.865,14.586l.089.159-.167.07L72.182,340l-16.777,6.931L50.306,349l-1.393.546a3.112,3.112,0,0,1-.494.171" transform="translate(-18.183 -119.51)" fill="#263238"/>
          <path id="Trazado_741665" data-name="Trazado 741665" d="M212,173.941a15.443,15.443,0,0,1,8.522,6.155c2.933,4.424,4.81,6.556,8,8.581s7.486,3.216,6.569,5.043-8.8-.48-8.8-.48,4.462,14.5,2.666,15.51a2.3,2.3,0,0,1-2.855-1.544c-1.324-3.562-3.108-8.465-3.108-8.465s-3.2,8.536-5.582,9.466a2.477,2.477,0,0,1-3.325-1.008,2.646,2.646,0,0,1-3.12-.205,2.98,2.98,0,0,1-.68-2.519s-2.111-.4-1.743-3.012c.348-2.471,2.352-9.782,2.352-9.782s-3.633-5.633-3.973-5.482-7.623-.679-7.623-.679l4.1-13.427Z" transform="translate(-74.844 -64.628)" fill="#ffc09d"/>
          <path id="Trazado_741666" data-name="Trazado 741666" d="M175.24,173.867l3.468-12.52-40.095-8.618-4.626-14.508s-16.859,5.872-21.589,10.809c-6.864,7.165-1.619,16.1,2.919,17.51s59.923,7.327,59.923,7.327" transform="translate(-40.968 -51.907)" fill="#ffc09d"/>
          <path id="Trazado_741667" data-name="Trazado 741667" d="M131.191,157.335a2.469,2.469,0,0,1,.646-.046c.417-.01,1.019,0,1.762.024a50.216,50.216,0,0,1,5.786.564,42.773,42.773,0,0,1,5.675,1.275c.713.216,1.283.41,1.671.562a2.492,2.492,0,0,1,.593.264c-.017.049-.892-.23-2.325-.6s-3.431-.824-5.664-1.175-4.271-.544-5.749-.656a23.449,23.449,0,0,1-2.4-.207" transform="translate(-49.267 -59.066)" fill="#ff9b6c"/>
          <path id="Trazado_741668" data-name="Trazado 741668" d="M228.612,210.295a8.486,8.486,0,0,1-.519,1.78,38.14,38.14,0,0,1-1.763,4.111,37.323,37.323,0,0,1-2.22,3.884A8.427,8.427,0,0,1,223,221.553a13.894,13.894,0,0,1,.916-1.605c.581-.98,1.35-2.352,2.124-3.907s1.4-3,1.839-4.048a13.677,13.677,0,0,1,.734-1.7" transform="translate(-83.743 -78.974)" fill="#ff9b6c"/>
          <path id="Trazado_741669" data-name="Trazado 741669" d="M221.277,207.07a7.033,7.033,0,0,1-.282,1.694,24.824,24.824,0,0,1-3.248,7.6,7.023,7.023,0,0,1-1.03,1.374,12.289,12.289,0,0,1,.834-1.494,33.97,33.97,0,0,0,3.223-7.537,12.255,12.255,0,0,1,.5-1.635" transform="translate(-81.384 -77.762)" fill="#ff9b6c"/>
          <path id="Trazado_741670" data-name="Trazado 741670" d="M240.73,199.314a11.624,11.624,0,0,1,1.314,4.8,56.415,56.415,0,0,1-1.314-4.8" transform="translate(-90.398 -74.849)" fill="#ff9b6c"/>
          <path id="Trazado_741671" data-name="Trazado 741671" d="M56.906,202.683a7.121,7.121,0,0,1,.619-9.11c-1.3-1.634-.841-4.156.48-5.777a13.937,13.937,0,0,1,5.18-3.431,9.587,9.587,0,0,1,11.162-7.017c2.474-3.649,7.756-4.229,11.991-3a11.279,11.279,0,0,0,3.145.682,18.3,18.3,0,0,0,2.345-.328c4.3-.586,8.583,2.439,10.268,6.444a7.938,7.938,0,0,0,.917,1.864,10.79,10.79,0,0,0,2.13,1.7,6.88,6.88,0,0,1,2.642,5.081c.072,1.672-.457,3.448.25,4.966.354.761.992,1.374,1.269,2.166.8,2.3-1.743,4.648-1.268,7.033.1.486.317.939.453,1.416a4.243,4.243,0,0,1-.254,2.967,6.1,6.1,0,0,0-.931,2.134,6.9,6.9,0,0,0,.351,1.74c.294,1.423-2.771,6.918-4,7.695l-36.766.385a6.872,6.872,0,0,1-5.325-5.908,2.511,2.511,0,0,0-.345-1.351,2.94,2.94,0,0,0-1-.651c-2.369-1.268-2.66-4.517-2.414-7.193a3.272,3.272,0,0,0-.022-1.123,4.11,4.11,0,0,0-.87-1.376" transform="translate(-20.86 -65.255)" fill="#263238"/>
          <path id="Trazado_741672" data-name="Trazado 741672" d="M60.268,193.263a28.454,28.454,0,0,1,21.247-12.437c4.989-.421,7.127.476,10.789,1.2a15.806,15.806,0,0,1,9.393,5.336c2.794,3.445,5.21,7.351,5.99,11.717a38.059,38.059,0,0,1,.144,12.631,50.139,50.139,0,0,1-5.739,15.326l-7.6,1.451c-6.355.649-12.8,1.3-19.1.265s-12.56-3.962-16.253-9.174c-5.13-7.242-4.007-19.082,1.135-26.316" transform="translate(-20.956 -67.866)" fill="#263238"/>
          <path id="Trazado_741673" data-name="Trazado 741673" d="M77.1,195.268l14.961-7.156,4.048.194c9.04-.581,15.951,8.964,16.506,16.28.618,8.128,1.052,18.076.166,24.158-1.78,12.229-12,13.931-12,13.931l.282,7.243c-1.894,6.484-17.35,7.074-23.507.235l-4.241-50.481a4.293,4.293,0,0,1,3.784-4.4" transform="translate(-27.533 -70.643)" fill="#ffc09d"/>
          <path id="Trazado_741674" data-name="Trazado 741674" d="M107.256,249.183a2.571,2.571,0,0,1,.78-1.643,2.627,2.627,0,0,1,3.169-.4,3.521,3.521,0,0,1,1.558,3.207,3.2,3.2,0,0,1-2.195,1.48,3.791,3.791,0,0,1-.428.043,2.869,2.869,0,0,1-1.984-.634,2.559,2.559,0,0,1-.9-2.056" transform="translate(-40.277 -92.676)" fill="#ff9b6c"/>
          <path id="Trazado_741675" data-name="Trazado 741675" d="M130.3,231.448a1.565,1.565,0,0,1-1.489,1.6,1.5,1.5,0,0,1-1.632-1.39,1.566,1.566,0,0,1,1.487-1.6,1.5,1.5,0,0,1,1.634,1.391" transform="translate(-47.759 -86.394)" fill="#263238"/>
          <path id="Trazado_741676" data-name="Trazado 741676" d="M128.562,220.337c-.192.207-1.389-.655-3.073-.629-1.683,0-2.907.885-3.093.681-.091-.09.1-.461.635-.86a4.3,4.3,0,0,1,2.473-.8,4.13,4.13,0,0,1,2.449.756c.523.391.7.758.609.851" transform="translate(-45.956 -82.142)" fill="#263238"/>
          <path id="Trazado_741677" data-name="Trazado 741677" d="M115.861,235.116a11.176,11.176,0,0,1,2.729-.529c.43-.051.836-.141.9-.435a2.193,2.193,0,0,0-.3-1.271q-.628-1.554-1.314-3.259c-1.827-4.64-3.155-8.458-2.967-8.529s1.82,3.63,3.647,8.27q.659,1.716,1.261,3.278a2.487,2.487,0,0,1,.245,1.685,1.083,1.083,0,0,1-.7.638,2.936,2.936,0,0,1-.729.111,10.969,10.969,0,0,1-2.773.039" transform="translate(-43.146 -83.028)" fill="#263238"/>
          <path id="Trazado_741678" data-name="Trazado 741678" d="M107.47,272.969a31.053,31.053,0,0,1-16.4-4.148s4.309,8.724,16.51,7.424Z" transform="translate(-34.199 -100.952)" fill="#ff9b6c"/>
          <path id="Trazado_741679" data-name="Trazado 741679" d="M108.373,245.519c.274-.019.3,1.808,1.883,3.086s3.524,1.052,3.543,1.306c.027.115-.43.361-1.251.394a4.553,4.553,0,0,1-2.956-.987,3.962,3.962,0,0,1-1.461-2.589c-.08-.764.118-1.219.244-1.21" transform="translate(-40.6 -92.202)" fill="#263238"/>
          <path id="Trazado_741680" data-name="Trazado 741680" d="M126.992,211.1c-.278.415-1.571.157-3.076.3-1.51.1-2.749.558-3.085.192-.15-.179.009-.582.526-1a4.789,4.789,0,0,1,4.964-.4c.575.333.791.706.671.907" transform="translate(-45.356 -78.743)" fill="#263238"/>
          <path id="Trazado_741681" data-name="Trazado 741681" d="M104.653,232.114a1.565,1.565,0,0,0,1.587,1.5,1.5,1.5,0,0,0,1.541-1.491,1.566,1.566,0,0,0-1.586-1.5,1.5,1.5,0,0,0-1.542,1.491" transform="translate(-39.301 -86.608)" fill="#263238"/>
          <path id="Trazado_741682" data-name="Trazado 741682" d="M95.828,221.647c.2.194,1.344-.742,3.027-.822,1.679-.1,2.957.7,3.129.483.086-.1-.131-.453-.688-.818a4.3,4.3,0,0,0-2.518-.639,4.128,4.128,0,0,0-2.4.909c-.5.423-.654.8-.554.887" transform="translate(-35.976 -82.56)" fill="#263238"/>
          <path id="Trazado_741683" data-name="Trazado 741683" d="M96.843,212.861c.35.365,1.629-.1,3.189-.194,1.556-.146,2.9.112,3.179-.3.124-.2-.1-.573-.7-.905a4.821,4.821,0,0,0-2.625-.5,4.757,4.757,0,0,0-2.505.9c-.532.42-.693.823-.538,1" transform="translate(-36.347 -79.218)" fill="#263238"/>
          <path id="Trazado_741684" data-name="Trazado 741684" d="M113.561,204.3a4.875,4.875,0,0,1-2.63-4.515c-1.125.325-2.253-1.13-2.9-2.108s-1.444-1.474-1.384-2.644a1.32,1.32,0,0,0-.078-.681c-.167-.322-.565-.431-.91-.542a5.616,5.616,0,0,1-3.664-3.933,11.873,11.873,0,0,1-5.751.9,4.539,4.539,0,0,1-7.678-.4,4.068,4.068,0,0,1-2.74,1.985,12.049,12.049,0,0,1-3.478.16,4.806,4.806,0,0,1-3.21,5.415c-.3.089-.644.177-.784.456a1.21,1.21,0,0,0,.121.935,3.783,3.783,0,0,1-2.575,4.795,2.821,2.821,0,0,1-.292,4.417c-.306.182-.706.4-.662.753a.8.8,0,0,0,.181.358,5.485,5.485,0,0,1,1.3,2.781,2.025,2.025,0,0,1-1.679,2.227A2.683,2.683,0,0,1,75.8,216.5c.006.729-.737,1.464-1.414,1.2-.288-.114-4.454-.97-4.635-1.221-2.344-3.239.669-6.77.937-10.759s-1.066-8.563.958-12.012c.849-1.446,4.572-2.118,5.771-3.292a25.331,25.331,0,0,1,4.636-3.353,23.113,23.113,0,0,1,6.75-3.147c4.531-1.029,9.216.654,13.417,2.639a19.688,19.688,0,0,1,4.529,2.723,17.833,17.833,0,0,1,3.792,5.041,22.2,22.2,0,0,1,2.961,8.6" transform="translate(-25.859 -68.949)" fill="#263238"/>
          <path id="Trazado_741685" data-name="Trazado 741685" d="M109.251,196.845a3.208,3.208,0,0,0-.445-.9c-.175-.28-.424-.607-.658-1.024a3.9,3.9,0,0,1-.458-1.569,12.174,12.174,0,0,1,.052-2.073,9.214,9.214,0,0,0-.047-2.488,6.986,6.986,0,0,0-1.082-2.648,6.85,6.85,0,0,0-1.022-1.193,10.227,10.227,0,0,0-1.316-.995,5.206,5.206,0,0,1-1.265-1.108,6.779,6.779,0,0,1-.783-1.583,11.241,11.241,0,0,0-5.24-5.776,10.005,10.005,0,0,0-2.012-.773,8.99,8.99,0,0,0-2.2-.265,10.294,10.294,0,0,0-1.13.081c-.375.056-.745.132-1.116.2a5.4,5.4,0,0,1-2.24-.014c-.749-.154-1.482-.429-2.256-.628a14.708,14.708,0,0,0-4.828-.476,12.761,12.761,0,0,0-2.462.435,8.266,8.266,0,0,0-4.238,2.754l-.313.41.134-.052a9.724,9.724,0,0,0-11.309,7.115l.067-.083a26.547,26.547,0,0,0-2.949,1.53,8.826,8.826,0,0,0-2.413,2.129,5.744,5.744,0,0,0-1.111,2.885,3.957,3.957,0,0,0,.781,2.838l.008-.14a6.941,6.941,0,0,0-1.959,4.289,7.1,7.1,0,0,0,.843,4.17,6.8,6.8,0,0,0,.551.834,9.176,9.176,0,0,1,.572.752,1.8,1.8,0,0,1,.292.824,5.19,5.19,0,0,1-.029.87,13.71,13.71,0,0,0,.067,3.182,6.642,6.642,0,0,0,.808,2.426,4.107,4.107,0,0,0,1.294,1.369c.43.288.812.4,1.024.558a1.932,1.932,0,0,1,.3.255.967.967,0,0,0-.285-.282c-.21-.169-.592-.294-1.007-.585a4.1,4.1,0,0,1-1.249-1.363,6.631,6.631,0,0,1-.769-2.4,13.806,13.806,0,0,1-.041-3.15,5.212,5.212,0,0,0,.036-.9,1.947,1.947,0,0,0-.31-.894,8.981,8.981,0,0,0-.577-.769,6.742,6.742,0,0,1-.531-.815,6.937,6.937,0,0,1-.8-4.069,6.751,6.751,0,0,1,1.916-4.158l.067-.066-.059-.074a3.747,3.747,0,0,1-.726-2.689,5.526,5.526,0,0,1,1.074-2.768,8.626,8.626,0,0,1,2.355-2.066,26.583,26.583,0,0,1,2.926-1.511l.054-.025.012-.059a9.486,9.486,0,0,1,11.015-6.92l.08.019.054-.071.3-.4a8.017,8.017,0,0,1,4.111-2.669,12.507,12.507,0,0,1,2.409-.427,14.452,14.452,0,0,1,4.747.464c.759.193,1.5.47,2.271.627a5.781,5.781,0,0,0,1.172.13,6.986,6.986,0,0,0,1.156-.119c.376-.065.744-.141,1.111-.2a10.172,10.172,0,0,1,1.1-.082,8.782,8.782,0,0,1,2.143.254,9.716,9.716,0,0,1,1.966.75,11.058,11.058,0,0,1,5.161,5.651,6.929,6.929,0,0,0,.814,1.622,5.35,5.35,0,0,0,1.313,1.143,10.155,10.155,0,0,1,1.3.972,6.694,6.694,0,0,1,1,1.159,6.849,6.849,0,0,1,1.076,2.583,9.116,9.116,0,0,1,.067,2.454,12.032,12.032,0,0,0-.03,2.091,3.957,3.957,0,0,0,.49,1.6c.245.42.5.741.681,1.015a4.8,4.8,0,0,1,.38.643c.074.152.1.234.108.232" transform="translate(-20.807 -65.183)" fill="#455a64"/>
          <path id="Trazado_741686" data-name="Trazado 741686" d="M91.973,175.95c.012.019.222-.126.631-.323a5.634,5.634,0,0,1,1.83-.521,5.288,5.288,0,0,1,2.752.419,5.467,5.467,0,0,1,2.492,2.286,4.662,4.662,0,0,1,.41.951,1.045,1.045,0,0,1-.067.882l-.206.283.338-.093a3.466,3.466,0,0,1,2.59.325,3.346,3.346,0,0,1,1.411,1.56,3.668,3.668,0,0,1,.318,1.383c.009.336-.019.52,0,.523s.021-.044.039-.131a2.276,2.276,0,0,0,.046-.391,3.5,3.5,0,0,0-1.709-3.128,3.65,3.65,0,0,0-2.761-.378l.132.19a1.278,1.278,0,0,0,.11-1.092,4.847,4.847,0,0,0-.432-1.008,5.614,5.614,0,0,0-2.618-2.376,5.348,5.348,0,0,0-2.868-.383,5.246,5.246,0,0,0-1.853.611,3.655,3.655,0,0,0-.446.288c-.1.074-.144.115-.139.122" transform="translate(-34.539 -65.673)" fill="#455a64"/>
          <path id="Trazado_741687" data-name="Trazado 741687" d="M62.926,203.832c-.008,0,0,.054.019.154a1.425,1.425,0,0,0,.184.407,2.236,2.236,0,0,0,1.344.907,4.271,4.271,0,0,0,2.4-.245,13.691,13.691,0,0,0,1.326-.513,2.3,2.3,0,0,0,1.164-1.047l.053-.134-.2.059a9.588,9.588,0,0,0,2.476,1.508,4.315,4.315,0,0,0,2.352.259,3.122,3.122,0,0,0,1.454-.65,1.923,1.923,0,0,0,.3-.308c.061-.079.089-.122.082-.127s-.15.145-.446.358a3.241,3.241,0,0,1-1.424.553,4.259,4.259,0,0,1-2.239-.3,9.852,9.852,0,0,1-2.4-1.491l-.133-.106-.065.164c-.014.035-.029.074-.044.112a2.073,2.073,0,0,1-1.042.928c-.428.2-.877.363-1.293.516a4.222,4.222,0,0,1-2.279.291,2.225,2.225,0,0,1-1.305-.789,3.627,3.627,0,0,1-.284-.5" transform="translate(-23.63 -76.277)" fill="#455a64"/>
          <path id="Trazado_741688" data-name="Trazado 741688" d="M73.668,237.155c-.014-.909-1.092-3.038-1.991-3.167-2.4-.342-6.72-.094-6.682,5.994.053,8.322,8.4,6.553,8.411,6.314.01-.187.31-6,.262-9.141" transform="translate(-24.408 -87.835)" fill="#ffc09d"/>
          <path id="Trazado_741689" data-name="Trazado 741689" d="M72.51,244.957c-.037-.026-.144.1-.388.216a1.451,1.451,0,0,1-1.084.029c-.881-.317-1.63-1.708-1.68-3.208a4.786,4.786,0,0,1,.392-2.079,1.674,1.674,0,0,1,1.084-1.119.738.738,0,0,1,.858.391c.113.232.061.4.1.413.024.021.178-.14.109-.483a.924.924,0,0,0-.331-.52,1.092,1.092,0,0,0-.8-.207,2.038,2.038,0,0,0-1.506,1.3,4.926,4.926,0,0,0-.488,2.322c.064,1.677.932,3.24,2.138,3.581a1.553,1.553,0,0,0,1.324-.229c.256-.206.3-.393.27-.408" transform="translate(-25.827 -89.522)" fill="#ff9b6c"/>
          <g id="Grupo_1035605" data-name="Grupo 1035605" transform="translate(57.433 135.964)" opacity="0.3">
            <g id="Grupo_1035604" data-name="Grupo 1035604">
              <g id="Grupo_1035603" data-name="Grupo 1035603" clip-path="url(#clip-path-12)">
                <path id="Trazado_741690" data-name="Trazado 741690" d="M106.032,224.76A7.03,7.03,0,1,1,99,217.73a7.03,7.03,0,0,1,7.03,7.03" transform="translate(-91.972 -217.729)" fill="#fff"/>
              </g>
            </g>
          </g>
          <g id="Grupo_1035608" data-name="Grupo 1035608" transform="translate(74.438 135.964)" opacity="0.3">
            <g id="Grupo_1035607" data-name="Grupo 1035607">
              <g id="Grupo_1035606" data-name="Grupo 1035606" clip-path="url(#clip-path-12)">
                <path id="Trazado_741691" data-name="Trazado 741691" d="M133.264,224.76a7.03,7.03,0,1,1-7.03-7.03,7.03,7.03,0,0,1,7.03,7.03" transform="translate(-119.204 -217.729)" fill="#fff"/>
              </g>
            </g>
          </g>
          <path id="Trazado_741692" data-name="Trazado 741692" d="M117.206,226.987a5.809,5.809,0,0,0-1.372-.235,5.793,5.793,0,0,0-1.339.377c-.029-.029.061-.183.288-.351a2.011,2.011,0,0,1,2.1-.11c.244.143.349.287.324.318" transform="translate(-42.995 -85.031)" fill="#455a64"/>
          <path id="Trazado_741693" data-name="Trazado 741693" d="M86.383,228.086a7.492,7.492,0,0,1-1.423.657c-.894.368-2.136.854-3.514,1.372s-2.635.97-3.549,1.282a4.753,4.753,0,0,1-1.122.292c-.278.022-.43-.019-.428-.038a2.26,2.26,0,0,1,.408-.087,6.783,6.783,0,0,0,1.06-.382c.894-.367,2.136-.854,3.515-1.372s2.635-.97,3.548-1.282a7.51,7.51,0,0,1,1.5-.442" transform="translate(-28.672 -85.653)" fill="#455a64"/>
          <path id="Trazado_741694" data-name="Trazado 741694" d="M258.144,388.965a5.871,5.871,0,0,1,.594,2.485,29.214,29.214,0,0,0,.347,3.3l.237,5.482a2.454,2.454,0,0,1-4.52.264c-.3.768-.224,1.226-.884,1.719a2.622,2.622,0,0,1-2.333.459,1.878,1.878,0,0,1-1.3-1.878,3.05,3.05,0,0,1-5.13-.16,3.187,3.187,0,0,1-.415-1.055,1.253,1.253,0,0,1-.054-.429.519.519,0,0,1,.077-.183c.159-.265.362-.5.5-.774.054-.1.1-.211.15-.32a5.758,5.758,0,0,0,.4-1.551,5.208,5.208,0,0,1,.074-.754,2.846,2.846,0,0,1,.232-.434,7.592,7.592,0,0,0,.44-3.106,5.983,5.983,0,0,1,.752-3.313,2.208,2.208,0,0,1,2.984-.753,1.5,1.5,0,0,1,1.21-1.58,2.172,2.172,0,0,1,1.968.726,4.038,4.038,0,0,1,.9,1.969,1.661,1.661,0,0,1,1.736-1.517,2.558,2.558,0,0,1,2.031,1.4" transform="translate(-91.885 -145.091)" fill="#ffc09d"/>
          <path id="Trazado_741695" data-name="Trazado 741695" d="M238.487,404.282a2.463,2.463,0,0,1-1.916-.751,4.033,4.033,0,0,1-.468-2.735c.99-.134,1.5-.144,2.49-.278.209-.028.378.033.556-.08.469-.3.452-1.383.662-1.9a1.89,1.89,0,0,1,2.436-.894,2.537,2.537,0,0,1,1.411,2.336,3.918,3.918,0,0,1-1.135,2.585,5.472,5.472,0,0,1-4.037,1.715" transform="translate(-88.648 -149.276)" fill="#ffc09d"/>
          <path id="Trazado_741696" data-name="Trazado 741696" d="M253.455,402.06c.184,0,.337-2.935.342-6.555s-.141-6.556-.326-6.556-.337,2.934-.341,6.556.141,6.556.325,6.556" transform="translate(-95.06 -146.065)" fill="#ff9b6c"/>
          <path id="Trazado_741697" data-name="Trazado 741697" d="M260.639,402.2c.175.018.555-2.643.438-5.942s-.663-5.929-.837-5.9c-.19.028.066,2.666.17,5.923s.037,5.9.228,5.92" transform="translate(-97.705 -146.595)" fill="#ff9b6c"/>
          <path id="Trazado_741698" data-name="Trazado 741698" d="M267.638,402.846c.187.009.382-2.208.177-4.919s-.5-4.873-.679-4.865c-.193.008-.188,2.218.014,4.911s.307,4.865.488,4.873" transform="translate(-100.267 -147.61)" fill="#ff9b6c"/>
          <path id="Trazado_741699" data-name="Trazado 741699" d="M242.252,404.282c-.009.079.461.209,1.155-.066a3.69,3.69,0,0,0,1.914-2.014,7.407,7.407,0,0,0,.589-2.676c-.038-.817-.615-1.084-.634-.98-.056.072.249.369.164.969a13.279,13.279,0,0,1-.729,2.419A4,4,0,0,1,243.2,403.8c-.53.333-.947.385-.944.487" transform="translate(-90.975 -149.661)" fill="#ff9b6c"/>
          <path id="Trazado_741700" data-name="Trazado 741700" d="M331.286,188.619a5.888,5.888,0,0,0,.595-2.485,29.222,29.222,0,0,1,.347-3.3l.237-5.482a2.454,2.454,0,0,0-4.519-.264c-.3-.768-.224-1.226-.884-1.719a2.623,2.623,0,0,0-2.333-.459,1.878,1.878,0,0,0-1.3,1.878A3.09,3.09,0,0,0,317.879,178a1.253,1.253,0,0,0-.054.429.512.512,0,0,0,.077.184c.159.265.361.5.5.774.054.1.1.212.15.32a5.788,5.788,0,0,1,.4,1.551,5.2,5.2,0,0,0,.074.754,2.839,2.839,0,0,0,.232.434,7.593,7.593,0,0,1,.44,3.106,5.983,5.983,0,0,0,.752,3.313,2.208,2.208,0,0,0,2.984.752,1.5,1.5,0,0,0,1.21,1.58,2.173,2.173,0,0,0,1.968-.726,4.043,4.043,0,0,0,.9-1.97,1.66,1.66,0,0,0,1.736,1.517,2.558,2.558,0,0,0,2.031-1.4" transform="translate(-119.353 -65.643)" fill="#ffc09d"/>
          <path id="Trazado_741701" data-name="Trazado 741701" d="M311.629,179.1a2.463,2.463,0,0,0-1.916.751,4.037,4.037,0,0,0-.468,2.735c.99.134,1.5.144,2.49.278.209.028.378-.033.556.08.469.3.452,1.383.662,1.9a1.889,1.889,0,0,0,2.435.894A2.536,2.536,0,0,0,316.8,183.4a3.918,3.918,0,0,0-1.135-2.585,5.472,5.472,0,0,0-4.037-1.715" transform="translate(-116.116 -67.26)" fill="#ffc09d"/>
          <path id="Trazado_741702" data-name="Trazado 741702" d="M326.6,177.52c.184,0,.337,2.935.342,6.555s-.142,6.556-.325,6.556-.337-2.934-.342-6.556.141-6.556.325-6.556" transform="translate(-122.527 -66.665)" fill="#ff9b6c"/>
          <path id="Trazado_741703" data-name="Trazado 741703" d="M333.78,178.139c.175-.018.555,2.643.438,5.942s-.663,5.929-.837,5.9c-.19-.028.066-2.666.171-5.923s.037-5.9.228-5.92" transform="translate(-125.172 -66.898)" fill="#ff9b6c"/>
          <path id="Trazado_741704" data-name="Trazado 741704" d="M340.779,178.735c.187-.009.382,2.208.177,4.919s-.5,4.873-.679,4.865c-.194-.008-.188-2.218.014-4.911s.307-4.865.488-4.873" transform="translate(-127.734 -67.122)" fill="#ff9b6c"/>
          <path id="Trazado_741705" data-name="Trazado 741705" d="M315.393,179.66c-.009-.079.461-.209,1.155.066a3.688,3.688,0,0,1,1.913,2.015,7.4,7.4,0,0,1,.59,2.676c-.038.817-.615,1.084-.634.98-.056-.072.249-.369.163-.969a13.223,13.223,0,0,0-.728-2.419,4.006,4.006,0,0,0-1.515-1.862c-.53-.333-.947-.385-.944-.486" transform="translate(-118.442 -67.431)" fill="#ff9b6c"/>
        </g>
      </g>
      <g id="Grupo_1035615" data-name="Grupo 1035615">
        <g id="Grupo_1035614" data-name="Grupo 1035614" clip-path="url(#clip-path)">
          <path id="Trazado_741706" data-name="Trazado 741706" d="M601.622,210.266a28.5,28.5,0,0,0-21.014-12.9c-4.987-.528-7.147.325-10.83.975a15.825,15.825,0,0,0-9.518,5.145c-2.871,3.39-5.374,7.25-6.248,11.606a38.134,38.134,0,0,0-.412,12.646,50.227,50.227,0,0,0,5.424,15.469l7.583,1.614c6.35.785,12.789,1.569,19.124.669s12.662-3.7,16.47-8.843c5.29-7.144,4.417-19.024-.579-26.377" transform="translate(-207.768 -74.055)" fill="#263238"/>
          <path id="Trazado_741707" data-name="Trazado 741707" d="M592.169,212.04l-14.83-7.482-4.058.109c-9.041-.774-16.162,8.638-16.874,15.953-.791,8.126-1.436,18.079-.678,24.189,1.524,12.284,11.721,14.2,11.721,14.2s-.783,6.4-1.221,10.444l23.691.4,5.945-53.326a4.3,4.3,0,0,0-3.7-4.49" transform="translate(-208.57 -76.819)" fill="#ffc9bb"/>
          <path id="Trazado_741708" data-name="Trazado 741708" d="M581.952,265.6a2.576,2.576,0,0,0-.746-1.662,2.632,2.632,0,0,0-3.165-.465,3.528,3.528,0,0,0-1.628,3.178,3.2,3.2,0,0,0,2.167,1.529,3.767,3.767,0,0,0,.428.052,2.878,2.878,0,0,0,2-.593,2.567,2.567,0,0,0,.944-2.039" transform="translate(-216.463 -98.818)" fill="#f2a191"/>
          <path id="Trazado_741709" data-name="Trazado 741709" d="M560.787,247.033a1.568,1.568,0,0,0,1.458,1.632,1.5,1.5,0,0,0,1.663-1.358,1.568,1.568,0,0,0-1.455-1.633,1.5,1.5,0,0,0-1.665,1.358" transform="translate(-210.595 -92.258)" fill="#263238"/>
          <path id="Trazado_741710" data-name="Trazado 741710" d="M560.835,236.253c.187.211,1.4-.627,3.09-.565,1.685.037,2.893.947,3.083.747.094-.088-.092-.464-.618-.874a4.3,4.3,0,0,0-2.459-.851,4.133,4.133,0,0,0-2.469.705c-.531.38-.72.744-.628.839" transform="translate(-210.606 -88.141)" fill="#263238"/>
          <path id="Trazado_741711" data-name="Trazado 741711" d="M573.679,251.362a11.186,11.186,0,0,0-2.721-.588c-.429-.059-.834-.159-.9-.455a2.188,2.188,0,0,1,.331-1.266q.66-1.543,1.385-3.236c1.927-4.607,3.338-8.4,3.152-8.478s-1.9,3.6-3.827,8.205q-.7,1.7-1.332,3.257a2.487,2.487,0,0,0-.281,1.682,1.083,1.083,0,0,0,.686.654,2.954,2.954,0,0,0,.728.127,10.984,10.984,0,0,0,2.776.1" transform="translate(-213.84 -89.129)" fill="#263238"/>
          <path id="Trazado_741712" data-name="Trazado 741712" d="M574.476,289.446a31.106,31.106,0,0,0,16.513-3.807s-4.648,8.321-16.838,6.761Z" transform="translate(-215.615 -107.268)" fill="#f2a191"/>
          <path id="Trazado_741713" data-name="Trazado 741713" d="M560.82,228.092c.269.421,1.57.19,3.074.367,1.51.129,2.741.616,3.085.257.154-.176,0-.583-.506-1.015a4.794,4.794,0,0,0-4.963-.5c-.582.322-.807.69-.691.894" transform="translate(-210.598 -85.145)" fill="#263238"/>
          <path id="Trazado_741714" data-name="Trazado 741714" d="M586.623,248.96A1.568,1.568,0,0,1,585,250.43a1.5,1.5,0,0,1-1.511-1.526,1.568,1.568,0,0,1,1.619-1.471,1.5,1.5,0,0,1,1.513,1.526" transform="translate(-219.122 -92.921)" fill="#263238"/>
          <path id="Trazado_741715" data-name="Trazado 741715" d="M593.593,238.257c-.209.19-1.331-.771-3.014-.888-1.68-.14-2.977.638-3.145.418-.083-.1.141-.451.706-.8a4.307,4.307,0,0,1,2.535-.587,4.137,4.137,0,0,1,2.381.961c.489.435.638.816.536.9" transform="translate(-220.598 -88.771)" fill="#263238"/>
          <path id="Trazado_741716" data-name="Trazado 741716" d="M589.9,228.7c-.353.364-1.631-.1-3.192-.208-1.559-.153-2.9.1-3.183-.317-.123-.2.107-.573.7-.9a4.827,4.827,0,0,1,2.631-.485,4.768,4.768,0,0,1,2.506.909c.531.423.691.827.534,1.006" transform="translate(-219.122 -85.16)" fill="#263238"/>
          <path id="Trazado_741717" data-name="Trazado 741717" d="M613.922,254.228c.033-.91,1.158-3.019,2.062-3.129,2.412-.292,6.73.047,6.564,6.144-.23,8.333-8.548,6.384-8.556,6.145-.006-.187-.184-6.017-.069-9.159" transform="translate(-230.536 -94.27)" fill="#ffc9bb"/>
          <path id="Trazado_741718" data-name="Trazado 741718" d="M617.866,262.107c.038-.026.142.105.385.225a1.453,1.453,0,0,0,1.085.052c.889-.3,1.668-1.675,1.75-3.177a4.8,4.8,0,0,0-.349-2.09,1.676,1.676,0,0,0-1.062-1.143.739.739,0,0,0-.867.373c-.119.23-.07.4-.114.412-.024.02-.175-.145-.1-.486a.929.929,0,0,1,.343-.514,1.1,1.1,0,0,1,.808-.19,2.042,2.042,0,0,1,1.481,1.334,4.928,4.928,0,0,1,.439,2.336c-.1,1.678-1,3.225-2.216,3.541a1.557,1.557,0,0,1-1.322-.258c-.252-.212-.291-.4-.262-.414" transform="translate(-232.029 -95.971)" fill="#f2a191"/>
          <path id="Trazado_741719" data-name="Trazado 741719" d="M602.073,232.9l-2.3,2c-13.264-8.725-26.751-32.473-23.268-31.5a26.582,26.582,0,0,1,13.116-.252c6.658,1.754,19.18,6.281,18.273,14.238s-5.821,15.52-5.821,15.52" transform="translate(-216.29 -76.017)" fill="#263238"/>
          <path id="Trazado_741720" data-name="Trazado 741720" d="M620.949,197.146c-3.229,1.887-6.106,7.389-4.785,10.889a10.971,10.971,0,0,0,14.02,12.261,10.554,10.554,0,0,0,5.947-4.586,12.693,12.693,0,0,0,1.3-8.816,14.04,14.04,0,0,0-5.837-9.224,10.372,10.372,0,0,0-10.643-.525" transform="translate(-231.269 -73.574)" fill="#263238"/>
          <path id="Trazado_741721" data-name="Trazado 741721" d="M608.371,233.49a7.968,7.968,0,0,1-1.518-.656c-.957-.465-2.324-1.173-3.976-2.118a60.141,60.141,0,0,1-11.95-8.836,39.953,39.953,0,0,1-8.646-12.074,28.814,28.814,0,0,1-1.544-4.244,7.2,7.2,0,0,1-.336-1.621c.119-.036.639,2.274,2.284,5.676a42.63,42.63,0,0,0,8.682,11.811,67.334,67.334,0,0,0,11.738,8.9c1.615.989,2.944,1.755,3.864,2.284a8.646,8.646,0,0,1,1.4.874" transform="translate(-217.959 -76.587)" fill="#455a64"/>
          <path id="Trazado_741722" data-name="Trazado 741722" d="M629.176,227.1c-.114,0-.163-1.552-.628-4a31.577,31.577,0,0,0-9.105-16.809c-1.8-1.727-3.072-2.618-3.006-2.711a3.644,3.644,0,0,1,.951.548,20.408,20.408,0,0,1,2.359,1.835,28.69,28.69,0,0,1,9.241,17.062,20.32,20.32,0,0,1,.249,2.978,3.659,3.659,0,0,1-.061,1.1" transform="translate(-231.494 -76.45)" fill="#455a64"/>
          <path id="Trazado_741723" data-name="Trazado 741723" d="M618.912,270.317a3.121,3.121,0,1,1-3.121-3.121,3.121,3.121,0,0,1,3.121,3.121" transform="translate(-230.081 -100.342)" fill="#263238"/>
          <path id="Trazado_741724" data-name="Trazado 741724" d="M575.609,266.258c.034-.295,1.983.044,3.659-1.379s1.828-3.534,2.1-3.5c.127-.006.3.529.166,1.41a4.924,4.924,0,0,1-1.644,2.942,4.287,4.287,0,0,1-3.047,1.031c-.828-.069-1.272-.371-1.237-.5" transform="translate(-216.162 -98.157)" fill="#263238"/>
          <path id="Trazado_741725" data-name="Trazado 741725" d="M571.828,301.292s8.714,4.5,7.947,18.86c-.785,14.692-18.987,59.366-18.987,59.366H516.1l-9.815.408,22.935-64.044,19.732-19.3Z" transform="translate(-190.13 -111.377)" fill="#6bcfc6"/>
          <g id="Grupo_1035613" data-name="Grupo 1035613" transform="translate(323.532 228.816)" opacity="0.3">
            <g id="Grupo_1035612" data-name="Grupo 1035612">
              <g id="Grupo_1035611" data-name="Grupo 1035611" clip-path="url(#clip-path-15)">
                <path id="Trazado_741726" data-name="Trazado 741726" d="M518.1,403.575s5.187.214,12.748-8.273,9.076-11.813,9.076-11.813l6.734,1.628,7.856-18.7-14.59,5.066Z" transform="translate(-518.096 -366.421)"/>
              </g>
            </g>
          </g>
          <path id="Trazado_741727" data-name="Trazado 741727" d="M512.96,341.047s15.6-29.261,20.441-36.625c4.4-6.7,12.108-11.16,20.083-7.116,6.84,3.468,11.251,13.406,6.212,26.289-5.273,13.485-15.435,32.2-15.435,32.2Z" transform="translate(-192.636 -111.071)" fill="#6bcfc6"/>
          <path id="Trazado_741728" data-name="Trazado 741728" d="M492.022,371.856l-10.575,16.816L446.094,389.7l-1.065,11.672s38.466,7.979,45.627,4.248c7.885-4.107,19.534-25.4,19.534-25.4Z" transform="translate(-167.125 -139.646)" fill="#ffc9bb"/>
          <path id="Trazado_741729" data-name="Trazado 741729" d="M437.737,395.025s-3.438-6.866-9.672-5.645c0,0-8.638-8.18-10.553-5.016-1.382,2.284,1.231,3.353,3.646,6.53a55.911,55.911,0,0,1,4.474,7.216l8.683,1.414Z" transform="translate(-156.647 -144.07)" fill="#ffc9bb"/>
          <path id="Trazado_741730" data-name="Trazado 741730" d="M397.921,402.258s13.007,7.58,15.265,7.69,15.573,2.523,15.573,2.523l1.122-12.282-31.959,1.241" transform="translate(-149.434 -150.286)" fill="#ffc9bb"/>
          <path id="Trazado_741731" data-name="Trazado 741731" d="M582.327,330.433a1.326,1.326,0,0,1,.084-.327l.3-.917,1.161-3.352c.487-1.415,1.078-3.1,1.632-4.993a27.373,27.373,0,0,0,1.183-6.279,21.4,21.4,0,0,0-.625-6.337,12.385,12.385,0,0,0-2.389-4.582c-.94-1.154-1.814-2-2.394-2.6l-.669-.7a1.331,1.331,0,0,1-.218-.258,1.309,1.309,0,0,1,.264.211l.712.651a29.987,29.987,0,0,1,2.483,2.545,12.352,12.352,0,0,1,2.5,4.647,21.142,21.142,0,0,1,.661,6.435,26.8,26.8,0,0,1-1.22,6.348c-.573,1.9-1.187,3.579-1.7,4.985s-.953,2.538-1.258,3.318l-.359.9a1.321,1.321,0,0,1-.146.3" transform="translate(-217.959 -112.696)" fill="#263238"/>
        </g>
      </g>
    </g>
  </g>
</svg>
