<svg xmlns="http://www.w3.org/2000/svg" xmlns:xlink="http://www.w3.org/1999/xlink" width="156.465" height="156.465" viewBox="0 0 156.465 156.465">
  <defs>
    <clipPath id="clip-path">
      <circle id="Elipse_5632" data-name="Elipse 5632" cx="78.233" cy="78.233" r="78.233" fill="#7e5ee3"/>
    </clipPath>
    <clipPath id="clip-path-2">
      <rect id="Rectángulo_351451" data-name="Rectángulo 351451" width="141.636" height="139.749" fill="#ff9d00"/>
    </clipPath>
    <clipPath id="clip-path-3">
      <path id="Trazado_741202" data-name="Trazado 741202" d="M339.037,146.545c.5,1.825-3.35,76.645-4.381,96.466a5.141,5.141,0,0,0,4.993,5.174L380,251.241a2.927,2.927,0,0,0,2.106-.663,2.4,2.4,0,0,0,.877-1.862L381.576,144.7Z" transform="translate(-334.65 -144.704)" fill="#dee4f0"/>
    </clipPath>
    <clipPath id="clip-path-4">
      <rect id="Rectángulo_351383" data-name="Rectángulo 351383" width="141.637" height="139.749" fill="none"/>
    </clipPath>
    <clipPath id="clip-path-5">
      <path id="Trazado_741204" data-name="Trazado 741204" d="M687.2,62.205l-1.034,1.22-1.539,104.452,15.686-3.453h.133l9.036-3.329a2.445,2.445,0,0,0,1.671-2.254l-.1-94.52-.151.116L698.176,48.95Z" transform="translate(-684.631 -48.95)" fill="#dee4f0"/>
    </clipPath>
    <clipPath id="clip-path-6">
      <path id="Trazado_741205" data-name="Trazado 741205" d="M506.679,1.081a3.757,3.757,0,0,0-1.1,2.712v2.2l36.753.342.162-.443a3.2,3.2,0,0,0-.375-3.5A6.329,6.329,0,0,0,537.555.625C528.162.442,518.769.209,509.376,0h-.084a3.706,3.706,0,0,0-2.614,1.082" transform="translate(-505.577 0.001)" fill="#afafaf"/>
    </clipPath>
    <clipPath id="clip-path-8">
      <path id="Trazado_741207" data-name="Trazado 741207" d="M115.025,742.7c-10.72,0-12.713,12.943-4.867,18.718,4.761,3.5,11.88,3.2,17.443,2.635,5.185-.526,10.288-5.111,11.655-10.024,1.77-6.36-3.529-11.329-9.83-11.329Z" transform="translate(-105.393 -742.704)" fill="#15d3ec"/>
    </clipPath>
    <clipPath id="clip-path-10">
      <path id="Trazado_741209" data-name="Trazado 741209" d="M46.057,716.007a.315.315,0,0,0-.313.316l.182,33.586a.315.315,0,0,0,.315.313h0a.314.314,0,0,0,.313-.316l-.182-33.585a.315.315,0,0,0-.315-.313Z" transform="translate(-45.744 -716.007)" fill="none"/>
    </clipPath>
    <linearGradient id="linear-gradient" x1="-7.272" y1="1.377" x2="-7.113" y2="1.377" gradientUnits="objectBoundingBox">
      <stop offset="0" stop-color="#dae3fe"/>
      <stop offset="1" stop-color="#e9effd"/>
    </linearGradient>
    <clipPath id="clip-path-11">
      <path id="Trazado_741210" data-name="Trazado 741210" d="M.2,607.892c0,3.519,12.917,6.372,28.851,6.372S57.9,611.411,57.9,607.892s-12.917-6.372-28.851-6.372S.2,604.373.2,607.892" transform="translate(-0.201 -601.52)" fill="#6bcfc6"/>
    </clipPath>
    <clipPath id="clip-path-12">
      <path id="Trazado_741211" data-name="Trazado 741211" d="M0,612.656s54.488,2.927,56.669,1.7,1.047-7.052,1.047-7.052L0,606.992Z" transform="translate(0 -606.992)" fill="#6bcfc6"/>
    </clipPath>
    <clipPath id="clip-path-13">
      <path id="Trazado_741212" data-name="Trazado 741212" d="M.2,564.12c0,3.519,12.917,6.372,28.851,6.372S57.9,567.639,57.9,564.12s-12.917-6.372-28.851-6.372S.2,560.6.2,564.12" transform="translate(-0.201 -557.748)" fill="#15d3ec"/>
    </clipPath>
    <clipPath id="clip-path-15">
      <rect id="Rectángulo_351393" data-name="Rectángulo 351393" width="44.015" height="8.614" fill="#fff"/>
    </clipPath>
    <clipPath id="clip-path-16">
      <rect id="Rectángulo_351396" data-name="Rectángulo 351396" width="9.179" height="3.107" fill="none"/>
    </clipPath>
    <linearGradient id="linear-gradient-2" x1="-9.495" y1="13.158" x2="-9.454" y2="13.158" gradientUnits="objectBoundingBox">
      <stop offset="0" stop-color="#fe7062"/>
      <stop offset="1" stop-color="#ff928e"/>
    </linearGradient>
    <clipPath id="clip-path-18">
      <path id="Trazado_741215" data-name="Trazado 741215" d="M193.843,129.217a.949.949,0,0,0-.947.889l-.3,4.739a.949.949,0,0,0,.947,1.009h11.333a.949.949,0,0,0,.947-1l-.252-4.739a.949.949,0,0,0-.948-.9Z" transform="translate(-192.592 -129.217)" fill="#ff9d00"/>
    </clipPath>
    <clipPath id="clip-path-19">
      <path id="Trazado_741216" data-name="Trazado 741216" d="M212.078,41.739l-4.9.272a2.159,2.159,0,0,0-2.038,2.072q-.2,5.205-.408,10.411a2.286,2.286,0,0,1-.057.415c-.473,2.078.152,2.963.363,3.218,1.226,1.484,4.707,1.361,8.624-.91a2.163,2.163,0,0,0,1.077-1.943q-.193-5.726-.387-11.451a2.16,2.16,0,0,0-2.156-2.087c-.04,0-.081,0-.122,0" transform="translate(-204.506 -41.736)" fill="#ff9d00"/>
    </clipPath>
    <clipPath id="clip-path-20">
      <rect id="Rectángulo_351401" data-name="Rectángulo 351401" width="0.635" height="5.084" rx="0.318" fill="none"/>
    </clipPath>
    <linearGradient id="linear-gradient-3" x1="-4.686" y1="181.254" x2="-4.661" y2="181.254" gradientUnits="objectBoundingBox">
      <stop offset="0" stop-color="#e1473d"/>
      <stop offset="1" stop-color="#e9605a"/>
    </linearGradient>
    <linearGradient id="linear-gradient-4" x1="-4.978" y1="181.253" x2="-4.952" y2="181.253" xlink:href="#linear-gradient-3"/>
    <linearGradient id="linear-gradient-5" x1="-5.269" y1="181.253" x2="-5.244" y2="181.253" xlink:href="#linear-gradient-3"/>
    <linearGradient id="linear-gradient-6" x1="-5.561" y1="181.253" x2="-5.535" y2="181.253" xlink:href="#linear-gradient-3"/>
    <linearGradient id="linear-gradient-7" x1="-5.852" y1="181.253" x2="-5.827" y2="181.253" xlink:href="#linear-gradient-3"/>
    <linearGradient id="linear-gradient-8" x1="-6.144" y1="181.252" x2="-6.118" y2="181.252" xlink:href="#linear-gradient-3"/>
    <clipPath id="clip-path-26">
      <path id="Rectángulo_351413" data-name="Rectángulo 351413" d="M.318,0h0A.318.318,0,0,1,.635.318V4.766a.318.318,0,0,1-.318.318h0A.318.318,0,0,1,0,4.766V.318A.318.318,0,0,1,.318,0Z" fill="none"/>
    </clipPath>
    <linearGradient id="linear-gradient-9" x1="-6.435" y1="181.289" x2="-6.41" y2="181.289" xlink:href="#linear-gradient-3"/>
    <clipPath id="clip-path-27">
      <rect id="Rectángulo_351415" data-name="Rectángulo 351415" width="0.636" height="5.084" rx="0.318" fill="none"/>
    </clipPath>
    <linearGradient id="linear-gradient-10" x1="-6.727" y1="181.218" x2="-6.701" y2="181.218" xlink:href="#linear-gradient-3"/>
    <clipPath id="clip-path-28">
      <path id="Trazado_741217" data-name="Trazado 741217" d="M138.766,345.987a50.879,50.879,0,0,0-3.309,20.335,4.649,4.649,0,0,0,4.648,4.408h20.275a4.654,4.654,0,0,0,4.567-3.757l1.691-8.614a4.653,4.653,0,0,0-1.71-4.57c-3.965-3.083-12.575-9.127-20.939-10.706a4.713,4.713,0,0,0-.872-.082,4.655,4.655,0,0,0-4.35,2.986" transform="translate(-135.399 -343.001)" fill="#15d3ec"/>
    </clipPath>
    <clipPath id="clip-path-30">
      <rect id="Rectángulo_351426" data-name="Rectángulo 351426" width="3.916" height="4.633" fill="none"/>
    </clipPath>
    <clipPath id="clip-path-31">
      <rect id="Rectángulo_351427" data-name="Rectángulo 351427" width="6.058" height="1.5" fill="none"/>
    </clipPath>
    <clipPath id="clip-path-32">
      <rect id="Rectángulo_351429" data-name="Rectángulo 351429" width="31.571" height="45.867" fill="none"/>
    </clipPath>
    <clipPath id="clip-path-33">
      <path id="Trazado_741233" data-name="Trazado 741233" d="M479,212.93a1.16,1.16,0,0,0-.909.868l-2.7,10.488a4.822,4.822,0,0,1-3.014,3.326L462.2,231.332a1.19,1.19,0,0,0-.23,2.123l9.139,5.812a4.823,4.823,0,0,1,2.232,3.895l.394,10.824a1.141,1.141,0,0,0,.443.887,1.225,1.225,0,0,0,.992.242,1.184,1.184,0,0,0,.513-.254l8.352-6.9a4.824,4.824,0,0,1,4.394-.919l2.331.665.384-24-.188.012a4.822,4.822,0,0,1-4.095-1.839l-6.681-8.525a1.136,1.136,0,0,0-.922-.457,1.277,1.277,0,0,0-.259.026" transform="translate(-461.419 -212.904)" fill="#ff9d00"/>
    </clipPath>
    <clipPath id="clip-path-35">
      <rect id="Rectángulo_351432" data-name="Rectángulo 351432" width="6.22" height="5.058" fill="none"/>
    </clipPath>
    <clipPath id="clip-path-36">
      <rect id="Rectángulo_351433" data-name="Rectángulo 351433" width="7.712" height="2.987" fill="none"/>
    </clipPath>
    <clipPath id="clip-path-37">
      <rect id="Rectángulo_351434" data-name="Rectángulo 351434" width="24.565" height="14.616" fill="none"/>
    </clipPath>
    <clipPath id="clip-path-38">
      <rect id="Rectángulo_351435" data-name="Rectángulo 351435" width="25.998" height="26.123" fill="none"/>
    </clipPath>
    <clipPath id="clip-path-39">
      <path id="Trazado_741238" data-name="Trazado 741238" d="M113.014,791.955l-3.662,4.99a2.756,2.756,0,0,1-2.306,1.125l-6.187-.187a.68.68,0,0,0-.573,1.078l3.615,5.024a2.756,2.756,0,0,1,.357,2.54l-2.09,5.826a.652.652,0,0,0,.046.564.7.7,0,0,0,.475.339.679.679,0,0,0,.326-.026l5.9-1.886a2.757,2.757,0,0,1,2.527.446l4.9,3.788a.676.676,0,0,0,.3.136.7.7,0,0,0,.562-.156.652.652,0,0,0,.237-.514l.029-6.19a2.756,2.756,0,0,1,1.2-2.265l5.115-3.485a.681.681,0,0,0-.17-1.208l-5.878-1.94a2.756,2.756,0,0,1-1.782-1.845l-1.734-5.942a.663.663,0,0,0-.535-.479.715.715,0,0,0-.125-.011.65.65,0,0,0-.542.279" transform="translate(-100.155 -791.676)" fill="#ff9d00"/>
    </clipPath>
    <clipPath id="clip-path-41">
      <rect id="Rectángulo_351438" data-name="Rectángulo 351438" width="2.364" height="3.911" fill="none"/>
    </clipPath>
    <clipPath id="clip-path-42">
      <rect id="Rectángulo_351439" data-name="Rectángulo 351439" width="4.579" height="1.105" fill="none"/>
    </clipPath>
    <clipPath id="clip-path-43">
      <rect id="Rectángulo_351440" data-name="Rectángulo 351440" width="18.338" height="18.961" fill="none"/>
    </clipPath>
    <clipPath id="clip-path-44">
      <path id="Trazado_741243" data-name="Trazado 741243" d="M195.486,358.132a.572.572,0,0,0-.47.4l-1.6,5.093a2.376,2.376,0,0,1-1.568,1.56l-5.1,1.571a.587.587,0,0,0-.167,1.039l4.35,3.093a2.377,2.377,0,0,1,1,1.974l-.082,5.336a.563.563,0,0,0,.2.448.606.606,0,0,0,.482.144.587.587,0,0,0,.259-.112l4.286-3.181a2.377,2.377,0,0,1,2.186-.341l5.05,1.727a.584.584,0,0,0,.281.028.6.6,0,0,0,.415-.284.563.563,0,0,0,.05-.486l-1.7-5.059a2.376,2.376,0,0,1,.352-2.184l3.2-4.269a.587.587,0,0,0-.475-.939l-5.337.055a2.376,2.376,0,0,1-1.968-1.009l-3.071-4.366a.562.562,0,0,0-.475-.249.632.632,0,0,0-.1.007" transform="translate(-186.335 -358.125)" fill="#ff9d00"/>
    </clipPath>
    <clipPath id="clip-path-46">
      <rect id="Rectángulo_351443" data-name="Rectángulo 351443" width="2.947" height="2.634" fill="none"/>
    </clipPath>
    <clipPath id="clip-path-47">
      <rect id="Rectángulo_351444" data-name="Rectángulo 351444" width="3.851" height="1.339" fill="none"/>
    </clipPath>
    <clipPath id="clip-path-48">
      <rect id="Rectángulo_351445" data-name="Rectángulo 351445" width="16.098" height="14.946" fill="none"/>
    </clipPath>
    <clipPath id="clip-path-49">
      <rect id="Rectángulo_351446" data-name="Rectángulo 351446" width="14.403" height="30.645" fill="none"/>
    </clipPath>
    <clipPath id="clip-path-50">
      <path id="Trazado_741248" data-name="Trazado 741248" d="M699.794,291.376l-10.81.67c-.031,0-.062,0-.093,0l-.382,23.9,8.364,2.385a1.184,1.184,0,0,0,.572.027,1.227,1.227,0,0,0,.812-.62,1.142,1.142,0,0,0,.05-.99l-3.978-10.074a4.822,4.822,0,0,1,.484-4.463l6.043-8.988a1.191,1.191,0,0,0-.976-1.855l-.086,0" transform="translate(-688.508 -291.373)" fill="#ff9d00"/>
    </clipPath>
    <clipPath id="clip-path-52">
      <rect id="Rectángulo_351449" data-name="Rectángulo 351449" width="8.186" height="22.272" fill="none"/>
    </clipPath>
  </defs>
  <g id="Grupo_73269" data-name="Grupo 73269" transform="translate(-1687.597 -138.774)">
    <circle id="Elipse_4525" data-name="Elipse 4525" cx="78.233" cy="78.233" r="78.233" transform="translate(1687.597 138.774)" fill="#7e5ee3"/>
    <g id="Grupo_73267" data-name="Grupo 73267" transform="translate(1736.073 263.787)">
      <path id="Trazado_145440" data-name="Trazado 145440" d="M1846.807,556.386a.429.429,0,1,0-.5-.338.429.429,0,0,0,.5.338Z" transform="translate(-1846.295 -552.998)" fill="#0f7986"/>
      <path id="Trazado_145441" data-name="Trazado 145441" d="M1888.459,548.1a.429.429,0,1,0-.5-.337A.428.428,0,0,0,1888.459,548.1Z" transform="translate(-1875.183 -547.254)" fill="#0f7986"/>
    </g>
    <g id="Enmascarar_grupo_173128" data-name="Enmascarar grupo 173128" transform="translate(1687.597 138.774)" clip-path="url(#clip-path)">
      <g id="Grupo_1035261" data-name="Grupo 1035261" transform="translate(37.603 31.681)">
        <g id="Grupo_1035260" data-name="Grupo 1035260" transform="translate(-18 -5.915)" clip-path="url(#clip-path-2)">
          <g id="Grupo_1035126" data-name="Grupo 1035126" transform="translate(43.303 18.724)">
            <g id="Grupo_1035125" data-name="Grupo 1035125" clip-path="url(#clip-path-3)">
              <rect id="Rectángulo_351382" data-name="Rectángulo 351382" width="104.173" height="113.666" transform="translate(-52.008 41.068) rotate(-38.368)" fill="#dee4f0"/>
            </g>
          </g>
          <g id="Grupo_1035128" data-name="Grupo 1035128" transform="translate(0 0)">
            <g id="Grupo_1035127" data-name="Grupo 1035127" clip-path="url(#clip-path-4)">
              <path id="Trazado_741203" data-name="Trazado 741203" d="M423,46.772a.547.547,0,0,0-.512-.334h-35.03A5,5,0,0,0,384.24,47.7L368.553,61.251h42.513l11.812-13.8a.682.682,0,0,0,.12-.679" transform="translate(-320.863 -40.429)" fill="#f6f6f6"/>
            </g>
          </g>
          <g id="Grupo_1035130" data-name="Grupo 1035130" transform="translate(88.59 6.334)">
            <g id="Grupo_1035129" data-name="Grupo 1035129" clip-path="url(#clip-path-5)">
              <rect id="Rectángulo_351384" data-name="Rectángulo 351384" width="94.928" height="109.492" transform="translate(-57.986 46.292) rotate(-38.601)" fill="#dee4f0"/>
            </g>
          </g>
          <g id="Grupo_1035132" data-name="Grupo 1035132" transform="translate(65.421 0)">
            <g id="Grupo_1035131" data-name="Grupo 1035131" clip-path="url(#clip-path-6)">
              <rect id="Rectángulo_351385" data-name="Rectángulo 351385" width="38.003" height="14.451" transform="matrix(0.975, -0.22, 0.22, 0.975, -1.362, 0.308)" fill="#afafaf"/>
            </g>
          </g>
          <g id="Grupo_1035134" data-name="Grupo 1035134" transform="translate(0 0)">
            <g id="Grupo_1035133" data-name="Grupo 1035133" clip-path="url(#clip-path-4)">
              <path id="Trazado_741206" data-name="Trazado 741206" d="M14.2,604.257l-.05,45.436a9.359,9.359,0,0,0,6.417,7.69c7.037,2.255,20.52,4.534,40.237-.776,3.423-.922,6.733-3.634,6.733-7.179,0-25.369.385-40.57.385-40.57Z" transform="translate(-12.322 -526.067)" fill="#d2e1f1"/>
            </g>
          </g>
          <g id="Grupo_1035136" data-name="Grupo 1035136" transform="translate(13.638 96.104)">
            <g id="Grupo_1035135" data-name="Grupo 1035135" clip-path="url(#clip-path-8)">
              <rect id="Rectángulo_351387" data-name="Rectángulo 351387" width="38.714" height="22.222" transform="translate(-3.08)" fill="#15d3ec"/>
            </g>
          </g>
          <g id="Grupo_1035138" data-name="Grupo 1035138" transform="translate(0 0)">
            <g id="Grupo_1035137" data-name="Grupo 1035137" clip-path="url(#clip-path-4)">
              <path id="Trazado_741208" data-name="Trazado 741208" d="M138.014,784.01h0c-4.056,0-7.11-.678-9.336-2.21-3.38-2.327-4.92-6.123-3.83-9.627,1.027-3.3,4.068-5.154,8.135-5.154h12.142c3.234,0,6.114,1.184,7.7,3.314a6.137,6.137,0,0,1,.926,5.657c-1.186,3.986-5.637,7.353-10.133,7.78-1.676.159-3.629.24-5.6.24m-5.032-16.361c-3.741,0-6.529,1.738-7.459,4.729-1,3.206.432,6.753,3.556,8.9,2.1,1.448,5.026,2.1,8.934,2.1h0c1.945,0,3.878-.141,5.538-.3,4.229-.4,8.412-3.623,9.521-7.352a5.431,5.431,0,0,0-.815-5.02,8.887,8.887,0,0,0-7.134-3.062Z" transform="translate(-108.391 -667.769)" fill="#91b3fa"/>
            </g>
          </g>
          <g id="Grupo_1035140" data-name="Grupo 1035140" transform="translate(5.919 92.65)">
            <g id="Grupo_1035139" data-name="Grupo 1035139" clip-path="url(#clip-path-10)">
              <rect id="Rectángulo_351389" data-name="Rectángulo 351389" width="0.814" height="34.215" transform="translate(-0.001 0)" fill="url(#linear-gradient)"/>
            </g>
          </g>
          <g id="Grupo_1035142" data-name="Grupo 1035142" transform="translate(0.026 77.835)">
            <g id="Grupo_1035141" data-name="Grupo 1035141" clip-path="url(#clip-path-11)">
              <rect id="Rectángulo_351390" data-name="Rectángulo 351390" width="17.132" height="58.51" transform="translate(-0.975 12.669) rotate(-85.601)" fill="#6bcfc6"/>
            </g>
          </g>
          <g id="Grupo_1035144" data-name="Grupo 1035144" transform="translate(0 78.544)">
            <g id="Grupo_1035143" data-name="Grupo 1035143" clip-path="url(#clip-path-12)">
              <rect id="Rectángulo_351391" data-name="Rectángulo 351391" width="13.08" height="59.336" transform="translate(-0.657 8.541) rotate(-85.601)" fill="#6bcfc6"/>
            </g>
          </g>
          <g id="Grupo_1035146" data-name="Grupo 1035146" transform="translate(0.026 72.171)">
            <g id="Grupo_1035145" data-name="Grupo 1035145" clip-path="url(#clip-path-13)">
              <rect id="Rectángulo_351392" data-name="Rectángulo 351392" width="52.897" height="46.171" transform="matrix(0.778, -0.628, 0.628, 0.778, -6.23, 5.032)" fill="#15d3ec"/>
            </g>
          </g>
          <g id="Grupo_1035151" data-name="Grupo 1035151" transform="translate(0 0)">
            <g id="Grupo_1035150" data-name="Grupo 1035150" clip-path="url(#clip-path-4)">
              <g id="Grupo_1035149" data-name="Grupo 1035149" transform="translate(6.87 74.06)" opacity="0.5">
                <g id="Grupo_1035148" data-name="Grupo 1035148">
                  <g id="Grupo_1035147" data-name="Grupo 1035147" clip-path="url(#clip-path-15)">
                    <path id="Trazado_741213" data-name="Trazado 741213" d="M75.1,580.953c-10.669,0-22.007-1.51-22.007-4.307s11.339-4.307,22.007-4.307,22.007,1.51,22.007,4.307-11.339,4.307-22.007,4.307m0-7.906c-12.552,0-21.3,1.9-21.3,3.6s8.747,3.6,21.3,3.6,21.3-1.9,21.3-3.6-8.747-3.6-21.3-3.6" transform="translate(-53.092 -572.338)" fill="#fff"/>
                  </g>
                </g>
              </g>
            </g>
          </g>
          <g id="Grupo_1035153" data-name="Grupo 1035153" transform="translate(26.942 21.804)">
            <g id="Grupo_1035152" data-name="Grupo 1035152" clip-path="url(#clip-path-16)">
              <rect id="Rectángulo_351395" data-name="Rectángulo 351395" width="3.155" height="9.195" transform="matrix(0.005, -1, 1, 0.005, -0.016, 3.107)" fill="url(#linear-gradient-2)"/>
            </g>
          </g>
          <g id="Grupo_1035155" data-name="Grupo 1035155" transform="translate(0 0)">
            <g id="Grupo_1035154" data-name="Grupo 1035154" clip-path="url(#clip-path-4)">
              <path id="Trazado_741214" data-name="Trazado 741214" d="M98.668,185.949c-9.951,12.8-18.655,35.783-11.159,51.091a4.52,4.52,0,0,0,4.115,2.118h28.338a9.6,9.6,0,0,0,4.176-2.248c7.3-6.889,2.213-26.593-10.971-49.317a2.732,2.732,0,0,0-.928-2.02,5.08,5.08,0,0,0-3.455-1.242h-6.318a4.832,4.832,0,0,0-3.8,1.619" transform="translate(-73.727 -160.478)" fill="#f3f9ff"/>
            </g>
          </g>
          <g id="Grupo_1035157" data-name="Grupo 1035157" transform="translate(24.921 16.72)">
            <g id="Grupo_1035156" data-name="Grupo 1035156" clip-path="url(#clip-path-18)">
              <rect id="Rectángulo_351398" data-name="Rectángulo 351398" width="9.851" height="14.556" transform="translate(-1.692 6.193) rotate(-75)" fill="#ff9d00"/>
            </g>
          </g>
          <g id="Grupo_1035159" data-name="Grupo 1035159" transform="translate(26.463 5.401)">
            <g id="Grupo_1035158" data-name="Grupo 1035158" clip-path="url(#clip-path-19)">
              <rect id="Rectángulo_351399" data-name="Rectángulo 351399" width="19.125" height="12.856" transform="translate(-2.665 17.557) rotate(-82.33)" fill="#ff9d00"/>
            </g>
          </g>
          <g id="Grupo_1035161" data-name="Grupo 1035161" transform="translate(26.066 17.533)">
            <g id="Grupo_1035160" data-name="Grupo 1035160" clip-path="url(#clip-path-20)">
              <rect id="Rectángulo_351400" data-name="Rectángulo 351400" width="5.087" height="0.662" transform="translate(-0.027 5.084) rotate(-89.7)" fill="url(#linear-gradient-3)"/>
            </g>
          </g>
          <g id="Grupo_1035163" data-name="Grupo 1035163" transform="translate(27.548 17.533)">
            <g id="Grupo_1035162" data-name="Grupo 1035162" clip-path="url(#clip-path-20)">
              <rect id="Rectángulo_351402" data-name="Rectángulo 351402" width="5.087" height="0.662" transform="translate(-0.027 5.084) rotate(-89.7)" fill="url(#linear-gradient-4)"/>
            </g>
          </g>
          <g id="Grupo_1035165" data-name="Grupo 1035165" transform="translate(29.031 17.533)">
            <g id="Grupo_1035164" data-name="Grupo 1035164" clip-path="url(#clip-path-20)">
              <rect id="Rectángulo_351404" data-name="Rectángulo 351404" width="5.087" height="0.662" transform="translate(-0.027 5.084) rotate(-89.7)" fill="url(#linear-gradient-5)"/>
            </g>
          </g>
          <g id="Grupo_1035167" data-name="Grupo 1035167" transform="translate(30.514 17.533)">
            <g id="Grupo_1035166" data-name="Grupo 1035166" clip-path="url(#clip-path-20)">
              <rect id="Rectángulo_351406" data-name="Rectángulo 351406" width="5.087" height="0.662" transform="translate(-0.027 5.084) rotate(-89.7)" fill="url(#linear-gradient-6)"/>
            </g>
          </g>
          <g id="Grupo_1035169" data-name="Grupo 1035169" transform="translate(31.997 17.533)">
            <g id="Grupo_1035168" data-name="Grupo 1035168" clip-path="url(#clip-path-20)">
              <rect id="Rectángulo_351408" data-name="Rectángulo 351408" width="5.087" height="0.662" transform="translate(-0.027 5.084) rotate(-89.7)" fill="url(#linear-gradient-7)"/>
            </g>
          </g>
          <g id="Grupo_1035171" data-name="Grupo 1035171" transform="translate(33.48 17.533)">
            <g id="Grupo_1035170" data-name="Grupo 1035170" clip-path="url(#clip-path-20)">
              <rect id="Rectángulo_351410" data-name="Rectángulo 351410" width="5.087" height="0.662" transform="translate(-0.027 5.084) rotate(-89.7)" fill="url(#linear-gradient-8)"/>
            </g>
          </g>
          <g id="Grupo_1035173" data-name="Grupo 1035173" transform="translate(34.962 17.533)">
            <g id="Grupo_1035172" data-name="Grupo 1035172" clip-path="url(#clip-path-26)">
              <rect id="Rectángulo_351412" data-name="Rectángulo 351412" width="5.087" height="0.662" transform="translate(-0.027 5.084) rotate(-89.7)" fill="url(#linear-gradient-9)"/>
            </g>
          </g>
          <g id="Grupo_1035175" data-name="Grupo 1035175" transform="translate(36.445 17.533)">
            <g id="Grupo_1035174" data-name="Grupo 1035174" clip-path="url(#clip-path-27)">
              <rect id="Rectángulo_351414" data-name="Rectángulo 351414" width="5.087" height="0.662" transform="translate(-0.027 5.084) rotate(-89.7)" fill="url(#linear-gradient-10)"/>
            </g>
          </g>
          <g id="Grupo_1035177" data-name="Grupo 1035177" transform="translate(17.52 44.384)">
            <g id="Grupo_1035176" data-name="Grupo 1035176" clip-path="url(#clip-path-28)">
              <rect id="Rectángulo_351416" data-name="Rectángulo 351416" width="27.896" height="32.106" transform="translate(-0.53 27.728) rotate(-89.7)" fill="#15d3ec"/>
            </g>
          </g>
          <g id="Grupo_1035207" data-name="Grupo 1035207" transform="translate(0 0)">
            <g id="Grupo_1035206" data-name="Grupo 1035206" clip-path="url(#clip-path-4)">
              <g id="Grupo_1035196" data-name="Grupo 1035196" transform="translate(100.699 121.587)" opacity="0.79">
                <g id="Grupo_1035195" data-name="Grupo 1035195">
                  <g id="Grupo_1035194" data-name="Grupo 1035194" clip-path="url(#clip-path-30)">
                    <path id="Trazado_741229" data-name="Trazado 741229" d="M781.917,944.271a.207.207,0,0,1-.2-.143,4.834,4.834,0,0,0-1.219-1.961l-2.232-2.176a.206.206,0,0,1,.288-.3l2.232,2.176A5.249,5.249,0,0,1,782.113,944a.206.206,0,0,1-.132.26.21.21,0,0,1-.064.01" transform="translate(-778.208 -939.638)" fill="#fff"/>
                  </g>
                </g>
              </g>
              <g id="Grupo_1035199" data-name="Grupo 1035199" transform="translate(108.585 131.396)" opacity="0.79">
                <g id="Grupo_1035198" data-name="Grupo 1035198">
                  <g id="Grupo_1035197" data-name="Grupo 1035197" clip-path="url(#clip-path-31)">
                    <path id="Trazado_741230" data-name="Trazado 741230" d="M839.361,1016.94a.206.206,0,0,1-.1-.389l.971-.51a5.231,5.231,0,0,1,4.867,0,.206.206,0,0,1-.192.365,4.817,4.817,0,0,0-4.483,0l-.971.51a.207.207,0,0,1-.1.024" transform="translate(-839.155 -1015.44)" fill="#fff"/>
                  </g>
                </g>
              </g>
              <g id="Grupo_1035205" data-name="Grupo 1035205" transform="translate(57.89 25.733)" opacity="0.51">
                <g id="Grupo_1035204" data-name="Grupo 1035204">
                  <g id="Grupo_1035203" data-name="Grupo 1035203" clip-path="url(#clip-path-32)">
                    <path id="Trazado_741232" data-name="Trazado 741232" d="M478.95,209.668l-.33.02a3.007,3.007,0,0,1-2.553-1.146l-6.681-8.525a3.007,3.007,0,0,0-5.279,1.1l-2.7,10.488a3.007,3.007,0,0,1-1.879,2.074L449.354,217.4a3.007,3.007,0,0,0-.581,5.361l9.139,5.812A3.007,3.007,0,0,1,459.3,231l.394,10.824a3.007,3.007,0,0,0,4.919,2.209l8.352-6.9a3.006,3.006,0,0,1,2.739-.573l2.8.8Z" transform="translate(-447.379 -198.863)" fill="#fff"/>
                  </g>
                </g>
              </g>
            </g>
          </g>
          <g id="Grupo_1035209" data-name="Grupo 1035209" transform="translate(59.707 27.549)">
            <g id="Grupo_1035208" data-name="Grupo 1035208" clip-path="url(#clip-path-33)">
              <rect id="Rectángulo_351431" data-name="Rectángulo 351431" width="50.27" height="43.241" transform="translate(-14.514 36.526) rotate(-68.352)" fill="#ff9d00"/>
            </g>
          </g>
          <g id="Grupo_1035223" data-name="Grupo 1035223" transform="translate(0 0)">
            <g id="Grupo_1035222" data-name="Grupo 1035222" clip-path="url(#clip-path-4)">
              <g id="Grupo_1035212" data-name="Grupo 1035212" transform="translate(66.623 49.896)" opacity="0.76">
                <g id="Grupo_1035211" data-name="Grupo 1035211">
                  <g id="Grupo_1035210" data-name="Grupo 1035210" clip-path="url(#clip-path-35)">
                    <path id="Trazado_741234" data-name="Trazado 741234" d="M520.873,390.65a.272.272,0,0,1-.292-.131,6.391,6.391,0,0,0-2.108-2.207L515,386.1a.272.272,0,0,1,.292-.46l3.477,2.211a6.938,6.938,0,0,1,2.288,2.4.273.273,0,0,1-.181.4" transform="translate(-514.87 -385.598)" fill="#fff"/>
                  </g>
                </g>
              </g>
              <g id="Grupo_1035215" data-name="Grupo 1035215" transform="translate(79.776 59.417)" opacity="0.76">
                <g id="Grupo_1035214" data-name="Grupo 1035214">
                  <g id="Grupo_1035213" data-name="Grupo 1035213" clip-path="url(#clip-path-36)">
                    <path id="Trazado_741235" data-name="Trazado 741235" d="M616.846,462.158a.273.273,0,0,1-.23-.477l1.118-.923a6.913,6.913,0,0,1,6.3-1.317.272.272,0,0,1-.149.524,6.368,6.368,0,0,0-5.8,1.213l-1.118.923a.272.272,0,0,1-.117.057" transform="translate(-616.517 -459.177)" fill="#fff"/>
                  </g>
                </g>
              </g>
              <g id="Grupo_1035218" data-name="Grupo 1035218" transform="translate(64.842 32.214)" opacity="0.76">
                <g id="Grupo_1035217" data-name="Grupo 1035217">
                  <g id="Grupo_1035216" data-name="Grupo 1035216" clip-path="url(#clip-path-37)">
                    <path id="Trazado_741236" data-name="Trazado 741236" d="M525.67,256.647l-.068,0a6.367,6.367,0,0,1-5.406-2.428l-3.462-4.418a2.222,2.222,0,0,0-3.9.816l-1.4,5.435a6.366,6.366,0,0,1-3.979,4.391l-5.271,1.927a2.209,2.209,0,0,0-1.024.76.272.272,0,1,0,.438.324,1.665,1.665,0,0,1,.773-.572l5.271-1.927a6.911,6.911,0,0,0,4.32-4.767l1.4-5.435a1.677,1.677,0,0,1,2.944-.616l3.462,4.418a6.911,6.911,0,0,0,5.869,2.635l.025,0Z" transform="translate(-501.105 -248.954)" fill="#fff"/>
                  </g>
                </g>
              </g>
              <g id="Grupo_1035221" data-name="Grupo 1035221" transform="translate(11.922 101.403)" opacity="0.51">
                <g id="Grupo_1035220" data-name="Grupo 1035220">
                  <g id="Grupo_1035219" data-name="Grupo 1035219" clip-path="url(#clip-path-38)">
                    <path id="Trazado_741237" data-name="Trazado 741237" d="M108.229,784.89l1.734,5.942a1.719,1.719,0,0,0,1.111,1.15l5.878,1.94a1.718,1.718,0,0,1,.429,3.052l-5.115,3.485a1.719,1.719,0,0,0-.751,1.412l-.029,6.19a1.719,1.719,0,0,1-2.77,1.351l-4.9-3.788a1.718,1.718,0,0,0-1.575-.278l-5.9,1.885a1.719,1.719,0,0,1-2.141-2.217l2.09-5.826a1.719,1.719,0,0,0-.223-1.584l-3.615-5.024a1.718,1.718,0,0,1,1.447-2.721l6.187.187a1.719,1.719,0,0,0,1.437-.7l3.661-4.991a1.718,1.718,0,0,1,3.035.535" transform="translate(-92.134 -783.652)" fill="#fff"/>
                  </g>
                </g>
              </g>
            </g>
          </g>
          <g id="Grupo_1035225" data-name="Grupo 1035225" transform="translate(12.96 102.441)">
            <g id="Grupo_1035224" data-name="Grupo 1035224" clip-path="url(#clip-path-39)">
              <rect id="Rectángulo_351437" data-name="Rectángulo 351437" width="34.002" height="34.001" transform="translate(-12.11 12.681) rotate(-46.537)" fill="#ff9d00"/>
            </g>
          </g>
          <g id="Grupo_1035236" data-name="Grupo 1035236" transform="translate(0 0)">
            <g id="Grupo_1035235" data-name="Grupo 1035235" clip-path="url(#clip-path-4)">
              <g id="Grupo_1035228" data-name="Grupo 1035228" transform="translate(16.018 112.077)" opacity="0.76">
                <g id="Grupo_1035227" data-name="Grupo 1035227">
                  <g id="Grupo_1035226" data-name="Grupo 1035226" clip-path="url(#clip-path-41)">
                    <path id="Trazado_741239" data-name="Trazado 741239" d="M125.971,870.047a.156.156,0,0,1-.127-.132,3.654,3.654,0,0,0-.65-1.619l-1.375-1.911a.156.156,0,0,1,.253-.182l1.375,1.912a3.963,3.963,0,0,1,.705,1.757.156.156,0,0,1-.132.176.159.159,0,0,1-.049,0" transform="translate(-123.789 -866.138)" fill="#fff"/>
                  </g>
                </g>
              </g>
              <g id="Grupo_1035231" data-name="Grupo 1035231" transform="translate(20.456 120.785)" opacity="0.76">
                <g id="Grupo_1035230" data-name="Grupo 1035230">
                  <g id="Grupo_1035229" data-name="Grupo 1035229" clip-path="url(#clip-path-42)">
                    <path id="Trazado_741240" data-name="Trazado 741240" d="M158.216,934.179a.156.156,0,0,1-.021-.3l.789-.252a3.949,3.949,0,0,1,3.621.638.156.156,0,0,1-.191.246,3.639,3.639,0,0,0-3.335-.588l-.789.253a.156.156,0,0,1-.074,0" transform="translate(-158.087 -933.437)" fill="#fff"/>
                  </g>
                </g>
              </g>
              <g id="Grupo_1035234" data-name="Grupo 1035234" transform="translate(15.84 105.127)" opacity="0.76">
                <g id="Grupo_1035233" data-name="Grupo 1035233">
                  <g id="Grupo_1035232" data-name="Grupo 1035232" clip-path="url(#clip-path-43)">
                    <path id="Trazado_741241" data-name="Trazado 741241" d="M134.45,831.374a1.252,1.252,0,0,1-.351-.117.156.156,0,1,1,.141-.277.948.948,0,0,0,.93-.042.937.937,0,0,0,.457-.812l.015-3.208a3.951,3.951,0,0,1,1.726-3.246l2.651-1.806a.958.958,0,0,0-.239-1.7l-3.046-1.005a3.949,3.949,0,0,1-2.554-2.645l-.9-3.079a.958.958,0,0,0-1.693-.3l-1.9,2.586a3.95,3.95,0,0,1-3.3,1.612l-3.206-.1a.951.951,0,0,0-.532.139.156.156,0,0,1-.164-.265,1.261,1.261,0,0,1,.7-.186l3.206.1a3.638,3.638,0,0,0,3.044-1.485l1.9-2.586a1.27,1.27,0,0,1,2.243.4l.9,3.079a3.639,3.639,0,0,0,2.353,2.436l3.046,1.005a1.27,1.27,0,0,1,.317,2.255l-2.651,1.806a3.639,3.639,0,0,0-1.59,2.99l-.015,3.208a1.274,1.274,0,0,1-1.489,1.248" transform="translate(-122.411 -812.432)" fill="#fff"/>
                  </g>
                </g>
              </g>
              <path id="Trazado_741242" data-name="Trazado 741242" d="M190.764,351.835l3.071,4.366a1.482,1.482,0,0,0,1.227.629l5.337-.055a1.482,1.482,0,0,1,1.2,2.371l-3.2,4.269a1.482,1.482,0,0,0-.219,1.362l1.7,5.059a1.482,1.482,0,0,1-1.884,1.874l-5.05-1.727a1.481,1.481,0,0,0-1.363.212l-4.286,3.181a1.482,1.482,0,0,1-2.365-1.213l.082-5.337a1.482,1.482,0,0,0-.623-1.23l-4.35-3.093a1.482,1.482,0,0,1,.423-2.624l5.1-1.571a1.481,1.481,0,0,0,.978-.973l1.6-5.093a1.482,1.482,0,0,1,2.626-.409" transform="translate(-156.201 -305.76)" fill="#bdd0fb"/>
            </g>
          </g>
          <g id="Grupo_1035238" data-name="Grupo 1035238" transform="translate(24.111 46.341)">
            <g id="Grupo_1035237" data-name="Grupo 1035237" clip-path="url(#clip-path-44)">
              <rect id="Rectángulo_351442" data-name="Rectángulo 351442" width="27.474" height="27.521" transform="matrix(0.416, -0.909, 0.909, 0.416, -7.857, 17.106)" fill="#ff9d00"/>
            </g>
          </g>
          <g id="Grupo_1035252" data-name="Grupo 1035252" transform="translate(0 0)">
            <g id="Grupo_1035251" data-name="Grupo 1035251" clip-path="url(#clip-path-4)">
              <g id="Grupo_1035241" data-name="Grupo 1035241" transform="translate(27.438 57.068)" opacity="0.76">
                <g id="Grupo_1035240" data-name="Grupo 1035240">
                  <g id="Grupo_1035239" data-name="Grupo 1035239" clip-path="url(#clip-path-46)">
                    <path id="Trazado_741244" data-name="Trazado 741244" d="M214.876,443.655a.134.134,0,0,1-.141-.072,3.148,3.148,0,0,0-.981-1.14l-1.655-1.177a.134.134,0,0,1,.156-.219l1.655,1.177a3.421,3.421,0,0,1,1.065,1.237.134.134,0,0,1-.059.18.133.133,0,0,1-.04.013" transform="translate(-212.043 -441.023)" fill="#fff"/>
                  </g>
                </g>
              </g>
              <g id="Grupo_1035244" data-name="Grupo 1035244" transform="translate(33.606 62.22)" opacity="0.76">
                <g id="Grupo_1035243" data-name="Grupo 1035243">
                  <g id="Grupo_1035242" data-name="Grupo 1035242" clip-path="url(#clip-path-47)">
                    <path id="Trazado_741245" data-name="Trazado 741245" d="M259.869,482.176a.134.134,0,0,1-.1-.241l.574-.426a3.406,3.406,0,0,1,3.132-.488.134.134,0,0,1-.087.254,3.137,3.137,0,0,0-2.885.45l-.574.426a.134.134,0,0,1-.059.025" transform="translate(-259.714 -480.839)" fill="#fff"/>
                  </g>
                </g>
              </g>
              <g id="Grupo_1035247" data-name="Grupo 1035247" transform="translate(26.653 48.666)" opacity="0.76">
                <g id="Grupo_1035246" data-name="Grupo 1035246">
                  <g id="Grupo_1035245" data-name="Grupo 1035245" clip-path="url(#clip-path-48)">
                    <path id="Trazado_741246" data-name="Trazado 741246" d="M219.747,391.027a1.078,1.078,0,0,1-.319,0,.134.134,0,1,1,.038-.266.818.818,0,0,0,.747-.293.808.808,0,0,0,.147-.79l-.882-2.622a3.407,3.407,0,0,1,.5-3.13l1.66-2.212a.826.826,0,0,0-.67-1.322l-2.766.028a3.406,3.406,0,0,1-2.821-1.446l-1.591-2.262a.826.826,0,0,0-1.464.228l-.828,2.639a3.405,3.405,0,0,1-2.247,2.236l-2.643.814a.822.822,0,0,0-.4.262.134.134,0,0,1-.207-.17,1.087,1.087,0,0,1,.523-.348l2.643-.814a3.137,3.137,0,0,0,2.07-2.06l.828-2.639a1.095,1.095,0,0,1,1.94-.3l1.591,2.262a3.137,3.137,0,0,0,2.6,1.332l2.766-.028a1.095,1.095,0,0,1,.887,1.752l-1.66,2.212a3.137,3.137,0,0,0-.464,2.883l.882,2.622a1.1,1.1,0,0,1-.867,1.433" transform="translate(-205.979 -376.094)" fill="#fff"/>
                  </g>
                </g>
              </g>
              <g id="Grupo_1035250" data-name="Grupo 1035250" transform="translate(89.062 35.887)" opacity="0.51">
                <g id="Grupo_1035249" data-name="Grupo 1035249">
                  <g id="Grupo_1035248" data-name="Grupo 1035248" clip-path="url(#clip-path-49)">
                    <path id="Trazado_741247" data-name="Trazado 741247" d="M702.161,282.02a3.007,3.007,0,0,0-2.681-4.679l-10.762.667-.441,27.6,7.9,2.252a3.007,3.007,0,0,0,3.622-4l-3.978-10.074a3.007,3.007,0,0,1,.3-2.782Z" transform="translate(-688.276 -277.335)" fill="#fff"/>
                  </g>
                </g>
              </g>
            </g>
          </g>
          <g id="Grupo_1035254" data-name="Grupo 1035254" transform="translate(89.092 37.703)">
            <g id="Grupo_1035253" data-name="Grupo 1035253" opacity="0.56" clip-path="url(#clip-path-50)">
              <rect id="Rectángulo_351448" data-name="Rectángulo 351448" width="14.693" height="27.897" transform="translate(-2.003 0.149) rotate(-4.261)" fill="#ff9d00"/>
            </g>
          </g>
          <g id="Grupo_1035259" data-name="Grupo 1035259" transform="translate(0 0)">
            <g id="Grupo_1035258" data-name="Grupo 1035258" clip-path="url(#clip-path-4)">
              <g id="Grupo_1035257" data-name="Grupo 1035257" transform="translate(89.44 39.565)" opacity="0.76">
                <g id="Grupo_1035256" data-name="Grupo 1035256">
                  <g id="Grupo_1035255" data-name="Grupo 1035255" clip-path="url(#clip-path-52)">
                    <path id="Trazado_741249" data-name="Trazado 741249" d="M699.008,309.226a2.222,2.222,0,0,0-1.981-3.457l-5.6.347c-.072,0-.143,0-.214.007l-.009.545c.085,0,.171,0,.256-.008l5.6-.347a1.677,1.677,0,0,1,1.5,2.609l-3.132,4.658a6.911,6.911,0,0,0-.693,6.4l2.061,5.221a1.64,1.64,0,0,1-.214,1.617,1.659,1.659,0,0,1-1.483.672.273.273,0,0,0-.049.543,2.194,2.194,0,0,0,.646-.037A2.229,2.229,0,0,0,697.3,325l-2.061-5.22a6.366,6.366,0,0,1,.638-5.891Z" transform="translate(-691.203 -305.764)" fill="#fff"/>
                  </g>
                </g>
              </g>
            </g>
          </g>
        </g>
      </g>
    </g>
  </g>
</svg>
