<svg xmlns="http://www.w3.org/2000/svg" width="131.068" height="131.065" viewBox="0 0 131.068 131.065">
  <g id="Grupo_1035915" data-name="Grupo 1035915" transform="translate(-915 -5888.145)">
    <g id="Grupo_1035042" data-name="Grupo 1035042" transform="translate(915 5888.145)">
      <path id="Trazado_740803" data-name="Trazado 740803" d="M764.206,76.637a65.533,65.533,0,1,1-65.535,65.533,65.537,65.537,0,0,1,65.535-65.533m0,23.24A42.293,42.293,0,1,0,806.5,142.17a42.29,42.29,0,0,0-42.291-42.293" transform="translate(-698.671 -76.637)" fill="#81d4fa"/>
      <ellipse id="Elipse_5672" data-name="Elipse 5672" cx="48.419" cy="48.419" rx="48.419" ry="48.419" transform="translate(17.677 17.677)" fill="#fff"/>
    </g>
    <g id="Icon" transform="translate(947.827 5920.062)">
      <path id="Trazado_740804" data-name="Trazado 740804" d="M24.4,35.664a1.127,1.127,0,0,0-1.126-1.126H16.516a1.127,1.127,0,0,0-1.126,1.126V67.2a1.127,1.127,0,0,0,1.126,1.126h6.758A1.127,1.127,0,0,0,24.4,67.2Zm29.285,3.379A14.642,14.642,0,1,0,68.327,53.685,14.649,14.649,0,0,0,53.685,39.043ZM12.011,44.674a1.127,1.127,0,0,0-1.126-1.126H4.126A1.127,1.127,0,0,0,3,44.674V67.2a1.127,1.127,0,0,0,1.126,1.126h6.758A1.127,1.127,0,0,0,12.011,67.2ZM36.79,27.779a1.127,1.127,0,0,0-1.126-1.126H28.906a1.127,1.127,0,0,0-1.126,1.126V67.2a1.127,1.127,0,0,0,1.126,1.126h6.758A1.127,1.127,0,0,0,36.79,67.2Zm-2.253,1.126V66.075H30.032V28.906ZM22.148,36.79V66.075H17.642V36.79ZM53.685,41.3A12.39,12.39,0,1,1,41.3,53.685,12.4,12.4,0,0,1,53.685,41.3ZM9.758,45.8V66.075H5.253V45.8Zm42.8-.995a6.057,6.057,0,0,0-4.505,5.5,3.584,3.584,0,0,0,1.967,3.3,13.456,13.456,0,0,0,3.391,1.176,11.16,11.16,0,0,1,2.8.936,1.489,1.489,0,0,1,.849,1.35,3.483,3.483,0,0,1-1.017,2.243,3.3,3.3,0,0,1-2.362,1.136,3.38,3.38,0,0,1-3.379-3.379,1.126,1.126,0,1,0-2.253,0,5.637,5.637,0,0,0,4.505,5.519v1.239a1.126,1.126,0,0,0,2.253,0V62.564a6.057,6.057,0,0,0,4.505-5.5,3.584,3.584,0,0,0-1.967-3.3,13.456,13.456,0,0,0-3.391-1.176,11.159,11.159,0,0,1-2.8-.936,1.489,1.489,0,0,1-.849-1.35,3.483,3.483,0,0,1,1.017-2.243,3.3,3.3,0,0,1,2.362-1.136,3.38,3.38,0,0,1,3.379,3.379,1.126,1.126,0,1,0,2.253,0,5.638,5.638,0,0,0-4.505-5.519V43.548a1.126,1.126,0,0,0-2.253,0ZM49.18,36.79V19.895a1.127,1.127,0,0,0-1.126-1.126H41.3a1.127,1.127,0,0,0-1.126,1.126V40.169a1.126,1.126,0,1,0,2.253,0V21.021h4.505V36.79a1.126,1.126,0,0,0,2.253,0Zm12.39,0V10.884a1.127,1.127,0,0,0-1.126-1.126H53.685a1.127,1.127,0,0,0-1.126,1.126V36.79a1.126,1.126,0,0,0,2.253,0V12.011h4.505V36.79a1.126,1.126,0,1,0,2.253,0ZM41.955,5.253,25.969,21.238,22.416,18.12a1.127,1.127,0,0,0-1.519.032L3.35,34.848A1.126,1.126,0,1,0,4.9,36.479L21.7,20.492l3.574,3.136a1.126,1.126,0,0,0,1.539-.051L43.548,6.845v2.06a1.126,1.126,0,1,0,2.253,0V4.126A1.127,1.127,0,0,0,44.674,3H39.9a1.126,1.126,0,1,0,0,2.253h2.06Z" transform="translate(-3 -3)" fill="#12263f" fill-rule="evenodd"/>
    </g>
  </g>
</svg>
