<svg xmlns="http://www.w3.org/2000/svg" width="131.068" height="131.065" viewBox="0 0 131.068 131.065">
  <g id="Grupo_1035919" data-name="Grupo 1035919" transform="translate(-915 -6582.361)">
    <g id="Grupo_1035055" data-name="Grupo 1035055" transform="translate(915 6582.361)">
      <path id="Trazado_740803" data-name="Trazado 740803" d="M764.206,76.637a65.533,65.533,0,1,1-65.535,65.533,65.537,65.537,0,0,1,65.535-65.533m0,23.24A42.293,42.293,0,1,0,806.5,142.17a42.29,42.29,0,0,0-42.291-42.293" transform="translate(-698.671 -76.637)" fill="#81d4fa"/>
      <ellipse id="Elipse_5672" data-name="Elipse 5672" cx="48.419" cy="48.419" rx="48.419" ry="48.419" transform="translate(17.677 17.677)" fill="#fff"/>
    </g>
    <g id="etiqueta-del-precio" transform="translate(948.581 6615.94)">
      <path id="Trazado_740825" data-name="Trazado 740825" d="M62.879,1.027C61.6-.25,59.431-.339,56.762.775A22.347,22.347,0,0,0,50.53,4.954c-.11-.11-.217-.221-.329-.329a1.287,1.287,0,0,0-.916-.37l-18.563.392a1.255,1.255,0,0,0-.86.367l-6.422,6.422a1.253,1.253,0,0,0,1.772,1.772L31.28,7.143l17.435-.368A23.813,23.813,0,0,0,45.073,11.9a6.95,6.95,0,1,0,6.938,6.949,7.055,7.055,0,0,0-.061-.917v-.013a6.948,6.948,0,0,0-4.3-5.522,22.1,22.1,0,0,1,2.883-3.9l6.6,6.6-.37,17.525L28.509,60.881,3.025,35.4,18.08,20.341a1.253,1.253,0,0,0-1.772-1.772L.366,34.511a1.252,1.252,0,0,0,0,1.772L27.623,63.54a1.253,1.253,0,0,0,1.772,0l29.5-29.5a1.256,1.256,0,0,0,.367-.86l.392-18.563a1.255,1.255,0,0,0-.367-.912l-.332-.332a22.347,22.347,0,0,0,4.178-6.232c1.114-2.668,1.025-4.841-.252-6.117ZM45.058,23.3a4.445,4.445,0,0,1-1.006-8.776c-.5,1.952-.238,3.539.779,4.556A3.758,3.758,0,0,0,47.589,20.1a7.314,7.314,0,0,0,1.8-.249A4.448,4.448,0,0,1,45.058,23.3Zm4.169-6c-1.443.47-2.3.327-2.623.008-.4-.4-.387-1.391.008-2.62A4.445,4.445,0,0,1,49.226,17.3ZM60.818,6.179a19.692,19.692,0,0,1-3.64,5.423L52.3,6.728a19.685,19.685,0,0,1,5.423-3.64c1.572-.656,2.9-.77,3.379-.289s.368,1.807-.289,3.38Zm0,0" transform="translate(0.001 0)" fill="#12263f"/>
      <path id="Trazado_740826" data-name="Trazado 740826" d="M144.335,214.385a6.855,6.855,0,0,0-.983,8.451l-1.238,1.238a1.253,1.253,0,1,0,1.772,1.772l1.156-1.156a6.872,6.872,0,0,0,4.143,1.393c.108,0,.216,0,.325-.008a6.073,6.073,0,0,0,4.734-2.6,5.808,5.808,0,0,0,.779-5.107,7.589,7.589,0,0,0-1.285-2.375l5.1-5.1a4.351,4.351,0,0,1-.9,4.828A1.253,1.253,0,0,0,159.7,217.5a6.857,6.857,0,0,0,.983-8.451l1.238-1.238a1.253,1.253,0,1,0-1.772-1.772l-1.157,1.157a6.866,6.866,0,0,0-4.468-1.386,6.073,6.073,0,0,0-4.734,2.6,5.81,5.81,0,0,0-.779,5.107,7.591,7.591,0,0,0,1.285,2.375l-5.1,5.1a4.349,4.349,0,0,1,.9-4.827,1.253,1.253,0,0,0-1.772-1.772Zm8.3,4.741a3.32,3.32,0,0,1-.445,2.919,3.584,3.584,0,0,1-2.8,1.528,4.352,4.352,0,0,1-2.55-.681l5.105-5.105a4.9,4.9,0,0,1,.687,1.339Zm-1.229-6.369a3.321,3.321,0,0,1,.446-2.919,3.583,3.583,0,0,1,2.8-1.527,4.359,4.359,0,0,1,2.55.681L152.09,214.1a4.9,4.9,0,0,1-.687-1.34Zm0,0" transform="translate(-124.053 -179.999)" fill="#12263f"/>
      <path id="Trazado_740827" data-name="Trazado 740827" d="M156.42,119a1.252,1.252,0,1,0,.478-1.532A1.265,1.265,0,0,0,156.42,119Zm0,0" transform="translate(-136.814 -102.632)" fill="#12263f"/>
    </g>
  </g>
</svg>
