<svg xmlns="http://www.w3.org/2000/svg" xmlns:xlink="http://www.w3.org/1999/xlink" width="570.393" height="421.877" viewBox="0 0 570.393 421.877">
  <defs>
    <clipPath id="clip-path">
      <rect id="Rectángulo_351553" data-name="Rectángulo 351553" width="532.936" height="377.599" fill="none"/>
    </clipPath>
    <clipPath id="clip-path-4">
      <rect id="Rectángulo_351528" data-name="Rectángulo 351528" width="31.437" height="37.793" fill="none"/>
    </clipPath>
    <clipPath id="clip-path-5">
      <rect id="Rectángulo_351529" data-name="Rectángulo 351529" width="29.857" height="39.991" fill="none"/>
    </clipPath>
    <clipPath id="clip-path-6">
      <rect id="Rectángulo_351530" data-name="Rectángulo 351530" width="21.959" height="31.168" fill="none"/>
    </clipPath>
    <clipPath id="clip-path-7">
      <rect id="Rectángulo_351531" data-name="Rectángulo 351531" width="12.006" height="19.251" fill="none"/>
    </clipPath>
    <clipPath id="clip-path-8">
      <rect id="Rectángulo_351532" data-name="Rectángulo 351532" width="10.374" height="37.353" fill="none"/>
    </clipPath>
    <clipPath id="clip-path-9">
      <rect id="Rectángulo_351533" data-name="Rectángulo 351533" width="6.65" height="4.58" fill="none"/>
    </clipPath>
    <clipPath id="clip-path-11">
      <rect id="Rectángulo_351535" data-name="Rectángulo 351535" width="21.363" height="30.245" fill="none"/>
    </clipPath>
    <clipPath id="clip-path-13">
      <rect id="Rectángulo_351539" data-name="Rectángulo 351539" width="36.225" height="14.234" fill="none"/>
    </clipPath>
  </defs>
  <g id="Grupo_1035917" data-name="Grupo 1035917" transform="translate(-1079.32 8996.148)">
    <g id="Grupo_160943" data-name="Grupo 160943" transform="translate(1088.526 -8996.148)" opacity="0.13">
      <g id="Grupo_154652" data-name="Grupo 154652" transform="translate(0 0)">
        <g id="Grupo_154160" data-name="Grupo 154160">
          <g id="Grupo_66834" data-name="Grupo 66834">
            <path id="Trazado_132887" data-name="Trazado 132887" d="M735,523.341c-52.274,73.567-55.9,285.935,17.528,341.518s196.109-66.675,248.369-140.24S1036.01,546.379,962.588,490.8,787.262,449.783,735,523.341Z" transform="translate(-520.526 -457.039)" fill="#15d3ec"/>
            <path id="Trazado_132888" data-name="Trazado 132888" d="M652.737,598.276c0,102.732,208.154,214.938,322.984,214.938s238.2-112.205,238.2-214.938-48.448-172.3-218.017-94.4C893.754,550.794,652.737,495.546,652.737,598.276Z" transform="translate(-652.737 -439.46)" fill="#7e5ee3"/>
          </g>
        </g>
      </g>
    </g>
    <g id="Grupo_1035389" data-name="Grupo 1035389" transform="translate(1079.32 -8974.445)">
      <g id="Grupo_1035436" data-name="Grupo 1035436" clip-path="url(#clip-path)">
        <g id="Grupo_1035390" data-name="Grupo 1035390">
          <g id="Grupo_1035389-2" data-name="Grupo 1035389" clip-path="url(#clip-path)">
            <path id="Trazado_741404" data-name="Trazado 741404" d="M146.413,153.659s-4.849-3.971-12.462,7.819A162.3,162.3,0,0,0,123.2,180.2s-1.943,2.435-3.559.548-3.574-6.971-6.705-6.412c-3.249.579-4.649,3.995-4.577,9.233s-.192,16.719-.22,17.756c-.027,1.019-.758,2.45-2.065,1.34S97.6,191.72,93.142,195.4s-1.865,18.237-1.612,19.834-.119,2.23-.9,2.539-2.874-3.223-5.026-5.936-5.124-5.482-7.52-3.144-4.166,12.881,4.168,31.152l4.417,8.214,9.357.437c20.081-.287,28.852-6.4,29.94-9.565s-2.686-4.667-6.06-5.451-7.463-1.167-7.516-2,.359-1.443,1.911-1.9,15.821-4.337,17.236-9.944-10.538-7.874-12.1-8.581-.582-1.98.328-2.44c.926-.47,11.189-5.621,15.954-7.8s7.252-4.9,6.385-8.087c-.835-3.07-6.268-2.664-8.665-3.316s-1.028-3.451-1.028-3.451a162.467,162.467,0,0,0,12.317-17.726c7.4-11.928,1.578-14.649,1.578-14.649" transform="translate(-10.158 -20.425)" fill="#afafaf"/>
            <path id="Trazado_741405" data-name="Trazado 741405" d="M86.391,251.3c5.468-8.738,15.446-24.1,23.945-37.343s16.177-25.222,21.689-33.931l6.516-10.321,1.775-2.806.467-.726c.107-.162.168-.242.168-.242s-.044.09-.143.258l-.443.741c-.4.658-.983,1.611-1.728,2.833-1.5,2.46-3.7,6-6.439,10.371-5.468,8.738-13.122,20.744-21.618,33.979s-18.5,28.586-24.016,37.3" transform="translate(-11.532 -22.149)" fill="#e0e0e0"/>
            <path id="Trazado_741406" data-name="Trazado 741406" d="M121.44,185.952a3.015,3.015,0,0,1,.17.653c.092.424.208,1.04.343,1.8.269,1.527.586,3.644.893,5.987.3,2.312.562,4.4.765,6,.1.72.179,1.327.243,1.816a3.029,3.029,0,0,1,.063.671,2.972,2.972,0,0,1-.174-.652c-.091-.424-.207-1.041-.334-1.8-.254-1.529-.542-3.651-.85-5.993-.311-2.308-.593-4.4-.808-5.993-.1-.72-.185-1.327-.253-1.815a2.987,2.987,0,0,1-.058-.672" transform="translate(-16.21 -24.822)" fill="#e0e0e0"/>
            <path id="Trazado_741407" data-name="Trazado 741407" d="M125.264,205.242c-.014-.079,4.322-.925,9.685-1.888s9.722-1.683,9.737-1.6-4.322.925-9.686,1.889-9.722,1.682-9.736,1.6" transform="translate(-16.721 -26.93)" fill="#e0e0e0"/>
            <path id="Trazado_741408" data-name="Trazado 741408" d="M109.147,228.558a3.117,3.117,0,0,1,.688.039l1.861.2c1.571.164,3.742.382,6.145.534s4.586.224,6.165.26l1.871.044a3.155,3.155,0,0,1,.686.049,3.127,3.127,0,0,1-.685.063c-.442.022-1.082.042-1.873.049-1.582.016-3.77-.018-6.182-.176s-4.585-.4-6.152-.62c-.783-.112-1.417-.209-1.852-.289a3.114,3.114,0,0,1-.672-.151" transform="translate(-14.57 -30.508)" fill="#e0e0e0"/>
            <path id="Trazado_741409" data-name="Trazado 741409" d="M101.742,211.384a2.714,2.714,0,0,1,.31.556l.747,1.561c.62,1.323,1.457,3.159,2.366,5.194s1.717,3.885,2.288,5.229l.663,1.6a2.675,2.675,0,0,1,.207.6,2.7,2.7,0,0,1-.31-.556l-.747-1.561c-.62-1.323-1.457-3.159-2.366-5.195s-1.717-3.885-2.288-5.229l-.663-1.6a2.707,2.707,0,0,1-.207-.6" transform="translate(-13.581 -28.217)" fill="#e0e0e0"/>
            <path id="Trazado_741410" data-name="Trazado 741410" d="M84.958,229.685a4.385,4.385,0,0,1,.39.716c.251.52.575,1.191.965,2,.8,1.691,1.894,4.036,3.084,6.633s2.252,4.956,3.008,6.67l.881,2.035a4.394,4.394,0,0,1,.287.763,4.434,4.434,0,0,1-.39-.716l-.964-2c-.8-1.691-1.9-4.036-3.085-6.634s-2.251-4.955-3.007-6.669l-.882-2.035a4.392,4.392,0,0,1-.287-.763" transform="translate(-11.34 -30.66)" fill="#e0e0e0"/>
            <path id="Trazado_741411" data-name="Trazado 741411" d="M94.809,250.807a5,5,0,0,1,.873.027L98.05,251c2,.137,4.763.315,7.819.426s5.825.147,7.829.156l2.374.013a5.06,5.06,0,0,1,.872.037,5,5,0,0,1-.869.075c-.561.029-1.372.06-2.375.08-2.006.043-4.781.044-7.842-.072s-5.826-.322-7.824-.511c-1-.1-1.806-.185-2.363-.257a5.052,5.052,0,0,1-.861-.139" transform="translate(-12.656 -33.478)" fill="#e0e0e0"/>
            <path id="Trazado_741412" data-name="Trazado 741412" d="M59.9,187.129a24.9,24.9,0,0,1-.243,4.272,31.046,31.046,0,0,1-3.894,11.466l-.091-.158h.189l-.089.158L31.5,245.909l-.152.269-.165-.263L5.528,204.989c-.432-.691-.863-1.379-1.261-2.015l-.2-.313h.37l-.177.307A31.451,31.451,0,0,1,.4,192.158a29.933,29.933,0,0,1-.385-5.625q.075-1.4.152-2.784.207-1.374.413-2.735a31.558,31.558,0,0,1,10.473-17.908,30.354,30.354,0,0,1,8.442-4.961l1.116-.416.555-.207.57-.152L24,156.781a31.535,31.535,0,0,1,4.521-.548,30.425,30.425,0,0,1,4.4.079c.717.057,1.418.212,2.118.312l1.042.168c.342.072.676.176,1.011.262l1.987.538,1.882.717c.309.122.623.228.922.362l.876.438,1.718.869a31.1,31.1,0,0,1,9.967,9.2,31.654,31.654,0,0,1,4.342,9.291,28.111,28.111,0,0,1,.764,3.671,20.171,20.171,0,0,1,.29,2.73q.039,1.1.059,1.686c.01.38.006.574.006.574s-.023-.194-.048-.574-.055-.951-.1-1.682a21.1,21.1,0,0,0-.328-2.717,28.7,28.7,0,0,0-.8-3.646,31.784,31.784,0,0,0-4.377-9.2,30.958,30.958,0,0,0-9.922-9.08l-1.7-.854-.868-.432c-.3-.131-.608-.235-.914-.354l-1.866-.705-1.967-.525c-.332-.084-.662-.186-1-.256l-1.031-.163c-.692-.1-1.386-.248-2.1-.3a30.137,30.137,0,0,0-4.35-.066,31.294,31.294,0,0,0-4.468.552l-2.233.587-.563.151-.548.205-1.1.413a30.044,30.044,0,0,0-8.33,4.915A31.206,31.206,0,0,0,.97,181.089q-.2,1.344-.406,2.7-.073,1.37-.147,2.75A29.544,29.544,0,0,0,.8,192.094a31.088,31.088,0,0,0,3.819,10.67l.179.307H4.439l.173-.311,1.262,2.014L31.5,245.721l-.316.007,24.41-42.964.091.156h-.19l.091-.158a31.4,31.4,0,0,0,3.966-11.376c.2-1.381.256-2.45.3-3.167.013-.351.023-.62.029-.814s.02-.276.02-.276" transform="translate(0 -20.847)" fill="#636363"/>
            <path id="Trazado_741413" data-name="Trazado 741413" d="M50.689,188.549a1.743,1.743,0,0,1-.036-.307c-.016-.223-.036-.52-.063-.9-.013-.2-.027-.42-.042-.662s-.079-.505-.122-.791a13.873,13.873,0,0,0-.4-1.954,18.11,18.11,0,0,0-2.1-5.021,18.8,18.8,0,0,0-22.562-8.066,19.6,19.6,0,0,0-2.451,1.071,19.6,19.6,0,0,0-2.3,1.475,21.11,21.11,0,0,0-2.133,1.8,21.294,21.294,0,0,0-1.844,2.171,18.177,18.177,0,0,0-2.694,5.163,18.594,18.594,0,0,0-.031,11.842,18.167,18.167,0,0,0,2.668,5.178,21.3,21.3,0,0,0,1.834,2.181,21.145,21.145,0,0,0,2.124,1.816,19.621,19.621,0,0,0,2.3,1.486,19.619,19.619,0,0,0,2.445,1.084,18.85,18.85,0,0,0,22.6-7.954,18.14,18.14,0,0,0,2.121-5.009,13.962,13.962,0,0,0,.406-1.951c.044-.285.1-.548.126-.79s.031-.462.045-.662c.029-.379.051-.677.068-.9a1.713,1.713,0,0,1,.037-.307,1.687,1.687,0,0,1,0,.308c-.007.224-.016.523-.028.9-.008.2-.016.423-.025.666s-.068.509-.107.8a13.446,13.446,0,0,1-.372,1.973,17.965,17.965,0,0,1-2.08,5.087,19.088,19.088,0,0,1-12.873,9.02,19.17,19.17,0,0,1-10.055-.831,20.083,20.083,0,0,1-2.5-1.1,20.079,20.079,0,0,1-2.348-1.511,21.469,21.469,0,0,1-2.171-1.85,21.578,21.578,0,0,1-1.875-2.224A18.529,18.529,0,0,1,13.53,194.5a18.965,18.965,0,0,1,.031-12.1,18.542,18.542,0,0,1,2.758-5.271,21.572,21.572,0,0,1,1.886-2.214,21.663,21.663,0,0,1,2.181-1.839,20.041,20.041,0,0,1,2.355-1.5,19.929,19.929,0,0,1,2.5-1.087,19.161,19.161,0,0,1,10.058-.781A19.1,19.1,0,0,1,48.131,178.8a17.967,17.967,0,0,1,2.054,5.1,13.6,13.6,0,0,1,.362,1.976c.036.289.083.554.1.8s.016.465.022.666c.01.381.017.68.023.9a1.761,1.761,0,0,1-.006.308" transform="translate(-1.676 -22.61)" fill="#636363"/>
            <path id="Trazado_741414" data-name="Trazado 741414" d="M32.544,198.837l-11.025-7.692L24.2,187.3l7.392,5.157L41.159,180.3l3.685,2.9Z" transform="translate(-2.872 -24.068)" fill="#afafaf"/>
            <path id="Trazado_741415" data-name="Trazado 741415" d="M382.694,36.03a36.49,36.49,0,0,1,9.377,2.476l6.892-5.775L410.8,41.741l-3.73,8.182a36.488,36.488,0,0,1,4.887,8.379l8.955.789,2,14.743-8.419,3.147a36.376,36.376,0,0,1-2.477,9.377l5.776,6.893-9.009,11.837-8.183-3.729a36.478,36.478,0,0,1-8.38,4.885l-.788,8.955-14.745,2-3.146-8.42a36.429,36.429,0,0,1-9.377-2.477l-6.894,5.777-11.838-9.011,3.731-8.183a36.538,36.538,0,0,1-4.885-8.378l-8.954-.79-2-14.743,8.42-3.146a36.391,36.391,0,0,1,2.477-9.378l-5.776-6.893,9.009-11.837,8.183,3.73a36.435,36.435,0,0,1,8.38-4.886l.788-8.954,14.743-2Zm-4.422,20.33A15.963,15.963,0,1,0,394.3,68.569,15.967,15.967,0,0,0,378.272,56.36" transform="translate(-44.494 -3.686)" fill="#d2e1f1" fill-rule="evenodd"/>
            <path id="Trazado_741416" data-name="Trazado 741416" d="M230.425,90.882a23.687,23.687,0,0,1,6.086,1.607l4.474-3.749,7.685,5.849L246.249,99.9a23.652,23.652,0,0,1,3.171,5.439l5.813.512,1.3,9.57-5.465,2.043a23.608,23.608,0,0,1-1.608,6.087l3.749,4.475-5.848,7.684-5.312-2.421a23.654,23.654,0,0,1-5.44,3.171l-.511,5.813-9.572,1.3-2.042-5.466a23.65,23.65,0,0,1-6.087-1.608l-4.475,3.749-7.685-5.849,2.422-5.312a23.714,23.714,0,0,1-3.171-5.439l-5.812-.512-1.3-9.571,5.466-2.042a23.616,23.616,0,0,1,1.608-6.087l-3.75-4.475,5.848-7.684L212.86,95.7a23.7,23.7,0,0,1,5.44-3.171l.511-5.812,9.57-1.3Zm-2.871,13.2A10.362,10.362,0,1,0,237.961,112a10.365,10.365,0,0,0-10.407-7.925" transform="translate(-26.48 -11.402)" fill="#afafaf" fill-rule="evenodd"/>
            <path id="Trazado_741417" data-name="Trazado 741417" d="M324.144,172.093a12.653,12.653,0,0,1,3.46,2.288,16.673,16.673,0,0,1,5.364,9.86,16.873,16.873,0,0,1-.593,7.856,17.142,17.142,0,0,1-4.947,7.571,17.153,17.153,0,0,1-9.082,4.152,17.085,17.085,0,0,1-17.842-9.786,17.154,17.154,0,0,1-1.379-9.891,17.135,17.135,0,0,1,3.727-8.242,16.884,16.884,0,0,1,6.307-4.721,16.67,16.67,0,0,1,11.2-.774,12.658,12.658,0,0,1,3.788,1.688c-.049.108-1.326-.685-3.883-1.326a16.691,16.691,0,0,0-10.826,1.033A16.355,16.355,0,0,0,300,184.277a16.355,16.355,0,0,0,1.359,9.359,16.22,16.22,0,0,0,16.863,9.25A16.358,16.358,0,0,0,326.843,199a16.358,16.358,0,0,0,5.453-14.661,16.69,16.69,0,0,0-4.947-9.687c-1.914-1.813-3.269-2.462-3.205-2.562" transform="translate(-39.899 -22.663)" fill="#636363"/>
            <path id="Trazado_741418" data-name="Trazado 741418" d="M337.288,153.911a3.6,3.6,0,0,1,.128-.574c.112-.423.261-.991.455-1.726l1.864-6.807.074.177-13.726-7.427.3-.052-6.22,7.086-.112.127-.167-.041a38.206,38.206,0,0,0-10.039-1.062l-.191.006-.094-.168-4.6-8.236.4.162-14.971,4.4.271-.386c.184,2.914.386,6.125.593,9.415l.015.24-.206.125a37.968,37.968,0,0,0-7.843,6.312l-.172.182-.243-.069-9.068-2.583.493-.205L266.734,166.5l-.1-.549,7.066,6.242.206.183-.066.269a38.086,38.086,0,0,0-1.082,9.993l.008.281-.247.138-8.247,4.58.224-.542c1.385,4.743,2.869,9.827,4.374,14.981l-.488-.343,9.417-.576.29-.017.15.249a37.877,37.877,0,0,0,6.28,7.831l0,0,0,0c.059.215-.129-.478.132.482l0,.01-.005.017-.01.036-.021.071-.041.143-.082.285-.163.571-.327,1.139-.652,2.273-1.295,4.52-.23-.553,13.683,7.509-.585.1,6.251-7.059.19-.214.276.068a37.752,37.752,0,0,0,9.991,1.1l.283-.007.136.247,4.57,8.252-.528-.217,14.986-4.352-.317.451q-.287-4.792-.563-9.416l-.016-.262.224-.134A37.82,37.82,0,0,0,338.273,208l.174-.182.242.069,9.059,2.611-.46.192,7.535-13.668.079.452-7.047-6.267-.156-.139.05-.2a38.076,38.076,0,0,0,1.122-10.025l0-.192.166-.092,8.264-4.548-.134.328c-1.666-5.812-3.086-10.763-4.3-15l.22.154-9.419.514-.094.005-.048-.08A39.694,39.694,0,0,0,339,155.764l-1.287-1.389a3.874,3.874,0,0,1-.422-.464,4.717,4.717,0,0,1,.478.408c.3.287.765.723,1.347,1.338a37.043,37.043,0,0,1,4.672,6.11l-.142-.075,9.412-.634.171-.011.049.166c1.252,4.228,2.716,9.167,4.433,14.964l.064.217-.2.112-8.233,4.6.162-.283a38.57,38.57,0,0,1-1.084,10.206l-.106-.341,7.077,6.232.22.194-.141.258-7.48,13.7-.153.28-.308-.088-9.068-2.58.415-.113a38.633,38.633,0,0,1-8.017,6.448l.207-.4q.289,4.625.586,9.416l.023.353-.341.1-14.976,4.383-.351.1-.178-.321-4.583-8.245.418.239a38.674,38.674,0,0,1-10.239-1.113l.465-.146-6.245,7.066-.251.284-.334-.183-13.687-7.5-.336-.185.106-.368,1.295-4.52.651-2.274.327-1.139.163-.571.082-.285.041-.142.02-.072.01-.036.005-.018,0-.009c.262.959.072.265.129.478h0l0,0a38.767,38.767,0,0,1-6.438-8.031l.439.23-9.416.572-.381.023-.107-.367-4.36-14.985-.1-.362.328-.182,8.254-4.57-.239.417a38.929,38.929,0,0,1,1.125-10.234l.14.451-7.053-6.256-.269-.237.172-.313,7.523-13.674.165-.3.328.094,9.06,2.611-.414.113a38.708,38.708,0,0,1,8.033-6.421l-.191.364c-.194-3.291-.384-6.5-.556-9.417l-.018-.3.29-.083,14.992-4.333.263-.075.132.238,4.554,8.262-.283-.162a38.547,38.547,0,0,1,10.19,1.146l-.278.087,6.277-7.035.13-.147.17.094,13.639,7.585.108.06-.035.117c-.868,2.907-1.537,5.147-2,6.7-.227.737-.4,1.3-.534,1.729a4.483,4.483,0,0,1-.205.593" transform="translate(-35.172 -17.973)" fill="#636363"/>
            <path id="Trazado_741419" data-name="Trazado 741419" d="M388.9,166.491l-13.6-54.073,55.325-.914Z" transform="translate(-50.098 -14.884)" fill="#b0c0d2"/>
            <rect id="Rectángulo_351526" data-name="Rectángulo 351526" width="31.438" height="127.135" transform="translate(344.845 132.167) rotate(-52.806)" fill="#b0c0d2"/>
          </g>
        </g>
        <g id="Grupo_1035410" data-name="Grupo 1035410">
          <g id="Grupo_1035409" data-name="Grupo 1035409" clip-path="url(#clip-path)">
            <path id="Trazado_741420" data-name="Trazado 741420" d="M504.317,333.513l7.027,15.933s-13.836,12.5-12.824,15.566L529.905,352.5l-9.931-25.276Z" transform="translate(-66.538 -43.679)" fill="#e8505b"/>
            <g id="Grupo_1035393" data-name="Grupo 1035393" transform="translate(431.93 283.541)" opacity="0.5">
              <g id="Grupo_1035392" data-name="Grupo 1035392">
                <g id="Grupo_1035391" data-name="Grupo 1035391" clip-path="url(#clip-path-4)">
                  <path id="Trazado_741421" data-name="Trazado 741421" d="M504.317,333.513l7.027,15.933s-13.836,12.5-12.824,15.566L529.905,352.5l-9.931-25.276Z" transform="translate(-498.468 -327.22)"/>
                </g>
              </g>
            </g>
            <path id="Trazado_741422" data-name="Trazado 741422" d="M529.89,356l-1.1-2.509-29.679,12.939s-1.155,1.165-.6,2.087Z" transform="translate(-66.524 -47.187)" fill="#263238"/>
            <path id="Trazado_741423" data-name="Trazado 741423" d="M568.649,359.293l8.8,15.03s-12.322,13.989-10.967,16.925l29.754-16.011-12.746-23.98Z" transform="translate(-75.603 -46.888)" fill="#e8505b"/>
            <g id="Grupo_1035396" data-name="Grupo 1035396" transform="translate(490.772 304.369)" opacity="0.5">
              <g id="Grupo_1035395" data-name="Grupo 1035395">
                <g id="Grupo_1035394" data-name="Grupo 1035394" clip-path="url(#clip-path-5)">
                  <path id="Trazado_741424" data-name="Trazado 741424" d="M568.649,359.293l8.8,15.03s-12.322,13.989-10.967,16.925l29.754-16.011-12.746-23.98Z" transform="translate(-566.375 -351.257)"/>
                </g>
              </g>
            </g>
            <path id="Trazado_741425" data-name="Trazado 741425" d="M596.216,378.567l-1.38-2.366-28.011,16.236s-1.016,1.289-.363,2.141Z" transform="translate(-75.585 -50.218)" fill="#263238"/>
            <path id="Trazado_741426" data-name="Trazado 741426" d="M519.89,110.125l-19.286,1.5-.64-10.8s-7.78-.114-8.944-7.712-2.3-25.262-2.3-25.262a26.714,26.714,0,0,1,27.052-.4l1.25.71Z" transform="translate(-65.237 -8.54)" fill="#ffbe9d"/>
            <path id="Trazado_741427" data-name="Trazado 741427" d="M501.664,105.734a17.873,17.873,0,0,0,9.526-4.216s-1.686,5.976-9.377,6.358Z" transform="translate(-66.965 -13.551)" fill="#eb996e"/>
            <path id="Trazado_741428" data-name="Trazado 741428" d="M521.576,77.985c.122-.075,5.013-2.282,5.578,2.946s-4.8,4.716-4.825,4.567-.753-7.514-.753-7.514" transform="translate(-69.623 -10.34)" fill="#ffbe9d"/>
            <path id="Trazado_741429" data-name="Trazado 741429" d="M524.034,83.6c.021-.019.1.054.259.107a.913.913,0,0,0,.683-.059,2.268,2.268,0,0,0,.824-2.135,3.026,3.026,0,0,0-.4-1.276,1.06,1.06,0,0,0-.761-.626.467.467,0,0,0-.51.308c-.055.153-.01.254-.036.266s-.122-.075-.1-.3a.583.583,0,0,1,.17-.35.691.691,0,0,1,.49-.187,1.284,1.284,0,0,1,1.039.707,3.106,3.106,0,0,1,.473,1.423,2.377,2.377,0,0,1-1.084,2.4.978.978,0,0,1-.847-.049c-.176-.111-.217-.225-.2-.237" transform="translate(-69.945 -10.592)" fill="#eb996e"/>
            <path id="Trazado_741430" data-name="Trazado 741430" d="M492.507,82.081a1.1,1.1,0,0,0,1.2.949,1.05,1.05,0,0,0,.983-1.137,1.1,1.1,0,0,0-1.2-.951,1.051,1.051,0,0,0-.984,1.139" transform="translate(-65.742 -10.804)" fill="#263238"/>
            <path id="Trazado_741431" data-name="Trazado 741431" d="M492.113,80.35c.154.123.892-.6,2.063-.763,1.166-.179,2.109.3,2.216.142.054-.073-.12-.309-.531-.529a3.011,3.011,0,0,0-1.8-.289,2.888,2.888,0,0,0-1.617.785c-.321.327-.407.6-.332.654" transform="translate(-65.687 -10.529)" fill="#263238"/>
            <path id="Trazado_741432" data-name="Trazado 741432" d="M505.636,80.562a1.1,1.1,0,0,0,1.2.95,1.051,1.051,0,0,0,.983-1.138,1.1,1.1,0,0,0-1.2-.951,1.051,1.051,0,0,0-.984,1.139" transform="translate(-67.495 -10.601)" fill="#263238"/>
            <path id="Trazado_741433" data-name="Trazado 741433" d="M505.418,78.736c.155.123.894-.6,2.063-.763,1.166-.179,2.109.3,2.217.141.053-.072-.119-.308-.532-.528a3.018,3.018,0,0,0-1.8-.289,2.894,2.894,0,0,0-1.617.785c-.321.327-.406.6-.332.654" transform="translate(-67.463 -10.314)" fill="#263238"/>
            <path id="Trazado_741434" data-name="Trazado 741434" d="M501.452,88.15a7.827,7.827,0,0,0-1.948-.075c-.3.011-.594-.009-.673-.205a1.535,1.535,0,0,1,.075-.913q.268-1.144.563-2.4a39.45,39.45,0,0,0,1.147-6.229,39.621,39.621,0,0,0-1.646,6.121c-.183.841-.358,1.641-.524,2.407a1.746,1.746,0,0,0,.01,1.194.754.754,0,0,0,.552.367,2.056,2.056,0,0,0,.517,0,7.7,7.7,0,0,0,1.926-.269" transform="translate(-66.521 -10.456)" fill="#263238"/>
            <path id="Trazado_741435" data-name="Trazado 741435" d="M505.528,90.039c-.192.016-.016,1.286-.976,2.34s-2.331,1.1-2.316,1.283c-.007.082.336.2.91.14a3.193,3.193,0,0,0,1.944-1,2.786,2.786,0,0,0,.737-1.951c-.026-.538-.212-.833-.3-.813" transform="translate(-67.041 -12.019)" fill="#263238"/>
            <path id="Trazado_741436" data-name="Trazado 741436" d="M504.328,73.531c.16.3,1.307-.013,2.7-.041,1.4-.055,2.558.191,2.7-.12.061-.148-.173-.42-.664-.665a4.7,4.7,0,0,0-4.116.122c-.475.274-.694.56-.623.7" transform="translate(-67.319 -9.65)" fill="#263238"/>
            <path id="Trazado_741437" data-name="Trazado 741437" d="M492.058,76.366c.243.237,1.009-.153,1.977-.3.963-.183,1.814-.073,1.964-.378.065-.146-.1-.394-.5-.6a2.9,2.9,0,0,0-3.176.547c-.3.321-.378.611-.269.728" transform="translate(-65.676 -9.99)" fill="#263238"/>
            <path id="Trazado_741438" data-name="Trazado 741438" d="M483.646,62.085a2.837,2.837,0,0,1,.685-2.656,2.013,2.013,0,0,1,2.609-.171,2.349,2.349,0,0,1,1.6-3.1c1.23-.253,2.421.536,3.667.7a5.708,5.708,0,0,0,3.5-.91c1.062-.612,2.027-1.386,3.109-1.964a9.829,9.829,0,0,1,13.253,3.965,4.366,4.366,0,0,1,4.827,1.09,7.163,7.163,0,0,1,1.788,4.842,16.048,16.048,0,0,1-.39,3.538c.014.1.036.192.049.29.51,4.2.728,9.179-1.054,9.457-3.106.485-3.189-5.482-3.189-5.482-4.027-.939-3.409-6.862-4.486-7.6s-3.359-2.47-10.781,2.742a15.641,15.641,0,0,1-9.344,2.36c-.068-.005-.136-.006-.2-.012l-.048,0c-.025,0-.044-.014-.069-.017a7.261,7.261,0,0,1-2.173-.581,4.094,4.094,0,0,1-1.955-1.641,2.242,2.242,0,0,1,.1-2.444,4.926,4.926,0,0,1-1.494-2.4" transform="translate(-64.549 -7.052)" fill="#263238"/>
            <path id="Trazado_741439" data-name="Trazado 741439" d="M501.664,111.986l.86,30.218,18.8-40.476-.471-3.747Z" transform="translate(-66.965 -13.079)" fill="#ebebeb"/>
            <path id="Trazado_741440" data-name="Trazado 741440" d="M510.056,218.261c-.689.225-39.835,39.815-38.955,46.926s28.746,59.776,28.746,59.776l19.881-9.8-18.65-46.17.244-2.865,22.793-18.677L522.9,217.412Z" transform="translate(-62.883 -29.021)" fill="#263238"/>
            <path id="Trazado_741441" data-name="Trazado 741441" d="M525.8,225.1c.455.69,7.234,62.886,9.051,66.1S563.9,347.52,563.9,347.52l20.216-8.146-24.679-58.356,2.813-55.232-1.522-15.6L530.2,216.448Z" transform="translate(-70.187 -28.057)" fill="#263238"/>
            <path id="Trazado_741442" data-name="Trazado 741442" d="M534.493,292.9a3.508,3.508,0,0,1-.132-.622c-.075-.452-.172-1.049-.295-1.8-.243-1.609-.584-3.857-1-6.616-.81-5.633-1.919-13.338-3.144-21.851-1.176-8.522-2.24-16.234-3.017-21.872-.361-2.767-.655-5.022-.866-6.635-.088-.752-.159-1.353-.213-1.808a3.464,3.464,0,0,1-.045-.634,3.515,3.515,0,0,1,.132.622c.075.451.172,1.048.295,1.8l1,6.616c.81,5.633,1.919,13.339,3.144,21.855,1.176,8.519,2.24,16.231,3.017,21.868.361,2.767.655,5.022.866,6.636q.133,1.127.213,1.807a3.469,3.469,0,0,1,.045.634" transform="translate(-70.184 -30.844)" fill="#455a64"/>
            <path id="Trazado_741443" data-name="Trazado 741443" d="M563.592,289.87a59.023,59.023,0,0,1-2.769,9.739,59.026,59.026,0,0,1,2.769-9.739" transform="translate(-74.86 -38.694)" fill="#455a64"/>
            <path id="Trazado_741444" data-name="Trazado 741444" d="M567.079,304.244a5.633,5.633,0,0,1-1.1-1.535,15.126,15.126,0,0,1-1.882-8.831,5.649,5.649,0,0,1,.381-1.851,19.728,19.728,0,0,0,2.6,12.216" transform="translate(-75.289 -38.982)" fill="#455a64"/>
            <path id="Trazado_741445" data-name="Trazado 741445" d="M498.173,269.2a10.652,10.652,0,0,1,5.592,5.1c-.109.072-1.074-1.342-2.621-2.743s-3.034-2.243-2.971-2.358" transform="translate(-66.499 -35.934)" fill="#455a64"/>
            <path id="Trazado_741446" data-name="Trazado 741446" d="M501.714,267.084a8.656,8.656,0,0,1,3.02,4.89,26.061,26.061,0,0,1-1.463-2.475,25.855,25.855,0,0,1-1.557-2.415" transform="translate(-66.971 -35.651)" fill="#455a64"/>
            <path id="Trazado_741447" data-name="Trazado 741447" d="M504.541,154.043l5,24.827,4.073,34.646s16.79-2.345,23.945-4.61c8.3-2.627,26.359-4.865,26.359-4.865l-3.044,3.012c6.462-1.809,10.576-7.975,10.576-7.975-11.137-10.329-20.637-31.577-20.637-31.577l-8.468-42.046s-1.286-5.931-2.061-8.569-13.635-11.145-15.417-12.221l-1.12-.529-.356-3.37-1.325-.793-13.916,12.642a15.081,15.081,0,0,0-4.843,9.448,109.071,109.071,0,0,0-.607,15.816c.166,4.925,1.839,16.163,1.839,16.163" transform="translate(-67.095 -13.345)" fill="#6bcfc6"/>
            <path id="Trazado_741448" data-name="Trazado 741448" d="M510.838,112.662s-7.352,3.942-8.627,7.287,2.515,40.02,2.515,40.02l-26.4.495-.083,15.732s41.936,3.314,43.567,1.047c2.206-3.066,4.77-31.723,4.77-31.723l.952-20.619s-2.431-15.724-16.694-12.238" transform="translate(-63.839 -14.972)" fill="#6bcfc6"/>
            <g id="Grupo_1035399" data-name="Grupo 1035399" transform="translate(441.955 135.502)" opacity="0.3">
              <g id="Grupo_1035398" data-name="Grupo 1035398">
                <g id="Grupo_1035397" data-name="Grupo 1035397" clip-path="url(#clip-path-6)">
                  <path id="Trazado_741449" data-name="Trazado 741449" d="M510.533,186.4a25.253,25.253,0,0,0,10.567.987c3.719-.345,7.5-2.38,8.909-5.84,1.076-2.649.627-5.635.79-8.49.141-2.48.756-4.906,1.131-7.362s-.9-6.97-1.71-9.318c0,0-.941,17.024-3.6,24.171a5.858,5.858,0,0,1-1.632,2.61,6.414,6.414,0,0,1-3.451.951,100.02,100.02,0,0,1-11.5-.232" transform="translate(-510.038 -156.376)"/>
                </g>
              </g>
            </g>
            <path id="Trazado_741450" data-name="Trazado 741450" d="M527.456,129.434a2.305,2.305,0,0,1,0,.374c-.01.266-.024.629-.042,1.1-.047.984-.115,2.4-.2,4.212-.1,1.835-.213,4.071-.349,6.663-.159,2.6-.244,5.559-.563,8.819-.284,3.262-.626,6.832-1.035,10.66-.425,3.827-.879,7.916-1.607,12.194a26.585,26.585,0,0,1-.724,3.234,6.312,6.312,0,0,1-1.9,2.852,4.821,4.821,0,0,1-3.285,1.173c-1.165.026-2.331,0-3.511-.018-4.713-.116-9.584-.358-14.571-.628-7.494-.414-14.716-.881-21.465-1.355l-.194-.014V178.5c.034-5.587.065-10.851.094-15.706v-.181l.181,0,25.482-.548,7.129-.124,1.878-.018c.425,0,.644.014.644.014s-.218.024-.643.044l-1.876.075-7.126.226-25.479.7.182-.185c-.016,4.855-.034,10.119-.052,15.706l-.192-.208c6.748.461,13.969.921,21.46,1.335,4.985.27,9.854.515,14.557.637,1.175.016,2.342.047,3.489.023a4.4,4.4,0,0,0,3.034-1.073,5.894,5.894,0,0,0,1.782-2.665,26.42,26.42,0,0,0,.717-3.171c.736-4.255,1.2-8.343,1.644-12.163.424-3.824.783-7.391,1.087-10.649.338-3.255.445-6.215.627-8.808.164-2.589.306-4.822.422-6.657.122-1.809.218-3.223.284-4.205.036-.465.065-.828.085-1.094a2.3,2.3,0,0,1,.044-.372" transform="translate(-63.807 -17.278)" fill="#6bcfc6"/>
            <path id="Trazado_741451" data-name="Trazado 741451" d="M484.2,183.443a67.058,67.058,0,0,1-.178-7.629,66.99,66.99,0,0,1,.258-7.627,67.223,67.223,0,0,1,.177,7.63,66.887,66.887,0,0,1-.257,7.626" transform="translate(-64.609 -22.451)" fill="#263238"/>
            <path id="Trazado_741452" data-name="Trazado 741452" d="M480.9,170.913c-.05-.029.213-.322.715-.156a.813.813,0,0,1,.536.7.96.96,0,0,1-.536.942.985.985,0,0,1-1.062-.195.888.888,0,0,1-.257-.832c.118-.5.465-.6.477-.553.042.049-.165.233-.172.591a.6.6,0,0,0,.219.495.621.621,0,0,0,.615.1.591.591,0,0,0,.316-.523.511.511,0,0,0-.264-.443c-.3-.181-.559-.067-.586-.123" transform="translate(-64.109 -22.787)" fill="#263238"/>
            <path id="Trazado_741453" data-name="Trazado 741453" d="M548.6,133.539s13.735,17.959,15.408,22.853.38,11.921-2.417,15.281-5.054,1.994-5.054,1.994Z" transform="translate(-73.23 -17.826)" fill="#6bcfc6"/>
            <path id="Trazado_741454" data-name="Trazado 741454" d="M556.122,178.18a28.786,28.786,0,0,1-6.958,1.194,28.694,28.694,0,0,1,6.958-1.194" transform="translate(-73.306 -23.78)" fill="#263238"/>
            <path id="Trazado_741455" data-name="Trazado 741455" d="M560.24,193.467a4.6,4.6,0,0,1,.373.948c.209.619.524,1.509.931,2.6a77.242,77.242,0,0,0,3.69,8.322,87.715,87.715,0,0,0,4.614,7.854c.641.975,1.171,1.757,1.541,2.3a4.678,4.678,0,0,1,.536.867,4.54,4.54,0,0,1-.672-.766c-.413-.509-.983-1.267-1.659-2.223a67.38,67.38,0,0,1-4.747-7.827,61.252,61.252,0,0,1-3.593-8.419c-.373-1.111-.645-2.02-.8-2.656a4.63,4.63,0,0,1-.211-1" transform="translate(-74.783 -25.825)" fill="#263238"/>
            <g id="Grupo_1035402" data-name="Grupo 1035402" transform="translate(486.39 169.769)" opacity="0.3">
              <g id="Grupo_1035401" data-name="Grupo 1035401">
                <g id="Grupo_1035400" data-name="Grupo 1035400" clip-path="url(#clip-path-7)">
                  <path id="Trazado_741456" data-name="Trazado 741456" d="M561.318,195.922c2.177,3.879,4.414,7.835,7.73,10.8a19.959,19.959,0,0,1,3.373,3.268,4.112,4.112,0,0,1,.431,4.42,1.388,1.388,0,0,1-1.369.74,1.76,1.76,0,0,1-.9-.726,53.526,53.526,0,0,1-9.12-17.907" transform="translate(-561.318 -195.922)"/>
                </g>
              </g>
            </g>
            <g id="Grupo_1035405" data-name="Grupo 1035405" transform="translate(476.524 118.422)" opacity="0.3">
              <g id="Grupo_1035404" data-name="Grupo 1035404">
                <g id="Grupo_1035403" data-name="Grupo 1035403" clip-path="url(#clip-path-8)">
                  <path id="Trazado_741457" data-name="Trazado 741457" d="M557.985,174.018c1.88-1.351,2.539-3.922,2.259-6.221a23.026,23.026,0,0,0-2.281-6.53,107.536,107.536,0,0,1-6.69-19.621l-1.341-4.981,6.794,35.544Z" transform="translate(-549.932 -136.665)"/>
                </g>
              </g>
            </g>
            <path id="Trazado_741458" data-name="Trazado 741458" d="M519.984,110.11a30.469,30.469,0,0,1,2.56-2.558,30.239,30.239,0,0,1,2.557-2.56,15.213,15.213,0,0,1-5.117,5.118" transform="translate(-69.41 -14.015)" fill="#263238"/>
            <path id="Trazado_741459" data-name="Trazado 741459" d="M516.811,114.41c.022.073-.793.318-2.008.919a15.963,15.963,0,0,0-7.292,7.378c-.587,1.223-.821,2.04-.9,2.019a1.628,1.628,0,0,1,.1-.594,9.8,9.8,0,0,1,.52-1.55,14.336,14.336,0,0,1,7.442-7.531,9.886,9.886,0,0,1,1.545-.539,1.63,1.63,0,0,1,.593-.1" transform="translate(-67.625 -15.271)" fill="#263238"/>
            <path id="Trazado_741460" data-name="Trazado 741460" d="M559.342,177.232a1.52,1.52,0,0,1-.216-.345l-.55-1.03L556.6,171.99l-.008-.016,0-.02c-.859-3.936-2.074-9.676-3.4-16.06-1.22-6.017-2.323-11.461-3.138-15.477l-.9-4.7c-.09-.516-.165-.941-.224-1.282a.229.229,0,1,1,.086-.017l.3,1.266c.258,1.164.609,2.745,1.037,4.672.847,4.009,1.994,9.444,3.262,15.451,1.321,6.384,2.483,12.136,3.257,16.089l-.012-.035,1.857,3.926.481,1.065a1.523,1.523,0,0,1,.141.381" transform="translate(-73.267 -17.885)" fill="#263238"/>
            <path id="Trazado_741461" data-name="Trazado 741461" d="M507.82,162.185a7.73,7.73,0,0,1-.2-1.3c-.1-.919-.23-2.118-.387-3.563-.308-3.011-.7-7.174-1.114-11.773s-.757-8.769-.987-11.786c-.1-1.451-.185-2.654-.25-3.576a7.513,7.513,0,0,1-.032-1.315,7.781,7.781,0,0,1,.2,1.3c.1.919.23,2.118.387,3.564.308,3.011.7,7.173,1.113,11.773s.757,8.764.987,11.782c.1,1.451.185,2.654.25,3.576a7.61,7.61,0,0,1,.033,1.317" transform="translate(-67.388 -17.202)" fill="#263238"/>
            <path id="Trazado_741462" data-name="Trazado 741462" d="M475.693,169.306s-5.694-4.32-7.083-4.58c-1.064-.2-7.419-.094-10.342-.033a2.091,2.091,0,0,0-2.1,2.029,1.207,1.207,0,0,0,.019.207,1.907,1.907,0,0,0,1.39,1.444,2.216,2.216,0,0,0-1.539,2.084c-.024,1.651,1.973,2,1.973,2a2.836,2.836,0,0,0-.285.254,1.969,1.969,0,0,0,.966,3.3l.9.2a1.951,1.951,0,0,0-1.2,1.639c.033,2.172,4.918,2.588,4.918,2.588s12.071,1.911,12.332,1.824.049-12.963.049-12.963" transform="translate(-60.875 -21.973)" fill="#ffbe9d"/>
            <path id="Trazado_741463" data-name="Trazado 741463" d="M459.907,161.583a3.52,3.52,0,0,0,1.439,2.93l6.727-.263s-5.009-1.729-5.722-2.583a5.788,5.788,0,0,0-.96-.939.951.951,0,0,0-1.484.856" transform="translate(-61.391 -21.432)" fill="#ffbe9d"/>
            <path id="Trazado_741464" data-name="Trazado 741464" d="M464.734,164.708a9.874,9.874,0,0,1-3.072.217,12.464,12.464,0,0,1-3.065-.217,9.87,9.87,0,0,1,3.072-.217,12.469,12.469,0,0,1,3.065.217" transform="translate(-61.216 -21.957)" fill="#eb996e"/>
            <path id="Trazado_741465" data-name="Trazado 741465" d="M463.122,169.038a9.745,9.745,0,0,1-5.278-.188,49.966,49.966,0,0,1,5.278.188" transform="translate(-61.116 -22.531)" fill="#eb996e"/>
            <path id="Trazado_741466" data-name="Trazado 741466" d="M467.7,168.521c.1.062-.029.428-.409.673s-.766.214-.782.1.25-.268.545-.464.544-.376.646-.308" transform="translate(-62.272 -22.493)" fill="#eb996e"/>
            <path id="Trazado_741467" data-name="Trazado 741467" d="M463.9,173.944a19.341,19.341,0,0,1-5.783-.191,19.343,19.343,0,0,1,5.783.191" transform="translate(-61.152 -23.175)" fill="#eb996e"/>
            <path id="Trazado_741468" data-name="Trazado 741468" d="M469.01,171.919c.054-.015.159.121.191.385a1.386,1.386,0,0,1-1.177,1.5c-.265.03-.421-.039-.419-.094,0-.119.579-.194.964-.688s.325-1.074.441-1.1" transform="translate(-62.419 -22.949)" fill="#eb996e"/>
            <path id="Trazado_741469" data-name="Trazado 741469" d="M465.164,178.7a15.729,15.729,0,0,1-5.177-.64,15.79,15.79,0,0,1,5.177.64" transform="translate(-61.402 -23.76)" fill="#eb996e"/>
            <path id="Trazado_741470" data-name="Trazado 741470" d="M470.087,176.362c.056-.008.139.139.131.4a1.631,1.631,0,0,1-.36.914c-.493.6-1.045.812-1.107.73-.086-.1.357-.5.763-1s.461-1.028.573-1.048" transform="translate(-62.57 -23.542)" fill="#eb996e"/>
            <path id="Trazado_741471" data-name="Trazado 741471" d="M567.113,223.263a7.688,7.688,0,0,0,5.833-3.675c.138-.232.257-.55.076-.752a.668.668,0,0,0-.508-.153,15.782,15.782,0,0,0-5.528.948.753.753,0,0,0-.5.371.763.763,0,0,0,.023.456l.71,2.733" transform="translate(-75.615 -29.191)" fill="#e8505b"/>
            <g id="Grupo_1035408" data-name="Grupo 1035408" transform="translate(490.849 189.492)" opacity="0.4">
              <g id="Grupo_1035407" data-name="Grupo 1035407">
                <g id="Grupo_1035406" data-name="Grupo 1035406" clip-path="url(#clip-path-9)">
                  <path id="Trazado_741472" data-name="Trazado 741472" d="M567.113,223.263a7.688,7.688,0,0,0,5.833-3.675c.138-.232.257-.55.076-.752a.668.668,0,0,0-.508-.153,15.782,15.782,0,0,0-5.528.948.753.753,0,0,0-.5.371.763.763,0,0,0,.023.456l.71,2.733" transform="translate(-566.464 -218.683)"/>
                </g>
              </g>
            </g>
            <path id="Trazado_741473" data-name="Trazado 741473" d="M501.334,114.143s-2.769,9.3-2.006,8.768,2.418-2,2.418-2Z" transform="translate(-66.636 -15.236)" fill="#ebebeb"/>
            <path id="Trazado_741474" data-name="Trazado 741474" d="M501.552,119.089l-1.515,3.619a4.889,4.889,0,0,0-.293,1.169c-.126,1.014-.27,2.872.334,3a2.034,2.034,0,0,0,1.62-.669Z" transform="translate(-66.694 -15.897)" fill="#263238"/>
            <path id="Trazado_741475" data-name="Trazado 741475" d="M548.49,119.32s-14.814-5.78-23.017-.676-9.7,13.248-14.582,13.248c-9.526,0-9.221-6.722-9.221-6.722l-2.025.613c-.039,1.376-2.208,11.251,7.832,12.475s14.258-12.462,23.29-12.475a29.978,29.978,0,0,1,15.888,4.885l6.488-4.1Z" transform="translate(-66.666 -15.556)" fill="#263238"/>
            <path id="Trazado_741476" data-name="Trazado 741476" d="M512.181,138.214a13.92,13.92,0,0,0,5.715-6.557c2.3-5.309,7.241-11.371,11.367-12.895s13.669-2.586,20.261,1.711l4.223,5.7-5.482,3.555a50.9,50.9,0,0,0-9.659-3.867c-6.813-1.9-10.953.246-14.914,3.995-.246.233-.472.464-.67.687a44.928,44.928,0,0,1-6.271,5.552c-1.937,1.381-3.688,2.132-4.57,2.116" transform="translate(-68.369 -15.675)" fill="#455a64"/>
          </g>
        </g>
        <g id="Grupo_1035415" data-name="Grupo 1035415">
          <g id="Grupo_1035414" data-name="Grupo 1035414" clip-path="url(#clip-path)">
            <path id="Trazado_741477" data-name="Trazado 741477" d="M147.286,41.882c-8.787,1.353-15.228-6.027-17.282-12.6-1.9-6.066-2.8-12.377-5.463-18.147C120.819,3.074,110.958-.652,102.108.094s-17.769,5.181-25.6,9.372L78.668,58S95.72,39.847,103.914,39.517c13.671-.552,12.927,21.919,26.2,25.237,0,0,18.611,5.046,31.195-11.207C169.3,43.233,170,30.7,170,30.7s-6.116,8.623-22.716,11.18" transform="translate(-10.213 0)" fill="#7e5ee3"/>
            <path id="Trazado_741478" data-name="Trazado 741478" d="M76.093,1.63c.12-.005,2.511,51.539,5.34,115.112,2.83,63.6,5.027,115.137,4.906,115.142S83.83,180.357,81,116.761C78.17,53.188,75.974,1.635,76.093,1.63" transform="translate(-10.157 -0.218)" fill="#263238"/>
            <g id="Grupo_1035413" data-name="Grupo 1035413" transform="translate(112.868 25.927)" opacity="0.2">
              <g id="Grupo_1035412" data-name="Grupo 1035412">
                <g id="Grupo_1035411" data-name="Grupo 1035411" clip-path="url(#clip-path-11)">
                  <path id="Trazado_741479" data-name="Trazado 741479" d="M130.255,29.921a59.112,59.112,0,0,0,6.462,14.57c2.531,3.963,6.369,7.3,10.972,8.258a10.693,10.693,0,0,1,2.463.639,2.378,2.378,0,0,1,1.466,1.931c.036,1.271-1.278,2.1-2.419,2.665a19.939,19.939,0,0,1-5.05,1.941c-1.779.332-3.172.517-4.394-.818a25.567,25.567,0,0,1-3.177-3.807c-4.011-6.835-6-16.611-6.321-24.344" transform="translate(-130.255 -29.921)"/>
                </g>
              </g>
            </g>
            <path id="Trazado_741480" data-name="Trazado 741480" d="M142.01,59.534a1.781,1.781,0,0,1-.4-.225c-.25-.161-.607-.417-1.049-.771a18.089,18.089,0,0,1-3.241-3.521,27.045,27.045,0,0,1-3.244-6.311,69.644,69.644,0,0,1-2.4-8.34,93.116,93.116,0,0,1-2.239-15.586c-.112-2.014-.131-3.645-.129-4.772.011-.523.021-.951.029-1.3a1.748,1.748,0,0,1,.041-.452,1.833,1.833,0,0,1,.047.451c.014.345.032.773.053,1.3.05,1.124.116,2.749.267,4.754A104.083,104.083,0,0,0,132.1,40.267a74.235,74.235,0,0,0,2.354,8.3,27.878,27.878,0,0,0,3.121,6.274,19.645,19.645,0,0,0,3.1,3.568c.841.742,1.356,1.094,1.334,1.125" transform="translate(-17.261 -2.437)" fill="#263238"/>
          </g>
        </g>
        <path id="Trazado_741481" data-name="Trazado 741481" d="M14.951,279.182l116.088,19v-19Z" transform="translate(-1.996 -37.267)" fill="#e0e0e0"/>
        <path id="Trazado_741482" data-name="Trazado 741482" d="M171.039,328.727l116.088,19v-19Z" transform="translate(-22.831 -43.88)" fill="#e0e0e0"/>
        <path id="Trazado_741483" data-name="Trazado 741483" d="M326.051,376.121l116.088,19v-19Z" transform="translate(-43.523 -50.207)" fill="#e0e0e0"/>
        <path id="Trazado_741484" data-name="Trazado 741484" d="M480.858,413.836l116.088,19v-19Z" transform="translate(-64.188 -55.241)" fill="#e0e0e0"/>
        <rect id="Rectángulo_351537" data-name="Rectángulo 351537" width="116.088" height="14.234" transform="translate(12.955 227.681)" fill="#ff9d00"/>
        <g id="Grupo_1035420" data-name="Grupo 1035420">
          <g id="Grupo_1035419" data-name="Grupo 1035419" clip-path="url(#clip-path)">
            <g id="Grupo_1035418" data-name="Grupo 1035418" transform="translate(92.818 227.681)" opacity="0.3">
              <g id="Grupo_1035417" data-name="Grupo 1035417">
                <g id="Grupo_1035416" data-name="Grupo 1035416" clip-path="url(#clip-path-13)">
                  <rect id="Rectángulo_351538" data-name="Rectángulo 351538" width="36.225" height="14.234" transform="translate(-0.001)"/>
                </g>
              </g>
            </g>
          </g>
        </g>
        <rect id="Rectángulo_351541" data-name="Rectángulo 351541" width="116.088" height="14.234" transform="translate(148.208 270.612)" fill="#ff9d00"/>
        <g id="Grupo_1035425" data-name="Grupo 1035425">
          <g id="Grupo_1035424" data-name="Grupo 1035424" clip-path="url(#clip-path)">
            <g id="Grupo_1035423" data-name="Grupo 1035423" transform="translate(228.07 270.612)" opacity="0.3">
              <g id="Grupo_1035422" data-name="Grupo 1035422">
                <g id="Grupo_1035421" data-name="Grupo 1035421" clip-path="url(#clip-path-13)">
                  <rect id="Rectángulo_351542" data-name="Rectángulo 351542" width="36.225" height="14.234"/>
                </g>
              </g>
            </g>
          </g>
        </g>
        <rect id="Rectángulo_351545" data-name="Rectángulo 351545" width="116.088" height="14.234" transform="translate(282.528 311.68)" fill="#ff9d00"/>
        <g id="Grupo_1035430" data-name="Grupo 1035430">
          <g id="Grupo_1035429" data-name="Grupo 1035429" clip-path="url(#clip-path)">
            <g id="Grupo_1035428" data-name="Grupo 1035428" transform="translate(362.39 311.68)" opacity="0.3">
              <g id="Grupo_1035427" data-name="Grupo 1035427">
                <g id="Grupo_1035426" data-name="Grupo 1035426" clip-path="url(#clip-path-13)">
                  <rect id="Rectángulo_351546" data-name="Rectángulo 351546" width="36.225" height="14.234"/>
                </g>
              </g>
            </g>
          </g>
        </g>
        <rect id="Rectángulo_351549" data-name="Rectángulo 351549" width="116.088" height="14.234" transform="translate(416.848 344.36)" fill="#ff9d00"/>
        <g id="Grupo_1035435" data-name="Grupo 1035435">
          <g id="Grupo_1035434" data-name="Grupo 1035434" clip-path="url(#clip-path)">
            <g id="Grupo_1035433" data-name="Grupo 1035433" transform="translate(496.71 344.36)" opacity="0.3">
              <g id="Grupo_1035432" data-name="Grupo 1035432">
                <g id="Grupo_1035431" data-name="Grupo 1035431" clip-path="url(#clip-path-13)">
                  <rect id="Rectángulo_351550" data-name="Rectángulo 351550" width="36.225" height="14.234" transform="translate(0 0)"/>
                </g>
              </g>
            </g>
            <path id="Trazado_741485" data-name="Trazado 741485" d="M532.471,337.13a3.157,3.157,0,1,0,3.157-3.157,3.157,3.157,0,0,0-3.157,3.157" transform="translate(-71.077 -44.581)" fill="#ebebeb"/>
          </g>
        </g>
      </g>
    </g>
  </g>
</svg>
