<svg xmlns="http://www.w3.org/2000/svg" width="59.465" height="89.197" viewBox="0 0 59.465 89.197">
  <g id="caja" transform="translate(-0.001)">
    <path id="Trazado_741764" data-name="Trazado 741764" d="M4.461,89.2H55.006a4.46,4.46,0,0,0,4.459-4.46V28.245a4.46,4.46,0,0,0-4.459-4.459V8.919A8.929,8.929,0,0,0,46.086,0H13.38a8.928,8.928,0,0,0-8.92,8.92V23.786A4.46,4.46,0,0,0,0,28.245V84.737a4.46,4.46,0,0,0,4.46,4.46ZM7.434,8.919A5.946,5.946,0,0,1,13.38,2.973H46.086a5.947,5.947,0,0,1,5.946,5.946V23.786H7.434ZM4.461,26.759H55.006a1.486,1.486,0,0,1,1.486,1.486v4.46a13.3,13.3,0,0,1-.345,2.973H11.893a1.487,1.487,0,0,0,0,2.973H55.08a13.381,13.381,0,0,1-11.968,7.433H16.353a13.4,13.4,0,0,1-13.38-13.38v-4.46a1.487,1.487,0,0,1,1.487-1.486Zm11.893,22.3H43.112a16.338,16.338,0,0,0,13.38-6.98V84.737a1.487,1.487,0,0,1-1.486,1.487H4.461a1.487,1.487,0,0,1-1.487-1.487V42.078a16.338,16.338,0,0,0,13.38,6.98Zm0,0" fill="#12263f"/>
    <path id="Trazado_741765" data-name="Trazado 741765" d="M75.843,34.133a7.406,7.406,0,0,0-5.2,2.138c-.016.015-.039.021-.055.037s-.022.039-.037.055a7.424,7.424,0,0,0,10.5,10.5c.016-.015.039-.02.055-.037s.022-.038.037-.054a7.424,7.424,0,0,0-5.3-12.637Zm4.46,7.433a4.385,4.385,0,0,1-.446,1.91l-5.924-5.924a4.385,4.385,0,0,1,1.91-.446A4.46,4.46,0,0,1,80.3,41.566Zm-8.92,0a4.385,4.385,0,0,1,.446-1.91l5.924,5.924a4.374,4.374,0,0,1-1.91.446,4.46,4.46,0,0,1-4.46-4.459Zm0,0" transform="translate(-56.516 -28.187)" fill="#12263f"/>
    <path id="Trazado_741766" data-name="Trazado 741766" d="M195.31,34.133a7.405,7.405,0,0,0-5.2,2.138c-.016.015-.039.021-.055.037s-.022.039-.037.055a7.424,7.424,0,0,0,10.5,10.5c.016-.015.039-.02.055-.037s.022-.038.037-.054a7.425,7.425,0,0,0-5.3-12.637Zm4.46,7.433a4.394,4.394,0,0,1-.446,1.91L193.4,37.552a4.387,4.387,0,0,1,1.91-.446A4.46,4.46,0,0,1,199.77,41.566Zm-8.92,0a4.394,4.394,0,0,1,.446-1.91l5.925,5.924a4.377,4.377,0,0,1-1.911.446,4.46,4.46,0,0,1-4.459-4.459Zm0,0" transform="translate(-155.171 -28.187)" fill="#12263f"/>
    <path id="Trazado_741767" data-name="Trazado 741767" d="M45.641,333.959H84.294a2.973,2.973,0,0,0,2.973-2.973V310.172a2.973,2.973,0,0,0-2.973-2.973H45.641a2.973,2.973,0,0,0-2.973,2.973v20.813A2.973,2.973,0,0,0,45.641,333.959Zm0-23.786H84.294v20.813H45.641Zm0,0" transform="translate(-35.234 -253.681)" fill="#12263f"/>
    <path id="Trazado_741768" data-name="Trazado 741768" d="M108.02,341.332H78.287a1.487,1.487,0,0,0,0,2.973H108.02a1.487,1.487,0,1,0,0-2.973Zm0,0" transform="translate(-63.42 -281.867)" fill="#12263f"/>
    <path id="Trazado_741769" data-name="Trazado 741769" d="M234.859,375.465h-2.973a1.487,1.487,0,0,0,0,2.974h2.973a1.487,1.487,0,0,0,0-2.974Zm0,0" transform="translate(-190.259 -310.054)" fill="#12263f"/>
    <path id="Trazado_741770" data-name="Trazado 741770" d="M99.1,375.465H78.287a1.487,1.487,0,0,0,0,2.974H99.1a1.487,1.487,0,0,0,0-2.974Zm0,0" transform="translate(-63.42 -310.054)" fill="#12263f"/>
    <path id="Trazado_741771" data-name="Trazado 741771" d="M81.26,409.6H78.287a1.487,1.487,0,0,0,0,2.973H81.26a1.487,1.487,0,1,0,0-2.973Zm0,0" transform="translate(-63.42 -338.244)" fill="#12263f"/>
    <path id="Trazado_741772" data-name="Trazado 741772" d="M141.38,409.6H129.487a1.487,1.487,0,1,0,0,2.973H141.38a1.487,1.487,0,0,0,0-2.973Zm0,0" transform="translate(-105.7 -338.244)" fill="#12263f"/>
    <path id="Trazado_741773" data-name="Trazado 741773" d="M234.859,409.6h-2.973a1.487,1.487,0,1,0,0,2.973h2.973a1.487,1.487,0,1,0,0-2.973Zm0,0" transform="translate(-190.259 -338.244)" fill="#12263f"/>
  </g>
</svg>
