<svg xmlns="http://www.w3.org/2000/svg" xmlns:xlink="http://www.w3.org/1999/xlink" width="505" height="423.788" viewBox="0 0 505 423.788">
  <defs>
    <clipPath id="clip-path">
      <rect id="Rectángulo_351297" data-name="Rectángulo 351297" width="420.842" height="411.587" fill="none"/>
    </clipPath>
    <clipPath id="clip-path-5">
      <rect id="Rectángulo_351269" data-name="Rectángulo 351269" width="175.42" height="55.907" fill="none"/>
    </clipPath>
    <clipPath id="clip-path-6">
      <rect id="Rectángulo_351270" data-name="Rectángulo 351270" width="4.495" height="17.615" fill="none"/>
    </clipPath>
    <clipPath id="clip-path-8">
      <rect id="Rectángulo_351283" data-name="Rectángulo 351283" width="13.483" height="28.714" fill="none"/>
    </clipPath>
    <clipPath id="clip-path-9">
      <rect id="Rectángulo_351284" data-name="Rectángulo 351284" width="25.199" height="15.769" fill="none"/>
    </clipPath>
    <clipPath id="clip-path-16">
      <rect id="Rectángulo_351295" data-name="Rectángulo 351295" width="9.009" height="22.341" fill="none"/>
    </clipPath>
  </defs>
  <g id="Grupo_1035869" data-name="Grupo 1035869" transform="translate(-915 -5020.743)">
    <g id="Grupo_1033658" data-name="Grupo 1033658" transform="translate(915 5062.114)">
      <g id="Grupo_171328" data-name="Grupo 171328" transform="translate(0 0)">
        <g id="Grupo_171324" data-name="Grupo 171324" transform="translate(261.129 59.754)">
          <path id="Trazado_207509" data-name="Trazado 207509" d="M2652.98,1352.124a.515.515,0,0,0-.022-.1,80.412,80.412,0,0,0-23.289-36.342,94.536,94.536,0,0,0-33.906-18.938c-23.225-7.57-48.011-7.219-61.213-3.691a.621.621,0,0,0-.458.777.687.687,0,0,0,.837.43c23.226-6.21,97.05-3.956,116.736,58.114a.687.687,0,0,0,.839.428A.625.625,0,0,0,2652.98,1352.124Z" transform="translate(-2534.064 -1290.642)" fill="#fcf7f2"/>
        </g>
        <g id="Grupo_171325" data-name="Grupo 171325" transform="translate(31.994 114.54)">
          <path id="Trazado_207510" data-name="Trazado 207510" d="M897.8,1604.271a.774.774,0,0,0-.106.023c-15.66,4.554-28.826,12.03-39.133,22.221A83.353,83.353,0,0,0,838.73,1658c-7.681,21.425-6.663,44.075-2.467,56.052a.7.7,0,0,0,.861.4.611.611,0,0,0,.449-.776c-7.383-21.074-6.81-88.618,60.54-108.2a.61.61,0,0,0,.446-.777A.691.691,0,0,0,897.8,1604.271Z" transform="translate(-833.026 -1604.264)" fill="#fcf7f2"/>
        </g>
        <g id="Grupo_171327" data-name="Grupo 171327" transform="translate(0 0)">
          <g id="Grupo_171326" data-name="Grupo 171326">
            <path id="Trazado_207511" data-name="Trazado 207511" d="M1073.409,1316.731c33.267-4.881,114.828-174.748-12.53-266.487-39.417-28.393-77.429-11.1-119.726-55-32.146-33.369-56.459-54.691-97.608-58.146-49.56-4.162-121.451,1.507-141.206,56.959-9.028,25.34-13.4,47.205-13.665,73.573-.668,67.38-47.286,73.228-59.025,118.334-18.869,72.5,22.892,129.4,48.732,130.724C702.514,1317.917,1047.909,1319.885,1073.409,1316.731Z" transform="translate(-624.903 -936.014)" fill="#e7f7ff"/>
          </g>
        </g>
      </g>
    </g>
    <g id="Grupo_1034892" data-name="Grupo 1034892" transform="translate(957.079 5020.743)">
      <g id="Grupo_1034891" data-name="Grupo 1034891" clip-path="url(#clip-path)">
        <g id="Grupo_1034857" data-name="Grupo 1034857">
          <g id="Grupo_1034856" data-name="Grupo 1034856" clip-path="url(#clip-path)">
            <path id="Trazado_740384" data-name="Trazado 740384" d="M26.334,439.385c-1.206-1.034-3.9-4.312-1.822-8.125.761-1.4,2.376-2.088,3.839-2.7a15.585,15.585,0,0,0,4.209-2.18c2.282-1.942,2.911-5.168,4.426-7.758,1.739-2.973,4.986-5.2,8.414-5.045,3.928.179,7.2,3.387,8.688,7.044s1.536,7.718,1.567,11.667c.017,2.183-.08,4.646-1.683,6.12-1.478,1.36-3.7,1.377-5.707,1.315L26.8,439.06" transform="translate(-2.035 -35.44)" fill="#f5f5f5"/>
            <path id="Trazado_740385" data-name="Trazado 740385" d="M66.181,377.257H9.74l10.167,60.624a6.768,6.768,0,0,0,4.818,5.4c.065.02.133.036.2.054.168.043.33.1.5.13a7.176,7.176,0,0,0,1.148.133c0,.018.005.038.009.058l.275-.044H52.015a7.1,7.1,0,0,0,1.382-.137,6.8,6.8,0,0,0,5.71-5.926l4.9-41.771.22-1.66H64.2l1.941-16.543ZM55.534,415.928H49.742l.584-17.594h6.711ZM57.6,398.334h5.545L61.08,415.928H56.1Zm-16.548,37.1L40.7,420.147h8.341l-.508,15.285Zm-9.018-15.285h8.105l.352,15.285H33.222Zm.626,15.285h-6.8c-.646-4.127-1.486-9.491-2.4-15.285h8Zm-.954-19.5-1.368-17.594h9.3l.406,17.594Zm8.9,0L40.2,398.334h9.568l-.584,17.594Zm-.5-21.814-.375-16.294H50.447l-.541,16.294Zm-.56,0H30.01L28.745,377.82H39.163Zm-10.09,0H19.368c-.357-2.25-.7-4.38-1-6.3-1.051-6.588-1.447-9.065-1.667-10H28.182Zm.328,4.22,1.368,17.594H22.807c-.281-1.785-.565-3.59-.848-5.4-.654-4.154-1.308-8.306-1.924-12.2ZM22.24,415.928H16.794l-2.951-17.594h5.626c.859,5.437,1.812,11.489,2.772,17.594m.662,4.22c.83,5.289,1.648,10.5,2.4,15.285H20.064L17.5,420.147Zm26.191,15.285.507-15.285h5.572l-1.306,15.285Zm1.372-41.318.541-16.294H58.79L57.4,394.114Zm-34.3-16.294c.224,1.178,1.254,7.59,2.634,16.294H13.135L10.4,377.82Zm42.626,57.612H54.429l1.306-15.285h4.849Zm4.848-41.318H57.96l1.392-16.294h6.2Z" transform="translate(-0.835 -32.328)" fill="#e0e0e0"/>
            <rect id="Rectángulo_351225" data-name="Rectángulo 351225" width="76.071" height="68.058" transform="translate(332.395 86.868)" fill="#fafafa"/>
            <path id="Trazado_740386" data-name="Trazado 740386" d="M439.6,163.049s-.013-.436-.019-1.264-.011-2.055-.02-3.646c-.01-3.2-.026-7.866-.045-13.815-.021-11.891-.051-28.883-.089-49.333l.173.173-76.065.03h-.007l.2-.2c-.009,24.76-.017,48.06-.025,68.058l-.179-.179,55.021.091,15.519.048,4.108.021,1.059.01c.24,0,.366.01.366.01s-.113.006-.345.01l-1.04.01-4.073.021-15.477.048-55.136.091h-.178v-.179c-.007-20-.016-43.3-.025-68.058v-.2h.21l76.065.031h.173v.172c-.037,20.5-.068,37.525-.089,49.443-.02,5.932-.035,10.589-.045,13.776-.009,1.576-.016,2.786-.02,3.613s-.019,1.226-.019,1.226" transform="translate(-31.135 -8.123)" fill="#e0e0e0"/>
            <path id="Trazado_740387" data-name="Trazado 740387" d="M393.775,108.217c0,.112-4,.2-8.942.2s-8.943-.091-8.943-.2,4-.2,8.943-.2,8.942.091,8.942.2" transform="translate(-32.211 -9.256)" fill="#e0e0e0"/>
            <path id="Trazado_740388" data-name="Trazado 740388" d="M426.1,113.806c0,.112-11,.2-24.566.2s-24.568-.091-24.568-.2,11-.2,24.568-.2,24.566.091,24.566.2" transform="translate(-32.303 -9.735)" fill="#e0e0e0"/>
            <rect id="Rectángulo_351226" data-name="Rectángulo 351226" width="3.205" height="3.205" transform="translate(343.809 112.727)" fill="#e0e0e0"/>
            <rect id="Rectángulo_351227" data-name="Rectángulo 351227" width="3.205" height="3.205" transform="translate(351.698 112.727)" fill="#e0e0e0"/>
            <rect id="Rectángulo_351228" data-name="Rectángulo 351228" width="3.205" height="3.205" transform="translate(359.733 112.581)" fill="#e0e0e0"/>
            <rect id="Rectángulo_351229" data-name="Rectángulo 351229" width="3.205" height="3.205" transform="translate(367.476 112.727)" fill="#e0e0e0"/>
            <rect id="Rectángulo_351230" data-name="Rectángulo 351230" width="3.205" height="3.205" transform="translate(375.366 112.727)" fill="#e0e0e0"/>
            <rect id="Rectángulo_351231" data-name="Rectángulo 351231" width="3.205" height="3.205" transform="translate(383.254 112.727)" fill="#e0e0e0"/>
            <rect id="Rectángulo_351232" data-name="Rectángulo 351232" width="3.205" height="3.205" transform="translate(391.143 112.727)" fill="#ebebeb"/>
            <rect id="Rectángulo_351233" data-name="Rectángulo 351233" width="3.205" height="3.205" transform="translate(343.809 119.54)" fill="#ebebeb"/>
            <rect id="Rectángulo_351234" data-name="Rectángulo 351234" width="3.205" height="3.205" transform="translate(351.698 119.54)" fill="#e0e0e0"/>
            <rect id="Rectángulo_351235" data-name="Rectángulo 351235" width="3.205" height="3.205" transform="translate(359.588 119.54)" fill="#ebebeb"/>
            <rect id="Rectángulo_351236" data-name="Rectángulo 351236" width="3.205" height="3.205" transform="translate(367.476 119.54)" fill="#e0e0e0"/>
            <rect id="Rectángulo_351237" data-name="Rectángulo 351237" width="3.205" height="3.205" transform="translate(375.366 119.54)" fill="#e0e0e0"/>
            <rect id="Rectángulo_351238" data-name="Rectángulo 351238" width="3.205" height="3.205" transform="translate(383.4 119.395)" fill="#e0e0e0"/>
            <rect id="Rectángulo_351239" data-name="Rectángulo 351239" width="3.205" height="3.205" transform="translate(391.143 119.54)" fill="#e0e0e0"/>
            <rect id="Rectángulo_351240" data-name="Rectángulo 351240" width="3.205" height="3.205" transform="translate(343.809 126.353)" fill="#e0e0e0"/>
            <rect id="Rectángulo_351241" data-name="Rectángulo 351241" width="3.205" height="3.205" transform="translate(351.844 126.208)" fill="#e0e0e0"/>
            <rect id="Rectángulo_351242" data-name="Rectángulo 351242" width="3.205" height="3.205" transform="translate(359.588 126.353)" fill="#e0e0e0"/>
            <rect id="Rectángulo_351243" data-name="Rectángulo 351243" width="3.205" height="3.205" transform="translate(367.476 126.353)" fill="#ebebeb"/>
            <rect id="Rectángulo_351244" data-name="Rectángulo 351244" width="3.205" height="3.205" transform="translate(375.366 126.353)" fill="#e0e0e0"/>
            <rect id="Rectángulo_351245" data-name="Rectángulo 351245" width="3.205" height="3.205" transform="translate(383.254 126.353)" fill="#e0e0e0"/>
            <rect id="Rectángulo_351246" data-name="Rectángulo 351246" width="3.205" height="3.205" transform="translate(391.143 126.353)" fill="#e0e0e0"/>
            <rect id="Rectángulo_351247" data-name="Rectángulo 351247" width="3.205" height="3.205" transform="translate(343.809 133.167)" fill="#e0e0e0"/>
            <rect id="Rectángulo_351248" data-name="Rectángulo 351248" width="3.205" height="3.205" transform="translate(351.698 133.167)" fill="#e0e0e0"/>
            <rect id="Rectángulo_351249" data-name="Rectángulo 351249" width="3.205" height="3.205" transform="translate(359.588 133.167)" fill="#e0e0e0"/>
            <rect id="Rectángulo_351250" data-name="Rectángulo 351250" width="3.205" height="3.205" transform="translate(367.622 133.022)" fill="#e0e0e0"/>
            <rect id="Rectángulo_351251" data-name="Rectángulo 351251" width="3.205" height="3.205" transform="translate(375.366 133.167)" fill="#e0e0e0"/>
            <rect id="Rectángulo_351252" data-name="Rectángulo 351252" width="3.205" height="3.205" transform="translate(383.254 133.167)" fill="#ebebeb"/>
            <rect id="Rectángulo_351253" data-name="Rectángulo 351253" width="3.205" height="3.205" transform="translate(391.143 133.167)" fill="#e0e0e0"/>
            <rect id="Rectángulo_351254" data-name="Rectángulo 351254" width="3.205" height="3.205" transform="translate(343.809 139.98)" fill="#e0e0e0"/>
            <rect id="Rectángulo_351255" data-name="Rectángulo 351255" width="3.205" height="3.205" transform="translate(351.698 139.98)" fill="#ebebeb"/>
            <rect id="Rectángulo_351256" data-name="Rectángulo 351256" width="3.205" height="3.205" transform="translate(359.588 139.98)" fill="#e0e0e0"/>
            <rect id="Rectángulo_351257" data-name="Rectángulo 351257" width="3.205" height="3.205" transform="translate(367.476 139.98)" fill="#e0e0e0"/>
            <rect id="Rectángulo_351258" data-name="Rectángulo 351258" width="3.205" height="3.205" transform="translate(375.366 139.98)" fill="#e0e0e0"/>
            <rect id="Rectángulo_351259" data-name="Rectángulo 351259" width="3.205" height="3.205" transform="translate(383.4 139.835)" fill="#e0e0e0"/>
            <rect id="Rectángulo_351260" data-name="Rectángulo 351260" width="3.205" height="3.205" transform="translate(391.143 139.98)" fill="#e0e0e0"/>
            <path id="Trazado_740389" data-name="Trazado 740389" d="M425.894,39.449a27.722,27.722,0,1,1-27.722-27.722,27.722,27.722,0,0,1,27.722,27.722" transform="translate(-31.745 -1.005)" fill="#e0e0e0"/>
            <path id="Trazado_740390" data-name="Trazado 740390" d="M423.822,39.391A25.087,25.087,0,1,1,398.735,14.3a25.088,25.088,0,0,1,25.088,25.088" transform="translate(-32.019 -1.226)" fill="#fff"/>
            <path id="Trazado_740391" data-name="Trazado 740391" d="M373.363,37.876s.007.139.008.41,0,.679,0,1.2q0,.4-.006.884c.013.325.058.678.09,1.062s.072.8.112,1.239a13.784,13.784,0,0,0,.239,1.4,24.029,24.029,0,0,0,2.347,6.866,25.075,25.075,0,0,0,5.912,7.538l1.031.88c.365.274.751.529,1.131.8s.755.562,1.177.788l1.261.709.641.357.679.3,1.377.607c.469.19.964.325,1.451.493a12.778,12.778,0,0,0,1.494.443,23.17,23.17,0,0,0,3.145.575c.539.055,1.08.143,1.629.171l1.664.023c.279,0,.56.019.84,0l.845-.073c.563-.056,1.135-.084,1.7-.164a26.379,26.379,0,0,0,3.4-.761l.851-.25c.142-.043.286-.08.426-.129l.414-.167,1.669-.675c.549-.252,1.077-.553,1.622-.829.267-.147.549-.269.806-.438l.774-.5a28.39,28.39,0,0,0,3-2.228l1.365-1.319.344-.331.313-.362.624-.73.626-.732.559-.792.558-.8.28-.4c.086-.139.162-.283.243-.424l.966-1.711.8-1.81a26.806,26.806,0,0,0,1.812-7.815,26.8,26.8,0,0,0-.773-7.988l-.557-1.9-.735-1.823-.185-.453-.226-.432-.449-.862-.45-.858-.526-.809-.523-.8-.263-.4-.3-.373q-.592-.747-1.181-1.487a28.307,28.307,0,0,0-2.683-2.6l-.7-.6c-.232-.2-.5-.359-.742-.54-.5-.345-.989-.712-1.5-1.034l-1.567-.887-.389-.22c-.133-.066-.272-.122-.406-.184l-.811-.359a26.644,26.644,0,0,0-3.277-1.2c-.554-.153-1.116-.255-1.669-.384l-.827-.183c-.276-.056-.558-.072-.834-.11l-1.653-.194c-.549-.045-1.1-.027-1.638-.045a23.472,23.472,0,0,0-3.194.159,12.8,12.8,0,0,0-1.54.244c-.5.1-1.013.172-1.5.3l-1.445.421-.712.208-.682.271-1.343.539c-.447.169-.849.423-1.269.627s-.829.421-1.226.646l-1.137.736a25.1,25.1,0,0,0-6.846,6.7,24.066,24.066,0,0,0-3.225,6.5,13.873,13.873,0,0,0-.418,1.352l-.274,1.213c-.08.376-.173.72-.227,1.041l-.11.877c-.066.517-.117.913-.153,1.19s-.061.405-.061.405.006-.138.033-.408.071-.676.125-1.2c.029-.263.06-.558.1-.881s.138-.668.215-1.047.169-.785.262-1.221a13.34,13.34,0,0,1,.408-1.36,23.914,23.914,0,0,1,3.2-6.556,25.144,25.144,0,0,1,6.866-6.776l1.144-.747c.4-.228.818-.433,1.234-.656.422-.207.827-.464,1.278-.636l1.352-.548.688-.275.718-.211,1.456-.43c.494-.129,1.007-.2,1.516-.305a13.03,13.03,0,0,1,1.553-.25,23.448,23.448,0,0,1,3.223-.168c.547.016,1.1,0,1.653.041l1.67.193c.28.037.563.054.842.109l.836.183c.558.13,1.126.232,1.685.386a26.875,26.875,0,0,1,3.313,1.206l.82.362c.136.062.276.119.411.186l.393.221,1.585.9c.516.325,1.007.695,1.516,1.043.249.182.516.342.751.545l.71.606a28.354,28.354,0,0,1,2.715,2.627l1.2,1.5.3.378.266.4.529.814.531.816.456.867.454.872.229.437.187.457.743,1.843.565,1.921a27.092,27.092,0,0,1,.782,8.077,27.07,27.07,0,0,1-1.833,7.9l-.811,1.83-.978,1.729c-.082.143-.159.289-.246.429l-.283.4-.565.806-.565.8-.634.741-.632.737-.316.365-.347.336L415.276,58.6a28.518,28.518,0,0,1-3.035,2.249l-.783.508c-.259.17-.545.293-.816.442-.55.279-1.085.582-1.638.836l-1.689.68-.419.168c-.142.048-.287.086-.431.13l-.86.251a26.765,26.765,0,0,1-3.441.763c-.574.08-1.152.107-1.721.162l-.853.072c-.283.018-.567,0-.848,0l-1.681-.027c-.554-.028-1.1-.119-1.644-.175a23.571,23.571,0,0,1-3.174-.588,13.014,13.014,0,0,1-1.507-.451c-.492-.17-.99-.308-1.463-.5l-1.388-.616-.684-.3-.646-.362-1.269-.72c-.424-.229-.792-.538-1.184-.8s-.772-.533-1.138-.811q-.524-.451-1.037-.89A25.167,25.167,0,0,1,376.008,51a23.915,23.915,0,0,1-2.315-6.919,13.724,13.724,0,0,1-.226-1.4q-.054-.665-.1-1.244c-.027-.386-.069-.741-.077-1.067.007-.325.015-.621.02-.886.015-.522.025-.923.033-1.2s.02-.409.02-.409" transform="translate(-31.989 -1.216)" fill="#ebebeb"/>
            <path id="Trazado_740392" data-name="Trazado 740392" d="M412.482,41.1a5.062,5.062,0,0,1-.892.059l-2.453.05c-2.081.028-4.981.048-8.254.053h-.162V41.1c0-.524,0-1.076,0-1.637,0-3.655.019-6.965.048-9.36.022-1.155.038-2.111.052-2.837a6.3,6.3,0,0,1,.063-1.04,6.223,6.223,0,0,1,.064,1.04c.013.726.03,1.682.051,2.837.03,2.395.048,5.7.048,9.36,0,.56,0,1.113,0,1.637l-.163-.162c3.273,0,6.173.025,8.254.053l2.453.049a4.992,4.992,0,0,1,.892.059" transform="translate(-34.339 -2.247)" fill="#e0e0e0"/>
            <path id="Trazado_740393" data-name="Trazado 740393" d="M400.968,18.577a7,7,0,0,1,.164,2.119,7,7,0,0,1-.164,2.12,7.057,7.057,0,0,1-.163-2.12,7.053,7.053,0,0,1,.163-2.119" transform="translate(-34.346 -1.592)" fill="#e0e0e0"/>
            <path id="Trazado_740394" data-name="Trazado 740394" d="M413.283,22.3a6.8,6.8,0,0,1-1.362,1.593,6.8,6.8,0,0,1-1.593,1.362,6.8,6.8,0,0,1,1.362-1.593,6.8,6.8,0,0,1,1.593-1.362" transform="translate(-35.162 -1.911)" fill="#e0e0e0"/>
            <path id="Trazado_740395" data-name="Trazado 740395" d="M420.578,30.333a8.755,8.755,0,0,1-1.739,1.16,8.758,8.758,0,0,1-1.831,1.009,5.624,5.624,0,0,1,1.662-1.288,5.588,5.588,0,0,1,1.908-.881" transform="translate(-35.735 -2.598)" fill="#e0e0e0"/>
            <path id="Trazado_740396" data-name="Trazado 740396" d="M424.681,42.24a25.609,25.609,0,0,1-5.781,0,25.609,25.609,0,0,1,5.781,0" transform="translate(-35.897 -3.606)" fill="#e0e0e0"/>
            <path id="Trazado_740397" data-name="Trazado 740397" d="M380.869,41.818a22.853,22.853,0,0,1-5.46,0,22.853,22.853,0,0,1,5.46,0" transform="translate(-32.17 -3.569)" fill="#e0e0e0"/>
            <path id="Trazado_740398" data-name="Trazado 740398" d="M384.076,50.708a11.974,11.974,0,0,1-2.063,1.872,11.909,11.909,0,0,1-2.268,1.616,12.044,12.044,0,0,1,2.064-1.872,12.037,12.037,0,0,1,2.267-1.616" transform="translate(-32.541 -4.345)" fill="#e0e0e0"/>
            <path id="Trazado_740399" data-name="Trazado 740399" d="M391.859,57.571a18.6,18.6,0,0,1-1.4,2.434,18.522,18.522,0,0,1-1.489,2.382,9.143,9.143,0,0,1,1.21-2.55,9.184,9.184,0,0,1,1.684-2.266" transform="translate(-33.331 -4.933)" fill="#e0e0e0"/>
            <path id="Trazado_740400" data-name="Trazado 740400" d="M400.968,65.882a13,13,0,0,1-.163-2.891,12.992,12.992,0,0,1,.163-2.89,12.891,12.891,0,0,1,.164,2.89,12.9,12.9,0,0,1-.164,2.891" transform="translate(-34.346 -5.15)" fill="#e0e0e0"/>
            <path id="Trazado_740401" data-name="Trazado 740401" d="M414.206,61.857a8.477,8.477,0,0,1-2.384-1.633,8.5,8.5,0,0,1-1.942-2.138,26.756,26.756,0,0,1,2.158,1.892,26.9,26.9,0,0,1,2.169,1.879" transform="translate(-35.124 -4.977)" fill="#e0e0e0"/>
            <path id="Trazado_740402" data-name="Trazado 740402" d="M420.669,54.985a10.023,10.023,0,0,1-1.915-1.683,10.069,10.069,0,0,1-1.683-1.915,10.087,10.087,0,0,1,1.915,1.684,10.039,10.039,0,0,1,1.683,1.914" transform="translate(-35.74 -4.403)" fill="#e0e0e0"/>
            <path id="Trazado_740403" data-name="Trazado 740403" d="M383.9,33.037a7.738,7.738,0,0,1-1.69-1.458,7.768,7.768,0,0,1-1.458-1.69,7.738,7.738,0,0,1,1.69,1.458,7.707,7.707,0,0,1,1.458,1.69" transform="translate(-32.627 -2.561)" fill="#e0e0e0"/>
            <path id="Trazado_740404" data-name="Trazado 740404" d="M391.795,24.728a7.408,7.408,0,0,1-1.66-1.423,7.384,7.384,0,0,1-1.43-1.654,7.453,7.453,0,0,1,1.66,1.423,7.443,7.443,0,0,1,1.43,1.654" transform="translate(-33.309 -1.855)" fill="#e0e0e0"/>
            <path id="Trazado_740405" data-name="Trazado 740405" d="M376.237,39.661a25.085,25.085,0,0,1,23.6-25.039c-.494-.029-.99-.048-1.492-.048a25.088,25.088,0,0,0,0,50.175c.5,0,1-.019,1.492-.048a25.086,25.086,0,0,1-23.6-25.039" transform="translate(-31.986 -1.249)" fill="#f5f5f5"/>
            <rect id="Rectángulo_351261" data-name="Rectángulo 351261" width="70.627" height="111.615" transform="translate(16.588 16.068)" fill="#e0e0e0"/>
            <rect id="Rectángulo_351262" data-name="Rectángulo 351262" width="66.581" height="107.683" transform="translate(18.492 18.165)" fill="#f5f5f5"/>
            <rect id="Rectángulo_351263" data-name="Rectángulo 351263" width="26.549" height="41.197" transform="translate(51.782 24.438)" fill="#fff"/>
            <path id="Trazado_740406" data-name="Trazado 740406" d="M72.512,30.619a.991.991,0,1,1-.991-.991.991.991,0,0,1,.991.991" transform="translate(-6.044 -2.539)" fill="#e0e0e0"/>
            <rect id="Rectángulo_351264" data-name="Rectángulo 351264" width="26.549" height="41.197" transform="translate(25.026 77.099)" fill="#fff"/>
            <path id="Trazado_740407" data-name="Trazado 740407" d="M43.249,88.217a.991.991,0,1,1-.991-.991.991.991,0,0,1,.991.991" transform="translate(-3.536 -7.475)" fill="#e0e0e0"/>
            <rect id="Rectángulo_351265" data-name="Rectángulo 351265" width="22.674" height="32.17" transform="translate(24.667 24.438)" fill="#fff"/>
            <path id="Trazado_740408" data-name="Trazado 740408" d="M40.124,29.847a.823.823,0,1,1-.823-.823.823.823,0,0,1,.823.823" transform="translate(-3.297 -2.487)" fill="#e0e0e0"/>
            <rect id="Rectángulo_351266" data-name="Rectángulo 351266" width="24.402" height="13.52" transform="translate(54.955 80.402) rotate(-6.437)" fill="#fff"/>
            <path id="Trazado_740409" data-name="Trazado 740409" d="M74.442,89.149a.84.84,0,1,1-.839-.839.839.839,0,0,1,.839.839" transform="translate(-6.235 -7.568)" fill="#e0e0e0"/>
            <path id="Trazado_740410" data-name="Trazado 740410" d="M50.79,94.584c0,.11-4.169.2-9.31.2s-9.311-.088-9.311-.2,4.168-.2,9.311-.2,9.31.088,9.31.2" transform="translate(-2.757 -8.088)" fill="#e0e0e0"/>
            <path id="Trazado_740411" data-name="Trazado 740411" d="M50.79,97.808c0,.11-4.169.2-9.31.2s-9.311-.088-9.311-.2,4.168-.2,9.311-.2,9.31.089,9.31.2" transform="translate(-2.757 -8.365)" fill="#e0e0e0"/>
            <path id="Trazado_740412" data-name="Trazado 740412" d="M50.79,101.032c0,.11-4.169.2-9.31.2s-9.311-.088-9.311-.2,4.168-.2,9.311-.2,9.31.089,9.31.2" transform="translate(-2.757 -8.641)" fill="#e0e0e0"/>
            <path id="Trazado_740413" data-name="Trazado 740413" d="M50.79,104.256c0,.11-4.169.2-9.31.2s-9.311-.088-9.311-.2,4.168-.2,9.311-.2,9.31.089,9.31.2" transform="translate(-2.757 -8.917)" fill="#e0e0e0"/>
            <path id="Trazado_740414" data-name="Trazado 740414" d="M50.79,107.479c0,.11-4.169.2-9.31.2s-9.311-.088-9.311-.2,4.168-.2,9.311-.2,9.31.089,9.31.2" transform="translate(-2.757 -9.193)" fill="#e0e0e0"/>
            <path id="Trazado_740415" data-name="Trazado 740415" d="M50.79,110.7c0,.11-4.169.2-9.31.2s-9.311-.088-9.311-.2,4.168-.2,9.311-.2,9.31.089,9.31.2" transform="translate(-2.757 -9.47)" fill="#e0e0e0"/>
            <path id="Trazado_740416" data-name="Trazado 740416" d="M50.79,113.927c0,.11-4.169.2-9.31.2s-9.311-.088-9.311-.2,4.168-.2,9.311-.2,9.31.088,9.31.2" transform="translate(-2.757 -9.746)" fill="#e0e0e0"/>
            <path id="Trazado_740417" data-name="Trazado 740417" d="M82.414,91.149c.016.108-4.1.778-9.192,1.5s-9.232,1.213-9.247,1.105,4.1-.778,9.192-1.5,9.231-1.213,9.246-1.105" transform="translate(-5.482 -7.81)" fill="#e0e0e0"/>
            <path id="Trazado_740418" data-name="Trazado 740418" d="M82.818,93.165c.016.108-4.1.778-9.192,1.5s-9.232,1.213-9.247,1.105,4.1-.778,9.192-1.5,9.231-1.212,9.246-1.1" transform="translate(-5.517 -7.982)" fill="#e0e0e0"/>
            <path id="Trazado_740419" data-name="Trazado 740419" d="M83.188,95.027c.016.108-4.1.779-9.192,1.5s-9.232,1.213-9.247,1.105,4.1-.778,9.192-1.5,9.231-1.213,9.246-1.105" transform="translate(-5.549 -8.142)" fill="#e0e0e0"/>
            <path id="Trazado_740420" data-name="Trazado 740420" d="M81.147,36.135c0,.11-4.71.2-10.518.2s-10.519-.088-10.519-.2,4.709-.2,10.519-.2,10.518.089,10.518.2" transform="translate(-5.151 -3.08)" fill="#e0e0e0"/>
            <path id="Trazado_740421" data-name="Trazado 740421" d="M81.147,38.052c0,.11-4.71.2-10.518.2s-10.519-.088-10.519-.2,4.709-.2,10.519-.2,10.518.089,10.518.2" transform="translate(-5.151 -3.244)" fill="#e0e0e0"/>
            <path id="Trazado_740422" data-name="Trazado 740422" d="M81.147,39.969c0,.11-4.71.2-10.518.2s-10.519-.088-10.519-.2,4.709-.2,10.519-.2,10.518.089,10.518.2" transform="translate(-5.151 -3.408)" fill="#e0e0e0"/>
            <path id="Trazado_740423" data-name="Trazado 740423" d="M81.147,41.886c0,.11-4.71.2-10.518.2S60.11,42,60.11,41.886s4.709-.2,10.519-.2,10.518.089,10.518.2" transform="translate(-5.151 -3.572)" fill="#e0e0e0"/>
            <path id="Trazado_740424" data-name="Trazado 740424" d="M81.147,43.8c0,.11-4.71.2-10.518.2s-10.519-.089-10.519-.2,4.709-.2,10.519-.2,10.518.089,10.518.2" transform="translate(-5.151 -3.737)" fill="#e0e0e0"/>
            <path id="Trazado_740425" data-name="Trazado 740425" d="M81.147,45.719c0,.11-4.71.2-10.518.2s-10.519-.088-10.519-.2,4.709-.2,10.519-.2,10.518.088,10.518.2" transform="translate(-5.151 -3.901)" fill="#e0e0e0"/>
            <path id="Trazado_740426" data-name="Trazado 740426" d="M81.147,47.636c0,.11-4.71.2-10.518.2s-10.519-.088-10.519-.2,4.709-.2,10.519-.2,10.518.088,10.518.2" transform="translate(-5.151 -4.065)" fill="#e0e0e0"/>
            <path id="Trazado_740427" data-name="Trazado 740427" d="M81.147,53.324c0,.11-4.71.2-10.518.2s-10.519-.088-10.519-.2,4.709-.2,10.519-.2,10.518.089,10.518.2" transform="translate(-5.151 -4.553)" fill="#e0e0e0"/>
            <path id="Trazado_740428" data-name="Trazado 740428" d="M81.309,55.349c0,.11-4.71.2-10.518.2s-10.519-.088-10.519-.2,4.709-.2,10.519-.2,10.518.089,10.518.2" transform="translate(-5.165 -4.726)" fill="#e0e0e0"/>
            <path id="Trazado_740429" data-name="Trazado 740429" d="M81.471,57.374c0,.111-4.71.2-10.518.2s-10.519-.087-10.519-.2,4.709-.2,10.519-.2,10.518.088,10.518.2" transform="translate(-5.179 -4.9)" fill="#e0e0e0"/>
            <path id="Trazado_740430" data-name="Trazado 740430" d="M81.633,59.4c0,.11-4.71.2-10.518.2S60.6,59.508,60.6,59.4s4.709-.2,10.519-.2,10.518.089,10.518.2" transform="translate(-5.193 -5.073)" fill="#e0e0e0"/>
            <path id="Trazado_740431" data-name="Trazado 740431" d="M81.8,61.423c0,.111-4.71.2-10.518.2s-10.519-.088-10.519-.2,4.709-.2,10.519-.2,10.518.089,10.518.2" transform="translate(-5.207 -5.247)" fill="#e0e0e0"/>
            <path id="Trazado_740432" data-name="Trazado 740432" d="M81.957,63.447c0,.11-4.71.2-10.518.2s-10.519-.088-10.519-.2,4.709-.2,10.519-.2,10.518.089,10.518.2" transform="translate(-5.22 -5.42)" fill="#e0e0e0"/>
          </g>
        </g>
        <g id="Grupo_1034859" data-name="Grupo 1034859">
          <g id="Grupo_1034858" data-name="Grupo 1034858" clip-path="url(#clip-path)">
            <path id="Trazado_740433" data-name="Trazado 740433" d="M420.842,449.88c0,.132-94.217.238-210.411.238C94.2,450.117,0,450.011,0,449.88s94.2-.238,210.43-.238c116.195,0,210.411.106,210.411.238" transform="translate(0 -38.531)" fill="#263238"/>
          </g>
        </g>
        <g id="Grupo_1034867" data-name="Grupo 1034867">
          <g id="Grupo_1034866" data-name="Grupo 1034866" clip-path="url(#clip-path)">
            <path id="Trazado_740434" data-name="Trazado 740434" d="M317.6,316.235H125.479a8.444,8.444,0,0,1-8.444-8.444V28.017a8.444,8.444,0,0,1,8.444-8.444H317.6a8.443,8.443,0,0,1,8.444,8.444V307.792a8.443,8.443,0,0,1-8.444,8.444" transform="translate(-10.029 -1.677)" fill="#e0e0e0"/>
            <path id="Trazado_740435" data-name="Trazado 740435" d="M317.584,316.216s.218-.018.647-.043a9.119,9.119,0,0,0,1.882-.365,8.714,8.714,0,0,0,2.761-1.5,8.479,8.479,0,0,0,2.535-3.492,8.057,8.057,0,0,0,.548-2.553c.048-.922.011-1.9.02-2.926q0-3.073-.009-6.716c-.006-4.855-.012-10.456-.019-16.761-.015-25.225-.037-61.721-.064-106.817-.007-22.55-.016-47.249-.025-73.764q-.005-19.886-.01-41.093,0-10.593,0-21.49-.007-5.443-.016-10.961a8.226,8.226,0,0,0-6.418-7.789,11.652,11.652,0,0,0-2.742-.209h-2.808l-5.642,0H296.837l-23.157,0-47.762,0-100.436,0a8.243,8.243,0,0,0-8.245,7.835c-.041,4.255-.011,8.532-.02,12.777q0,12.745,0,25.316,0,25.136,0,49.5c0,32.451-.007,63.751-.011,93.568s-.014,58.152-.019,84.669q0,4.972,0,9.857c.007,1.626-.019,3.258.016,4.857a8.2,8.2,0,0,0,1.5,4.411,8.371,8.371,0,0,0,3.608,2.888,8.892,8.892,0,0,0,2.246.574c.765.068,1.555.052,2.341.053l9.323,0,35.395.014,106.811.064,29.039.038,7.552.019c1.7.007,2.573.021,2.573.021s-.871.014-2.573.021l-7.552.02-29.039.038-106.811.064-35.395.014-9.323,0c-.784,0-1.569.016-2.375-.054a9.185,9.185,0,0,1-2.333-.594,8.709,8.709,0,0,1-3.75-3,8.538,8.538,0,0,1-1.561-4.585c-.037-1.627-.011-3.238-.02-4.871q0-4.885,0-9.857c-.005-26.518-.012-54.852-.018-84.669s-.007-61.118-.012-93.568q0-24.337,0-49.5,0-12.569,0-25.316c.009-4.252-.022-8.5.021-12.8a8.645,8.645,0,0,1,8.648-8.22l100.436,0,47.762.005,23.157,0,11.383,0h8.45a12.035,12.035,0,0,1,2.824.22,8.6,8.6,0,0,1,6.7,8.141q.005,5.521.012,10.972,0,10.895,0,21.49-.005,21.186-.01,41.093c-.009,26.515-.017,51.214-.025,73.764-.027,45.1-.049,81.592-.065,106.817-.006,6.305-.013,11.906-.018,16.761q-.005,3.641-.009,6.716c-.013,1.026.022,2-.03,2.931a8.119,8.119,0,0,1-.563,2.577,8.53,8.53,0,0,1-2.572,3.51,8.705,8.705,0,0,1-2.789,1.49,8.83,8.83,0,0,1-1.893.347c-.431.018-.648.022-.648.022" transform="translate(-10.01 -1.658)" fill="#263238"/>
            <g id="Grupo_1034862" data-name="Grupo 1034862" transform="translate(125.241 251.947)" opacity="0.3">
              <g id="Grupo_1034861" data-name="Grupo 1034861">
                <g id="Grupo_1034860" data-name="Grupo 1034860" clip-path="url(#clip-path-5)">
                  <path id="Trazado_740436" data-name="Trazado 740436" d="M136.979,331.468H312.4l-1.925-36.486V275.561l-173.5,27.109Z" transform="translate(-136.979 -275.561)"/>
                </g>
              </g>
            </g>
            <g id="Grupo_1034865" data-name="Grupo 1034865" transform="translate(263.744 18.502)" opacity="0.3">
              <g id="Grupo_1034864" data-name="Grupo 1034864">
                <g id="Grupo_1034863" data-name="Grupo 1034863" clip-path="url(#clip-path-6)">
                  <path id="Trazado_740437" data-name="Trazado 740437" d="M288.972,20.236l3.986,11.823v5.792h-4.495Z" transform="translate(-288.463 -20.236)"/>
                </g>
              </g>
            </g>
            <path id="Trazado_740438" data-name="Trazado 740438" d="M127.23,32.573V305.087H317.6V32.573Z" transform="translate(-10.903 -2.791)" fill="#fff"/>
            <path id="Trazado_740439" data-name="Trazado 740439" d="M317.58,256.339s-.01-.353-.015-1.048-.008-1.734-.014-3.1c-.006-2.736-.016-6.786-.027-12.062-.012-10.562-.029-26.028-.05-45.66-.018-39.275-.043-95.22-.073-161.917l.179.179-190.369.023.2-.2V32.8c-.019,104.759-.037,200.427-.049,272.271l-.153-.152,103.929.067,28.34.041,7.379.021c1.663.008,2.516.023,2.516.023s-.853.016-2.516.023l-7.379.021-28.34.041-103.929.067h-.152v-.152c-.013-71.844-.031-167.512-.05-272.271v-.444h.2l190.369.023h.179v.179c-.03,66.7-.056,122.642-.073,161.917-.021,19.633-.038,35.1-.05,45.66-.012,5.276-.021,9.327-.027,12.062-.005,1.364-.011,2.4-.014,3.1s-.015,1.048-.015,1.048" transform="translate(-10.884 -2.772)" fill="#263238"/>
            <path id="Trazado_740440" data-name="Trazado 740440" d="M279.991,39.429H183.67V17.275a5.783,5.783,0,0,1,5.784-5.783h84.753a5.783,5.783,0,0,1,5.784,5.783Z" transform="translate(-15.739 -0.985)" fill="#263238"/>
            <path id="Trazado_740441" data-name="Trazado 740441" d="M247.454,0H222.938L225.8,21.014H244.27Z" transform="translate(-19.104 0)" fill="#263238"/>
            <path id="Trazado_740442" data-name="Trazado 740442" d="M274.384,11.472c0,.112-18.794.2-41.971.2s-41.975-.091-41.975-.2,18.79-.2,41.975-.2,41.971.091,41.971.2" transform="translate(-16.319 -0.966)" fill="#455a64"/>
            <path id="Trazado_740443" data-name="Trazado 740443" d="M186.009,35.463c-.112,0-.2-3.951-.2-8.825s.091-8.827.2-8.827.2,3.952.2,8.827-.091,8.825-.2,8.825" transform="translate(-15.922 -1.526)" fill="#455a64"/>
            <path id="Trazado_740444" data-name="Trazado 740444" d="M285.59,33.329a79.63,79.63,0,0,1-.2-8.013,79.615,79.615,0,0,1,.2-8.013,79.643,79.643,0,0,1,.2,8.013,79.658,79.658,0,0,1-.2,8.013" transform="translate(-24.456 -1.483)" fill="#455a64"/>
            <path id="Trazado_740445" data-name="Trazado 740445" d="M272.452,38.877c0,.112-19.291.2-43.083.2s-43.087-.091-43.087-.2,19.287-.2,43.087-.2,43.083.091,43.083.2" transform="translate(-15.963 -3.314)" fill="#455a64"/>
            <rect id="Rectángulo_351271" data-name="Rectángulo 351271" width="105.132" height="6.462" transform="translate(177.461 82.081)" fill="#e0e0e0"/>
            <rect id="Rectángulo_351272" data-name="Rectángulo 351272" width="47.696" height="6.418" transform="translate(177.461 95.283)" fill="#e0e0e0"/>
            <path id="Trazado_740446" data-name="Trazado 740446" d="M176.583,111.063H159.339a3.531,3.531,0,0,1-3.531-3.532V90.288a3.531,3.531,0,0,1,3.531-3.532h17.244a3.532,3.532,0,0,1,3.532,3.532v17.243a3.532,3.532,0,0,1-3.532,3.532" transform="translate(-13.352 -7.434)" fill="#7e5ee3"/>
            <path id="Trazado_740447" data-name="Trazado 740447" d="M168.081,105.3l-6.809-5.262,1.836-2.376,4.566,3.528,6.493-7.472,2.267,1.97Z" transform="translate(-13.82 -8.031)" fill="#fff"/>
            <rect id="Rectángulo_351273" data-name="Rectángulo 351273" width="105.132" height="6.462" transform="translate(177.461 122.093)" fill="#e0e0e0"/>
            <rect id="Rectángulo_351274" data-name="Rectángulo 351274" width="47.696" height="6.418" transform="translate(177.461 135.294)" fill="#e0e0e0"/>
            <path id="Trazado_740448" data-name="Trazado 740448" d="M176.583,154.825H159.339a3.531,3.531,0,0,1-3.531-3.532V134.05a3.531,3.531,0,0,1,3.531-3.532h17.244a3.532,3.532,0,0,1,3.532,3.532v17.243a3.532,3.532,0,0,1-3.532,3.532" transform="translate(-13.352 -11.185)" fill="#7e5ee3"/>
            <path id="Trazado_740449" data-name="Trazado 740449" d="M168.081,149.059l-6.809-5.262,1.836-2.376,4.566,3.528,6.493-7.472,2.267,1.97Z" transform="translate(-13.82 -11.781)" fill="#fff"/>
            <rect id="Rectángulo_351275" data-name="Rectángulo 351275" width="105.132" height="6.462" transform="translate(177.461 164.964)" fill="#e0e0e0"/>
            <rect id="Rectángulo_351276" data-name="Rectángulo 351276" width="47.696" height="6.418" transform="translate(177.461 178.165)" fill="#e0e0e0"/>
            <rect id="Rectángulo_351277" data-name="Rectángulo 351277" width="105.132" height="6.462" transform="translate(177.461 204.596)" fill="#e0e0e0"/>
            <rect id="Rectángulo_351278" data-name="Rectángulo 351278" width="47.696" height="6.418" transform="translate(177.461 217.798)" fill="#e0e0e0"/>
            <path id="Trazado_740450" data-name="Trazado 740450" d="M176.583,201.714H159.339a3.531,3.531,0,0,1-3.531-3.532V180.939a3.531,3.531,0,0,1,3.531-3.532h17.244a3.532,3.532,0,0,1,3.532,3.532v17.243a3.532,3.532,0,0,1-3.532,3.532" transform="translate(-13.352 -15.203)" fill="#7e5ee3"/>
            <path id="Trazado_740451" data-name="Trazado 740451" d="M168.081,195.947l-6.809-5.262,1.836-2.376,4.566,3.528,6.493-7.472,2.267,1.97Z" transform="translate(-13.82 -15.799)" fill="#fff"/>
            <path id="Trazado_740452" data-name="Trazado 740452" d="M176.892,246.669H158.953a3.6,3.6,0,0,1-3.6-3.6V225.134a3.6,3.6,0,0,1,3.6-3.6h17.939a3.6,3.6,0,0,1,3.6,3.6v17.938a3.6,3.6,0,0,1-3.6,3.6m-17.939-24.307a2.775,2.775,0,0,0-2.772,2.772v17.938a2.775,2.775,0,0,0,2.772,2.772h17.939a2.775,2.775,0,0,0,2.772-2.772V225.134a2.775,2.775,0,0,0-2.772-2.772Z" transform="translate(-13.313 -18.984)" fill="#7e5ee3"/>
            <rect id="Rectángulo_351279" data-name="Rectángulo 351279" width="105.132" height="6.462" transform="translate(177.461 249.932)" fill="#e0e0e0"/>
            <rect id="Rectángulo_351280" data-name="Rectángulo 351280" width="47.696" height="6.418" transform="translate(177.461 263.134)" fill="#e0e0e0"/>
            <path id="Trazado_740453" data-name="Trazado 740453" d="M176.892,296.254H158.953a3.6,3.6,0,0,1-3.6-3.6V274.719a3.6,3.6,0,0,1,3.6-3.6h17.939a3.6,3.6,0,0,1,3.6,3.6v17.938a3.6,3.6,0,0,1-3.6,3.6m-17.939-24.307a2.775,2.775,0,0,0-2.772,2.772v17.938a2.775,2.775,0,0,0,2.772,2.772h17.939a2.775,2.775,0,0,0,2.772-2.772V274.719a2.775,2.775,0,0,0-2.772-2.772Z" transform="translate(-13.313 -23.233)" fill="#7e5ee3"/>
            <rect id="Rectángulo_351281" data-name="Rectángulo 351281" width="104.819" height="8.974" transform="translate(164.807 57.058)" fill="#7e5ee3"/>
          </g>
        </g>
        <g id="Grupo_1034875" data-name="Grupo 1034875">
          <g id="Grupo_1034874" data-name="Grupo 1034874" clip-path="url(#clip-path)">
            <path id="Trazado_740454" data-name="Trazado 740454" d="M199.764,420.586s-3.155-21.693-2.893-34.315-.016-26.82-.016-26.82h1.455s-.985,25.052.087,40.162,3.892,20.973,3.892,20.973Z" transform="translate(-16.869 -30.803)" fill="#263238"/>
            <path id="Trazado_740455" data-name="Trazado 740455" d="M208.952,332.54a3.828,3.828,0,0,0-1.325-1.939,3.687,3.687,0,0,0-3.161.022c-4.393,1.554-8.288,9.745-10.064,14.053l5.832,19.653c10.527-9.767,12.35-22.58,8.717-31.789" transform="translate(-16.659 -28.3)" fill="#455a64"/>
            <path id="Trazado_740456" data-name="Trazado 740456" d="M207.834,331.5a1.154,1.154,0,0,1-.085.256l-.285.717c-.256.618-.614,1.518-1.043,2.633-.859,2.232-1.953,5.352-2.931,8.867s-1.645,6.755-2.059,9.11c-.208,1.178-.364,2.133-.464,2.8-.051.309-.092.56-.124.761a1.113,1.113,0,0,1-.06.263,1.159,1.159,0,0,1,.012-.27c.021-.2.048-.455.08-.767.071-.667.2-1.627.389-2.811a83.633,83.633,0,0,1,5-18.011c.45-1.11.833-2,1.115-2.608l.327-.7a1.136,1.136,0,0,1,.129-.237" transform="translate(-17.205 -28.408)" fill="#263238"/>
            <path id="Trazado_740457" data-name="Trazado 740457" d="M197.1,369.986a17.8,17.8,0,0,1-8.989-14.943c-.21-4.361,1.13-8.64,2.648-12.734a1.648,1.648,0,0,1,.617-.925,1.569,1.569,0,0,1,1.49.232c3.973,2.263,6.38,6.575,7.661,10.963a22.129,22.129,0,0,1,.9,9.015,14.981,14.981,0,0,1-4.326,8.391" transform="translate(-16.118 -29.245)" fill="#455a64"/>
            <path id="Trazado_740458" data-name="Trazado 740458" d="M197.584,370.286a1.087,1.087,0,0,1-.021-.263c0-.2-.009-.449-.015-.754,0-.655-.028-1.6-.082-2.77a75.741,75.741,0,0,0-1.015-9.079c-.606-3.52-1.342-6.672-1.884-8.95-.267-1.115-.486-2.028-.647-2.7-.068-.3-.123-.542-.168-.736a1.172,1.172,0,0,1-.043-.261,1.043,1.043,0,0,1,.09.249c.057.191.126.431.212.724.18.63.428,1.545.721,2.68.585,2.269,1.349,5.421,1.957,8.951a66.378,66.378,0,0,1,.948,9.112c.032,1.173.033,2.123.005,2.778-.013.306-.023.556-.031.755a1.087,1.087,0,0,1-.027.262" transform="translate(-16.599 -29.545)" fill="#263238"/>
            <g id="Grupo_1034870" data-name="Grupo 1034870" transform="translate(171.973 312.026)" opacity="0.3">
              <g id="Grupo_1034869" data-name="Grupo 1034869">
                <g id="Grupo_1034868" data-name="Grupo 1034868" clip-path="url(#clip-path-8)">
                  <path id="Trazado_740459" data-name="Trazado 740459" d="M197.1,369.986a17.8,17.8,0,0,1-8.989-14.943c-.21-4.361,1.13-8.64,2.648-12.734a1.648,1.648,0,0,1,.617-.925,1.569,1.569,0,0,1,1.49.232c3.973,2.263,6.38,6.575,7.661,10.963a22.129,22.129,0,0,1,.9,9.015,14.981,14.981,0,0,1-4.326,8.391" transform="translate(-188.091 -341.271)"/>
                </g>
              </g>
            </g>
            <path id="Trazado_740460" data-name="Trazado 740460" d="M204.693,408.935c5.381,1.182,9.811,4.977,15,6.823,3.434,1.221,7.318,1.653,10.06,4.054-.658-1.661-2.218-2.768-3.734-3.714a66.94,66.94,0,0,0-13.6-6.492c-2.442-.843-5.092-1.548-7.581-.853" transform="translate(-17.541 -35.003)" fill="#455a64"/>
            <path id="Trazado_740461" data-name="Trazado 740461" d="M194.26,413.556c-6.738-.109-13.833-5.845-20.54-6.188,7.018-2.266,17.068-.415,20.54,6.188" transform="translate(-14.887 -34.83)" fill="#455a64"/>
            <path id="Trazado_740462" data-name="Trazado 740462" d="M199.064,395.774a21.93,21.93,0,0,1,10.772-.733,65.493,65.493,0,0,1,10.517,2.859c-.347-2.338-2.24-4.1-4.018-5.652A28,28,0,0,0,212.112,389a9.407,9.407,0,0,0-5.064-1.429,8.008,8.008,0,0,0-5.589,2.817,9.284,9.284,0,0,0-2.395,5.384" transform="translate(-17.059 -33.212)" fill="#455a64"/>
            <path id="Trazado_740463" data-name="Trazado 740463" d="M182.417,388.1c-4.241-3.622-10.666-3.268-16.243-3.142a132.28,132.28,0,0,1,25.19,15.7c.227-3.942-3.59-7.981-8.947-12.555" transform="translate(-14.24 -32.983)" fill="#455a64"/>
            <g id="Grupo_1034873" data-name="Grupo 1034873" transform="translate(151.934 351.908)" opacity="0.3">
              <g id="Grupo_1034872" data-name="Grupo 1034872">
                <g id="Grupo_1034871" data-name="Grupo 1034871" clip-path="url(#clip-path-9)">
                  <path id="Trazado_740464" data-name="Trazado 740464" d="M182.417,388.1c-4.241-3.622-10.666-3.268-16.243-3.142a132.28,132.28,0,0,1,25.19,15.7c.227-3.942-3.59-7.981-8.947-12.555" transform="translate(-166.174 -384.891)"/>
                </g>
              </g>
            </g>
            <path id="Trazado_740465" data-name="Trazado 740465" d="M201.149,381.3a47.3,47.3,0,0,1,6.524-3.792c2.232-1.014,4.316-2.63,6.471-3.8a70.65,70.65,0,0,0,7.784-5.495,20.217,20.217,0,0,1,8.526-4.069,16.758,16.758,0,0,0-7.759.449,50.1,50.1,0,0,0-7.3,2.841c-3.309,1.491-6.675,3.018-9.38,5.438s-5.15,4.807-4.864,8.425" transform="translate(-17.235 -31.182)" fill="#455a64"/>
            <path id="Trazado_740466" data-name="Trazado 740466" d="M219.05,413.746a.822.822,0,0,1-.213-.092l-.588-.3c-.507-.27-1.236-.67-2.154-1.131-.453-.24-.956-.49-1.5-.746s-1.127-.534-1.75-.8a25.588,25.588,0,0,0-4.149-1.445,8.9,8.9,0,0,0-4.322-.109,12.313,12.313,0,0,0-1.831.547,9.431,9.431,0,0,0-3.336,2.294c-.39.418-.581.674-.6.661a.873.873,0,0,1,.121-.2,6.578,6.578,0,0,1,.408-.526,8.71,8.71,0,0,1,1.835-1.615,9.181,9.181,0,0,1,1.495-.8,12.134,12.134,0,0,1,1.856-.578,8.988,8.988,0,0,1,4.429.09,24.557,24.557,0,0,1,4.182,1.477c.624.276,1.211.549,1.749.827s1.045.525,1.495.774c.91.482,1.627.905,2.12,1.2l.566.344a.842.842,0,0,1,.189.134" transform="translate(-17.019 -35.02)" fill="#263238"/>
            <path id="Trazado_740467" data-name="Trazado 740467" d="M190.688,410.57a1.562,1.562,0,0,1,.422.123,9.442,9.442,0,0,1,1.1.477,13.327,13.327,0,0,1,5.63,5.409,9.265,9.265,0,0,1,.52,1.078,1.542,1.542,0,0,1,.141.416c-.039.017-.291-.553-.808-1.409a14.941,14.941,0,0,0-5.562-5.344c-.876-.483-1.456-.711-1.441-.751" transform="translate(-16.341 -35.183)" fill="#263238"/>
            <path id="Trazado_740468" data-name="Trazado 740468" d="M174.382,388.035a1.387,1.387,0,0,1,.287.085l.809.288,1.275.47c.5.185,1.037.457,1.648.726a38.973,38.973,0,0,1,8.773,5.589,42.929,42.929,0,0,1,4.091,4.028,45.129,45.129,0,0,1,2.9,3.679c.77,1.09,1.353,2,1.753,2.625l.461.723a1.439,1.439,0,0,1,.15.261,1.37,1.37,0,0,1-.189-.233c-.118-.157-.289-.391-.5-.7-.424-.613-1.029-1.5-1.813-2.578s-1.769-2.313-2.93-3.631a44.875,44.875,0,0,0-4.081-3.992,41.021,41.021,0,0,0-8.689-5.618c-.6-.278-1.136-.56-1.627-.756l-1.257-.507-.792-.329a1.425,1.425,0,0,1-.271-.131" transform="translate(-14.943 -33.252)" fill="#263238"/>
            <path id="Trazado_740469" data-name="Trazado 740469" d="M209.092,392.355a2.3,2.3,0,0,1-.538-.07l-.619-.114c-.24-.047-.521-.048-.827-.079a8.48,8.48,0,0,0-4.631.914,8.373,8.373,0,0,0-2.107,1.563,9.5,9.5,0,0,0-1.354,1.675,13.855,13.855,0,0,0-.926,1.767,1.959,1.959,0,0,1,.136-.525,7.552,7.552,0,0,1,.645-1.332,8.922,8.922,0,0,1,1.341-1.741,8.2,8.2,0,0,1,6.91-2.491c.31.043.594.057.836.116l.617.155a2.355,2.355,0,0,1,.517.161" transform="translate(-16.975 -33.581)" fill="#263238"/>
            <path id="Trazado_740470" data-name="Trazado 740470" d="M215.835,369.422a1.419,1.419,0,0,1-.255.157l-.752.408c-.654.353-1.595.872-2.737,1.546s-2.478,1.521-3.9,2.54a32.665,32.665,0,0,0-4.358,3.651,11.09,11.09,0,0,0-1.783,2.308c-.442.848-.863,1.667-1.251,2.454a44.234,44.234,0,0,0-1.872,4.262,25.95,25.95,0,0,0-.911,3c-.173.721-.235,1.128-.259,1.124a1.418,1.418,0,0,1,.027-.3c.024-.195.065-.481.14-.846a22.365,22.365,0,0,1,.842-3.039,41.071,41.071,0,0,1,1.833-4.3c.384-.792.8-1.615,1.241-2.464a11.147,11.147,0,0,1,1.819-2.367,31.636,31.636,0,0,1,4.4-3.665c1.44-1.014,2.794-1.84,3.946-2.506s2.112-1.155,2.78-1.481l.773-.369a1.428,1.428,0,0,1,.277-.113" transform="translate(-16.946 -31.657)" fill="#263238"/>
            <path id="Trazado_740471" data-name="Trazado 740471" d="M196.442,390.423a2.717,2.717,0,0,1-.133-.568c-.079-.416-.177-.937-.3-1.557a39.788,39.788,0,0,0-3.2-9.9l-.657-1.443a2.739,2.739,0,0,1-.216-.542,2.784,2.784,0,0,1,.3.5c.179.329.431.809.727,1.411a33.236,33.236,0,0,1,3.212,9.947c.106.663.182,1.2.22,1.573a2.72,2.72,0,0,1,.041.582" transform="translate(-16.448 -32.256)" fill="#263238"/>
            <path id="Trazado_740472" data-name="Trazado 740472" d="M194.6,373.15a18.275,18.275,0,0,0-2.192-7.274,24.013,24.013,0,0,0-16.276-12.138L191.2,376.2l1.946,4.008a11.521,11.521,0,0,0,1.453-7.056" transform="translate(-15.093 -30.313)" fill="#455a64"/>
            <rect id="Rectángulo_351285" data-name="Rectángulo 351285" width="35.04" height="6.211" transform="translate(166.083 387.099)" fill="#ff9d00"/>
            <path id="Trazado_740473" data-name="Trazado 740473" d="M184.51,428.826l2.983,19.271h23.263l3.56-19.271Z" transform="translate(-15.811 -36.748)" fill="#ff9d00"/>
            <path id="Trazado_740474" data-name="Trazado 740474" d="M216.643,430.17c0,.068-7.9.123-17.652.123s-17.653-.056-17.653-.123,7.9-.123,17.653-.123,17.652.056,17.652.123" transform="translate(-15.54 -36.852)" fill="#263238"/>
          </g>
        </g>
        <g id="Grupo_1034877" data-name="Grupo 1034877">
          <g id="Grupo_1034876" data-name="Grupo 1034876" clip-path="url(#clip-path)">
            <path id="Trazado_740475" data-name="Trazado 740475" d="M358.2,184.507l-1.858-4.41a18.247,18.247,0,1,0-3.078,5.767l0,.01Z" transform="translate(-27.488 -13.397)" fill="#fff"/>
            <path id="Trazado_740476" data-name="Trazado 740476" d="M358.186,184.488a2.24,2.24,0,0,1-.3.1l-.933.279-3.684,1.073a.088.088,0,0,1-.108-.059.094.094,0,0,1,0-.059l0-.009.148.089a18.14,18.14,0,0,1-6.948,5.435,18.783,18.783,0,0,1-5.642,1.493,18.343,18.343,0,0,1-6.611-.566,18.759,18.759,0,0,1-6.539-3.317,17.987,17.987,0,0,1-5.041-6.121,18.809,18.809,0,0,1-1.979-8.2,18.466,18.466,0,0,1,8.006-15.279,18.771,18.771,0,0,1,7.954-3.057,17.95,17.95,0,0,1,7.971.72,18.775,18.775,0,0,1,6.461,3.588,18.441,18.441,0,0,1,4.193,5.2l.67,1.4c.208.464.355.944.529,1.4a16.567,16.567,0,0,1,.707,2.737,18.142,18.142,0,0,1-.637,8.772l0-.059c.576,1.424,1.027,2.535,1.343,3.316l.335.847a2.114,2.114,0,0,1,.1.28,3.182,3.182,0,0,1-.142-.3l-.38-.85-1.414-3.229a.089.089,0,0,1,0-.059,18.2,18.2,0,0,0,.528-8.671,16.389,16.389,0,0,0-.719-2.69c-.176-.449-.322-.92-.53-1.374l-.667-1.371a18.163,18.163,0,0,0-4.145-5.076,18.47,18.47,0,0,0-6.347-3.491,17.583,17.583,0,0,0-7.8-.682,18.381,18.381,0,0,0-7.768,3,18.075,18.075,0,0,0-7.821,14.926,18.437,18.437,0,0,0,1.922,8.017,17.634,17.634,0,0,0,4.914,6,18.444,18.444,0,0,0,6.395,3.277,18.1,18.1,0,0,0,6.485.592,18.617,18.617,0,0,0,5.561-1.427,18.207,18.207,0,0,0,6.923-5.289.087.087,0,0,1,.122-.016.09.09,0,0,1,.026.1l0,.009-.1-.118,3.659-.96.963-.246a3.179,3.179,0,0,1,.342-.078" transform="translate(-27.469 -13.378)" fill="#263238"/>
            <path id="Trazado_740477" data-name="Trazado 740477" d="M335.694,176.605a1.993,1.993,0,1,1-1.992-1.992,1.992,1.992,0,0,1,1.992,1.992" transform="translate(-28.425 -14.963)" fill="#263238"/>
            <path id="Trazado_740478" data-name="Trazado 740478" d="M343.035,176.605a1.993,1.993,0,1,1-1.992-1.992,1.992,1.992,0,0,1,1.992,1.992" transform="translate(-29.054 -14.963)" fill="#263238"/>
            <path id="Trazado_740479" data-name="Trazado 740479" d="M350.183,176.605a1.993,1.993,0,1,1-1.992-1.992,1.992,1.992,0,0,1,1.992,1.992" transform="translate(-29.667 -14.963)" fill="#263238"/>
          </g>
        </g>
        <g id="Grupo_1034879" data-name="Grupo 1034879">
          <g id="Grupo_1034878" data-name="Grupo 1034878" clip-path="url(#clip-path)">
            <path id="Trazado_740480" data-name="Trazado 740480" d="M96.92,143.147l.867-5.086a17.329,17.329,0,1,1,3.994,4.751l.005.008Z" transform="translate(-8.185 -9.615)" fill="#fff"/>
            <path id="Trazado_740481" data-name="Trazado 740481" d="M96.909,143.131a2.777,2.777,0,0,0,.3-.008l.925-.046,3.643-.2a.071.071,0,0,0,.068-.076.069.069,0,0,0-.013-.038l-.005-.008-.106.1a17.344,17.344,0,0,0,7.566,3.686,17.623,17.623,0,0,0,2.669.341c.465.032.941,0,1.424,0,.241-.007.485,0,.73-.021l.739-.085a17.24,17.24,0,0,0,6.049-1.848,17.385,17.385,0,0,0,8.945-19.219,17.632,17.632,0,0,0-6.885-10.436,17.551,17.551,0,0,0-3.665-1.99,17.259,17.259,0,0,0-7.893-1.2,17.44,17.44,0,0,0-16,17.89,17.2,17.2,0,0,0,2.311,8.111l-.009-.049c-.262,1.652-.464,2.93-.605,3.814-.063.413-.112.733-.147.967a3.087,3.087,0,0,0-.041.317s.028-.12.071-.342c.045-.238.106-.562.185-.981.158-.87.388-2.126.684-3.751a.077.077,0,0,0-.008-.049,17.2,17.2,0,0,1,13.587-25.585,16.942,16.942,0,0,1,7.734,1.185,17.289,17.289,0,0,1,3.59,1.951A16.924,16.924,0,0,1,129.5,125.78a17.1,17.1,0,0,1-.1,7.887,17.263,17.263,0,0,1-8.642,10.992,17.019,17.019,0,0,1-5.941,1.846l-.727.089c-.24.027-.481.016-.719.025-.475,0-.944.038-1.4.01a17.117,17.117,0,0,1-10.153-3.889.073.073,0,0,0-.106.1l.005.008.054-.114-3.589.284-.942.08c-.214.019-.33.035-.33.035" transform="translate(-8.174 -9.599)" fill="#263238"/>
            <path id="Trazado_740482" data-name="Trazado 740482" d="M106.259,131.9l1.909-1.909,3.682,3.272,7.227-6.954,1.773,1.909-9.273,8.727Z" transform="translate(-9.106 -10.823)" fill="#7e5ee3"/>
          </g>
        </g>
        <g id="Grupo_1034881" data-name="Grupo 1034881">
          <g id="Grupo_1034880" data-name="Grupo 1034880" clip-path="url(#clip-path)">
            <path id="Trazado_740483" data-name="Trazado 740483" d="M435.624,342.253c.023-.215.043-.429.052-.643.184-4.114-1.488-8.058-3.1-11.85-4.313-10.168-8.485-20.955-7.272-31.928,1.6-14.512,12.273-26.513,16.081-40.547a3.8,3.8,0,0,1,3.681-2.79h0a3.806,3.806,0,0,1,3.654,4.941c-4.242,13.126-13.92,24.631-15.441,38.4-1.211,10.973,2.961,21.76,7.272,31.928,1.609,3.793,3.28,7.736,3.1,11.85s-2.83,8.438-6.907,9.1H376.109a3.821,3.821,0,0,1-3.825-3.814v-.826a3.82,3.82,0,0,1,3.825-3.814Z" transform="translate(-31.902 -21.809)" fill="#455a64"/>
            <path id="Trazado_740484" data-name="Trazado 740484" d="M446.272,442.155H358.28a3.866,3.866,0,0,1-3.137-1.658,4.749,4.749,0,0,1-.643-4.252l25.047-76.754,1.307.427-25.047,76.754a3.367,3.367,0,0,0,.449,3.017,2.508,2.508,0,0,0,2.024,1.091h87.992a2.474,2.474,0,0,0,1.988-1.04,3.373,3.373,0,0,0,.528-2.932l-21.526-76.919,1.324-.37,21.525,76.919a4.751,4.751,0,0,1-.756,4.134,3.869,3.869,0,0,1-3.082,1.583" transform="translate(-30.358 -30.806)" fill="#e0e0e0"/>
            <path id="Trazado_740485" data-name="Trazado 740485" d="M319.916,296.389s3.2-7.787,6.37-9.435a40.47,40.47,0,0,1,7.2-2.7h14.092l.14,9.123a6.206,6.206,0,0,1-4.825,1.655c-2.79-.386-9.754-2.107-9.754-2.107l-3.438.188-3.168,4.063s-2.572.781-1.667-1.652,1.309-3.506,1.309-3.506-3.043,4.735-4.21,4.953a2.586,2.586,0,0,1-2.047-.582" transform="translate(-27.415 -24.359)" fill="#6f4439"/>
            <path id="Trazado_740486" data-name="Trazado 740486" d="M380.73,265.406l-11.215,16.131-19.371,1.1-.264,8.85,14.6,2.874a23.528,23.528,0,0,0,20.95-6.219l2.136-19.51Z" transform="translate(-29.982 -22.744)" fill="#ae7461"/>
            <path id="Trazado_740487" data-name="Trazado 740487" d="M374.109,410.531l13.035,12.747s-9.411,18.17-7.246,20.771l27.211-25.605-19.443-20.736Z" transform="translate(-32.059 -34.081)" fill="#263238"/>
            <path id="Trazado_740488" data-name="Trazado 740488" d="M396.345,415.784a1.447,1.447,0,0,1,1.9.474,1.467,1.467,0,0,1-.56,1.9,1.523,1.523,0,0,1-2.011-.511,1.542,1.542,0,0,1,.8-1.93" transform="translate(-33.899 -35.615)" fill="#e0e0e0"/>
            <path id="Trazado_740489" data-name="Trazado 740489" d="M407.61,420.2l-2.047-2.01-25.324,25.3s-.741,1.638.159,2.313Z" transform="translate(-32.559 -35.836)" fill="#455a64"/>
            <path id="Trazado_740490" data-name="Trazado 740490" d="M387.746,425.862c.123.122.842-.447,1.877-.659,1.032-.239,1.883-.014,1.958-.178.1-.139-.809-.7-2.059-.423s-1.915,1.173-1.776,1.261" transform="translate(-33.226 -36.379)" fill="#fff"/>
            <path id="Trazado_740491" data-name="Trazado 740491" d="M385.78,430.076c.085.15.862-.178,1.816-.073.958.078,1.616.544,1.743.413.144-.1-.46-.918-1.649-1.027s-2.02.564-1.909.687" transform="translate(-33.058 -36.795)" fill="#fff"/>
            <path id="Trazado_740492" data-name="Trazado 740492" d="M387.06,435.2c.146-.087-.262-.887-1.254-1.253s-1.872-.054-1.829.1c.023.175.775.163,1.584.475.816.293,1.356.785,1.5.674" transform="translate(-32.904 -37.172)" fill="#fff"/>
            <path id="Trazado_740493" data-name="Trazado 740493" d="M384.87,422.191c.165.062.61-.685,1.406-1.343.784-.674,1.594-.987,1.562-1.159-.009-.163-1.019-.09-1.948.7s-1.179,1.766-1.02,1.8" transform="translate(-32.977 -35.958)" fill="#fff"/>
            <path id="Trazado_740494" data-name="Trazado 740494" d="M368.5,312.358c-2.384,0-60.449,16.915-66.733,22.632s-10.984,76.473-10.984,76.473l24.347,8.348s5.131-34.556,8.242-45.716a57.062,57.062,0,0,0,1.9-17.156l48.208-21Z" transform="translate(-24.918 -26.767)" fill="#12263f"/>
            <path id="Trazado_740495" data-name="Trazado 740495" d="M372.845,315.452c-1.083.476-43.271,18.489-47.236,30.557-3.231,9.833.525,18.493,5.039,25.26,5.1,7.64,42.462,41.738,42.462,41.738l21.089-15.08-36.156-37.341s18.971-11.71,19.621-11.71,20.371-1.3,26.622-2.011c5.838-.661,9.032-9.032,9.032-9.032l5.207-24L379.4,304.8Z" transform="translate(-27.799 -26.12)" fill="#12263f"/>
            <path id="Trazado_740496" data-name="Trazado 740496" d="M372.834,315.445s.135-.24.412-.7l1.24-2.047,4.845-7.935.025-.04.046.011,39.141,8.97.121.027-.027.122-5.186,24,0,.013,0,.009a21.035,21.035,0,0,1-3.715,6.016,10.709,10.709,0,0,1-2.861,2.277,4.387,4.387,0,0,1-.847.389,5.028,5.028,0,0,1-.893.285c-.308.058-.619.132-.927.176l-.924.1c-4.939.487-10.048.853-15.3,1.236l-7.99.545-2.033.123-.261.011c-.057,0-.049.018-.075.02a1.039,1.039,0,0,0-.1.044c-.145.062-.3.148-.446.223l-.893.494c-1.187.676-2.371,1.377-3.559,2.086-4.752,2.841-9.58,5.8-14.492,8.827l.034-.269,28.237,29.154,7.923,8.184.144.149-.168.12L373.2,413.141l-.115.083-.1-.1q-11.327-10.382-21.687-20.276c-3.441-3.291-6.789-6.535-10.008-9.756s-6.343-6.382-9.159-9.676c-.368-.4-.672-.851-1.007-1.274a14.847,14.847,0,0,1-.938-1.31c-.583-.894-1.139-1.8-1.652-2.718a37.433,37.433,0,0,1-2.619-5.64,27.789,27.789,0,0,1-1.454-5.849,24.449,24.449,0,0,1-.041-5.823,21.489,21.489,0,0,1,1.315-5.458,15.843,15.843,0,0,1,3.111-4.405,52.19,52.19,0,0,1,7.783-6.408,150.859,150.859,0,0,1,14.762-8.844c4.451-2.374,8.336-4.273,11.518-5.784s5.667-2.622,7.352-3.364l1.919-.829c.434-.184.658-.269.658-.269s-.217.106-.645.3l-1.906.858c-1.677.76-4.152,1.891-7.325,3.417s-7.047,3.442-11.486,5.83a152.33,152.33,0,0,0-14.717,8.873,52.084,52.084,0,0,0-7.731,6.395,15.614,15.614,0,0,0-3.053,4.333,21.222,21.222,0,0,0-1.285,5.389,24.18,24.18,0,0,0,.049,5.756,27.607,27.607,0,0,0,1.447,5.787,37.249,37.249,0,0,0,2.608,5.593c.51.913,1.064,1.811,1.646,2.7a14.854,14.854,0,0,0,.93,1.295c.331.417.628.861,1,1.257,2.8,3.273,5.933,6.433,9.151,9.646s6.568,6.455,10.012,9.742c6.886,6.575,14.142,13.342,21.693,20.257l-.219-.013,21.088-15.082-.025.269-7.923-8.182L357.907,360.7l-.151-.156.185-.113c4.913-3.025,9.744-5.982,14.5-8.822,1.19-.708,2.375-1.409,3.568-2.086l.9-.5c.155-.079.3-.161.468-.234a.928.928,0,0,1,.135-.056.674.674,0,0,1,.173-.036l.248-.011,2.028-.122,7.988-.539c5.253-.378,10.365-.738,15.295-1.22a8.19,8.19,0,0,0,3.478-.91,10.376,10.376,0,0,0,2.782-2.21,20.757,20.757,0,0,0,3.665-5.916l-.006.021c1.891-8.68,3.655-16.783,5.227-24l.094.149-39.113-9.089.069-.029c-2.145,3.459-3.793,6.117-4.907,7.915l-1.265,2.024c-.284.453-.435.677-.435.677" transform="translate(-27.787 -26.113)" fill="#455a64"/>
            <path id="Trazado_740497" data-name="Trazado 740497" d="M381.141,188.266a3.956,3.956,0,0,1-2.338-7.517,4.115,4.115,0,0,1,2.971-7.225,4.925,4.925,0,0,1,7.048-4.667,5.536,5.536,0,0,1,6.781-.729,3.938,3.938,0,0,1,4.045,6.354" transform="translate(-32.256 -14.336)" fill="#263238"/>
            <path id="Trazado_740498" data-name="Trazado 740498" d="M397.185,172.378l-.866.077a16.785,16.785,0,0,0-15.308,16.85c.063,8.135.237,17.123.673,21.452.9,8.964,10,9.566,10,9.566l.194,10.848,21.719-2.6L412.07,189.3c-.02-9.388-5.5-17.2-14.885-16.922" transform="translate(-32.65 -14.771)" fill="#ae7461"/>
            <path id="Trazado_740499" data-name="Trazado 740499" d="M392.675,224.4a21.775,21.775,0,0,0,11.39-4.486s-2.31,6.866-11.336,6.849Z" transform="translate(-33.65 -18.845)" fill="#6f4439"/>
            <path id="Trazado_740500" data-name="Trazado 740500" d="M384.552,199.874a1.287,1.287,0,0,0,1.35,1.184,1.23,1.23,0,0,0,1.218-1.273,1.288,1.288,0,0,0-1.349-1.185,1.232,1.232,0,0,0-1.22,1.274" transform="translate(-32.953 -17.019)" fill="#263238"/>
            <path id="Trazado_740501" data-name="Trazado 740501" d="M383.543,195.359c.174.153,1.081-.651,2.46-.77,1.376-.138,2.45.483,2.585.3.068-.082-.122-.369-.59-.651a3.529,3.529,0,0,0-2.088-.447,3.391,3.391,0,0,0-1.94.821c-.4.363-.512.678-.427.746" transform="translate(-32.865 -16.605)" fill="#263238"/>
            <path id="Trazado_740502" data-name="Trazado 740502" d="M398.114,199.094a1.287,1.287,0,0,0,1.35,1.183A1.23,1.23,0,0,0,400.683,199a1.289,1.289,0,0,0-1.35-1.185,1.232,1.232,0,0,0-1.22,1.274" transform="translate(-34.116 -16.952)" fill="#263238"/>
            <path id="Trazado_740503" data-name="Trazado 740503" d="M398.394,194.33c.173.153,1.082-.651,2.46-.769,1.376-.138,2.451.482,2.586.3.067-.081-.12-.369-.591-.651a3.538,3.538,0,0,0-2.088-.447,3.394,3.394,0,0,0-1.94.821c-.394.363-.511.678-.426.746" transform="translate(-34.137 -16.517)" fill="#263238"/>
            <path id="Trazado_740504" data-name="Trazado 740504" d="M393.573,205.065a9.106,9.106,0,0,0-2.276-.207c-.355,0-.695-.046-.775-.281a1.8,1.8,0,0,1,.143-1.064l.8-2.773a46.232,46.232,0,0,0,1.719-7.221c-.16-.043-1.188,3.121-2.3,7.066q-.4,1.458-.759,2.785a2.047,2.047,0,0,0-.06,1.4.889.889,0,0,0,.624.464,2.437,2.437,0,0,0,.605.03,9.024,9.024,0,0,0,2.27-.2" transform="translate(-33.418 -16.583)" fill="#263238"/>
            <path id="Trazado_740505" data-name="Trazado 740505" d="M396.572,188.626c.213.334,1.361-.15,2.812-.325,1.446-.208,2.7-.043,2.8-.418.042-.178-.244-.469-.794-.7a4.384,4.384,0,0,0-2.224-.266,4.229,4.229,0,0,0-2.05.833c-.454.367-.639.72-.543.88" transform="translate(-33.982 -16.014)" fill="#263238"/>
            <path id="Trazado_740506" data-name="Trazado 740506" d="M382.917,189.135c.318.288,1.427-.138,2.8-.274,1.363-.176,2.546-.014,2.784-.365.1-.169-.108-.467-.64-.719a4.47,4.47,0,0,0-2.32-.312,4.4,4.4,0,0,0-2.176.827c-.454.365-.585.7-.443.843" transform="translate(-32.809 -16.062)" fill="#263238"/>
            <path id="Trazado_740507" data-name="Trazado 740507" d="M381.549,185.014s1.87-5.829,4.464-7.379c3.141-1.878,4.87,1.6,7.92.448s6.046-2.95,9.455-.816c3.731,2.336,2.257,4.337,2.824,8.3,2.3,16.063,5.655,20.369,5.821,12.691.018-.841,2.272-1.708,2.3-5.259.04-4.6-.274-10.16-1.579-13.309-1.1-2.653-2.822-4.4-5.8-6.235-4.7-2.893-10.755-2.427-14.828-1.651s-11.579,6.207-10.582,13.21" transform="translate(-32.688 -14.672)" fill="#263238"/>
            <path id="Trazado_740508" data-name="Trazado 740508" d="M414.249,200.338a2.445,2.445,0,0,1,2.422-2.58c1.688.011,3.634.8,3.83,4.265.346,6.152-5.9,5.231-5.923,5.055-.014-.12-.207-4.165-.329-6.74" transform="translate(-35.498 -16.947)" fill="#ae7461"/>
            <path id="Trazado_740509" data-name="Trazado 740509" d="M415.93,204.875c.026-.021.112.069.3.142a1.071,1.071,0,0,0,.8-.028,2.654,2.654,0,0,0,1.094-2.449,3.56,3.56,0,0,0-.387-1.518,1.24,1.24,0,0,0-.852-.777.548.548,0,0,0-.616.329c-.072.177-.027.3-.059.31-.016.016-.138-.1-.1-.352a.684.684,0,0,1,.22-.4.812.812,0,0,1,.583-.19,1.508,1.508,0,0,1,1.173.891,3.635,3.635,0,0,1,.468,1.693,2.785,2.785,0,0,1-1.414,2.745,1.152,1.152,0,0,1-.989-.107c-.2-.142-.239-.277-.219-.29" transform="translate(-35.642 -17.134)" fill="#6f4439"/>
            <path id="Trazado_740510" data-name="Trazado 740510" d="M410.6,186.007a5.851,5.851,0,0,1-2.492,1.43,2.01,2.01,0,0,1-2.344-1.211c-.111-.421-.05-.925-.36-1.231-.369-.364-.976-.187-1.486-.086-1.767.347-4.026-1.439-4.633-3.134a1.608,1.608,0,0,1-2.1.633,5.763,5.763,0,0,1-1.595-1.184,2.533,2.533,0,0,0-2.2-.867,6.038,6.038,0,0,1-1.308.411c-.812,0-1.288-.909-1.481-1.7s-.37-1.713-1.091-2.087a3.222,3.222,0,0,0-2.2.133c-.731.175-1.7.085-1.958-.624a1.462,1.462,0,0,1,.176-1.136,3.99,3.99,0,0,1,4.558-1.919,5.406,5.406,0,0,1,9.8-1.918,5.486,5.486,0,0,1,8.913,1.22,3.977,3.977,0,0,1,4.977,5.368,3.776,3.776,0,0,1,2.334,2.812,2.162,2.162,0,0,1-2.245,2.417,2.2,2.2,0,0,1-3.6,2.524" transform="translate(-33.017 -14.492)" fill="#263238"/>
            <path id="Trazado_740511" data-name="Trazado 740511" d="M390.207,175.861c-.005,0,0,.038.011.112s.029.184.069.324a3.86,3.86,0,0,0,.549,1.143,4.408,4.408,0,0,0,1.488,1.33,4.107,4.107,0,0,0,2.577.495l-.116-.127a2.235,2.235,0,0,0,.273,1.683,6.377,6.377,0,0,0,1.183,1.416,4.6,4.6,0,0,0,.749.643,2.153,2.153,0,0,0,1,.275,2.251,2.251,0,0,0,1.913-.882l-.235-.046a4.619,4.619,0,0,0,2.233,3.012,3.377,3.377,0,0,0,2.073.482,6.066,6.066,0,0,0,1.947-.612l-.171-.058a4.855,4.855,0,0,0,1.62,1.766,2.582,2.582,0,0,0,2.188.393,3.393,3.393,0,0,0,2.369-2.875l-.133.077a3.178,3.178,0,0,0,2.136.123,3.446,3.446,0,0,0,1.412-.785,2.973,2.973,0,0,0,.619-.811,1.416,1.416,0,0,0,.128-.331,3.683,3.683,0,0,1-.816,1.064,3.421,3.421,0,0,1-1.382.719,3.037,3.037,0,0,1-2.018-.151l-.121-.055-.013.133a3.2,3.2,0,0,1-2.246,2.668,2.346,2.346,0,0,1-1.989-.379,4.62,4.62,0,0,1-1.523-1.676l-.059-.109-.112.051a5.86,5.86,0,0,1-1.862.582,3.108,3.108,0,0,1-1.915-.45,4.37,4.37,0,0,1-2.11-2.837l-.064-.287-.172.242A2,2,0,0,1,398,182.9a1.911,1.911,0,0,1-.889-.236,4.4,4.4,0,0,1-.706-.6,6.205,6.205,0,0,1-1.155-1.352,2.024,2.024,0,0,1-.269-1.521l.037-.151-.154.024a3.952,3.952,0,0,1-2.465-.436,4.4,4.4,0,0,1-1.474-1.253,4.761,4.761,0,0,1-.722-1.511" transform="translate(-33.438 -15.07)" fill="#455a64"/>
            <path id="Trazado_740512" data-name="Trazado 740512" d="M394.04,210.6c.014-.231,1.552-.05,2.8-1.233s1.276-2.841,1.493-2.827c.1-.01.254.4.19,1.094a3.857,3.857,0,0,1-1.159,2.37,3.355,3.355,0,0,1-2.336.936c-.65-.018-1.01-.236-.988-.34" transform="translate(-33.767 -17.699)" fill="#263238"/>
            <path id="Trazado_740513" data-name="Trazado 740513" d="M294.422,410.792l-2.835,19.683s-22.056,3.407-22.954,6.988l40.06,7.48,5.745-30.467Z" transform="translate(-23.02 -35.202)" fill="#263238"/>
            <path id="Trazado_740514" data-name="Trazado 740514" d="M307.408,433.037a1.577,1.577,0,0,1,.807,1.979,1.6,1.6,0,0,1-2.037.734,1.662,1.662,0,0,1-.844-2.1,1.681,1.681,0,0,1,2.214-.537" transform="translate(-26.153 -37.095)" fill="#e0e0e0"/>
            <path id="Trazado_740515" data-name="Trazado 740515" d="M308.693,447.29l.452-3.1-38.577-6.014s-1.918.4-1.935,1.629Z" transform="translate(-23.02 -37.549)" fill="#455a64"/>
            <path id="Trazado_740516" data-name="Trazado 740516" d="M293.067,431.967c-.027.187.935.453,1.788,1.229.875.754,1.224,1.649,1.417,1.61.187,0,.1-1.165-.953-2.086s-2.265-.931-2.253-.753" transform="translate(-25.114 -37.009)" fill="#fff"/>
            <path id="Trazado_740517" data-name="Trazado 740517" d="M288.141,432.914c-.078.171.712.645,1.233,1.552.549.893.56,1.772.757,1.8.178.064.513-1-.157-2.114s-1.8-1.415-1.833-1.239" transform="translate(-24.691 -37.094)" fill="#fff"/>
            <path id="Trazado_740518" data-name="Trazado 740518" d="M284.485,437.314c.17.072.612-.8.3-1.911s-1.158-1.683-1.268-1.544c-.139.132.356.787.6,1.7.268.908.181,1.7.372,1.755" transform="translate(-24.293 -37.177)" fill="#fff"/>
            <path id="Trazado_740519" data-name="Trazado 740519" d="M294.348,427.121c.051.185.995.1,2.088.374,1.1.257,1.893.769,2.024.629.137-.113-.577-.955-1.869-1.265s-2.314.1-2.244.262" transform="translate(-25.223 -36.569)" fill="#fff"/>
            <path id="Trazado_740520" data-name="Trazado 740520" d="M389.868,236.844l.823-3.724,21.88-10.866,1.908,2.978s8.189,6.663,11.324,12.446-.583,53.139-1.107,60.05c-1.053,13.927-6.257,32.154-6.257,32.154s-7.021-4.887-27.677-13.368S369,304.194,369,304.194l12.172-15.436Z" transform="translate(-31.621 -19.046)" fill="#15d3ec"/>
            <path id="Trazado_740521" data-name="Trazado 740521" d="M391.247,239.636c-.123.687-10.012,24.436-10.012,24.436s5.138,2.867,5.855,3.01,4.156-27.446,4.156-27.446" transform="translate(-32.669 -20.535)" fill="#15d3ec"/>
            <path id="Trazado_740522" data-name="Trazado 740522" d="M390.694,243.9c.1.016-.78,6.05-1.959,13.477s-2.215,13.438-2.313,13.423.78-6.049,1.959-13.479,2.215-13.437,2.313-13.421" transform="translate(-33.113 -20.9)" fill="#263238"/>
            <path id="Trazado_740523" data-name="Trazado 740523" d="M315.176,294.68s5.894-8.7,9.406-10.223a43.425,43.425,0,0,1,7.907-2.354l14.82,1.982-.263,8.85a6.662,6.662,0,0,1-5.29,1.411c-2.958-.622-10.285-2.985-10.285-2.985l-3.695-.055-3.7,4.113s-2.812.645-1.661-1.893,1.664-3.656,1.664-3.656-3.612,4.843-4.878,4.988a25.434,25.434,0,0,1-4.029-.177" transform="translate(-27.009 -24.174)" fill="#ae7461"/>
            <path id="Trazado_740524" data-name="Trazado 740524" d="M395.6,257.764l-10.274,23.877-35.179.343-.263,8.85s33.923,11.961,42.955,9.638S416.849,266.2,416.849,266.2Z" transform="translate(-29.982 -22.089)" fill="#ae7461"/>
            <path id="Trazado_740525" data-name="Trazado 740525" d="M407.51,235.436c-.961.871-4.139,4.605-7.532,12.722s-8.154,17.6-8.154,17.6l24.252,9.668s5.53-12.721,8.1-18.379c1.953-4.309,3.322-12.785,1.541-16.887s-9.756-12.383-18.2-4.725" transform="translate(-33.577 -19.907)" fill="#15d3ec"/>
            <path id="Trazado_740526" data-name="Trazado 740526" d="M407.489,235.429s.071-.077.222-.213.371-.346.685-.59a12.065,12.065,0,0,1,2.99-1.767,9.117,9.117,0,0,1,5.441-.4,12.992,12.992,0,0,1,6.215,3.716,14.844,14.844,0,0,1,2.533,3.42,11.12,11.12,0,0,1,1.056,4.489,32.068,32.068,0,0,1-1.263,10.056,37.1,37.1,0,0,1-2.006,5.117l-2.3,5.233-4.842,11-.07.158-.16-.064-.352-.14L391.744,265.9l-.164-.065.079-.157c2.266-4.54,4.272-8.769,5.99-12.56s3.038-7.2,4.472-9.864a40.681,40.681,0,0,1,3.7-5.97,17.777,17.777,0,0,1,1.2-1.423,4.667,4.667,0,0,1,.47-.436.758.758,0,0,1-.108.122l-.324.35c-.277.315-.676.8-1.157,1.448a42.925,42.925,0,0,0-3.609,6c-1.4,2.664-2.683,6.086-4.4,9.885-1.7,3.8-3.69,8.042-5.946,12.6l-.085-.223,23.907,9.512.352.14-.23.1,4.85-11,2.309-5.23a37.068,37.068,0,0,0,2-5.069,31.955,31.955,0,0,0,1.283-9.949,10.877,10.877,0,0,0-1.006-4.38,14.642,14.642,0,0,0-2.469-3.37,12.843,12.843,0,0,0-6.079-3.7,9.024,9.024,0,0,0-5.345.339,12.525,12.525,0,0,0-3,1.694c-.319.234-.543.438-.7.56s-.246.186-.246.186" transform="translate(-33.556 -19.899)" fill="#263238"/>
            <path id="Trazado_740527" data-name="Trazado 740527" d="M331.55,286.98a8.858,8.858,0,0,0-6.739,3.407,2.61,2.61,0,0,1,.6-1.008,7,7,0,0,1,4.965-2.509,2.613,2.613,0,0,1,1.17.11" transform="translate(-27.834 -24.582)" fill="#6f4439"/>
            <path id="Trazado_740528" data-name="Trazado 740528" d="M390.8,270.008a.956.956,0,0,1-.078.247c-.072.185-.163.414-.272.7-.264.641-.625,1.519-1.075,2.613-.961,2.272-2.3,5.44-3.884,9.19l-.041.1h-.105l-10.685.123-17.321.116-5.25-.005-1.427-.02a2.53,2.53,0,0,1-.5-.031,2.526,2.526,0,0,1,.5-.041l1.426-.048,5.248-.108,17.32-.221,10.685-.086-.145.1,4-9.138c.485-1.08.874-1.946,1.158-2.577.128-.274.233-.5.318-.678a1,1,0,0,1,.125-.226" transform="translate(-30.007 -23.138)" fill="#6f4439"/>
          </g>
        </g>
        <rect id="Rectángulo_351290" data-name="Rectángulo 351290" width="6.771" height="132.493" transform="translate(42.763 278.682)" fill="#455a64"/>
        <rect id="Rectángulo_351291" data-name="Rectángulo 351291" width="6.771" height="131.574" transform="translate(320.709 279.616)" fill="#455a64"/>
        <rect id="Rectángulo_351292" data-name="Rectángulo 351292" width="308.343" height="7.995" transform="translate(25.846 277.376)" fill="#455a64"/>
        <g id="Grupo_1034883" data-name="Grupo 1034883">
          <g id="Grupo_1034882" data-name="Grupo 1034882" clip-path="url(#clip-path)">
            <path id="Trazado_740529" data-name="Trazado 740529" d="M347.2,312.1c0,.1-35.982.18-80.357.18-44.391,0-80.365-.08-80.365-.18s35.974-.178,80.365-.178c44.375,0,80.357.08,80.357.178" transform="translate(-15.98 -26.73)" fill="#263238"/>
          </g>
        </g>
        <g id="Grupo_1034885" data-name="Grupo 1034885">
          <g id="Grupo_1034884" data-name="Grupo 1034884" clip-path="url(#clip-path)">
            <path id="Trazado_740530" data-name="Trazado 740530" d="M265.079,252.221h0a1.5,1.5,0,0,1,1.746,1.191l8.344,44.218h40.574a1.1,1.1,0,1,1,0,2.2H272.711v-.176l-.2.037-8.627-45.72a1.494,1.494,0,0,1,1.191-1.746" transform="translate(-22.611 -21.611)" fill="#263238"/>
          </g>
        </g>
        <g id="Grupo_1034890" data-name="Grupo 1034890">
          <g id="Grupo_1034889" data-name="Grupo 1034889" clip-path="url(#clip-path)">
            <path id="Trazado_740531" data-name="Trazado 740531" d="M42.485,138.43a22.028,22.028,0,0,1,16.241-9.974c3.855-.408,5.523.252,8.37.754a12.231,12.231,0,0,1,7.357,3.976,20.52,20.52,0,0,1,4.828,8.97,29.465,29.465,0,0,1,.318,9.773,38.781,38.781,0,0,1-4.192,11.955l-5.861,1.248c-4.908.606-9.885,1.212-14.78.518s-9.786-2.861-12.73-6.835c-4.088-5.521-3.413-14.7.448-20.385" transform="translate(-3.365 -10.997)" fill="#263238"/>
            <path id="Trazado_740532" data-name="Trazado 740532" d="M51.188,138l11.462-5.783,3.137.084c6.987-.6,12.491,6.676,13.041,12.329.612,6.281,1.11,13.973.524,18.695-1.178,9.494-9.058,10.978-9.058,10.978s1.32,11.073,1.659,14.2l-19.027-5.815-4.594-41.214A3.322,3.322,0,0,1,51.188,138" transform="translate(-4.141 -11.33)" fill="#ffc09d"/>
            <path id="Trazado_740533" data-name="Trazado 740533" d="M66.764,165.038a1.993,1.993,0,0,1,.577-1.285,2.033,2.033,0,0,1,2.446-.358,2.726,2.726,0,0,1,1.258,2.456,2.474,2.474,0,0,1-1.675,1.182,2.845,2.845,0,0,1-.33.039,2.223,2.223,0,0,1-1.546-.457,1.985,1.985,0,0,1-.73-1.577" transform="translate(-5.721 -13.98)" fill="#ff9b6c"/>
            <path id="Trazado_740534" data-name="Trazado 740534" d="M79.469,154.97a1.212,1.212,0,0,1-1.126,1.262,1.159,1.159,0,0,1-1.286-1.05,1.212,1.212,0,0,1,1.125-1.262,1.159,1.159,0,0,1,1.287,1.05" transform="translate(-6.603 -13.19)" fill="#263238"/>
            <path id="Trazado_740535" data-name="Trazado 740535" d="M79.215,149.324c-.144.163-1.085-.485-2.389-.437-1.3.029-2.235.732-2.383.578-.071-.069.072-.358.477-.677a3.337,3.337,0,0,1,1.9-.657,3.191,3.191,0,0,1,1.907.545c.411.293.557.575.485.648" transform="translate(-6.378 -12.694)" fill="#263238"/>
            <path id="Trazado_740536" data-name="Trazado 740536" d="M71.448,160.357a8.613,8.613,0,0,1,2.1-.453c.331-.047.644-.123.692-.352a1.689,1.689,0,0,0-.255-.978q-.512-1.193-1.071-2.5a43.746,43.746,0,0,1-2.437-6.552,43.512,43.512,0,0,1,2.958,6.341q.539,1.318,1.03,2.517a1.922,1.922,0,0,1,.218,1.3.836.836,0,0,1-.53.506,2.272,2.272,0,0,1-.563.1,8.464,8.464,0,0,1-2.145.076" transform="translate(-6.039 -12.813)" fill="#263238"/>
            <path id="Trazado_740537" data-name="Trazado 740537" d="M71.171,177.957a24.037,24.037,0,0,1-12.762-2.942s3.592,6.43,13.013,5.224Z" transform="translate(-5.005 -14.998)" fill="#ff9b6c"/>
            <path id="Trazado_740538" data-name="Trazado 740538" d="M79.22,144.972c-.209.325-1.214.147-2.377.283-1.166.1-2.118.476-2.383.2-.121-.136,0-.451.389-.784a3.705,3.705,0,0,1,3.836-.389c.45.249.624.534.535.691" transform="translate(-6.377 -12.333)" fill="#263238"/>
            <path id="Trazado_740539" data-name="Trazado 740539" d="M65.064,156.027a1.211,1.211,0,0,0,1.253,1.136,1.159,1.159,0,0,0,1.168-1.179,1.212,1.212,0,0,0-1.252-1.136,1.16,1.16,0,0,0-1.169,1.179" transform="translate(-5.575 -13.269)" fill="#263238"/>
            <path id="Trazado_740540" data-name="Trazado 740540" d="M60.417,150.463c.161.146,1.029-.6,2.33-.687,1.3-.108,2.3.493,2.43.324.064-.076-.11-.349-.546-.622a3.327,3.327,0,0,0-1.96-.454,3.2,3.2,0,0,0-1.84.743c-.378.336-.493.63-.414.7" transform="translate(-5.175 -12.77)" fill="#263238"/>
            <path id="Trazado_740541" data-name="Trazado 740541" d="M62.292,145.432c.272.282,1.261-.08,2.468-.161,1.2-.118,2.241.077,2.459-.245.1-.156-.082-.443-.544-.7a3.943,3.943,0,0,0-3.971.326c-.41.327-.533.64-.412.778" transform="translate(-5.334 -12.335)" fill="#263238"/>
            <path id="Trazado_740542" data-name="Trazado 740542" d="M51.011,159.218c-.026-.7-.9-2.333-1.594-2.418-1.864-.226-5.2.037-5.073,4.748.177,6.44,6.607,4.934,6.613,4.749,0-.144.142-4.651.053-7.079" transform="translate(-3.8 -13.432)" fill="#ffc09d"/>
            <path id="Trazado_740543" data-name="Trazado 740543" d="M49.288,164.2c-.029-.02-.11.081-.3.174a1.121,1.121,0,0,1-.838.04,2.774,2.774,0,0,1-1.352-2.455,3.706,3.706,0,0,1,.269-1.616,1.3,1.3,0,0,1,.821-.884.572.572,0,0,1,.67.289c.091.178.054.308.089.318.018.016.135-.112.076-.376a.714.714,0,0,0-.265-.4.845.845,0,0,0-.624-.146,1.58,1.58,0,0,0-1.145,1.03,3.813,3.813,0,0,0-.339,1.806,2.914,2.914,0,0,0,1.713,2.737,1.2,1.2,0,0,0,1.021-.2c.195-.164.225-.309.2-.32" transform="translate(-3.972 -13.637)" fill="#ff9b6c"/>
            <path id="Trazado_740544" data-name="Trazado 740544" d="M49.185,154.643l1.778,1.542c10.251-6.743,20.675-25.1,17.983-24.347a20.541,20.541,0,0,0-10.137-.195c-5.146,1.356-14.824,4.855-14.122,11s4.5,11.995,4.5,11.995" transform="translate(-3.826 -11.233)" fill="#263238"/>
            <path id="Trazado_740545" data-name="Trazado 740545" d="M45.1,128.6c2.5,1.458,4.719,5.711,3.7,8.415A8.479,8.479,0,0,1,37.966,146.5a8.162,8.162,0,0,1-4.6-3.545,9.818,9.818,0,0,1-1-6.813,10.856,10.856,0,0,1,4.511-7.129A8.016,8.016,0,0,1,45.1,128.6" transform="translate(-2.756 -10.939)" fill="#263238"/>
            <path id="Trazado_740546" data-name="Trazado 740546" d="M45.7,154.728a6.182,6.182,0,0,0,1.173-.507c.74-.359,1.8-.906,3.073-1.637a46.492,46.492,0,0,0,9.236-6.829,30.882,30.882,0,0,0,6.682-9.331,22.174,22.174,0,0,0,1.193-3.281,5.642,5.642,0,0,0,.261-1.253c-.092-.027-.495,1.758-1.766,4.387a32.952,32.952,0,0,1-6.709,9.128,52.049,52.049,0,0,1-9.073,6.882c-1.247.764-2.276,1.356-2.985,1.766a6.7,6.7,0,0,0-1.084.675" transform="translate(-3.916 -11.302)" fill="#455a64"/>
            <path id="Trazado_740547" data-name="Trazado 740547" d="M39.547,149.876c.089,0,.126-1.2.486-3.09a24.407,24.407,0,0,1,7.037-12.991c1.388-1.334,2.374-2.023,2.323-2.095a2.813,2.813,0,0,0-.735.422,15.9,15.9,0,0,0-1.823,1.419,22.18,22.18,0,0,0-7.143,13.186,15.759,15.759,0,0,0-.192,2.3,2.834,2.834,0,0,0,.047.847" transform="translate(-3.385 -11.286)" fill="#455a64"/>
            <path id="Trazado_740548" data-name="Trazado 740548" d="M47.033,167.692a2.412,2.412,0,1,0,2.412-2.412,2.412,2.412,0,0,0-2.412,2.412" transform="translate(-4.03 -14.163)" fill="#263238"/>
            <path id="Trazado_740549" data-name="Trazado 740549" d="M71.439,165.98c-.027-.228-1.532.035-2.828-1.065s-1.413-2.733-1.626-2.707c-.1,0-.229.41-.128,1.09a3.807,3.807,0,0,0,1.271,2.275,3.317,3.317,0,0,0,2.354.8c.64-.053.984-.287.956-.389" transform="translate(-5.726 -13.9)" fill="#263238"/>
            <path id="Trazado_740550" data-name="Trazado 740550" d="M33.888,255.646S26.7,281.021,30.969,294.8c2.563,8.264,38.534,53.79,40.267,55.749,1.206,1.363-15.38,44.369-18.414,53.329l19.071,9.243s23.864-50.742,25.323-59.636c1.873-11.421-24.972-60.275-23.986-60.929l9.65-20.127L74.87,251.7s-33.752.366-40.644.917Z" transform="translate(-2.538 -21.569)" fill="#12263f"/>
            <path id="Trazado_740551" data-name="Trazado 740551" d="M78.685,272.382s46.525,16.507,51.771,19.3c5.72,3.046,10.038,13.73,5.27,22.813s-46.6,35.088-46.6,35.088L78.685,333.69l30.27-23.842-32.768-7.72L65.515,289.481Z" transform="translate(-5.614 -23.341)" fill="#12263f"/>
            <path id="Trazado_740552" data-name="Trazado 740552" d="M101.284,355.462a17,17,0,0,0-.023-3.234,36.411,36.411,0,0,0-2.354-8.5c-.663-1.748-1.458-3.638-2.295-5.678-.425-1.014-.828-2.093-1.247-3.185s-.905-2.193-1.392-3.329c-1.983-4.536-4.243-9.492-6.619-14.692l-10.229-22.23-.028-.061.016-.064c1.211-5.013,2.276-9.115,3.085-11.951.408-1.417.752-2.518,1.02-3.257a7.442,7.442,0,0,1,.349-.826,1.23,1.23,0,0,1,.167-.257,1.257,1.257,0,0,1-.115.283c-.082.18-.168.469-.293.837-.232.746-.542,1.853-.918,3.277-.744,2.849-1.755,6.962-2.922,11.981l-.013-.125c2.9,6.141,6.488,13.836,10.315,22.195,2.375,5.2,4.624,10.163,6.588,14.716.483,1.144.966,2.248,1.382,3.357s.8,2.161,1.221,3.183c.82,2.043,1.6,3.945,2.244,5.708a34.637,34.637,0,0,1,2.225,8.6,9.511,9.511,0,0,1-.162,3.252" transform="translate(-6.607 -23.84)" fill="#455a64"/>
            <g id="Grupo_1034888" data-name="Grupo 1034888" transform="translate(70.692 258.595)" opacity="0.3">
              <g id="Grupo_1034887" data-name="Grupo 1034887">
                <g id="Grupo_1034886" data-name="Grupo 1034886" clip-path="url(#clip-path-16)">
                  <path id="Trazado_740553" data-name="Trazado 740553" d="M80.356,282.832c-.091.335,0,12.223,0,12.223l5.97,10.118-4.767-1.123-4.241-8.83Z" transform="translate(-77.317 -282.832)"/>
                </g>
              </g>
            </g>
            <path id="Trazado_740554" data-name="Trazado 740554" d="M108.712,279.809c-1.343-1.318-5.282-5.016-8.049-7.607a1.616,1.616,0,0,1,1.074-2.8l31.862-.651a1.617,1.617,0,0,1,1.241.541l6.66,7.481a1.617,1.617,0,0,1-1.166,2.692l-30.451.8a1.608,1.608,0,0,1-1.171-.459" transform="translate(-8.582 -23.031)" fill="#455a64"/>
            <path id="Trazado_740555" data-name="Trazado 740555" d="M97.172,273.256a27.964,27.964,0,0,1,7.4-2.011c3.7-.368,5.554,1.19,7.538,1.006s7.4.345,7.4,1.8-7.537,1.983-7.537,1.983l6.611,2.116s7.538-.925,7.669,0S119.52,280,116.346,280.4s-21.554.661-24.2,0-21.422-12.033-21.422-12.033l8.992-9.256Z" transform="translate(-6.061 -22.204)" fill="#ffc09d"/>
            <path id="Trazado_740556" data-name="Trazado 740556" d="M47.851,184.053a15.446,15.446,0,0,0-11.606,10.739c-2.459,7.829,2.232,40,4.225,45.813s23.466,24.505,25.353,22.916,12.351-10.846,12.351-10.846l-16.8-19.853s.89-23.574-.222-28.022-8.632-21.191-13.3-20.747" transform="translate(-3.046 -15.771)" fill="#81d4fa"/>
            <path id="Trazado_740557" data-name="Trazado 740557" d="M37.115,222.7c1.229,11.174-1.17,15.978-1.17,15.978a8.678,8.678,0,0,0-3.127,5.725,1.633,1.633,0,0,0,1.682,1.818l40.645-.917s5.687.542,5.566-4.85c-.134-6.02,1.523-27.17-.662-35.485C79.3,202.1,70.014,188.11,70.014,188.11L50.639,177.124l-2.051,5.281s-6.147,2.244-8.955,5.863a20.339,20.339,0,0,0-3.889,7.9c-1.681,5.79.711,20.543,1.371,26.536" transform="translate(-2.811 -15.178)" fill="#81d4fa"/>
            <path id="Trazado_740558" data-name="Trazado 740558" d="M146.792,206.565s-.355-.318-1.587.08-4.736,2.118-6.325,2.527-5.034,1.736-5.034,1.736a6.957,6.957,0,0,0-4.354,1.463c-2.436,1.684-9.311,6.226-9.311,6.226l2.362,6.686a13.977,13.977,0,0,1,3.411-.221,10.534,10.534,0,0,0,4.871-.2c1.869-.561,4.4-1.573,4.4-1.573s2.464.2,3.11-.692-.048-2.509-.048-2.509,2.418-2.218,1.379-3.465S137.332,214,137.332,214s7.172-3.8,8.527-4.809,1.623-1.814.933-2.621" transform="translate(-10.299 -17.691)" fill="#ffc09d"/>
            <path id="Trazado_740559" data-name="Trazado 740559" d="M117.244,219.735l-22.307,7.507L85.924,231.8l12.652,6.821,21.03-12.2Z" transform="translate(-7.363 -18.83)" fill="#ffc09d"/>
            <path id="Trazado_740560" data-name="Trazado 740560" d="M134.874,213.706a11.1,11.1,0,0,1-.274,5.748c-.035.121-.07.24-.1.353l-.187-.3c1.479.266,2.8.527,3.746.74.975.195,1.488.605,1.441.656a12.955,12.955,0,0,0-1.5-.335c-.959-.128-2.289-.335-3.769-.592l-.261-.046.074-.257c.031-.109.065-.225.1-.343a29.208,29.208,0,0,0,.733-5.621" transform="translate(-11.48 -18.313)" fill="#ff9b6c"/>
            <path id="Trazado_740561" data-name="Trazado 740561" d="M134.842,217.174c.017-.039.2-.02.459.15a1.8,1.8,0,0,1,.727,1.039l-.239-.165a7.944,7.944,0,0,1,1.262-.124,4.895,4.895,0,0,1,2.845.583c-.037.133-1.285-.143-2.836-.107-.437.009-.849.037-1.211.072l-.2.02-.036-.187c-.171-.864-.833-1.2-.768-1.281" transform="translate(-11.555 -18.609)" fill="#ff9b6c"/>
            <path id="Trazado_740562" data-name="Trazado 740562" d="M138.322,215.3c.077.114-.524.623-1.064,1.4s-.831,1.5-.965,1.467-.033-.89.576-1.743,1.392-1.231,1.453-1.121" transform="translate(-11.675 -18.448)" fill="#ff9b6c"/>
            <path id="Trazado_740563" data-name="Trazado 740563" d="M73.038,183.774l2.24,6.018c2.438,2.312,8.51,8.809,9.663,13.281,1.509,5.848,8.3,20.548,8.3,20.548s15.413-6.571,16.477-5.492,6.463,13.745,4.687,16.4-17.516,9.626-23.884,8.06-12.4-10.783-12.4-10.783Z" transform="translate(-6.259 -15.748)" fill="#81d4fa"/>
            <path id="Trazado_740564" data-name="Trazado 740564" d="M84.107,204.947a8.528,8.528,0,0,1,.5,1.372,12.8,12.8,0,0,1,.464,1.652,22.565,22.565,0,0,1,.456,2.229,41.391,41.391,0,0,1,.53,5.895c.037,2.227-.04,4.675-.2,7.235-.352,5.116-.714,9.734-.673,13.084-.017.838.032,1.594.05,2.258s.053,1.237.094,1.7a8.716,8.716,0,0,1,.06,1.459,8.5,8.5,0,0,1-.245-1.441c-.069-.465-.139-1.038-.176-1.705s-.117-1.427-.121-2.268c-.128-3.369.184-8.015.534-13.12.16-2.553.25-4.986.237-7.2a45.529,45.529,0,0,0-.424-5.851c-.474-3.311-1.195-5.273-1.091-5.3" transform="translate(-7.207 -17.563)" fill="#263238"/>
            <path id="Trazado_740565" data-name="Trazado 740565" d="M94.869,236.049A42.02,42.02,0,0,1,95,227.114a42.018,42.018,0,0,1-.129,8.935" transform="translate(-8.114 -19.462)" fill="#263238"/>
            <path id="Trazado_740566" data-name="Trazado 740566" d="M63.41,203.8a2.314,2.314,0,0,1,.036.54c0,.405.01.917.017,1.546.019,1.407.045,3.334.077,5.686.057,4.8.307,11.44.11,18.768a10.555,10.555,0,0,0,.938,5.094,22.861,22.861,0,0,0,3.021,3.88l5.557,6.348,3.715,4.307.992,1.187a2.273,2.273,0,0,1,.321.435,2.41,2.41,0,0,1-.393-.372l-1.06-1.128-3.829-4.208L67.277,239.6a22.706,22.706,0,0,1-3.1-3.951,10.929,10.929,0,0,1-1-5.314c.2-7.326,0-13.956.029-18.762,0-2.4.029-4.348.075-5.691.02-.672.048-1.193.072-1.547a2.316,2.316,0,0,1,.06-.538" transform="translate(-5.413 -17.465)" fill="#263238"/>
            <path id="Trazado_740567" data-name="Trazado 740567" d="M47.063,184.054c.02.054-.922.319-2.455,1.148a16.946,16.946,0,0,0-5.487,4.815,16.235,16.235,0,0,0-2.35,4.465,15.215,15.215,0,0,0-.674,2.729c-.133.955-.211,1.968-.278,2.993a52.066,52.066,0,0,0,.011,6.463c.149,2.234.459,4.553.7,6.929.5,4.752.981,9.276,1.416,13.4a68.092,68.092,0,0,0,1.611,10.838,18.788,18.788,0,0,0,3.157,6.6,14.99,14.99,0,0,0,1.328,1.5,4.545,4.545,0,0,1,.495.5c-.005.006-.056-.027-.151-.1s-.236-.177-.409-.331a12.235,12.235,0,0,1-1.408-1.456,18.271,18.271,0,0,1-3.335-6.626,65.3,65.3,0,0,1-1.723-10.884c-.447-4.122-.938-8.645-1.454-13.395-.237-2.378-.542-4.687-.688-6.951a51.43,51.43,0,0,1,.016-6.52c.074-1.04.157-2.042.3-3.028a15.524,15.524,0,0,1,.715-2.8,16.4,16.4,0,0,1,2.453-4.536,16.574,16.574,0,0,1,5.67-4.776,12.363,12.363,0,0,1,1.864-.789,3.9,3.9,0,0,1,.678-.2" transform="translate(-3.022 -15.772)" fill="#263238"/>
            <path id="Trazado_740568" data-name="Trazado 740568" d="M71.371,189.918a4.844,4.844,0,0,1-.941-.561l-2.479-1.684.264-.132c-.012,1.265-.026,2.748-.041,4.379l0,.347-.314-.157-5.134-2.581c-3.5-1.776-6.658-3.407-8.933-4.609l-2.682-1.445a5.141,5.141,0,0,1-.955-.588,5.054,5.054,0,0,1,1.039.422l2.75,1.31c2.313,1.125,5.494,2.708,8.995,4.485l5.116,2.618-.316.189c.053-1.629.1-3.111.143-4.376l.011-.324.253.191,2.391,1.806a4.884,4.884,0,0,1,.834.71" transform="translate(-4.298 -15.672)" fill="#263238"/>
            <path id="Trazado_740569" data-name="Trazado 740569" d="M78.7,412.216l-7.516,15.736s14.428,13.225,13.339,16.273l-32.86-14.049,10.644-25.018Z" transform="translate(-4.427 -34.719)" fill="#263238"/>
            <path id="Trazado_740570" data-name="Trazado 740570" d="M62.391,423.864a1.382,1.382,0,0,0-1.552,1.051,1.4,1.4,0,0,0,1.128,1.527,1.456,1.456,0,0,0,1.638-1.121,1.474,1.474,0,0,0-1.353-1.469" transform="translate(-5.212 -36.321)" fill="#e0e0e0"/>
            <path id="Trazado_740571" data-name="Trazado 740571" d="M51.664,432.289l1.178-2.478,31.065,14.4s1.2,1.227.617,2.13Z" transform="translate(-4.427 -36.832)" fill="#455a64"/>
            <path id="Trazado_740572" data-name="Trazado 740572" d="M73.323,430.111c-.071.149-.9-.125-1.9.025-1.006.125-1.7.608-1.817.485-.136-.092.5-.9,1.71-1.058s2.1.424,2.011.549" transform="translate(-5.963 -36.808)" fill="#fff"/>
            <path id="Trazado_740573" data-name="Trazado 740573" d="M76.513,433.227c-.027.163-.833.123-1.655.532-.836.384-1.273,1.019-1.43.944-.161-.04.112-.976,1.145-1.465s2-.157,1.94-.011" transform="translate(-6.289 -37.103)" fill="#fff"/>
            <path id="Trazado_740574" data-name="Trazado 740574" d="M77.1,438.229c-.16-.03-.056-.883.715-1.537s1.664-.665,1.677-.509c.037.164-.643.4-1.266.947s-.959,1.152-1.126,1.1" transform="translate(-6.601 -37.371)" fill="#fff"/>
          </g>
        </g>
      </g>
    </g>
  </g>
</svg>
