<svg xmlns="http://www.w3.org/2000/svg" xmlns:xlink="http://www.w3.org/1999/xlink" width="389.539" height="351.991" viewBox="0 0 389.539 351.991">
  <defs>
    <clipPath id="clip-path">
      <rect id="Rect치ngulo_351340" data-name="Rect치ngulo 351340" width="382.5" height="350.735" fill="none"/>
    </clipPath>
    <clipPath id="clip-path-8">
      <rect id="Rect치ngulo_351338" data-name="Rect치ngulo 351338" width="142.521" height="137.501" fill="none"/>
    </clipPath>
  </defs>
  <g id="Grupo_1035895" data-name="Grupo 1035895" transform="translate(-180 -838.3)">
    <g id="Grupo_1035020" data-name="Grupo 1035020" transform="translate(195.596 857.044)">
      <g id="Grupo_171324" data-name="Grupo 171324" transform="translate(199.814 52.071)">
        <path id="Trazado_207509" data-name="Trazado 207509" d="M2637.69,1344.219a.457.457,0,0,0-.019-.085,70.074,70.074,0,0,0-20.295-31.67,82.381,82.381,0,0,0-29.547-16.5c-20.239-6.6-41.838-6.291-53.342-3.216a.541.541,0,0,0-.4.677.6.6,0,0,0,.729.375c20.24-5.411,84.572-3.448,101.726,50.642a.6.6,0,0,0,.731.373A.545.545,0,0,0,2637.69,1344.219Z" transform="translate(-2534.064 -1290.642)" fill="#fcf7f2"/>
      </g>
      <g id="Grupo_171325" data-name="Grupo 171325" transform="translate(27.881 99.813)">
        <path id="Trazado_207510" data-name="Trazado 207510" d="M889.475,1604.27a.669.669,0,0,0-.093.02c-13.646,3.968-25.119,10.483-34.1,19.364A72.635,72.635,0,0,0,838,1651.087c-6.693,18.671-5.807,38.408-2.15,48.845a.611.611,0,0,0,.75.348.532.532,0,0,0,.391-.676c-6.434-18.364-5.934-77.224,52.756-94.291a.531.531,0,0,0,.389-.677A.6.6,0,0,0,889.475,1604.27Z" transform="translate(-833.026 -1604.264)" fill="#fcf7f2"/>
      </g>
      <g id="Grupo_171327" data-name="Grupo 171327" transform="translate(0 0)">
        <g id="Grupo_171326" data-name="Grupo 171326">
          <path id="Trazado_207511" data-name="Trazado 207511" d="M957.014,1267.779c24.634-4.254,85.028-152.28-9.278-232.223-29.188-24.742-57.335-9.672-88.655-47.932-23.8-29.078-41.807-47.659-72.277-50.67-36.7-3.626-89.932,1.314-104.561,49.635-6.685,22.082-9.925,41.136-10.119,64.113-.495,58.716-35.014,63.813-43.707,103.119C614.445,1217,645.368,1266.585,664.5,1267.737,682.372,1268.813,938.131,1270.527,957.014,1267.779Z" transform="translate(-624.903 -936.014)" fill="#e7f7ff"/>
        </g>
      </g>
    </g>
    <g id="Grupo_1035021" data-name="Grupo 1035021" transform="translate(180 838.3)">
      <g id="Enmascarar_grupo_1035018" data-name="Enmascarar grupo 1035018" clip-path="url(#clip-path)">
        <g id="Grupo_1035004" data-name="Grupo 1035004" transform="translate(0 10)">
          <g id="Grupo_1035003" data-name="Grupo 1035003" clip-path="url(#clip-path)">
            <path id="Trazado_740630" data-name="Trazado 740630" d="M322.325,324.664a17.568,17.568,0,0,1-1.637,13.661,31.013,31.013,0,0,1-9.623,10.2c-7.451,5.269-17.712,7.516-26.812,8.2-.109-10.134,7.4-19.182,11.494-23.533,6.474-6.878,22.352-15.375,26.577-8.529" transform="translate(-42.859 -48.572)" fill="#f5f5f5"/>
            <path id="Trazado_740631" data-name="Trazado 740631" d="M278.059,381.336c3.011-4.323,8.626-6.474,13.86-5.871a19.908,19.908,0,0,1,13.2,7.905c1.479,1.936,2.7,4.368,2.13,6.736a6.409,6.409,0,0,1-4.783,4.4,13,13,0,0,1-6.738-.436c-7.5-2.174-14.362-5.656-17.665-12.733" transform="translate(-41.926 -56.597)" fill="#f5f5f5"/>
            <path id="Trazado_740632" data-name="Trazado 740632" d="M252.545,389.54a29.511,29.511,0,0,1,5.122-3.187,27.984,27.984,0,0,1,6.142-2.4,61.367,61.367,0,0,1,7.857-1.733,30,30,0,0,1,14.514,1.4,21.809,21.809,0,0,1,3.967,2.011c.86.6,1.3.977,1.263,1.033-.1.157-1.987-1.2-5.471-2.362a32.176,32.176,0,0,0-14.139-1.073,72.277,72.277,0,0,0-7.747,1.63A30.925,30.925,0,0,0,257.99,387c-3.32,1.614-5.371,2.683-5.445,2.541" transform="translate(-38.078 -57.584)" fill="#e0e0e0"/>
            <path id="Trazado_740633" data-name="Trazado 740633" d="M305.281,333.99a17.41,17.41,0,0,1-2.065,2.248c-1.376,1.4-3.393,3.4-5.907,5.844-5.029,4.891-12.053,11.573-19.989,18.762s-15.313,13.493-20.741,17.941c-2.714,2.225-4.931,4-6.488,5.194a17.552,17.552,0,0,1-2.479,1.781,17.384,17.384,0,0,1,2.226-2.088l6.276-5.439c5.3-4.586,12.588-10.967,20.521-18.147l20.178-18.528,6.13-5.607a17.453,17.453,0,0,1,2.34-1.96" transform="translate(-37.334 -50.358)" fill="#e0e0e0"/>
            <path id="Trazado_740634" data-name="Trazado 740634" d="M264,368.389a35.069,35.069,0,0,0,2.052-31.975c-1.152-2.583-3.173-5.35-6-5.263s-4.684,2.992-5.611,5.669a29.96,29.96,0,0,0,8.939,32.02" transform="translate(-38.137 -49.931)" fill="#f5f5f5"/>
            <path id="Trazado_740635" data-name="Trazado 740635" d="M262.409,345.979a4.882,4.882,0,0,1,.611,1.486c.343.972.745,2.408,1.193,4.2a39.555,39.555,0,0,1,1,14.387,24.813,24.813,0,0,1-2.4,7.647,24.158,24.158,0,0,1-7.054,8.25c-.835.611-1.312.921-1.355.864-.13-.159,1.712-1.524,4.089-4.261a25.9,25.9,0,0,0,3.478-5.275,25.5,25.5,0,0,0,2.23-7.37,44.487,44.487,0,0,0-.69-14.092c-.691-3.585-1.255-5.79-1.1-5.834" transform="translate(-38.357 -52.166)" fill="#e0e0e0"/>
            <path id="Trazado_740636" data-name="Trazado 740636" d="M357.6,202.552a16.475,16.475,0,1,1-16.475-16.475A16.475,16.475,0,0,1,357.6,202.552" transform="translate(-48.951 -28.057)" fill="#ebebeb"/>
            <path id="Trazado_740637" data-name="Trazado 740637" d="M344.361,204.394a4.872,4.872,0,0,0,2.953-4.474,4.578,4.578,0,1,0-9.136-.144,4.862,4.862,0,0,0,2.86,4.581c-7.042.981-6.807,8.625-6.807,8.625l16.623.261s.465-7.719-6.492-8.849" transform="translate(-50.395 -29.398)" fill="#fff"/>
            <path id="Trazado_740638" data-name="Trazado 740638" d="M411.315,20.566A20.566,20.566,0,1,1,390.75,0a20.565,20.565,0,0,1,20.566,20.566" transform="translate(-55.816)" fill="#f5f5f5"/>
            <path id="Trazado_740639" data-name="Trazado 740639" d="M394.785,22.866a6.082,6.082,0,0,0,3.686-5.585,5.715,5.715,0,1,0-11.4-.178,6.07,6.07,0,0,0,3.57,5.718c-8.789,1.225-8.5,10.766-8.5,10.766l20.75.326s.58-9.637-8.1-11.047" transform="translate(-57.618 -1.675)" fill="#fff"/>
            <path id="Trazado_740640" data-name="Trazado 740640" d="M295.869,222.085a8.62,8.62,0,1,1-8.62-8.62,8.621,8.621,0,0,1,8.62,8.62" transform="translate(-42.011 -32.186)" fill="#f5f5f5"/>
            <path id="Trazado_740641" data-name="Trazado 740641" d="M288.94,223.049a2.549,2.549,0,0,0,1.545-2.341,2.4,2.4,0,1,0-4.78-.075,2.545,2.545,0,0,0,1.5,2.4c-3.684.514-3.562,4.514-3.562,4.514l8.7.136s.243-4.039-3.4-4.63" transform="translate(-42.767 -32.888)" fill="#fff"/>
            <path id="Trazado_740642" data-name="Trazado 740642" d="M387.046,348.078a11.324,11.324,0,1,1-11.324-11.324,11.324,11.324,0,0,1,11.324,11.324" transform="translate(-54.944 -50.776)" fill="#ebebeb"/>
            <path id="Trazado_740643" data-name="Trazado 740643" d="M377.945,349.344a3.347,3.347,0,0,0,2.029-3.075,3.146,3.146,0,1,0-6.278-.1,3.341,3.341,0,0,0,1.966,3.148c-4.84.674-4.679,5.928-4.679,5.928l11.425.179s.319-5.306-4.462-6.082" transform="translate(-55.936 -51.698)" fill="#fff"/>
            <path id="Trazado_740644" data-name="Trazado 740644" d="M431.688,129.264a9.784,9.784,0,1,1-9.784-9.784,9.784,9.784,0,0,1,9.784,9.784" transform="translate(-62.139 -18.015)" fill="#ebebeb"/>
            <path id="Trazado_740645" data-name="Trazado 740645" d="M423.824,130.358a2.893,2.893,0,0,0,1.754-2.657,2.719,2.719,0,1,0-5.426-.085,2.889,2.889,0,0,0,1.7,2.72c-4.182.583-4.042,5.122-4.042,5.122l9.871.155s.276-4.584-3.855-5.255" transform="translate(-62.997 -18.812)" fill="#fff"/>
            <path id="Trazado_740646" data-name="Trazado 740646" d="M445.9,245.538a12.7,12.7,0,1,1-12.7-12.7,12.7,12.7,0,0,1,12.7,12.7" transform="translate(-63.405 -35.108)" fill="#f5f5f5"/>
            <path id="Trazado_740647" data-name="Trazado 740647" d="M435.7,246.957a3.754,3.754,0,0,0,2.275-3.448,3.528,3.528,0,1,0-7.04-.11,3.748,3.748,0,0,0,2.2,3.53c-5.426.756-5.246,6.646-5.246,6.646l12.81.2s.358-5.949-5-6.819" transform="translate(-64.517 -36.142)" fill="#fff"/>
            <path id="Trazado_740648" data-name="Trazado 740648" d="M325.1,46.028a12.7,12.7,0,1,1-12.7-12.7,12.7,12.7,0,0,1,12.7,12.7" transform="translate(-45.19 -5.026)" fill="#ebebeb"/>
            <path id="Trazado_740649" data-name="Trazado 740649" d="M314.9,47.447A3.754,3.754,0,0,0,317.173,44a3.528,3.528,0,1,0-7.04-.11,3.748,3.748,0,0,0,2.2,3.53c-5.427.756-5.246,6.646-5.246,6.646l12.81.2s.358-5.949-5-6.819" transform="translate(-46.303 -6.06)" fill="#fff"/>
          </g>
        </g>
        <g id="Grupo_1035006" data-name="Grupo 1035006" transform="translate(0 10)">
          <g id="Grupo_1035005" data-name="Grupo 1035005" clip-path="url(#clip-path)">
            <path id="Trazado_740650" data-name="Trazado 740650" d="M369.934,412.709c0,.122-82.819.221-184.959.221C82.8,412.93,0,412.831,0,412.709s82.8-.221,184.976-.221c102.139,0,184.959.1,184.959.221" transform="translate(0 -62.195)" fill="#263238"/>
          </g>
        </g>
        <g id="Grupo_1035008" data-name="Grupo 1035008" transform="translate(0 10)">
          <g id="Grupo_1035007" data-name="Grupo 1035007" clip-path="url(#clip-path)">
            <path id="Trazado_740651" data-name="Trazado 740651" d="M385.634,187.913a22.549,22.549,0,1,0,22.548-22.549,22.548,22.548,0,0,0-22.548,22.549" transform="translate(-58.146 -24.933)" fill="#ebebeb"/>
            <path id="Trazado_740652" data-name="Trazado 740652" d="M420.963,205.368c-3-1.215-9.073-1.572-9.073-1.572l-7.05-.395s-8.331,1.225-10.118,2.752c-.606.518-1.55,1.394-2.531,2.323a22.53,22.53,0,0,0,33.361.661,17.1,17.1,0,0,0-4.589-3.769" transform="translate(-59.134 -30.669)" fill="#ff9d00"/>
            <path id="Trazado_740653" data-name="Trazado 740653" d="M401.632,181l17.925.042c2.6,5,3.773,12.388,3.595,17.953-7.385,1.828-16.814.369-24.339-.765-.132-6.03,1.168-11.413,2.819-17.23" transform="translate(-60.131 -27.29)" fill="#263238"/>
            <path id="Trazado_740654" data-name="Trazado 740654" d="M419.481,179.343a10.6,10.6,0,0,0-7.714-4.965,11.394,11.394,0,0,0-4.038.276,5.9,5.9,0,0,0-3.583,1.837,9.875,9.875,0,0,0-2.418,4.265,27.63,27.63,0,0,0-.8,5.02,9.27,9.27,0,0,0,1.048,4.915l4.2,1.217a27.154,27.154,0,0,0,7.111.4,9.138,9.138,0,0,0,6.2-3.157c2.026-2.613,1.8-7.037,0-9.81" transform="translate(-60.45 -26.28)" fill="#263238"/>
            <path id="Trazado_740655" data-name="Trazado 740655" d="M402.648,182.384c.316-2.656,2.983-6.025,6.27-5.673l1.479-.008,5.341,2.838a1.565,1.565,0,0,1,1.311,1.662l-1.9,18.724-5.28,4.8-3.713-5.089.206-3.2a5.709,5.709,0,0,1-4.157-5.26,47.562,47.562,0,0,1,.438-8.8" transform="translate(-60.633 -26.641)" fill="#ffc09d"/>
            <path id="Trazado_740656" data-name="Trazado 740656" d="M409.737,193.241a.935.935,0,0,0-.259-.611.958.958,0,0,0-1.148-.194,1.282,1.282,0,0,0-.618,1.144,1.17,1.17,0,0,0,.777.573,1.34,1.34,0,0,0,.155.022,1.049,1.049,0,0,0,.733-.2.932.932,0,0,0,.36-.735" transform="translate(-61.474 -28.999)" fill="#ff9b6c"/>
            <path id="Trazado_740657" data-name="Trazado 740657" d="M403.57,187.86a.571.571,0,0,0,.518.605.547.547,0,0,0,.617-.481.572.572,0,0,0-.517-.606.548.548,0,0,0-.617.482" transform="translate(-60.85 -28.252)" fill="#263238"/>
            <path id="Trazado_740658" data-name="Trazado 740658" d="M403.724,185.169c.066.078.516-.217,1.13-.182s1.045.368,1.117.3c.034-.031-.031-.17-.218-.324a1.567,1.567,0,0,0-.889-.329,1.505,1.505,0,0,0-.9.238c-.2.134-.268.265-.235.3" transform="translate(-60.872 -27.838)" fill="#263238"/>
            <path id="Trazado_740659" data-name="Trazado 740659" d="M407.443,190.5a4.079,4.079,0,0,0-.987-.235c-.155-.025-.3-.064-.323-.172a.792.792,0,0,1,.131-.458l.53-1.167a20.517,20.517,0,0,0,1.214-3.061,20.59,20.59,0,0,0-1.458,2.956q-.268.614-.511,1.174a.912.912,0,0,0-.116.61.391.391,0,0,0,.245.243,1.03,1.03,0,0,0,.264.052,4.005,4.005,0,0,0,1.01.058" transform="translate(-61.202 -27.955)" fill="#263238"/>
            <path id="Trazado_740660" data-name="Trazado 740660" d="M407.112,199.718a11.331,11.331,0,0,0,6.043-1.257s-1.617,3.226-6.043,2.563Z" transform="translate(-61.384 -29.924)" fill="#ff9b6c"/>
            <path id="Trazado_740661" data-name="Trazado 740661" d="M409.451,192.021c-.1-.011-.138.654-.735,1.095s-1.3.329-1.311.421c-.012.041.15.138.45.163a1.667,1.667,0,0,0,1.093-.314,1.443,1.443,0,0,0,.572-.921c.041-.276-.024-.446-.07-.444" transform="translate(-61.428 -28.953)" fill="#263238"/>
            <path id="Trazado_740662" data-name="Trazado 740662" d="M404.247,182.695c.1.155.571.082,1.117.158.549.058.994.245,1.121.117.058-.063.006-.212-.176-.374a1.668,1.668,0,0,0-.872-.363,1.65,1.65,0,0,0-.932.142c-.214.113-.3.245-.258.32" transform="translate(-60.951 -27.475)" fill="#263238"/>
            <path id="Trazado_740663" data-name="Trazado 740663" d="M411.032,188.34a.571.571,0,0,1-.6.522.547.547,0,0,1-.538-.567.572.572,0,0,1,.6-.522.547.547,0,0,1,.539.567" transform="translate(-61.803 -28.312)" fill="#263238"/>
            <path id="Trazado_740664" data-name="Trazado 740664" d="M413.077,185.937c-.077.067-.478-.291-1.09-.346s-1.09.209-1.149.127c-.029-.036.055-.163.264-.287a1.565,1.565,0,0,1,.928-.194,1.508,1.508,0,0,1,.859.368c.174.162.226.3.188.332" transform="translate(-61.945 -27.929)" fill="#263238"/>
            <path id="Trazado_740665" data-name="Trazado 740665" d="M412.887,183.582c-.133.127-.592-.06-1.159-.12-.565-.077-1.057-.005-1.154-.161-.042-.075.047-.207.269-.318a1.857,1.857,0,0,1,1.864.225c.187.161.239.311.18.374" transform="translate(-61.904 -27.567)" fill="#263238"/>
            <path id="Trazado_740666" data-name="Trazado 740666" d="M417.825,190.443c.02-.33.446-1.09.775-1.123.881-.087,2.451.07,2.342,2.287a2.283,2.283,0,0,1-3.164,2.169c0-.068-.02-2.191.047-3.333" transform="translate(-62.992 -28.543)" fill="#ffc09d"/>
            <path id="Trazado_740667" data-name="Trazado 740667" d="M418.827,192.894c.014-.009.051.04.138.085a.528.528,0,0,0,.395.027,1.306,1.306,0,0,0,.662-1.142,1.742,1.742,0,0,0-.11-.763.608.608,0,0,0-.377-.424.27.27,0,0,0-.319.129c-.045.082-.029.144-.045.149s-.062-.054-.031-.177a.333.333,0,0,1,.128-.184.4.4,0,0,1,.3-.063.743.743,0,0,1,.528.5,1.792,1.792,0,0,1,.142.853,1.371,1.371,0,0,1-.835,1.27.567.567,0,0,1-.48-.1c-.09-.079-.1-.148-.092-.153" transform="translate(-63.15 -28.727)" fill="#ff9b6c"/>
            <path id="Trazado_740668" data-name="Trazado 740668" d="M417.5,187.315l-.389,1.037c-2.954-3.526-9.217-12.444-8.91-11.932a9.691,9.691,0,0,1,4.779.011c2.411.69,6.936,2.435,6.542,5.323a16.6,16.6,0,0,1-2.022,5.562" transform="translate(-61.546 -26.555)" fill="#263238"/>
            <path id="Trazado_740669" data-name="Trazado 740669" d="M385.633,187.884a2.158,2.158,0,0,1,0-.365c.008-.262.019-.619.032-1.074q.013-.358.03-.793c.025-.29.081-.6.126-.948a15.958,15.958,0,0,1,.438-2.346,21.385,21.385,0,0,1,2.459-6.052,22.687,22.687,0,0,1,15.273-10.751,22.763,22.763,0,0,1,11.946.96A20.9,20.9,0,0,1,421.7,169.6a20.787,20.787,0,0,1,4.818,4.827,22.007,22.007,0,0,1,3.26,6.27,22.533,22.533,0,0,1,0,14.37,22,22,0,0,1-3.26,6.272,20.838,20.838,0,0,1-4.819,4.828,20.867,20.867,0,0,1-5.765,3.087,22.769,22.769,0,0,1-11.948.96,22.694,22.694,0,0,1-15.272-10.752,21.365,21.365,0,0,1-2.458-6.052,15.968,15.968,0,0,1-.438-2.346c-.045-.343-.1-.658-.126-.949s-.021-.554-.03-.792c-.014-.455-.025-.812-.032-1.074a2.158,2.158,0,0,1,0-.365,2.287,2.287,0,0,1,.041.365c.019.261.044.615.076,1.069.015.237.031.5.05.787s.094.6.146.94a16.463,16.463,0,0,0,.476,2.323,21.525,21.525,0,0,0,2.5,5.967,22.366,22.366,0,0,0,26.868,9.536,20.542,20.542,0,0,0,5.652-3.044,20.4,20.4,0,0,0,4.722-4.745,21.625,21.625,0,0,0,3.191-6.154,22.142,22.142,0,0,0,0-14.093,21.636,21.636,0,0,0-3.192-6.152,20.432,20.432,0,0,0-4.721-4.744,20.52,20.52,0,0,0-5.652-3.043,22.422,22.422,0,0,0-26.868,9.535,21.549,21.549,0,0,0-2.5,5.967,16.439,16.439,0,0,0-.476,2.323c-.052.34-.115.651-.146.94s-.035.55-.05.787c-.032.453-.058.808-.076,1.069a2.288,2.288,0,0,1-.041.365" transform="translate(-58.144 -24.904)" fill="#263238"/>
          </g>
        </g>
        <g id="Grupo_1035010" data-name="Grupo 1035010" transform="translate(0 10)">
          <g id="Grupo_1035009" data-name="Grupo 1035009" clip-path="url(#clip-path)">
            <path id="Trazado_740670" data-name="Trazado 740670" d="M340.616,271.918a32.068,32.068,0,1,0,32.068-32.068,32.068,32.068,0,0,0-32.068,32.068" transform="translate(-51.358 -36.164)" fill="#f5f5f5"/>
            <path id="Trazado_740671" data-name="Trazado 740671" d="M405.731,285.677c-1.112-1.457-2.993-1.763-4.323-2.956-1.793-1.609-2.247-4.486-2.31-7.1s.112-5.348-.877-7.7a6.426,6.426,0,0,0-6.4-4.094l-3,3.345a9.492,9.492,0,0,1,1.827,6.745c-.324,2.31-2.067,6.711-2.232,9.043-.358,5.077,1.383,8.769,5.43,10.873a5.212,5.212,0,0,0,3.19.691,3.157,3.157,0,0,0,2.5-2.157,4.684,4.684,0,0,0,5.618-.569,4.989,4.989,0,0,0,.574-6.127" transform="translate(-58.559 -39.775)" fill="#263238"/>
            <path id="Trazado_740672" data-name="Trazado 740672" d="M373.979,312.179a31.957,31.957,0,0,0,22.347-9.079c-2.536-2.745-5.381-5.424-7.322-6.21a51.53,51.53,0,0,0-9.876-2.411c-2.546-.314-3.027.175-3.027.175l-8.346-.468s-12.676,1.118-15.217,3.288c-.769.657-2,1.768-3.336,2.994a32,32,0,0,0,24.777,11.71" transform="translate(-52.652 -44.357)" fill="#ff9d00"/>
            <path id="Trazado_740673" data-name="Trazado 740673" d="M388.814,259.859a15.611,15.611,0,0,0-11.48-7.118,16.764,16.764,0,0,0-5.934.509,8.669,8.669,0,0,0-5.225,2.8,14.531,14.531,0,0,0-3.45,6.342,40.773,40.773,0,0,0-1.052,7.413,13.665,13.665,0,0,0,1.668,7.213l6.212,1.687c3.477.445,7.52,3.945,10.991,3.466s6.426-5.052,8.525-7.86c2.915-3.9,2.464-10.409-.255-14.449" transform="translate(-54.532 -38.093)" fill="#263238"/>
            <path id="Trazado_740674" data-name="Trazado 740674" d="M383.433,259.739l-8.106-4.133-2.223.049c-4.95-.445-8.873,4.694-9.28,8.7-.452,4.449-.829,9.9-.428,13.247.805,6.733,6.386,7.809,6.386,7.809s-.146,1.051-.4,3.264l-.642.754c1.21,3.523,6.875,3.979,12.072.56l.194-.251,4.437-27.53a2.356,2.356,0,0,0-2.014-2.468" transform="translate(-54.767 -38.54)" fill="#ae7461"/>
            <path id="Trazado_740675" data-name="Trazado 740675" d="M365.45,271.924a.859.859,0,0,0,.794.9.821.821,0,0,0,.915-.74.859.859,0,0,0-.793-.9.821.821,0,0,0-.915.74" transform="translate(-55.102 -40.888)" fill="#263238"/>
            <path id="Trazado_740676" data-name="Trazado 740676" d="M365.46,268.545c.1.116.771-.34,1.694-.3s1.582.526,1.687.416c.051-.048-.05-.254-.336-.48a2.359,2.359,0,0,0-1.346-.472,2.264,2.264,0,0,0-1.354.38c-.292.207-.4.406-.346.458" transform="translate(-55.102 -40.364)" fill="#263238"/>
            <path id="Trazado_740677" data-name="Trazado 740677" d="M371.208,276.466a6.115,6.115,0,0,0-1.49-.329c-.234-.033-.456-.088-.49-.251a1.205,1.205,0,0,1,.184-.693l.767-1.769a31.147,31.147,0,0,0,1.747-4.637,30.789,30.789,0,0,0-2.116,4.485q-.386.932-.737,1.781a1.363,1.363,0,0,0-.158.921.594.594,0,0,0,.375.359,1.63,1.63,0,0,0,.4.071,6.021,6.021,0,0,0,1.52.06" transform="translate(-55.62 -40.528)" fill="#263238"/>
            <path id="Trazado_740678" data-name="Trazado 740678" d="M370.9,290.328a17.026,17.026,0,0,0,9.053-2.047s-2.566,4.547-9.239,3.664Z" transform="translate(-55.896 -43.467)" fill="#6f4439"/>
            <path id="Trazado_740679" data-name="Trazado 740679" d="M366.181,264.808c.147.233.859.109,1.683.209.826.073,1.5.344,1.689.149.085-.1,0-.319-.275-.557a2.629,2.629,0,0,0-2.717-.288c-.319.175-.443.376-.38.487" transform="translate(-55.21 -39.816)" fill="#263238"/>
            <path id="Trazado_740680" data-name="Trazado 740680" d="M376.861,272.782a.859.859,0,0,1-.892.8.82.82,0,0,1-.824-.838.859.859,0,0,1,.89-.8.823.823,0,0,1,.825.84" transform="translate(-56.564 -41.003)" fill="#263238"/>
            <path id="Trazado_740681" data-name="Trazado 740681" d="M379.542,269.461c-.115.1-.727-.425-1.648-.493s-1.632.342-1.724.222c-.045-.054.078-.247.389-.439a2.354,2.354,0,0,1,1.39-.316,2.267,2.267,0,0,1,1.3.532c.267.239.347.448.291.494" transform="translate(-56.717 -40.473)" fill="#263238"/>
            <path id="Trazado_740682" data-name="Trazado 740682" d="M379.194,265.922c-.2.2-.892-.076-1.746-.151-.852-.1-1.59.021-1.739-.211-.065-.112.065-.313.4-.487a2.644,2.644,0,0,1,1.447-.235,2.612,2.612,0,0,1,1.361.527c.286.238.369.461.281.557" transform="translate(-56.647 -39.93)" fill="#263238"/>
            <path id="Trazado_740683" data-name="Trazado 740683" d="M386.638,276.117c.02-.5.641-1.651,1.136-1.709,1.322-.155,3.687.042,3.581,3.38-.145,4.564-5.709,3.554-5.714,3.423a35.647,35.647,0,0,0,1-5.094" transform="translate(-58.147 -41.37)" fill="#ae7461"/>
            <path id="Trazado_740684" data-name="Trazado 740684" d="M388.378,279.783c.02-.014.077.059.21.124a.8.8,0,0,0,.594.031,1.967,1.967,0,0,0,.966-1.736,2.618,2.618,0,0,0-.186-1.146.917.917,0,0,0-.578-.629.406.406,0,0,0-.476.2c-.065.126-.039.217-.064.224s-.1-.079-.053-.267a.508.508,0,0,1,.189-.28.6.6,0,0,1,.443-.1,1.118,1.118,0,0,1,.808.734,2.7,2.7,0,0,1,.235,1.281,2.066,2.066,0,0,1-1.223,1.934.852.852,0,0,1-.723-.144c-.138-.117-.159-.22-.143-.228" transform="translate(-58.559 -41.645)" fill="#6f4439"/>
            <path id="Trazado_740685" data-name="Trazado 740685" d="M385.892,271.479l-1.265,1.088c-4.533-5.23-13.146-18.071-12.67-17.31a14.563,14.563,0,0,1,7.185-.107c3.642.977,10.491,3.487,9.975,7.843a22.882,22.882,0,0,1-3.224,8.487" transform="translate(-56.081 -38.41)" fill="#263238"/>
            <path id="Trazado_740686" data-name="Trazado 740686" d="M392.414,270.493a1.153,1.153,0,0,0-.044-.261,4.437,4.437,0,0,0-.24-.72,6.443,6.443,0,0,0-1.67-2.238,12.316,12.316,0,0,0-3.585-2.127c-1.446-.618-3.092-1.146-4.677-2a22.017,22.017,0,0,1-4.177-2.841,22.854,22.854,0,0,1-2.858-2.966,24.166,24.166,0,0,1-1.6-2.268l-.391-.647a1.151,1.151,0,0,0-.149-.22,1.183,1.183,0,0,0,.108.241c.08.154.191.384.354.67a20.4,20.4,0,0,0,1.55,2.322,21.566,21.566,0,0,0,7.055,5.909,49.981,49.981,0,0,0,4.7,1.99,12.511,12.511,0,0,1,3.559,2.055,6.674,6.674,0,0,1,1.7,2.154c.274.591.341.951.365.945" transform="translate(-56.244 -38.329)" fill="#455a64"/>
            <path id="Trazado_740687" data-name="Trazado 740687" d="M391.375,271.779a2.4,2.4,0,0,0-.083-1.008,4.651,4.651,0,0,0-1.506-2.3,10.33,10.33,0,0,0-3.647-1.839,22.521,22.521,0,0,1-4.565-1.933,20.047,20.047,0,0,1-3.952-2.982,20.559,20.559,0,0,1-2.611-3.1,21.792,21.792,0,0,1-1.4-2.353c-.132-.273-.239-.5-.325-.672a1.153,1.153,0,0,0-.128-.229,1.118,1.118,0,0,0,.085.247c.076.183.171.411.287.692a18.512,18.512,0,0,0,1.342,2.407,19.642,19.642,0,0,0,6.585,6.188,22.053,22.053,0,0,0,4.614,1.935,10.421,10.421,0,0,1,3.608,1.759,4.7,4.7,0,0,1,1.525,2.2,5.417,5.417,0,0,1,.171.983" transform="translate(-56.265 -38.505)" fill="#455a64"/>
            <path id="Trazado_740688" data-name="Trazado 740688" d="M374.525,278.672a.713.713,0,0,1,.407-.107.582.582,0,0,1,.329.2A1.563,1.563,0,0,1,374,281.387a1.852,1.852,0,0,1-1.629-1.592c.675-.333,1.477-.79,2.152-1.123" transform="translate(-56.146 -42.001)" fill="#6f4439"/>
            <path id="Trazado_740689" data-name="Trazado 740689" d="M373.949,281.43a2.275,2.275,0,0,0,.923-.33,1.459,1.459,0,0,0,.586-.831,1.541,1.541,0,0,0-.2-1.21c-.125-.181-.287-.36-.447-.344a1.927,1.927,0,0,0-.559.233l-.992.49a4.582,4.582,0,0,1-.939.4,4.657,4.657,0,0,1,.869-.543l.971-.533a1.847,1.847,0,0,1,.64-.267.553.553,0,0,1,.391.147,1.533,1.533,0,0,1,.253.293,1.708,1.708,0,0,1,.214,1.388,1.581,1.581,0,0,1-.7.91,1.211,1.211,0,0,1-1.011.2" transform="translate(-56.138 -41.991)" fill="#263238"/>
            <path id="Trazado_740690" data-name="Trazado 740690" d="M395.313,266.409a2.718,2.718,0,0,1,.133.464,4.745,4.745,0,0,1,.114.555c.037.217.082.465.1.743.014.139.028.284.043.434s.013.31.019.473c.021.327,0,.677,0,1.045a14.756,14.756,0,0,1-.32,2.371,13.617,13.617,0,0,1-.745,2.275c-.166.329-.3.654-.476.932q-.122.211-.239.409l-.249.36a5.629,5.629,0,0,1-.459.594l-.2.235-.185.182a2.677,2.677,0,0,1-.358.323c-.029-.027.491-.485,1.1-1.4l.237-.361.227-.409c.168-.277.3-.6.456-.926a14.531,14.531,0,0,0,.723-2.25,15.792,15.792,0,0,0,.33-2.341c.009-.364.034-.71.02-1.034q-.005-.242-.009-.469c-.011-.149-.022-.293-.032-.431-.014-.275-.049-.522-.078-.74s-.053-.4-.085-.555a2.706,2.706,0,0,1-.07-.476" transform="translate(-59.179 -40.169)" fill="#455a64"/>
            <path id="Trazado_740691" data-name="Trazado 740691" d="M340.616,271.886s-.006-.176,0-.52c.014-.36.031-.867.055-1.527q.022-.506.047-1.126c.037-.412.117-.859.183-1.347s.147-1.011.229-1.57a16.994,16.994,0,0,1,.4-1.761,30.4,30.4,0,0,1,3.507-8.588,31.972,31.972,0,0,1,8.144-9.175l1.389-1.044c.488-.323,1-.619,1.512-.935.519-.3,1.011-.659,1.569-.915l1.67-.808.85-.406.893-.33,1.813-.667c.616-.206,1.26-.339,1.9-.515a16.552,16.552,0,0,1,1.951-.448,30.046,30.046,0,0,1,4.076-.482c.7-.026,1.4-.1,2.1-.086l2.135.105c.358.024.719.021,1.078.067l1.076.163c.718.117,1.45.2,2.171.348a33.932,33.932,0,0,1,4.306,1.255,33.461,33.461,0,0,1,4.212,1.843c.683.369,1.337.8,2.012,1.2.331.211.684.391,1,.629l.951.71a29.506,29.506,0,0,1,6.832,6.846l.743.994.651,1.062.65,1.068a8.131,8.131,0,0,1,.6,1.1l1.1,2.277.878,2.391a31.969,31.969,0,0,1,0,20.377q-.441,1.2-.877,2.392l-1.1,2.277a7.993,7.993,0,0,1-.6,1.1l-.65,1.069-.651,1.062-.743.993a29.5,29.5,0,0,1-6.834,6.849l-.951.71c-.315.239-.667.419-1,.629-.675.4-1.33.829-2.012,1.2a33.482,33.482,0,0,1-4.213,1.844,34.011,34.011,0,0,1-4.306,1.255c-.723.148-1.454.231-2.172.348l-1.076.163c-.358.046-.72.043-1.078.067l-2.136.105c-.706.009-1.407-.06-2.1-.086a29.9,29.9,0,0,1-4.077-.483,16.507,16.507,0,0,1-1.951-.448c-.638-.175-1.283-.309-1.9-.515l-1.812-.667-.893-.329-.85-.407-1.67-.808c-.557-.256-1.05-.617-1.569-.915-.509-.316-1.023-.611-1.511-.935l-1.389-1.044a31.96,31.96,0,0,1-8.144-9.175,30.419,30.419,0,0,1-3.506-8.588,17.379,17.379,0,0,1-.4-1.76q-.122-.839-.229-1.57c-.065-.487-.147-.934-.183-1.347q-.025-.619-.047-1.125c-.024-.66-.042-1.167-.055-1.527-.009-.344,0-.52,0-.52s.024.176.048.519c.024.359.057.865.1,1.522q.031.5.067,1.12c.043.411.132.855.2,1.339s.16,1,.248,1.56a17.459,17.459,0,0,0,.419,1.748,30.569,30.569,0,0,0,3.551,8.5,31.862,31.862,0,0,0,8.121,9.053l1.38,1.028c.484.318,1,.609,1.5.92.515.293,1,.649,1.556.9l1.657.794.842.4.885.322,1.794.653c.61.2,1.247.331,1.878.5a16.222,16.222,0,0,0,1.93.437,29.667,29.667,0,0,0,4.031.465c.688.024,1.38.091,2.078.08l2.109-.109c.354-.025.712-.023,1.065-.07l1.063-.163c.709-.118,1.431-.2,2.144-.349a33.743,33.743,0,0,0,4.25-1.247,33.174,33.174,0,0,0,4.155-1.827c.673-.365,1.318-.79,1.985-1.186.325-.209.674-.386.984-.622l.938-.7a29.168,29.168,0,0,0,6.735-6.766l.733-.98.641-1.049.64-1.055a7.968,7.968,0,0,0,.594-1.087l1.081-2.247q.431-1.176.865-2.359a31.563,31.563,0,0,0,0-20.1q-.433-1.183-.865-2.358l-1.081-2.246a7.862,7.862,0,0,0-.594-1.086l-.64-1.055-.641-1.048-.733-.981A29.151,29.151,0,0,0,391.6,246.3l-.938-.7c-.311-.236-.659-.414-.985-.622-.666-.395-1.31-.82-1.984-1.186a33.1,33.1,0,0,0-4.154-1.826,33.66,33.66,0,0,0-4.25-1.247c-.712-.148-1.434-.231-2.143-.349l-1.063-.163c-.353-.047-.711-.045-1.064-.07l-2.109-.109c-.7-.011-1.391.056-2.078.08a29.534,29.534,0,0,0-4.031.465,16.215,16.215,0,0,0-1.929.436c-.631.172-1.27.3-1.879.5l-1.794.653-.885.322-.842.4-1.656.793c-.553.251-1.041.607-1.556.9-.505.311-1.016.6-1.5.92l-1.38,1.028a31.86,31.86,0,0,0-8.121,9.053,30.583,30.583,0,0,0-3.553,8.5,17.4,17.4,0,0,0-.419,1.748q-.132.833-.248,1.56c-.072.484-.16.929-.2,1.339q-.037.616-.067,1.121c-.042.657-.076,1.163-.1,1.522-.025.343-.048.519-.048.519" transform="translate(-51.358 -36.132)" fill="#263238"/>
          </g>
        </g>
        <g id="Grupo_1035012" data-name="Grupo 1035012" transform="translate(0 10)">
          <g id="Grupo_1035011" data-name="Grupo 1035011" clip-path="url(#clip-path)">
            <path id="Trazado_740692" data-name="Trazado 740692" d="M301.012,120.087a38.364,38.364,0,1,0,38.364-38.364,38.365,38.365,0,0,0-38.364,38.364" transform="translate(-45.386 -12.322)" fill="#e0e0e0"/>
            <path id="Trazado_740693" data-name="Trazado 740693" d="M340.836,167.6a38.281,38.281,0,0,0,29.774-14.178c-3.086-3.363-6.6-6.7-8.975-7.661-5.106-2.066-15.436-2.674-15.436-2.674l-12-.673S320.029,144.5,316.99,147.1c-1.445,1.234-4,3.652-6.3,5.854A38.287,38.287,0,0,0,340.836,167.6" transform="translate(-46.846 -21.474)" fill="#ff9d00"/>
            <path id="Trazado_740694" data-name="Trazado 740694" d="M329.668,107.678A13.468,13.468,0,0,1,343.162,95.37l.7,0c7.518.481,11.309,7.133,10.62,14.635l-1.638,27.747L350.63,139.7a10.044,10.044,0,0,1-14.944-1.938c.1-2.119.2-4.493.183-4.495,0,0-7.223-1.163-7.274-8.392-.024-3.492.513-10.687,1.073-17.192" transform="translate(-49.545 -14.38)" fill="#ffc09d"/>
            <path id="Trazado_740695" data-name="Trazado 740695" d="M337.146,139.505a17.468,17.468,0,0,0,9.427-2.73s-2.295,5.421-9.5,4.731Z" transform="translate(-50.823 -20.623)" fill="#ff9b6c"/>
            <path id="Trazado_740696" data-name="Trazado 740696" d="M331.573,117.25a1.032,1.032,0,0,0,.989,1.047.987.987,0,0,0,1.069-.925,1.033,1.033,0,0,0-.988-1.048.988.988,0,0,0-1.07.926" transform="translate(-49.994 -17.539)" fill="#263238"/>
            <path id="Trazado_740697" data-name="Trazado 740697" d="M331.646,113.441c.127.135.912-.439,2.023-.43,1.11-.008,1.922.569,2.043.433.059-.059-.07-.3-.423-.564a2.835,2.835,0,0,0-1.635-.514,2.716,2.716,0,0,0-1.611.51c-.343.261-.46.5-.4.564" transform="translate(-50.003 -16.943)" fill="#263238"/>
            <path id="Trazado_740698" data-name="Trazado 740698" d="M343.292,117.608a1.033,1.033,0,0,0,.989,1.047.987.987,0,0,0,1.069-.926,1.033,1.033,0,0,0-.988-1.047.987.987,0,0,0-1.07.926" transform="translate(-51.761 -17.593)" fill="#263238"/>
            <path id="Trazado_740699" data-name="Trazado 740699" d="M344.466,113.815c.127.135.914-.439,2.024-.43,1.109-.007,1.922.569,2.043.434.059-.06-.069-.3-.424-.564a2.834,2.834,0,0,0-1.634-.515,2.733,2.733,0,0,0-1.612.51c-.342.261-.46.5-.4.564" transform="translate(-51.936 -16.999)" fill="#263238"/>
            <path id="Trazado_740700" data-name="Trazado 740700" d="M339.219,122.387a7.391,7.391,0,0,0-1.8-.335c-.284-.031-.552-.088-.6-.283a1.439,1.439,0,0,1,.194-.839q.405-1.028.85-2.155a37.072,37.072,0,0,0,1.915-5.64,37.316,37.316,0,0,0-2.364,5.472c-.284.757-.556,1.478-.815,2.169a1.643,1.643,0,0,0-.154,1.112.711.711,0,0,0,.465.417,1.911,1.911,0,0,0,.482.07,7.231,7.231,0,0,0,1.828.013" transform="translate(-50.721 -17.058)" fill="#263238"/>
            <path id="Trazado_740701" data-name="Trazado 740701" d="M344.066,109.707c.149.284,1.229-.008,2.541-.029,1.313-.048,2.406.189,2.54-.1.059-.139-.161-.4-.622-.628a4.421,4.421,0,0,0-3.871.1c-.448.256-.655.523-.588.659" transform="translate(-51.876 -16.367)" fill="#263238"/>
            <path id="Trazado_740702" data-name="Trazado 740702" d="M331.6,109.589c.226.256,1.135.014,2.223.025,1.087-.022,2,.21,2.222-.05.1-.125-.044-.38-.442-.628a3.715,3.715,0,0,0-3.582.02c-.389.251-.521.509-.421.633" transform="translate(-49.994 -16.357)" fill="#263238"/>
            <path id="Trazado_740703" data-name="Trazado 740703" d="M358.29,118.869c.123-.053,4.975-1.442,4.79,3.5s-5.107,3.737-5.111,3.594.321-7.093.321-7.093" transform="translate(-53.974 -17.89)" fill="#ffc09d"/>
            <path id="Trazado_740704" data-name="Trazado 740704" d="M359.828,124.434c.022-.014.084.064.227.137a.861.861,0,0,0,.643.037,2.13,2.13,0,0,0,1.057-1.873,2.854,2.854,0,0,0-.2-1.242,1,1,0,0,0-.622-.685.439.439,0,0,0-.516.217c-.071.136-.044.235-.07.243s-.1-.087-.055-.289a.543.543,0,0,1,.206-.3.649.649,0,0,1,.481-.109,1.212,1.212,0,0,1,.87.8,2.926,2.926,0,0,1,.247,1.389,2.238,2.238,0,0,1-1.336,2.087.92.92,0,0,1-.782-.16c-.149-.127-.171-.239-.153-.248" transform="translate(-54.254 -18.178)" fill="#ff9b6c"/>
            <path id="Trazado_740705" data-name="Trazado 740705" d="M343.168,125.031c-.17-.019-.23,1.115-1.242,1.87s-2.212.568-2.229.727c-.02.07.257.234.767.273a2.824,2.824,0,0,0,1.858-.542,2.462,2.462,0,0,0,.968-1.572c.068-.472-.044-.759-.122-.757" transform="translate(-51.219 -18.852)" fill="#263238"/>
            <path id="Trazado_740706" data-name="Trazado 740706" d="M318.472,99.8a1.172,1.172,0,0,1,.574-.664,3.6,3.6,0,0,1,1.859-.234,10.411,10.411,0,0,0,4.561-.976,5.153,5.153,0,0,1-1.3-.98,3.1,3.1,0,0,1-.783-3.116.687.687,0,0,1,.4-.459c.324-.087.594.239.809.5a2.671,2.671,0,0,0,2.475,1.153,4.372,4.372,0,0,0,1.9-.488c.022-.022.042-.046.065-.067.267-.256.527-.5.782-.736l0,0v0a16.363,16.363,0,0,1,5.238-3.6,16.8,16.8,0,0,1,8.987-.387,6.788,6.788,0,0,1,4.937,5.46,5.22,5.22,0,0,1,5.264-.306l.043-.018c1.89.75,2.9,2.81,3.4,4.781.026.108.05.217.075.325a7.592,7.592,0,0,0,2.486,2.606c.182.114.389.254.4.467s-.169.38-.346.5a3.8,3.8,0,0,1-1.572.589,8.621,8.621,0,0,0,.587,1.367c.2.374.444.82.242,1.194a.806.806,0,0,1-.858.338,2.363,2.363,0,0,1-.876-.434l.586,1.555a4.528,4.528,0,0,1-2.076-.212c-.471,1.811-.9,5.179-1.411,6.4a7.505,7.505,0,0,0-2.3.019c-.865.253-.593,1.78-1.691,1.31-.559-.239-1.353-2.419-1.523-3a28.235,28.235,0,0,1-.8-11.987,9.079,9.079,0,0,0-2.729-2.12l.083.08c-2-.774-4.257-1.545-6.207-.664-1.513.683-2.442,2.2-3.6,3.387a10.35,10.35,0,0,1-7.764,3.444c-.361,2.171-.572,5.736-.75,7.768l-1.594-4.137,0,.017c-.132-.244-.239-.489-.343-.734l-.036-.075v-.009a12.549,12.549,0,0,0-.532-1.178l-.02.016a1.273,1.273,0,0,1-1.8-1.766,2.869,2.869,0,0,1,.637-.6,2.013,2.013,0,0,1-1.934.429,1.581,1.581,0,0,1-1.062-1.6,1.342,1.342,0,0,1,.838-1.048,4.537,4.537,0,0,1-2.558-.66c-.5-.308-.982-.8-.786-1.439" transform="translate(-48.012 -13.463)" fill="#263238"/>
            <path id="Trazado_740707" data-name="Trazado 740707" d="M351.695,97.124a6.26,6.26,0,0,1,.7.689,5.206,5.206,0,0,1,1.024,2.441,9.129,9.129,0,0,1,.12,1.845c-.02.666-.1,1.377-.177,2.127a19.215,19.215,0,0,0-.138,2.369,8.273,8.273,0,0,0,.119,1.257,2.6,2.6,0,0,0,.467,1.231,1.093,1.093,0,0,0,1.008.38,1.625,1.625,0,0,0,.937-.487,3.744,3.744,0,0,0,.762-1.814l-.152.013a6.059,6.059,0,0,0,.826,1.546,2.157,2.157,0,0,0,1.38.816,1.393,1.393,0,0,0,.75-.1,1.2,1.2,0,0,0,.524-.481,1.243,1.243,0,0,0,.177-.635.9.9,0,0,0-.212-.571l-.079.065a4.675,4.675,0,0,0,1.512,1.22,4.29,4.29,0,0,0,.475.2.851.851,0,0,0,.172.048.849.849,0,0,0-.161-.076c-.106-.048-.264-.118-.459-.227a4.785,4.785,0,0,1-1.457-1.236l-.08.066a.927.927,0,0,1,.01,1.076,1.083,1.083,0,0,1-.474.425,1.251,1.251,0,0,1-.679.086,2.021,2.021,0,0,1-1.281-.774,6,6,0,0,1-.794-1.513l-.1-.235-.057.249a3.62,3.62,0,0,1-.725,1.733,1.462,1.462,0,0,1-.838.435.92.92,0,0,1-.858-.322,2.477,2.477,0,0,1-.431-1.152,8.226,8.226,0,0,1-.118-1.231,19.435,19.435,0,0,1,.127-2.35c.074-.75.148-1.464.162-2.139a9.125,9.125,0,0,0-.142-1.869,5.117,5.117,0,0,0-1.092-2.461,2.926,2.926,0,0,0-.752-.647" transform="translate(-53.028 -14.644)" fill="#455a64"/>
            <path id="Trazado_740708" data-name="Trazado 740708" d="M325.058,102.62a.281.281,0,0,0,.056.052l.176.138a2.356,2.356,0,0,0,.3.207,3.839,3.839,0,0,0,.431.247,6.411,6.411,0,0,0,3.076.667,8.207,8.207,0,0,0,4.422-1.456,14.213,14.213,0,0,0,3.9-4.189c.557-.857,1.017-1.739,1.519-2.552a9.614,9.614,0,0,1,1.694-2.144,4.945,4.945,0,0,1,2.129-1.191,3.531,3.531,0,0,1,1.1-.087,3.906,3.906,0,0,1,1,.228,4.191,4.191,0,0,1,2.254,2.049,4.973,4.973,0,0,1,.335,1.1.211.211,0,0,0,0-.076c-.008-.06-.016-.133-.026-.223a3.654,3.654,0,0,0-.246-.826,4.116,4.116,0,0,0-.77-1.127,4.24,4.24,0,0,0-1.5-1.006,3.958,3.958,0,0,0-1.031-.247,3.645,3.645,0,0,0-1.146.081,5.059,5.059,0,0,0-2.2,1.212,9.647,9.647,0,0,0-1.73,2.173c-.509.818-.969,1.7-1.521,2.547a14.2,14.2,0,0,1-3.848,4.151,8.15,8.15,0,0,1-4.338,1.467,6.516,6.516,0,0,1-3.043-.606,10.29,10.29,0,0,1-.993-.585" transform="translate(-49.012 -13.897)" fill="#455a64"/>
            <path id="Trazado_740709" data-name="Trazado 740709" d="M324.415,100.707a1.128,1.128,0,0,0,.253.19,5.675,5.675,0,0,0,.754.417,7.492,7.492,0,0,0,1.2.442,8.549,8.549,0,0,0,1.547.262,8.654,8.654,0,0,0,1.569-.051,7.524,7.524,0,0,0,1.25-.277,5.465,5.465,0,0,0,.8-.313,1.138,1.138,0,0,0,.277-.154c-.014-.029-.42.162-1.113.351a8.51,8.51,0,0,1-1.236.238,8.455,8.455,0,0,1-3.058-.206,8.63,8.63,0,0,1-1.193-.4c-.662-.28-1.039-.525-1.056-.5" transform="translate(-48.915 -15.184)" fill="#fff"/>
            <path id="Trazado_740710" data-name="Trazado 740710" d="M301.012,120.055s0-.21.008-.621.04-1.034.071-1.826q.025-.605.058-1.347c.044-.493.142-1.028.221-1.61s.178-1.208.277-1.878a20.6,20.6,0,0,1,.482-2.105,36.368,36.368,0,0,1,4.2-10.266,38.256,38.256,0,0,1,9.741-10.966l1.661-1.245c.584-.386,1.2-.74,1.807-1.118.621-.356,1.209-.788,1.876-1.093l2-.966,1.017-.485,1.067-.392,2.167-.8c.735-.245,1.507-.405,2.268-.614a19.4,19.4,0,0,1,2.332-.534,35.846,35.846,0,0,1,4.873-.577c.831-.031,1.669-.113,2.513-.1l2.551.126c.428.03.86.025,1.288.082l1.287.2c.859.14,1.732.239,2.594.417a40.708,40.708,0,0,1,5.145,1.5l1.281.469c.213.08.43.151.641.239l.618.3,2.494,1.2c.815.441,1.6.954,2.4,1.43.4.253.817.469,1.193.753l1.137.848a43.2,43.2,0,0,1,4.379,3.715l1.963,2.158.493.543.443.586.885,1.181.887,1.186.778,1.27.777,1.277.389.641.33.674,1.312,2.721,1.048,2.858a38.2,38.2,0,0,1,0,24.351l-1.049,2.858-1.312,2.722-.329.674-.39.641-.776,1.278-.779,1.269-.887,1.187-.885,1.182-.443.586-.493.543-1.964,2.159a43.522,43.522,0,0,1-4.379,3.715l-1.137.849c-.376.284-.8.5-1.193.752-.808.478-1.589.99-2.4,1.432l-2.494,1.2-.619.3c-.211.087-.428.16-.641.239l-1.281.467a40.473,40.473,0,0,1-5.145,1.5c-.864.177-1.737.277-2.6.417l-1.286.194c-.429.055-.861.053-1.288.081l-2.552.127c-.844.011-1.682-.071-2.513-.1a35.876,35.876,0,0,1-4.874-.577,20.055,20.055,0,0,1-2.331-.534c-.763-.211-1.534-.369-2.269-.615q-1.094-.4-2.167-.8l-1.067-.393-1.016-.485-2-.966c-.666-.306-1.255-.736-1.876-1.093-.608-.377-1.223-.731-1.806-1.118q-.841-.629-1.661-1.247a38.241,38.241,0,0,1-9.741-10.964,36.4,36.4,0,0,1-4.2-10.266,20.589,20.589,0,0,1-.482-2.105l-.276-1.878c-.079-.582-.177-1.117-.221-1.61q-.032-.741-.058-1.346c-.031-.793-.054-1.4-.071-1.826s-.008-.622-.008-.622.025.211.054.622.064,1.029.114,1.82q.034.6.078,1.342c.051.492.155,1.024.241,1.6l.3,1.867a20.558,20.558,0,0,0,.5,2.092,36.569,36.569,0,0,0,4.244,10.181,38.132,38.132,0,0,0,9.718,10.843l1.652,1.231c.58.38,1.191.729,1.8,1.1.617.35,1.2.778,1.862,1.077q.981.473,1.983.952l1.008.479c.352.127.7.256,1.06.386l2.149.782c.73.243,1.495.4,2.25.6a19.758,19.758,0,0,0,2.312.524,35.475,35.475,0,0,0,4.827.558c.823.029,1.653.11,2.489.1q1.253-.065,2.526-.13c.424-.03.852-.027,1.276-.082s.848-.132,1.273-.2c.849-.141,1.714-.241,2.568-.417a40.3,40.3,0,0,0,5.089-1.493l1.265-.465c.211-.08.426-.15.634-.239l.611-.295,2.466-1.19c.806-.437,1.579-.946,2.376-1.42.391-.249.808-.462,1.18-.745l1.124-.841a43.117,43.117,0,0,0,4.328-3.68l1.94-2.136.487-.538.438-.58.874-1.169.877-1.174.768-1.255.768-1.264.385-.634.325-.668q.646-1.34,1.3-2.691l1.035-2.825a37.809,37.809,0,0,0,0-24.074l-1.035-2.825q-.651-1.35-1.3-2.69c-.11-.222-.211-.448-.326-.667l-.386-.634-.767-1.264-.768-1.255-.878-1.174-.873-1.169-.438-.582-.487-.536-1.94-2.136a42.885,42.885,0,0,0-4.328-3.678l-1.124-.842c-.372-.282-.789-.494-1.179-.745-.8-.473-1.57-.982-2.376-1.419q-1.239-.6-2.465-1.191l-.611-.294c-.209-.087-.424-.159-.634-.238l-1.265-.465a40.476,40.476,0,0,0-5.089-1.493c-.854-.177-1.719-.276-2.568-.417l-1.272-.2c-.424-.056-.853-.054-1.275-.083l-2.526-.13c-.836-.013-1.664.068-2.488.1a35.488,35.488,0,0,0-4.827.559,19.388,19.388,0,0,0-2.311.523c-.756.206-1.519.362-2.25.6q-1.084.395-2.149.783l-1.06.386-1.008.478-1.983.952c-.662.3-1.246.726-1.863,1.077-.6.373-1.215.721-1.8,1.1l-1.653,1.23a38.147,38.147,0,0,0-9.718,10.844,36.569,36.569,0,0,0-4.246,10.181,21.145,21.145,0,0,0-.5,2.092q-.157,1-.295,1.867c-.086.58-.19,1.112-.242,1.6-.029.492-.055.94-.078,1.341q-.075,1.186-.114,1.822c-.029.41-.054.62-.054.62" transform="translate(-45.386 -12.29)" fill="#263238"/>
          </g>
        </g>
        <g id="Grupo_1035017" data-name="Grupo 1035017" transform="translate(0 10)">
          <g id="Grupo_1035016" data-name="Grupo 1035016" clip-path="url(#clip-path)">
            <path id="Trazado_740711" data-name="Trazado 740711" d="M105.106,98.5c-7.412,47.217-12.056,44.775-19.014,67.753-1.892,6.249-3.8,12.582-4.044,19.106-.2,5.28.671,10.767-1.175,15.718-1.461,3.917-4.6,7.567-3.937,11.693.922,5.731,8.08,7.646,13.847,8.311l59.643-2.417,7.595-81.058Z" transform="translate(-11.587 -14.851)" fill="#263238"/>
            <path id="Trazado_740712" data-name="Trazado 740712" d="M181.038,91.993c4.83,11,10.95,24.413,8.8,36.229-.611,3.355-1.784,6.818-.809,10.085,1.353,4.532,6.492,7.353,7.253,12.022.667,4.088-2.264,7.77-3.849,11.6-2.14,5.171-1.842,11-1.171,16.556s1.681,11.175.848,16.708-3.942,11.119-9.163,13.146l-22.639-10.3,4.3-96.1Z" transform="translate(-24.171 -13.871)" fill="#263238"/>
            <path id="Trazado_740713" data-name="Trazado 740713" d="M112.068,88.369c5.227-10.021,13.615-16.908,24.647-19.394,6.224-1.4,9.079-.644,13.83-.367A20.145,20.145,0,0,1,163.331,73.7c4.129,3.856,7.86,8.361,9.609,13.731,1.794,5.517,3.6,11.071,4.352,16.822s.4,11.775-1.977,17.067l-13.9,5.5c-7.908,1.929-15.928,3.869-24.066,3.668s-16.546-2.8-22.117-8.734c-7.74-8.238-8.391-23.366-3.164-33.387" transform="translate(-16.387 -10.276)" fill="#263238"/>
            <path id="Trazado_740714" data-name="Trazado 740714" d="M127.03,86.5l17.635-11.635,5.144-.461c11.31-2.311,21.7,8.52,23.679,17.65,2.2,10.144,4.484,22.614,4.429,30.439-.111,15.734-12.713,19.664-12.713,19.664l3.433,13.616,2.609,5.141,8.1,32.025-14.12,21.257L137.16,162.032,135.4,148.181,123.023,92.714A5.467,5.467,0,0,1,127.03,86.5" transform="translate(-18.537 -11.171)" fill="#ffc09d"/>
            <path id="Trazado_740715" data-name="Trazado 740715" d="M160.191,131.85a3.269,3.269,0,0,1,.7-2.208,3.351,3.351,0,0,1,3.93-1.055,4.485,4.485,0,0,1,2.527,3.773,4.077,4.077,0,0,1-2.513,2.25,4.77,4.77,0,0,1-.532.129,3.665,3.665,0,0,1-2.616-.453,3.26,3.26,0,0,1-1.494-2.436" transform="translate(-24.152 -19.35)" fill="#ff9b6c"/>
            <path id="Trazado_740716" data-name="Trazado 740716" d="M180.1,111.277a1.994,1.994,0,0,1-1.6,2.277,1.909,1.909,0,0,1-2.3-1.468,2,2,0,0,1,1.6-2.278,1.91,1.91,0,0,1,2.306,1.469" transform="translate(-26.563 -16.55)" fill="#263238"/>
            <path id="Trazado_740717" data-name="Trazado 740717" d="M178.264,101.794c-.205.294-1.867-.584-3.989-.257-2.124.3-3.516,1.623-3.786,1.4-.131-.1.049-.6.651-1.195a5.479,5.479,0,0,1,2.982-1.438,5.261,5.261,0,0,1,3.224.527c.729.4,1.02.832.917.966" transform="translate(-25.7 -15.115)" fill="#263238"/>
            <path id="Trazado_740718" data-name="Trazado 740718" d="M167.157,121.622a14.237,14.237,0,0,1,3.353-1.143c.533-.138,1.03-.324,1.065-.707a2.781,2.781,0,0,0-.6-1.55l-2.228-3.88c-3.116-5.534-5.46-10.117-5.235-10.239s2.932,4.261,6.048,9.794q1.132,2.05,2.165,3.915a3.168,3.168,0,0,1,.6,2.082,1.379,1.379,0,0,1-.771.927,3.713,3.713,0,0,1-.9.267,14,14,0,0,1-3.493.534" transform="translate(-24.651 -15.696)" fill="#263238"/>
            <path id="Trazado_740719" data-name="Trazado 740719" d="M168.928,153.8a39.6,39.6,0,0,1-21.428-2.37s7.1,9.82,22.275,6.051Z" transform="translate(-22.24 -22.832)" fill="#ff9b6c"/>
            <path id="Trazado_740720" data-name="Trazado 740720" d="M160.679,127.574c.341-.072.7,2.228,2.915,3.563s4.632.711,4.7,1.03c.054.139-.479.53-1.511.715a5.811,5.811,0,0,1-3.9-.729,5.045,5.045,0,0,1-2.3-3.01c-.234-.949-.064-1.558.1-1.569" transform="translate(-24.195 -19.235)" fill="#263238"/>
            <path id="Trazado_740721" data-name="Trazado 740721" d="M175.626,93.356c-.278.572-1.956.472-3.831.917-1.889.385-3.372,1.183-3.86.78-.221-.2-.09-.735.489-1.356a6.109,6.109,0,0,1,6.2-1.367c.782.32,1.121.752,1,1.027" transform="translate(-25.306 -13.871)" fill="#263238"/>
            <path id="Trazado_740722" data-name="Trazado 740722" d="M153.821,115.537a1.994,1.994,0,0,0,2.266,1.616A1.906,1.906,0,0,0,157.771,115a2,2,0,0,0-2.263-1.618,1.909,1.909,0,0,0-1.687,2.15" transform="translate(-23.19 -17.094)" fill="#263238"/>
            <path id="Trazado_740723" data-name="Trazado 740723" d="M146.006,107.557c.291.209,1.567-1.17,3.677-1.566,2.1-.425,3.855.366,4.036.064.091-.135-.245-.549-1.011-.911a5.484,5.484,0,0,0-3.291-.367,5.258,5.258,0,0,0-2.866,1.565c-.554.62-.686,1.124-.544,1.215" transform="translate(-22.007 -15.783)" fill="#263238"/>
            <path id="Trazado_740724" data-name="Trazado 740724" d="M145.833,99.3c.506.4,2.039-.406,3.99-.8,1.939-.456,3.674-.365,3.96-.938.121-.274-.231-.7-1.041-1.02a6.147,6.147,0,0,0-3.4-.166,6.07,6.07,0,0,0-3.006,1.567c-.6.624-.731,1.16-.5,1.358" transform="translate(-21.973 -14.508)" fill="#263238"/>
            <path id="Trazado_740725" data-name="Trazado 740725" d="M130.494,124.795c-.176-1.144-1.909-3.641-3.067-3.646-3.091-.014-8.5,1.054-7.387,8.725,1.521,10.486,11.745,6.8,11.719,6.495-.02-.237-.656-7.624-1.265-11.574" transform="translate(-18.077 -18.267)" fill="#ffc09d"/>
            <path id="Trazado_740726" data-name="Trazado 740726" d="M128.859,133.629c-.051-.027-.165.155-.453.341a1.852,1.852,0,0,1-1.363.226c-1.168-.246-2.356-1.87-2.68-3.753a6.072,6.072,0,0,1,.132-2.689,2.132,2.132,0,0,1,1.172-1.6.942.942,0,0,1,1.152.343c.183.273.147.493.206.5.033.022.2-.208.053-.628a1.181,1.181,0,0,0-.509-.6,1.4,1.4,0,0,0-1.05-.121,2.6,2.6,0,0,0-1.675,1.9,6.274,6.274,0,0,0-.21,3.015c.374,2.1,1.743,3.923,3.324,4.142a1.979,1.979,0,0,0,1.631-.52c.288-.306.309-.549.27-.562" transform="translate(-18.627 -18.938)" fill="#ff9b6c"/>
            <path id="Trazado_740727" data-name="Trazado 740727" d="M126.519,113.934l3.2,2.182c9.1-13.239,25.651-45.087,24.749-43.207a33.831,33.831,0,0,0-16.611,1.617c-8.154,3.2-23.309,10.761-20.987,20.673s9.647,18.736,9.647,18.736" transform="translate(-17.586 -10.934)" fill="#263238"/>
            <path id="Trazado_740728" data-name="Trazado 740728" d="M245.158,208.319s.091-7.049.719-8.46S259.8,195.2,259.8,195.2l4.831,3.666-4.831,7.649,1.441,6.142Z" transform="translate(-36.965 -29.432)" fill="#ffc09d"/>
            <path id="Trazado_740729" data-name="Trazado 740729" d="M256.341,210.112l-20.4-5.5-4.059,18.459L221.7,195.231c-4.748-13.309-11.244-17.894-15.724-19.135l-1.62,2.109,4.292,73.638,13.6,16.913c6.359,7.91,19.189,6.355,22.866-3.1,7.637-19.65,10.229-49.557,11.226-55.539" transform="translate(-30.813 -26.552)" fill="#636363"/>
            <path id="Trazado_740730" data-name="Trazado 740730" d="M86.967,386.651H200.762l-11.817-72.368c-20.766,4.271-46,1.067-72.739-4.655,0,0-12.547,11-16.7,23.908s-12.536,53.115-12.536,53.115" transform="translate(-13.113 -46.686)" fill="#12263f"/>
            <path id="Trazado_740731" data-name="Trazado 740731" d="M208.748,197.2a5.175,5.175,0,0,1,.172,1.067c.085.789.194,1.811.33,3.078.293,2.673.561,6.554.813,11.355.493,9.6.482,22.9,0,37.545s-.87,27.911-.74,37.51c.051,4.8.142,8.682.265,11.363.041,1.273.074,2.3.1,3.091a5.245,5.245,0,0,1-.022,1.082,5.246,5.246,0,0,1-.146-1.071c-.065-.791-.15-1.814-.256-3.084-.223-2.678-.4-6.566-.531-11.37-.284-9.612.017-22.9.494-37.545s.585-27.9.244-37.5c-.174-4.795-.352-8.676-.546-11.353-.071-1.271-.128-2.3-.173-3.088a5.292,5.292,0,0,1,0-1.083" transform="translate(-31.456 -29.733)" fill="#263238"/>
            <path id="Trazado_740732" data-name="Trazado 740732" d="M118.593,197.264,130,287.418l61.7,4.421,3.994,2.036-4.072-74.492L170.2,168.456l-2.151-1.31s-4.614,6.342-12.209,7.011c-7.818.689-15.536.581-22.746-11.83Z" transform="translate(-17.881 -24.475)" fill="#fff"/>
            <path id="Trazado_740733" data-name="Trazado 740733" d="M100.879,304.426,114,274.337l-6.657-52.178-5.694-44.626,19.353-7.8,7.78-9.1s8.609,25.148,10.709,33.85,8.1,27.835,10.786,44.987-.79,49.627-3.454,60.6S134.6,350.211,134.6,350.211L88.117,343.2a181.368,181.368,0,0,1,12.762-38.769" transform="translate(-13.286 -24.22)" fill="#636363"/>
            <path id="Trazado_740734" data-name="Trazado 740734" d="M175.357,161.7l6.7,5.349,19.552,6.874s5.758,22.551,5.985,29.5-.106,84.071.013,87.7,10.552,51.628,9.442,54.69h-13.4s-3.893-35.982-4.369-50.484,1.592-51.268-2-68.692-20.684-59.143-20.684-59.143Z" transform="translate(-26.44 -24.381)" fill="#636363"/>
            <path id="Trazado_740735" data-name="Trazado 740735" d="M201.054,304.364a1.259,1.259,0,0,1-.039-.361c-.011-.284-.024-.632-.039-1.058q-.028-1.492-.076-4.07c-.037-3.6-.088-8.7-.152-14.971-.119-12.64-.183-30.1-.5-49.382-.057-2.409-.1-4.791-.2-7.132-.063-2.321-.4-4.611-.645-6.877-.513-4.519-1.017-8.874-1.576-13.01s-1.163-8.057-1.906-11.686a50.019,50.019,0,0,0-3.14-9.767,127.918,127.918,0,0,0-6.774-13.307l-2.061-3.506-.538-.912a1.283,1.283,0,0,1-.164-.324,1.223,1.223,0,0,1,.23.28c.161.234.36.521.6.871.518.774,1.268,1.925,2.188,3.436a114.7,114.7,0,0,1,7.017,13.244,49.814,49.814,0,0,1,3.266,9.851c.775,3.648,1.4,7.578,1.983,11.722s1.1,8.5,1.624,13.021c.252,2.253.592,4.55.662,6.93.1,2.353.146,4.737.2,7.15.319,19.292.3,36.754.275,49.4-.039,6.271-.071,11.369-.094,14.971q-.043,2.577-.07,4.071c-.015.426-.028.775-.037,1.059a1.279,1.279,0,0,1-.04.36" transform="translate(-27.629 -25.331)" fill="#263238"/>
            <path id="Trazado_740736" data-name="Trazado 740736" d="M155.865,277.56a5.409,5.409,0,0,1-.206-1.08c-.1-.712-.232-1.765-.369-3.123-.265-2.718-.567-6.662-.645-11.548-.041-2.442-.022-5.12.076-7.99a34.713,34.713,0,0,0-1.427-8.926,147.472,147.472,0,0,0-7.6-19.577c-3.134-6.794-6.358-13.164-9.341-18.935a78.063,78.063,0,0,1-4-8.34,71.76,71.76,0,0,1-2.226-7.711c-1.127-4.765-1.782-8.666-2.215-11.363-.211-1.349-.357-2.4-.443-3.113a5.5,5.5,0,0,1-.089-1.095,6.261,6.261,0,0,1,.243,1.072q.222,1.163.587,3.088c.523,2.678,1.259,6.559,2.45,11.29a74.077,74.077,0,0,0,2.3,7.625,79.941,79.941,0,0,0,4.03,8.242c3.02,5.758,6.27,12.129,9.411,18.941a142.033,142.033,0,0,1,7.583,19.7,34.775,34.775,0,0,1,1.379,9.125c-.126,2.861-.176,5.527-.171,7.962.007,4.871.225,8.811.4,11.53q.14,1.955.225,3.131a6.374,6.374,0,0,1,.05,1.1" transform="translate(-19.205 -26.35)" fill="#263238"/>
            <path id="Trazado_740737" data-name="Trazado 740737" d="M210.095,192.214a5.406,5.406,0,0,1,.54.918c.347.608.789,1.538,1.337,2.748a55.371,55.371,0,0,1,3.345,10.723,81.621,81.621,0,0,1,1.614,16.581c-.022,6.279-.513,13.155-1.139,20.35-1.333,14.386-2.173,27.421-2.457,36.881-.166,4.727-.261,8.554-.318,11.2-.038,1.26-.068,2.272-.092,3.046a5.462,5.462,0,0,1-.085,1.062,5.43,5.43,0,0,1-.072-1.062c-.014-.775-.031-1.788-.054-3.049-.037-2.647-.025-6.479.07-11.213.142-9.468.9-22.548,2.23-36.931.627-7.189,1.136-14.047,1.2-20.284a84.447,84.447,0,0,0-1.437-16.471A60.539,60.539,0,0,0,211.692,196c-.5-1.22-.9-2.166-1.2-2.795a5.505,5.505,0,0,1-.4-.988" transform="translate(-31.678 -28.982)" fill="#263238"/>
            <path id="Trazado_740738" data-name="Trazado 740738" d="M174.349,270.382l4.784-.386-.533,21.737-4.66.962Z" transform="translate(-26.227 -40.71)" fill="#ebebeb"/>
            <path id="Trazado_740739" data-name="Trazado 740739" d="M101.44,180.535s-11.67,4.013-14.093,20.023c-2.639,17.434,4.241,47.836,4.529,58.861.213,8.143,5.558,26.912,22.937,26.264a272,272,0,0,0,46.673-6.224l-.079-22.825-41.332.029-4.1-38.735" transform="translate(-13.079 -27.221)" fill="#636363"/>
            <path id="Trazado_740740" data-name="Trazado 740740" d="M115.94,217.928s.042.227.1.674c.056.465.135,1.126.238,1.986.2,1.769.489,4.345.864,7.667.729,6.69,1.784,16.366,3.1,28.388l-.192-.172,41.333-.087h.251v.252c.031,7.245.062,14.9.1,22.825v.216l-.207.046a279.283,279.283,0,0,1-33.42,5.332c-4.715.443-9.374.772-14,.908a20.282,20.282,0,0,1-6.829-1.072,18.847,18.847,0,0,1-5.9-3.387A26.745,26.745,0,0,1,94,270.649a36.174,36.174,0,0,1-2.467-12.357c-.249-4.069-.836-8.027-1.353-11.87q-.8-5.767-1.546-11.187c-.948-7.225-1.709-13.982-1.972-20.183a68.365,68.365,0,0,1,.931-16.695,14.534,14.534,0,0,1,.447-1.765c.172-.571.317-1.14.5-1.682a30.247,30.247,0,0,1,1.278-3.055,25.079,25.079,0,0,1,3.075-4.893,22.712,22.712,0,0,1,6.007-5.232,15.816,15.816,0,0,1,1.848-.95,5.291,5.291,0,0,1,.664-.246s-.22.1-.64.3a18.12,18.12,0,0,0-1.815.994,23.137,23.137,0,0,0-5.9,5.271,25.05,25.05,0,0,0-3.005,4.873A30.246,30.246,0,0,0,88.809,195c-.18.539-.319,1.1-.487,1.67a14.435,14.435,0,0,0-.432,1.75,68.576,68.576,0,0,0-.842,16.61c.288,6.181,1.069,12.924,2.036,20.141q.762,5.41,1.574,11.179c.525,3.847,1.121,7.8,1.38,11.91a35.686,35.686,0,0,0,2.451,12.192,26.214,26.214,0,0,0,7.232,10.629,18.274,18.274,0,0,0,5.733,3.286,19.742,19.742,0,0,0,6.644,1.039c4.581-.138,9.249-.467,13.947-.909a281.435,281.435,0,0,0,33.35-5.3l-.206.262c-.022-7.929-.042-15.58-.063-22.824l.252.251-41.333-.031h-.174l-.018-.172c-1.237-12.03-2.233-21.712-2.922-28.406l-.763-7.677c-.079-.864-.14-1.525-.183-1.992-.038-.449-.044-.68-.044-.68" transform="translate(-13.05 -27.221)" fill="#263238"/>
            <path id="Trazado_740741" data-name="Trazado 740741" d="M120.9,281.109a12.982,12.982,0,0,1,4.309-10.929,20.707,20.707,0,0,0-4.309,10.929" transform="translate(-18.21 -40.737)" fill="#263238"/>
            <path id="Trazado_740742" data-name="Trazado 740742" d="M114.542,207.427a21.945,21.945,0,0,1-.744-2.751,43.9,43.9,0,0,0-5.431-12.5,22.255,22.255,0,0,1-1.5-2.421,10.946,10.946,0,0,1,1.83,2.2,34.2,34.2,0,0,1,5.486,12.624,10.991,10.991,0,0,1,.363,2.841" transform="translate(-16.112 -28.611)" fill="#263238"/>
            <path id="Trazado_740743" data-name="Trazado 740743" d="M236.469,289.549c-20.484-1.024-39.428-12.3-48.617-31.24-13.72-28.274-.581-63.079,29.289-77.586l58.882-28.6,10.156,20.93-58.882,28.6c-17.677,8.586-25.454,29.184-17.333,45.917a32.611,32.611,0,0,0,19.8,16.9,36.429,36.429,0,0,0,26.983-2.121l58.029-28.168,10.156,20.93-58.029,28.168a62.455,62.455,0,0,1-30.436,6.273" transform="translate(-27.504 -22.937)" fill="#7e5ee3"/>
            <path id="Trazado_740744" data-name="Trazado 740744" d="M305.189,262.388l10.225,20.9,28.032-13.608-10.156-20.93Z" transform="translate(-46.016 -37.506)" fill="#fff"/>
            <path id="Trazado_740745" data-name="Trazado 740745" d="M268.453,187.215l29.156-14.161-10.156-20.93-29.226,14.194Z" transform="translate(-38.935 -22.937)" fill="#fff"/>
            <g id="Grupo_1035015" data-name="Grupo 1035015" transform="translate(155.185 129.187)" opacity="0.3">
              <g id="Grupo_1035014" data-name="Grupo 1035014">
                <g id="Grupo_1035013" data-name="Grupo 1035013" clip-path="url(#clip-path-8)">
                  <path id="Trazado_740746" data-name="Trazado 740746" d="M236.469,289.549c-20.484-1.024-39.428-12.3-48.617-31.24-13.72-28.274-.581-63.079,29.289-77.586l58.882-28.6,10.156,20.93-58.882,28.6c-17.677,8.586-25.454,29.184-17.333,45.917a32.611,32.611,0,0,0,19.8,16.9,36.429,36.429,0,0,0,26.983-2.121l58.029-28.168,10.156,20.93-58.029,28.168a62.455,62.455,0,0,1-30.436,6.273" transform="translate(-182.413 -152.125)"/>
                </g>
              </g>
            </g>
            <path id="Trazado_740747" data-name="Trazado 740747" d="M231.3,278.991c-20.484-1.024-39.428-12.3-48.618-31.24-13.719-28.274-.581-63.079,29.29-77.587l58.881-28.6,10.157,20.93-58.882,28.6c-17.677,8.586-25.454,29.184-17.333,45.917a32.613,32.613,0,0,0,19.8,16.9,36.433,36.433,0,0,0,26.983-2.122l58.029-28.168,10.156,20.93-58.029,28.168a62.455,62.455,0,0,1-30.436,6.273" transform="translate(-26.725 -21.345)" fill="#7e5ee3"/>
            <path id="Trazado_740748" data-name="Trazado 740748" d="M300.022,251.826l10.225,20.9L338.309,259.1l-10.145-20.935Z" transform="translate(-45.237 -35.91)" fill="#fff"/>
            <path id="Trazado_740749" data-name="Trazado 740749" d="M263.287,176.657,292.443,162.5l-10.157-20.93L253.062,155.76Z" transform="translate(-38.156 -21.345)" fill="#fff"/>
            <path id="Trazado_740750" data-name="Trazado 740750" d="M262.047,187.352a.7.7,0,0,1,.149-.093l.457-.24,1.788-.9,6.75-3.343,23.586-11.544-.1.275c-2.8-5.753-5.88-12.066-9.1-18.67l-5.454-11.222.289.1-28.826,13.914-8.469,4.042-2.282,1.067-.594.267a.981.981,0,0,1-.208.079.968.968,0,0,1,.19-.115l.578-.3,2.25-1.133,8.413-4.158,28.759-14.053.194-.094.1.194c1.748,3.59,3.58,7.353,5.462,11.217l9.072,18.684.09.186-.185.089L271.3,183l-6.8,3.237-1.816.846-.472.21a.673.673,0,0,1-.165.061" transform="translate(-36.193 -21.294)" fill="#263238"/>
            <path id="Trazado_740751" data-name="Trazado 740751" d="M292.78,166.213c.053.11-8.3,4.278-18.645,9.309s-18.786,9.021-18.839,8.912,8.293-4.278,18.646-9.31,18.784-9.02,18.837-8.911" transform="translate(-38.493 -25.061)" fill="#263238"/>
            <path id="Trazado_740752" data-name="Trazado 740752" d="M308.667,283.711a.711.711,0,0,1,.148-.09l.45-.238q.636-.324,1.761-.892l6.648-3.292c5.728-2.8,13.784-6.745,23.208-11.355l-.1.277c-2.643-5.444-5.54-11.41-8.569-17.643l-5.94-12.27.286.1-27.015,13.026-7.9,3.765-2.125.992-.553.247a.939.939,0,0,1-.193.073.769.769,0,0,1,.177-.108l.536-.28,2.093-1.057c1.858-.917,4.519-2.233,7.843-3.877l26.947-13.166.193-.1.093.194,5.953,12.264c3.019,6.238,5.907,12.209,8.543,17.654l.09.188-.186.09-23.278,11.21c-2.847,1.354-5.116,2.434-6.7,3.185l-1.791.834-.465.206a.648.648,0,0,1-.163.059" transform="translate(-43.542 -35.859)" fill="#263238"/>
            <path id="Trazado_740753" data-name="Trazado 740753" d="M338.944,262.835c.053.11-7.633,3.951-17.164,8.577s-17.3,8.29-17.357,8.18,7.631-3.949,17.164-8.577,17.3-8.289,17.357-8.18" transform="translate(-45.901 -39.63)" fill="#263238"/>
            <path id="Trazado_740754" data-name="Trazado 740754" d="M272.958,189.4c.477.812.941,1.071.914,2.012a3,3,0,0,1-1.244,2.418,2.146,2.146,0,0,1-2.608-.164,3.532,3.532,0,0,1-5.023,4.11,1.416,1.416,0,0,1-.422-.255.588.588,0,0,1-.11-.2c-.124-.331-.189-.676-.336-1q-.083-.183-.18-.362a6.607,6.607,0,0,0-1.106-1.459,5.8,5.8,0,0,1-.623-.6,3.239,3.239,0,0,1-.224-.515,8.689,8.689,0,0,0-2.474-2.6,6.843,6.843,0,0,1-2.436-3.024c-.389-1.255.167-2.893,1.442-3.21a1.718,1.718,0,0,1-.559-2.205,2.486,2.486,0,0,1,2.047-1.25,4.62,4.62,0,0,1,2.406.588,1.9,1.9,0,0,1-.129-2.633,2.924,2.924,0,0,1,2.693-.83,6.722,6.722,0,0,1,2.65,1.23c.808.56,3.461,2.216,4.342,2.65l2.788,2.288a2.912,2.912,0,0,1-.471,4.869,1.868,1.868,0,0,1-1.336.143" transform="translate(-38.745 -26.865)" fill="#ffc09d"/>
            <path id="Trazado_740755" data-name="Trazado 740755" d="M263.658,203.368a2.82,2.82,0,0,1-2.032,1.186,2.418,2.418,0,0,1-2.082-.9,18.7,18.7,0,0,0,1.074-2.92,3.411,3.411,0,0,0,.065-.686c.066-.632-.919-1.388-1.231-1.94a2.159,2.159,0,0,1,.926-2.818,1.986,1.986,0,0,1,2.517.275,6.632,6.632,0,0,1,2.046,3.381,5.32,5.32,0,0,1-1.281,4.423" transform="translate(-39.086 -29.396)" fill="#ffc09d"/>
            <path id="Trazado_740756" data-name="Trazado 740756" d="M270.549,195c.058-.073-2.524-2.217-5.766-4.79s-5.919-4.6-5.978-4.525,2.524,2.217,5.767,4.79,5.919,4.6,5.977,4.525" transform="translate(-39.022 -27.997)" fill="#ff9b6c"/>
            <path id="Trazado_740757" data-name="Trazado 740757" d="M274.086,190.11a10.107,10.107,0,0,0-1.412-1.405c-.913-.825-2.22-1.917-3.731-3.033s-2.941-2.042-4-2.671a10,10,0,0,0-1.76-.935,13.885,13.885,0,0,0,1.632,1.137c1.021.679,2.42,1.631,3.925,2.74s2.826,2.166,3.776,2.943a13.784,13.784,0,0,0,1.568,1.224" transform="translate(-39.683 -27.451)" fill="#ff9b6c"/>
            <path id="Trazado_740758" data-name="Trazado 740758" d="M276.878,184.557a10.443,10.443,0,0,0-1.14-.919c-.726-.546-1.753-1.275-2.9-2.053s-2.2-1.464-2.964-1.959a13.077,13.077,0,0,0-1.252-.776,11.245,11.245,0,0,0,1.18.878c.745.523,1.785,1.227,2.933,2s2.179,1.484,2.923,2a14.423,14.423,0,0,0,1.222.823" transform="translate(-40.502 -26.967)" fill="#ff9b6c"/>
            <path id="Trazado_740759" data-name="Trazado 740759" d="M264.708,201.8a1.833,1.833,0,0,0,.614-1.112,4.268,4.268,0,0,0-.49-3.016,8.92,8.92,0,0,0-.945-1.4,6.527,6.527,0,0,0-.944-1.012,1.452,1.452,0,0,0-.9-.336c-.232,0-.344.078-.337.1a1.626,1.626,0,0,1,1.08.425,8.143,8.143,0,0,1,.851,1.019,10.516,10.516,0,0,1,.893,1.366,4.415,4.415,0,0,1,.554,2.809,7.192,7.192,0,0,1-.38,1.16" transform="translate(-39.46 -29.391)" fill="#ff9b6c"/>
            <path id="Trazado_740760" data-name="Trazado 740760" d="M219,261.961c-.359-1.967-2.974-1.673-3.814-1.131s-6.62,2.189-7.9,2.693-1.564-.227-1.8-1.084-.148-.992,3.227-2.323,3.593-1.311,3.928-2.6-1.35-3.157-3.044-2.91-11.454,4.513-11.454,4.513l3.5-5.043c.592-.779,2.07-3.185.743-4.512-.761-.761-2.25.422-3.025,1.168l-4.5,3.549s-3.445,2.881-6.168,4.8-6.022,8.547-6.022,8.547h-2.654l-.521,18.3,7.6-1.693s5.695.811,10.018-.789,12.727-7.548,14.244-8.778a3.6,3.6,0,0,0,1.433-2.779c3.121-1.442,1.371-4.541,1.371-4.541a7.418,7.418,0,0,1,1.732-.688c1.4-.448,3.454-2.733,3.1-4.7" transform="translate(-27.066 -37.592)" fill="#ffc09d"/>
            <path id="Trazado_740761" data-name="Trazado 740761" d="M212.178,272.663a37,37,0,0,0,6.908-2.165,37.524,37.524,0,0,0-6.908,2.165" transform="translate(-31.992 -40.784)" fill="#ff9b6c"/>
            <path id="Trazado_740762" data-name="Trazado 740762" d="M209.868,278.87a3.374,3.374,0,0,1,.952-.718c.671-.3,1.7-.6,2.8-.963a30.98,30.98,0,0,0,4-1.369,21.748,21.748,0,0,0-4.106,1.033,18.39,18.39,0,0,0-2.811,1.079c-.712.4-.883.936-.835.938" transform="translate(-31.643 -41.586)" fill="#ff9b6c"/>
            <path id="Trazado_740763" data-name="Trazado 740763" d="M233.79,254.782a4.691,4.691,0,0,1-.036-1.039c0-.668.034-1.633.092-2.825.114-2.385.362-5.675.792-9.294s.966-6.876,1.416-9.22c.225-1.173.422-2.118.575-2.768a4.746,4.746,0,0,1,.279-1,4.719,4.719,0,0,1-.11,1.033c-.117.749-.262,1.682-.436,2.79-.37,2.354-.853,5.609-1.285,9.219s-.726,6.886-.919,9.262c-.093,1.116-.171,2.058-.233,2.813a4.7,4.7,0,0,1-.136,1.03" transform="translate(-35.245 -34.473)" fill="#263238"/>
            <path id="Trazado_740764" data-name="Trazado 740764" d="M201.888,400.288c0,.122-26.223.221-58.563.221s-58.569-.1-58.569-.221,26.217-.221,58.569-.221,58.563.1,58.563.221" transform="translate(-12.779 -60.322)" fill="#455a64"/>
          </g>
        </g>
      </g>
    </g>
  </g>
</svg>
