<svg xmlns="http://www.w3.org/2000/svg" width="131.068" height="131.065" viewBox="0 0 131.068 131.065">
  <g id="Grupo_1035917" data-name="Grupo 1035917" transform="translate(-915 -6243.361)">
    <g id="Grupo_1035053" data-name="Grupo 1035053" transform="translate(915 6243.361)">
      <path id="Trazado_740803" data-name="Trazado 740803" d="M764.206,76.637a65.533,65.533,0,1,1-65.535,65.533,65.537,65.537,0,0,1,65.535-65.533m0,23.24A42.293,42.293,0,1,0,806.5,142.17a42.29,42.29,0,0,0-42.291-42.293" transform="translate(-698.671 -76.637)" fill="#81d4fa"/>
      <ellipse id="Elipse_5672" data-name="Elipse 5672" cx="48.419" cy="48.419" rx="48.419" ry="48.419" transform="translate(17.677 17.677)" fill="#fff"/>
    </g>
    <g id="_x35_0_Quality_Control" transform="translate(952.526 6272.409)">
      <g id="Grupo_1035052" data-name="Grupo 1035052" transform="translate(0)">
        <g id="Grupo_1035051" data-name="Grupo 1035051">
          <path id="Trazado_740809" data-name="Trazado 740809" d="M105.617,48.987a5.909,5.909,0,0,1,1.243-.349,8.35,8.35,0,0,0,6.906-9.459,6.01,6.01,0,0,1,1.677-5.166,8.367,8.367,0,0,0-.029-11.737,6,6,0,0,1-1.65-5.12,8.364,8.364,0,0,0-6.916-9.483,5.982,5.982,0,0,1-4.336-3.154A8.353,8.353,0,0,0,91.342.893a5.978,5.978,0,0,1-5.375,0A8.355,8.355,0,0,0,74.8,4.516a5.99,5.99,0,0,1-4.359,3.158,8.366,8.366,0,0,0-6.888,9.511A5.994,5.994,0,0,1,61.877,22.3,8.372,8.372,0,0,0,61.9,34.046a6,6,0,0,1,1.647,5.11,8.357,8.357,0,0,0,6.9,9.482,5.9,5.9,0,0,1,1.241.349L60.934,66.955a1.188,1.188,0,0,0,1.343,1.753l8.7-2.47,1.928,8.838a1.187,1.187,0,0,0,2.178.357l12.278-20.5a6,6,0,0,1,2.589,0l12.278,20.5a1.188,1.188,0,0,0,2.178-.357l1.928-8.838,8.7,2.47a1.188,1.188,0,0,0,1.343-1.753ZM74.589,71.64,73.03,64.5a1.187,1.187,0,0,0-1.485-.89l-7.033,2L73.686,50.29A5.918,5.918,0,0,1,74.8,51.8a8.351,8.351,0,0,0,9.066,4.351ZM84.9,53.309a5.969,5.969,0,0,1-7.983-2.6,8.365,8.365,0,0,0-6.081-4.42,5.98,5.98,0,0,1-4.932-6.8,8.391,8.391,0,0,0-2.341-7.146,5.983,5.983,0,0,1,.027-8.4A8.381,8.381,0,0,0,65.9,16.8a5.981,5.981,0,0,1,4.951-6.78A8.366,8.366,0,0,0,76.914,5.6,5.973,5.973,0,0,1,84.9,3.013a8.368,8.368,0,0,0,7.517,0A5.97,5.97,0,0,1,100.4,5.6a8.375,8.375,0,0,0,6.09,4.416,5.984,5.984,0,0,1,4.923,6.809,8.379,8.379,0,0,0,2.336,7.14,5.987,5.987,0,0,1-.03,8.408,8.422,8.422,0,0,0-2.3,7.138,5.975,5.975,0,0,1-4.935,6.778,8.362,8.362,0,0,0-6.081,4.42,5.97,5.97,0,0,1-7.986,2.6,8.368,8.368,0,0,0-7.513,0Zm20.871,10.3a1.188,1.188,0,0,0-1.485.89l-1.559,7.143L93.444,56.145a8.28,8.28,0,0,0,9.067-4.349,5.915,5.915,0,0,1,1.117-1.507L112.8,65.6Z" transform="translate(-59.484 0)" fill="#12263f"/>
          <path id="Trazado_740810" data-name="Trazado 740810" d="M173.207,89.372a17.481,17.481,0,1,0-17.481,17.494A17.5,17.5,0,0,0,173.207,89.372ZM155.725,104.49a15.112,15.112,0,1,1,15.106-15.118A15.129,15.129,0,0,1,155.725,104.49Z" transform="translate(-126.551 -61.218)" fill="#12263f"/>
          <path id="Trazado_740811" data-name="Trazado 740811" d="M220.464,152.239l-8.007,8.007-2.087-2.087a1.188,1.188,0,0,0-1.68,1.68l2.926,2.927a1.188,1.188,0,0,0,1.68,0l8.847-8.847a1.188,1.188,0,0,0-1.679-1.68Z" transform="translate(-186.243 -129.341)" fill="#12263f"/>
        </g>
      </g>
    </g>
  </g>
</svg>
