<svg xmlns="http://www.w3.org/2000/svg" width="131.068" height="131.065" viewBox="0 0 131.068 131.065">
  <g id="Grupo_1035918" data-name="Grupo 1035918" transform="translate(-343.932 -6408.338)">
    <g id="Grupo_1035054" data-name="Grupo 1035054" transform="translate(343.932 6408.338)">
      <path id="Trazado_740803" data-name="Trazado 740803" d="M764.206,76.637a65.533,65.533,0,1,1-65.535,65.533,65.537,65.537,0,0,1,65.535-65.533m0,23.24A42.293,42.293,0,1,0,806.5,142.17a42.29,42.29,0,0,0-42.291-42.293" transform="translate(-698.671 -76.637)" fill="#81d4fa"/>
      <ellipse id="Elipse_5672" data-name="Elipse 5672" cx="48.419" cy="48.419" rx="48.419" ry="48.419" transform="translate(17.677 17.677)" fill="#fff"/>
    </g>
    <g id="mano" transform="translate(375.287 6440.795)">
      <path id="Trazado_740812" data-name="Trazado 740812" d="M6.172,53H6.161a1.149,1.149,0,1,0,.011,0Z" transform="translate(0.713 1.808)" fill="#12263f"/>
      <path id="Trazado_740813" data-name="Trazado 740813" d="M67.368,39.255a5.866,5.866,0,0,0-.969.08l-.013,0-3.585.547V6.142c0-.022-.011-.039-.013-.059a1.145,1.145,0,0,0-.074-.376,1.161,1.161,0,0,0-.233-.351c-.006-.006-.007-.014-.013-.019A1.15,1.15,0,0,0,61.656,5H27.408a1.133,1.133,0,0,0-.444.088,1.149,1.149,0,0,0-.345.228c-.007.007-.017.009-.024.016h0l0,0-4.563,4.54a1.146,1.146,0,0,0-.249.372,1.127,1.127,0,0,0-.088.436h0v24H13.7V33.546A1.141,1.141,0,0,0,12.56,32.4H1.142A1.141,1.141,0,0,0,0,33.546V64.375a1.141,1.141,0,0,0,1.142,1.142H12.56A1.141,1.141,0,0,0,13.7,64.375v-.983l24.973,3.258a1.311,1.311,0,0,0,.148.009,1.111,1.111,0,0,0,.357-.066c.031-.01.061-.023.09-.034s.062-.021.091-.035l30.829-16.6.006,0c.009,0,.018-.007.026-.011a5.709,5.709,0,0,0-2.856-10.653ZM58.235,40.58V38.56l2.281-2.281v3.955ZM45.506,42.518a5.663,5.663,0,0,0-2.173-3.288H55.953v1.7ZM30.492,31.571a1.141,1.141,0,0,0-1.615,0l-2.284,2.284a1.132,1.132,0,0,0-.055,1.532l-2.563-.5V30.095H55.952v6.851H34.533l-6.608-1.288a1.123,1.123,0,0,0,.283-.188l2.284-2.284a1.141,1.141,0,0,0,0-1.615ZM27.872,7.284H58.893l-2.27,2.26H25.6ZM60.517,33.049l-2.281,2.283v-5.88l2.281-2.28ZM23.976,20.962H55.952v6.851H23.976Zm0-9.135H55.952v6.851H23.976Zm36.541,3-2.281,2.283V11.159l2.281-2.27Zm0,9.111-2.281,2.28V20.344l2.281-2.284Zm-49.1,39.291H2.284V34.687h9.135ZM69.1,47.919,38.6,64.337,13.7,61.089V36.971h9.025l17.8,3.471h.016s0,0,.008,0a3.426,3.426,0,0,1-.59,6.8,3.246,3.246,0,0,1-.351-.019c-.008,0-.014,0-.022,0s-.014,0-.022-.006L25.207,46.108a1.142,1.142,0,0,0-.176,2.277L39.394,49.5c.03,0,.061,0,.089,0h0c.159.014.316.027.478.027a5.71,5.71,0,0,0,5.609-4.713L66.76,41.592l.011,0h0a3.585,3.585,0,0,1,.591-.049,3.424,3.424,0,0,1,1.73,6.381Z" transform="translate(0 -5)" fill="#12263f"/>
      <path id="Trazado_740814" data-name="Trazado 740814" d="M47.175,12.979h-.013a1.148,1.148,0,1,0,.013,0Z" transform="translate(6.528 -3.868)" fill="#12263f"/>
      <path id="Trazado_740815" data-name="Trazado 740815" d="M25.616,12.313,23.333,14.6a1.142,1.142,0,1,0,1.615,1.615l2.284-2.284a1.142,1.142,0,0,0-1.615-1.615Z" transform="translate(3.262 -4.01)" fill="#12263f"/>
      <path id="Trazado_740816" data-name="Trazado 740816" d="M30.616,12.313,28.333,14.6a1.142,1.142,0,1,0,1.615,1.615l2.284-2.284a1.142,1.142,0,1,0-1.615-1.615Z" transform="translate(3.971 -4.01)" fill="#12263f"/>
      <path id="Trazado_740817" data-name="Trazado 740817" d="M35.616,12.313,33.333,14.6a1.142,1.142,0,1,0,1.615,1.615l2.284-2.284a1.142,1.142,0,0,0-1.615-1.615Z" transform="translate(4.68 -4.01)" fill="#12263f"/>
      <path id="Trazado_740818" data-name="Trazado 740818" d="M47.175,20.979h-.013a1.148,1.148,0,1,0,.013,0Z" transform="translate(6.528 -2.734)" fill="#12263f"/>
      <path id="Trazado_740819" data-name="Trazado 740819" d="M25.616,20.313,23.333,22.6a1.142,1.142,0,1,0,1.615,1.615l2.284-2.284a1.142,1.142,0,0,0-1.615-1.615Z" transform="translate(3.262 -2.876)" fill="#12263f"/>
      <path id="Trazado_740820" data-name="Trazado 740820" d="M30.616,20.313,28.333,22.6a1.142,1.142,0,1,0,1.615,1.615l2.284-2.284a1.142,1.142,0,1,0-1.615-1.615Z" transform="translate(3.971 -2.876)" fill="#12263f"/>
      <path id="Trazado_740821" data-name="Trazado 740821" d="M35.616,20.313,33.333,22.6a1.142,1.142,0,1,0,1.615,1.615l2.284-2.284a1.142,1.142,0,0,0-1.615-1.615Z" transform="translate(4.68 -2.876)" fill="#12263f"/>
      <path id="Trazado_740822" data-name="Trazado 740822" d="M47.175,31.263a1.142,1.142,0,0,0,0-2.284h-.013a1.142,1.142,0,0,0,.013,2.284Z" transform="translate(6.528 -1.599)" fill="#12263f"/>
      <path id="Trazado_740823" data-name="Trazado 740823" d="M29.14,32.546a1.139,1.139,0,0,0,.807-.335l2.284-2.284a1.142,1.142,0,0,0-1.615-1.615L28.333,30.6a1.142,1.142,0,0,0,.807,1.949Z" transform="translate(3.971 -1.741)" fill="#12263f"/>
      <path id="Trazado_740824" data-name="Trazado 740824" d="M34.14,32.546a1.139,1.139,0,0,0,.807-.335l2.284-2.284a1.142,1.142,0,0,0-1.615-1.615L33.333,30.6a1.142,1.142,0,0,0,.807,1.949Z" transform="translate(4.68 -1.741)" fill="#12263f"/>
    </g>
  </g>
</svg>
