<svg xmlns="http://www.w3.org/2000/svg" xmlns:xlink="http://www.w3.org/1999/xlink" width="131.068" height="131.065" viewBox="0 0 131.068 131.065">
  <defs>
    <clipPath id="clip-path">
      <path id="path2565" d="M0-682.665H64.92v64.92H0Z" transform="translate(0 682.665)" fill="#12263f"/>
    </clipPath>
  </defs>
  <g id="Grupo_1035920" data-name="Grupo 1035920" transform="translate(-343.932 -6752.338)">
    <g id="Grupo_1035056" data-name="Grupo 1035056" transform="translate(343.932 6752.338)">
      <path id="Trazado_740803" data-name="Trazado 740803" d="M764.206,76.637a65.533,65.533,0,1,1-65.535,65.533,65.537,65.537,0,0,1,65.535-65.533m0,23.24A42.293,42.293,0,1,0,806.5,142.17a42.29,42.29,0,0,0-42.291-42.293" transform="translate(-698.671 -76.637)" fill="#81d4fa"/>
      <ellipse id="Elipse_5672" data-name="Elipse 5672" cx="48.419" cy="48.419" rx="48.419" ry="48.419" transform="translate(17.677 17.677)" fill="#fff"/>
    </g>
    <g id="g2559" transform="translate(379.348 6787.529)">
      <g id="g2561">
        <g id="g2563" clip-path="url(#clip-path)">
          <g id="g2569" transform="translate(27.273 0.951)">
            <path id="path2571" d="M-118.028-28.384a6.752,6.752,0,0,1,1.164,3.8v4A1.585,1.585,0,0,1-118.449-19a1.585,1.585,0,0,1-1.585-1.585v-3.925a3.664,3.664,0,0,0-3.5-3.689,3.618,3.618,0,0,0-3.724,3.612v4A1.585,1.585,0,0,1-128.847-19a1.585,1.585,0,0,1-1.585-1.585v-4a6.784,6.784,0,0,1,6.784-6.784,6.778,6.778,0,0,1,1.994.3" transform="translate(130.432 31.367)" fill="none" stroke="#12263f" stroke-linecap="round" stroke-linejoin="round" stroke-miterlimit="10" stroke-width="2"/>
          </g>
          <g id="g2573" transform="translate(0.951 24.912)">
            <path id="path2575" d="M-458.4-215.153h.842a3.789,3.789,0,0,0,2.679-1.11l10.033-10.033a4.4,4.4,0,0,0,0-6.228,4.4,4.4,0,0,0-6.228,0l-6.714,6.714a3.79,3.79,0,0,1-2.679,1.11h-13.72a2.58,2.58,0,0,1-1.824-4.4l1.142-1.142a4.4,4.4,0,0,0,0-6.228,4.4,4.4,0,0,0-6.228,0l-6.387,6.387a6.925,6.925,0,0,0-1.882,3.456,5.347,5.347,0,0,1-1.457,2.654l-15.751,15.751v9.52h12.842l13.551-13.551a9.886,9.886,0,0,1,6.99-2.9h10.352" transform="translate(506.571 237.764)" fill="none" stroke="#12263f" stroke-linecap="round" stroke-linejoin="round" stroke-miterlimit="10" stroke-width="2"/>
          </g>
          <g id="g2577" transform="translate(21.1 22.789)">
            <path id="path2579" d="M-4.923,0-5.44,8.74" transform="translate(5.44)" fill="none" stroke="#12263f" stroke-linecap="round" stroke-linejoin="round" stroke-miterlimit="10" stroke-width="2"/>
          </g>
          <g id="g2581" transform="translate(21.879 8.503)">
            <path id="path2583" d="M0-93.784l.517-8.739A1.187,1.187,0,0,1,1.7-103.64H5.394" transform="translate(0 103.64)" fill="none" stroke="#12263f" stroke-linecap="round" stroke-linejoin="round" stroke-miterlimit="10" stroke-width="2"/>
          </g>
          <g id="g2585" transform="translate(30.443 8.502)">
            <path id="path2587" d="M-68.777,0h-7.228" transform="translate(76.005)" fill="none" stroke="#12263f" stroke-linecap="round" stroke-linejoin="round" stroke-miterlimit="10" stroke-width="2"/>
          </g>
          <g id="g2589" transform="translate(40.84 8.502)">
            <path id="path2591" d="M-47.127-280.448a1.509,1.509,0,0,0,1.506-1.6L-47.2-308.8a1.188,1.188,0,0,0-1.186-1.118h-3.69" transform="translate(52.08 309.921)" fill="none" stroke="#12263f" stroke-linecap="round" stroke-linejoin="round" stroke-miterlimit="10" stroke-width="2"/>
          </g>
          <g id="g2593" transform="translate(52.506 14.148)">
            <path id="path2595" d="M-60-28.578h-4.8a1.5,1.5,0,0,1-1.5-1.5,1.5,1.5,0,0,1,1.5-1.5H-60a1.5,1.5,0,0,1,1.5,1.5A1.5,1.5,0,0,1-60-28.578Z" transform="translate(66.307 31.581)" fill="none" stroke="#12263f" stroke-linecap="round" stroke-linejoin="round" stroke-miterlimit="10" stroke-width="2"/>
          </g>
          <g id="g2597" transform="translate(50.406 4.534)">
            <path id="path2599" d="M-56.716-24.393l-3.4,3.4a1.5,1.5,0,0,1-2.124,0,1.5,1.5,0,0,1,0-2.124l3.4-3.4a1.5,1.5,0,0,1,2.124,0A1.5,1.5,0,0,1-56.716-24.393Z" transform="translate(62.677 26.957)" fill="none" stroke="#12263f" stroke-linecap="round" stroke-linejoin="round" stroke-miterlimit="10" stroke-width="2"/>
          </g>
          <g id="g2601" transform="translate(50.406 20.365)">
            <path id="path2603" d="M-56.716-36.509l-3.4-3.4a1.5,1.5,0,0,0-2.124,0,1.5,1.5,0,0,0,0,2.124l3.4,3.4a1.5,1.5,0,0,0,2.124,0A1.5,1.5,0,0,0-56.716-36.509Z" transform="translate(62.677 40.346)" fill="none" stroke="#12263f" stroke-linecap="round" stroke-linejoin="round" stroke-miterlimit="10" stroke-width="2"/>
          </g>
          <g id="g2605" transform="translate(7.8 14.148)">
            <path id="path2607" d="M-14.289-28.578h4.8a1.5,1.5,0,0,0,1.5-1.5,1.5,1.5,0,0,0-1.5-1.5h-4.8a1.5,1.5,0,0,0-1.5,1.5A1.5,1.5,0,0,0-14.289-28.578Z" transform="translate(15.791 31.581)" fill="none" stroke="#12263f" stroke-linecap="round" stroke-linejoin="round" stroke-miterlimit="10" stroke-width="2"/>
          </g>
          <g id="g2609" transform="translate(11.307 4.534)">
            <path id="path2611" d="M-4.185-24.393l3.4,3.4a1.5,1.5,0,0,0,2.124,0,1.5,1.5,0,0,0,0-2.124l-3.4-3.4a1.5,1.5,0,0,0-2.124,0A1.5,1.5,0,0,0-4.185-24.393Z" transform="translate(4.625 26.957)" fill="none" stroke="#12263f" stroke-linecap="round" stroke-linejoin="round" stroke-miterlimit="10" stroke-width="2"/>
          </g>
          <g id="g2613" transform="translate(11.307 20.365)">
            <path id="path2615" d="M-4.185-36.509l3.4-3.4a1.5,1.5,0,0,1,2.124,0,1.5,1.5,0,0,1,0,2.124l-3.4,3.4a1.5,1.5,0,0,1-2.124,0A1.5,1.5,0,0,1-4.185-36.509Z" transform="translate(4.625 40.346)" fill="none" stroke="#12263f" stroke-linecap="round" stroke-linejoin="round" stroke-miterlimit="10" stroke-width="2"/>
          </g>
          <g id="g2617" transform="translate(46.859 28.863)">
            <path id="path2619" d="M-35.774-11.07a4.4,4.4,0,0,0-3.76-1.095" transform="translate(39.533 12.233)" fill="none" stroke="#12263f" stroke-linecap="round" stroke-linejoin="round" stroke-miterlimit="10" stroke-width="2"/>
          </g>
          <g id="g2621" transform="translate(47.13 28.862)">
            <path id="path2623" d="M-89.954-11.08a4.4,4.4,0,0,0-6.1.125L-99.408-7.6" transform="translate(99.408 12.244)" fill="none" stroke="#12263f" stroke-linecap="round" stroke-linejoin="round" stroke-miterlimit="10" stroke-width="2"/>
          </g>
        </g>
      </g>
    </g>
  </g>
</svg>
