<svg xmlns="http://www.w3.org/2000/svg" xmlns:xlink="http://www.w3.org/1999/xlink" width="179" height="179" viewBox="0 0 179 179">
  <defs>
    <filter id="Elipse_5648" x="0" y="0" width="179" height="179" filterUnits="userSpaceOnUse">
      <feOffset dy="3" input="SourceAlpha"/>
      <feGaussianBlur stdDeviation="3" result="blur"/>
      <feFlood flood-opacity="0.161"/>
      <feComposite operator="in" in2="blur"/>
      <feComposite in="SourceGraphic"/>
    </filter>
    <clipPath id="clip-path">
      <circle id="Elipse_5655" data-name="Elipse 5655" cx="62" cy="62" r="62" transform="translate(322 3098)" fill="#7e5ee3"/>
    </clipPath>
  </defs>
  <g id="Grupo_1035914" data-name="Grupo 1035914" transform="translate(-276 -2899.934)">
    <g id="Grupo_156250" data-name="Grupo 156250" transform="translate(0 -143.066)">
      <g transform="matrix(1, 0, 0, 1, 276, 3043)" filter="url(#Elipse_5648)">
        <circle id="Elipse_5648-2" data-name="Elipse 5648" cx="80.5" cy="80.5" r="80.5" transform="translate(9 6)" fill="#fff"/>
      </g>
      <circle id="Elipse_5649" data-name="Elipse 5649" cx="62" cy="62" r="62" transform="translate(302 3068)" fill="#7e5ee3"/>
      <g id="Enmascarar_grupo_173154" data-name="Enmascarar grupo 173154" transform="translate(-18 -32)" clip-path="url(#clip-path)">
        <g id="gestion-de-productos" transform="translate(338.936 3118.122)">
          <path id="Trazado_740077" data-name="Trazado 740077" d="M19.77,33.473a6.294,6.294,0,1,1,6.3-6.294,6.3,6.3,0,0,1-6.3,6.294Zm0-15.432a9.138,9.138,0,1,0,9.14,9.138A9.147,9.147,0,0,0,19.77,18.041ZM11.211,61.877a1.6,1.6,0,1,1-1.818-1.354A1.6,1.6,0,0,1,11.211,61.877Zm74.8-2.388L56.959,77.376a9.246,9.246,0,0,1-7.511,1.052L28.379,72.783a1.419,1.419,0,0,0-1.078.142l-3.2,1.848L16.181,60.782l11.93-6.907c2.67-1.544,5.556-2.84,8.585-1.857.972.315,2.094.72,3.392,1.191A82.856,82.856,0,0,0,53.236,57.1a3.181,3.181,0,0,1,2.181,3.792c-.561,2.1-2.307,2.355-3.7,2.194-2.358-.483-4.6-1.123-6.969-1.8-1.124-.32-2.286-.652-3.48-.972a1.422,1.422,0,1,0-.736,2.747c1.171.315,2.323.643,3.436.961,2.442.7,4.751,1.356,7.236,1.865l.027,0,.03.007,1.989.324A11.765,11.765,0,0,0,61.33,64.8l16-9.323c4.607-2.681,8.153-2.956,9.486-.73.917,1.534.506,3.924-.814,4.739ZM24.034,82.328a.948.948,0,0,0,.352-1.275l-13.2-23.327v0a.931.931,0,0,0-.563-.438.96.96,0,0,0-.256-.034.908.908,0,0,0-.453.12L5.419,59.914a.944.944,0,0,0-.352,1.272l13.2,23.329a.947.947,0,0,0,1.272.354ZM22.7,39.434a12.532,12.532,0,0,0,3.67-1.522,1.426,1.426,0,0,1,1.323-.089l1.761.782L31.2,36.858,30.415,35.1a1.426,1.426,0,0,1,.089-1.323A12.555,12.555,0,0,0,32.025,30.1a1.419,1.419,0,0,1,.873-1l1.8-.693v-2.47l-1.8-.694a1.418,1.418,0,0,1-.873-1,12.459,12.459,0,0,0-1.522-3.67,1.425,1.425,0,0,1-.089-1.323L31.2,17.5l-1.749-1.747-1.761.781a1.421,1.421,0,0,1-1.324-.089A12.535,12.535,0,0,0,22.7,14.923a1.419,1.419,0,0,1-1-.873l-.691-1.8H18.535l-.692,1.8a1.419,1.419,0,0,1-1,.873,12.557,12.557,0,0,0-3.669,1.522,1.417,1.417,0,0,1-1.322.089l-1.764-.781L8.342,17.5l.782,1.761a1.421,1.421,0,0,1-.089,1.324,12.482,12.482,0,0,0-1.519,3.669,1.423,1.423,0,0,1-.873,1l-1.8.694v2.47l1.8.693a1.416,1.416,0,0,1,.873,1,12.579,12.579,0,0,0,1.522,3.671A1.416,1.416,0,0,1,9.124,35.1l-.782,1.761,1.748,1.748,1.764-.782a1.419,1.419,0,0,1,1.322.089,12.575,12.575,0,0,0,3.669,1.522,1.42,1.42,0,0,1,1,.873l.692,1.8h2.472l.691-1.8a1.428,1.428,0,0,1,1-.873ZM58.163,61.629a6.251,6.251,0,0,1-.73,1.71,8.819,8.819,0,0,0,2.465-.993l2.262-1.318H58.289A5.4,5.4,0,0,1,58.163,61.629ZM42.456,10.617V29.763a1.423,1.423,0,0,0,1.421,1.422H60.756a1.423,1.423,0,0,0,1.422-1.422V10.617H76.1V52.911l-.2.112-8.86,5.162H58.015a6.253,6.253,0,0,0-3.985-3.814,1.29,1.29,0,0,0-.187-.049,80.28,80.28,0,0,1-12.789-3.789c-1.267-.458-2.463-.891-3.481-1.221-3.31-1.073-6.363-.206-9.041,1.108V41.311l.656.292a1.423,1.423,0,0,0,1.582-.3L33.9,38.18a1.428,1.428,0,0,0,.294-1.584l-.885-1.99A15.308,15.308,0,0,0,34.6,31.5l2.032-.782a1.418,1.418,0,0,0,.909-1.326V24.966a1.42,1.42,0,0,0-.909-1.326L34.6,22.857a15.26,15.26,0,0,0-1.287-3.106l.884-1.991a1.424,1.424,0,0,0-.3-1.582L30.771,13.05a1.422,1.422,0,0,0-1.582-.295l-.656.291v-2.43Zm2.844,0V28.342H59.334V10.617ZM89.259,53.29c-.735-1.23-3.487-4.591-10.314-1.786V9.195a1.424,1.424,0,0,0-1.422-1.422H27.111a1.423,1.423,0,0,0-1.422,1.422v3.721a15.288,15.288,0,0,0-1.6-.564l-.781-2.03a1.423,1.423,0,0,0-1.328-.912H17.558a1.424,1.424,0,0,0-1.328.912l-.782,2.03a15.4,15.4,0,0,0-3.1,1.289l-1.991-.885a1.424,1.424,0,0,0-1.584.295L5.641,16.178a1.421,1.421,0,0,0-.294,1.582l.884,1.991a15.4,15.4,0,0,0-1.289,3.106l-2.03.782A1.422,1.422,0,0,0,2,24.966v4.426a1.42,1.42,0,0,0,.912,1.326l2.03.782a15.356,15.356,0,0,0,1.289,3.107L5.347,36.6a1.423,1.423,0,0,0,.294,1.584l3.128,3.128a1.425,1.425,0,0,0,1.584.3l1.991-.885a15.392,15.392,0,0,0,3.1,1.288l.782,2.03a1.423,1.423,0,0,0,1.328.912h4.424a1.422,1.422,0,0,0,1.328-.912l.781-2.03a15.272,15.272,0,0,0,1.6-.561V51.992L14.78,58.308l-1.121-1.983A3.786,3.786,0,0,0,8.51,54.9l-4.492,2.54a3.784,3.784,0,0,0-1.427,5.149l13.2,23.329a3.781,3.781,0,0,0,3.295,1.916,3.741,3.741,0,0,0,1.854-.489L25.435,84.8a3.783,3.783,0,0,0,1.427-5.149L25.5,77.25l2.712-1.566,20.5,5.493a13.171,13.171,0,0,0,3.408.466A11.908,11.908,0,0,0,58.45,79.8L87.5,61.912c2.649-1.631,3.487-5.741,1.761-8.622Z" fill="#fff" fill-rule="evenodd"/>
        </g>
      </g>
    </g>
  </g>
</svg>
